<svg xmlns="http://www.w3.org/2000/svg" id="Capa_2" data-name="Capa 2" viewBox="0 0 447.43 349.89">
  <defs>
    <style>.cls-1{fill:#575756}</style>
  </defs>
  <path
    d="M17.04 17.25H33.4l16.96 60.04H35.5l-2.76-11.75H17.68l-2.75 11.75H0l17.04-60.04Zm13.13 37.29L25.22 33.4l-4.95 21.14h9.91ZM91.42 31.62H76.11v45.66H61.47V31.62H46.08V17.24h45.34v14.38ZM96.75 77.29V17.25h24.47c2.6 0 5 .59 7.21 1.78 2.2 1.18 4.1 2.78 5.7 4.78 1.6 2 2.84 4.24 3.72 6.72a22.36 22.36 0 0 1 1.31 7.53c0 2.31-.3 4.54-.9 6.68-.6 2.14-1.48 4.1-2.63 5.88a19.604 19.604 0 0 1-4.13 4.61l11.26 22.07H126.7l-9.38-18.43h-5.93V77.3H96.75Zm14.64-32.81h9.23c.6 0 1.18-.25 1.73-.76s1.01-1.24 1.39-2.2c.38-.96.56-2.11.56-3.47s-.21-2.58-.64-3.51c-.43-.93-.95-1.65-1.58-2.16-.63-.51-1.24-.76-1.84-.76h-8.86v12.85Z"
    class="cls-1"/>
  <path
    d="M159.73 17.25h16.36l16.96 60.04h-14.86l-2.76-11.75h-15.06l-2.75 11.75h-14.94l17.04-60.04Zm13.13 37.29-4.95-21.14-4.95 21.14h9.91ZM192.38 46.68c0-3.66.61-7.26 1.84-10.78a31.3 31.3 0 0 1 5.37-9.6c2.35-2.88 5.22-5.17 8.59-6.89 3.38-1.72 7.19-2.58 11.45-2.58 5.1 0 9.56 1.2 13.36 3.59 3.8 2.4 6.63 5.57 8.48 9.51l-11.18 8.96c-.65-1.97-1.59-3.49-2.81-4.57-1.23-1.07-2.55-1.82-3.98-2.24-1.43-.42-2.81-.63-4.17-.63-2.1 0-3.92.46-5.44 1.4-1.53.93-2.78 2.16-3.75 3.68s-1.7 3.21-2.18 5.07c-.48 1.86-.71 3.72-.71 5.58 0 2.09.27 4.09.83 6 .55 1.92 1.35 3.62 2.4 5.12 1.05 1.49 2.34 2.66 3.87 3.51 1.53.84 3.24 1.27 5.14 1.27 1.35 0 2.73-.24 4.13-.72s2.68-1.25 3.83-2.33c1.15-1.07 2.03-2.51 2.63-4.31l11.93 8.03c-1.05 2.93-2.8 5.44-5.25 7.53s-5.23 3.68-8.33 4.78c-3.1 1.1-6.18 1.65-9.23 1.65-3.95 0-7.57-.89-10.85-2.66a27.663 27.663 0 0 1-8.48-7.1c-2.38-2.96-4.22-6.29-5.52-9.98-1.3-3.69-1.95-7.45-1.95-11.29ZM243.42 46.68c0-3.66.61-7.26 1.84-10.78a31.3 31.3 0 0 1 5.37-9.6c2.35-2.88 5.22-5.17 8.59-6.89 3.38-1.72 7.19-2.58 11.45-2.58 5.1 0 9.56 1.2 13.36 3.59 3.8 2.4 6.63 5.57 8.48 9.51l-11.18 8.96c-.65-1.97-1.59-3.49-2.81-4.57-1.23-1.07-2.55-1.82-3.98-2.24-1.43-.42-2.81-.63-4.17-.63-2.1 0-3.92.46-5.44 1.4-1.53.93-2.78 2.16-3.75 3.68s-1.7 3.21-2.18 5.07c-.48 1.86-.71 3.72-.71 5.58 0 2.09.27 4.09.83 6 .55 1.92 1.35 3.62 2.4 5.12 1.05 1.49 2.34 2.66 3.87 3.51 1.53.84 3.24 1.27 5.14 1.27 1.35 0 2.73-.24 4.13-.72s2.68-1.25 3.83-2.33c1.15-1.07 2.03-2.51 2.63-4.31l11.93 8.03c-1.05 2.93-2.8 5.44-5.25 7.53s-5.23 3.68-8.33 4.78c-3.1 1.1-6.18 1.65-9.23 1.65-3.95 0-7.57-.89-10.85-2.66a27.663 27.663 0 0 1-8.48-7.1c-2.38-2.96-4.22-6.29-5.52-9.98-1.3-3.69-1.95-7.45-1.95-11.29ZM298.22 77.29V17.25h14.64v60.04h-14.64ZM346.03 77.71c-4.05 0-7.73-.86-11.03-2.58-3.3-1.72-6.14-4.03-8.52-6.93-2.38-2.9-4.2-6.17-5.48-9.81s-1.91-7.4-1.91-11.29.68-7.81 2.03-11.42c1.35-3.61 3.24-6.83 5.67-9.68 2.43-2.85 5.3-5.09 8.63-6.72 3.33-1.63 6.97-2.45 10.92-2.45s7.73.86 11.03 2.58c3.3 1.72 6.13 4.05 8.48 6.98 2.35 2.93 4.17 6.21 5.44 9.85 1.28 3.64 1.91 7.37 1.91 11.2s-.66 7.72-1.99 11.33c-1.33 3.61-3.2 6.84-5.63 9.68-2.43 2.85-5.29 5.1-8.59 6.76-3.3 1.66-6.96 2.49-10.96 2.49Zm-12.09-30.44c0 2.03.25 3.99.75 5.88.5 1.89 1.25 3.58 2.25 5.07 1 1.49 2.26 2.68 3.79 3.55 1.53.88 3.34 1.31 5.44 1.31s3.93-.45 5.48-1.35c1.55-.9 2.81-2.13 3.79-3.68.98-1.55 1.7-3.27 2.18-5.16.48-1.89.71-3.82.71-5.79s-.25-3.97-.75-5.83c-.5-1.86-1.25-3.54-2.25-5.03-1-1.49-2.28-2.66-3.83-3.51-1.55-.85-3.35-1.27-5.4-1.27s-3.92.45-5.44 1.35c-1.53.9-2.79 2.1-3.79 3.59-1 1.49-1.74 3.19-2.21 5.07-.48 1.89-.71 3.82-.71 5.79Zm16.89-32.56L341.82 12l3.75-12.01h12.69l-7.43 14.71ZM394.07 47.78v29.51h-14.64V17.25h11.41l21.39 30.53V17.25h14.64v60.04h-11.63l-21.17-29.51ZM436.78 90.56l2.7-13.28h-4.28V61.72h11.78v15.56l-4.05 13.28h-6.16ZM11.21 204.43V99.15h40.28c4.56 0 8.77 1.04 12.64 3.11 3.86 2.08 7.19 4.87 10 8.38 2.81 3.51 4.98 7.44 6.52 11.79 1.53 4.35 2.3 8.75 2.3 13.2 0 6.23-1.3 12.11-3.88 17.65-2.59 5.54-6.19 10.06-10.79 13.57-4.61 3.51-9.98 5.26-16.12 5.26H36.89v32.33H11.21Zm25.67-57.53h13.56c1.05 0 2.06-.34 3.03-1.04.96-.69 1.78-1.88 2.44-3.56.66-1.68.99-3.9.99-6.67 0-2.97-.37-5.26-1.12-6.9-.75-1.63-1.67-2.77-2.76-3.41-1.1-.64-2.17-.96-3.22-.96H36.9v22.54ZM135.34 205.18c-7.11 0-13.56-1.51-19.35-4.52-5.79-3.01-10.77-7.07-14.94-12.16s-7.37-10.83-9.61-17.2-3.36-12.97-3.36-19.8 1.18-13.69 3.55-20.02 5.68-11.99 9.94-16.98 9.3-8.92 15.14-11.79c5.83-2.87 12.22-4.3 19.15-4.3s13.56 1.51 19.35 4.52c5.79 3.02 10.75 7.09 14.87 12.23 4.12 5.14 7.31 10.9 9.54 17.28 2.24 6.38 3.36 12.93 3.36 19.65s-1.16 13.54-3.49 19.87c-2.33 6.33-5.62 11.99-9.87 16.98-4.26 4.99-9.28 8.95-15.07 11.86-5.79 2.92-12.2 4.37-19.22 4.37Zm-21.2-53.39c0 3.56.44 7 1.32 10.31.88 3.31 2.19 6.28 3.95 8.9 1.75 2.62 3.97 4.7 6.65 6.23 2.68 1.53 5.86 2.3 9.54 2.3s6.89-.79 9.61-2.37c2.72-1.58 4.94-3.73 6.65-6.45s2.98-5.73 3.82-9.05c.83-3.31 1.25-6.7 1.25-10.16s-.44-6.97-1.32-10.23c-.88-3.26-2.19-6.2-3.95-8.82-1.76-2.62-3.99-4.67-6.71-6.15-2.72-1.48-5.88-2.22-9.48-2.22s-6.87.79-9.54 2.37c-2.68 1.58-4.89 3.68-6.65 6.3-1.76 2.62-3.05 5.59-3.88 8.9-.83 3.31-1.25 6.7-1.25 10.16ZM193.91 204.43V99.15h35.94c10.35 0 19.02 2.35 26 7.04 6.98 4.7 12.24 11.02 15.8 18.98 3.55 7.96 5.33 16.78 5.33 26.47 0 10.68-1.95 19.97-5.86 27.88s-9.39 14.04-16.45 18.39c-7.06 4.35-15.33 6.52-24.81 6.52h-35.94Zm57-52.78c0-5.44-.83-10.21-2.5-14.31s-4.08-7.29-7.24-9.56c-3.16-2.27-6.93-3.41-11.32-3.41h-10.27v54.87h10.27c4.48 0 8.27-1.19 11.39-3.56 3.11-2.37 5.51-5.66 7.17-9.86 1.67-4.2 2.5-8.92 2.5-14.16ZM354.76 179.23v25.21h-66.6V99.16h65.42v25.21h-39.75v14.83h33.96v23.43h-33.96v16.61h40.94ZM366.74 204.43V99.15h42.91c4.56 0 8.77 1.04 12.64 3.11 3.86 2.08 7.19 4.87 10 8.38 2.81 3.51 4.98 7.44 6.52 11.79 1.53 4.35 2.3 8.75 2.3 13.2 0 4.05-.53 7.96-1.58 11.71-1.05 3.76-2.59 7.19-4.61 10.31-2.02 3.11-4.43 5.81-7.24 8.08l19.74 38.7h-28.17L402.8 172.1h-10.4v32.33h-25.67Zm25.67-57.53h16.19c1.05 0 2.06-.44 3.03-1.33.96-.89 1.78-2.17 2.44-3.86.66-1.68.99-3.71.99-6.08s-.37-4.52-1.12-6.15c-.75-1.63-1.67-2.89-2.76-3.78-1.1-.89-2.17-1.33-3.23-1.33h-15.53v22.54ZM7.78 317.61c0-3.81.64-7.55 1.91-11.22 1.28-3.66 3.14-6.99 5.58-9.98 2.45-2.99 5.43-5.38 8.94-7.17s7.48-2.68 11.91-2.68c5.31 0 9.94 1.25 13.9 3.74 3.96 2.49 6.9 5.79 8.82 9.9l-11.63 9.33c-.68-2.05-1.65-3.64-2.93-4.75-1.28-1.11-2.66-1.89-4.14-2.33-1.48-.44-2.93-.66-4.33-.66-2.19 0-4.07.48-5.66 1.45-1.59.97-2.89 2.24-3.9 3.83-1.02 1.58-1.77 3.34-2.26 5.28-.5 1.94-.74 3.87-.74 5.81 0 2.17.29 4.25.86 6.25.57 2 1.41 3.77 2.5 5.32 1.09 1.55 2.43 2.77 4.02 3.65 1.59.88 3.37 1.32 5.35 1.32 1.41 0 2.84-.25 4.29-.75 1.46-.5 2.78-1.3 3.98-2.42 1.2-1.11 2.11-2.61 2.73-4.49l12.42 8.36c-1.09 3.05-2.92 5.66-5.47 7.83a27.256 27.256 0 0 1-8.67 4.97c-3.23 1.14-6.43 1.71-9.6 1.71-4.11 0-7.87-.92-11.28-2.77-3.41-1.85-6.35-4.31-8.82-7.39-2.47-3.08-4.39-6.54-5.74-10.38-1.35-3.84-2.03-7.75-2.03-11.74ZM76.73 287h17.02l17.65 62.46H95.94l-2.87-12.23H77.41l-2.87 12.23H59L76.73 287Zm13.67 38.79-5.15-21.99-5.15 21.99h10.3ZM116.01 349.45v-62.46h21.32c6.14 0 11.28 1.39 15.42 4.18 4.14 2.79 7.26 6.54 9.37 11.26 2.11 4.72 3.16 9.96 3.16 15.7 0 6.33-1.16 11.85-3.47 16.54-2.32 4.69-5.57 8.33-9.76 10.91-4.19 2.58-9.1 3.87-14.72 3.87h-21.32Zm33.81-31.31c0-3.22-.5-6.05-1.48-8.49-.99-2.43-2.42-4.32-4.29-5.67-1.87-1.35-4.11-2.02-6.72-2.02h-6.09v32.55h6.09c2.65 0 4.91-.7 6.75-2.11 1.85-1.41 3.27-3.36 4.26-5.85.99-2.49 1.48-5.29 1.48-8.4ZM182.46 287h17.02l17.65 62.46h-15.46l-2.87-12.23h-15.66l-2.87 12.23h-15.54L182.46 287Zm13.66 38.79-5.15-21.99-5.15 21.99h10.3ZM260.94 349.89c-3.59 0-7.02-.72-10.27-2.15-3.25-1.44-6.13-3.55-8.63-6.33-2.5-2.78-4.46-6.16-5.9-10.12-1.43-3.96-2.15-8.49-2.15-13.59 0-4.4.73-8.47 2.19-12.23 1.46-3.75 3.47-7.05 6.05-9.9 2.58-2.84 5.58-5.06 9.02-6.64 3.44-1.58 7.16-2.38 11.17-2.38 5 0 9.53 1.22 13.59 3.65 4.06 2.43 7.08 5.76 9.06 9.98l-11.32 9.76c-1.09-2.46-2.73-4.44-4.92-5.94s-4.5-2.24-6.95-2.24c-1.82 0-3.49.41-5 1.23-1.51.82-2.82 1.97-3.94 3.43-1.12 1.47-1.98 3.21-2.58 5.23-.6 2.02-.9 4.24-.9 6.64s.31 4.69.94 6.69c.62 1.99 1.5 3.71 2.62 5.15 1.12 1.44 2.46 2.55 4.02 3.34 1.56.79 3.31 1.19 5.23 1.19 2.45 0 4.79-.69 7.03-2.07s4.27-3.33 6.09-5.85v16.71c-4.17 4.28-8.98 6.42-14.45 6.42Zm13.66-21.37h-10.23V316.2h22.8v33.25H274.6v-20.94ZM319.66 349.89c-4.22 0-8.04-.89-11.48-2.68a28.063 28.063 0 0 1-8.86-7.21c-2.47-3.02-4.37-6.42-5.7-10.2-1.33-3.78-1.99-7.7-1.99-11.74s.7-8.12 2.11-11.88 3.37-7.11 5.9-10.07a27.76 27.76 0 0 1 8.98-6.99c3.46-1.7 7.25-2.55 11.36-2.55s8.04.89 11.48 2.68c3.44 1.79 6.38 4.21 8.82 7.26 2.45 3.05 4.33 6.47 5.66 10.25 1.33 3.78 1.99 7.67 1.99 11.66s-.69 8.04-2.07 11.79-3.33 7.11-5.86 10.07c-2.53 2.96-5.51 5.31-8.94 7.04-3.44 1.73-7.24 2.59-11.4 2.59Zm-12.58-31.67c0 2.11.26 4.15.78 6.11.52 1.97 1.3 3.72 2.34 5.28 1.04 1.55 2.35 2.79 3.94 3.69 1.59.91 3.47 1.36 5.66 1.36s4.09-.47 5.7-1.41a11.28 11.28 0 0 0 3.94-3.83c1.02-1.61 1.77-3.4 2.26-5.37.49-1.96.74-3.97.74-6.03s-.26-4.13-.78-6.07c-.52-1.94-1.3-3.68-2.34-5.23a11.223 11.223 0 0 0-3.98-3.65c-1.61-.88-3.49-1.32-5.62-1.32s-4.07.47-5.66 1.41c-1.59.94-2.9 2.19-3.94 3.74-1.04 1.55-1.81 3.31-2.3 5.28-.5 1.96-.74 3.97-.74 6.03ZM396.73 301.95H380.8v47.5h-15.23v-47.5h-16.01V287h47.16v14.95ZM410 287h17.02l17.65 62.46h-15.46l-2.87-12.23h-15.66l-2.87 12.23h-15.54L410 287Zm13.67 38.79-5.15-21.99-5.15 21.99h10.3ZM19.79 220.33l8.26 21.25 8.46-21.25H50.3l-15.94 34.81v17.22H21.74v-17.37L6.06 220.33h13.73ZM98.89 259.9v12.46H65.98v-52.03h32.33v12.46H78.67v7.33h16.78v11.58H78.67v8.21H98.9ZM117.49 246.78v25.57h-12.68v-52.03h9.89l18.54 26.45v-26.45h12.68v52.03h-10.08l-18.34-25.57ZM186.76 259.9v12.46h-32.91v-52.03h32.33v12.46h-19.64v7.33h16.78v11.58h-16.78v8.21h20.23ZM192.68 272.35v-52.03h21.21c2.25 0 4.34.51 6.24 1.54 1.91 1.03 3.56 2.41 4.94 4.14 1.39 1.73 2.46 3.68 3.22 5.83.76 2.15 1.14 4.32 1.14 6.52 0 2-.26 3.93-.78 5.79a18.33 18.33 0 0 1-2.28 5.09c-1 1.54-2.19 2.87-3.58 3.99l9.76 19.12h-13.92l-8.13-15.97h-5.14v15.97h-12.68Zm12.69-28.43h8c.52 0 1.02-.22 1.5-.66.48-.44.88-1.07 1.2-1.91.33-.83.49-1.83.49-3s-.19-2.24-.55-3.04c-.37-.81-.82-1.43-1.37-1.87-.54-.44-1.07-.66-1.59-.66h-7.68v11.14ZM255.97 272.72c-2.99 0-5.84-.6-8.55-1.79-2.71-1.2-5.11-2.96-7.19-5.28-2.08-2.32-3.72-5.13-4.91-8.43s-1.79-7.07-1.79-11.32c0-3.66.61-7.06 1.82-10.19 1.21-3.12 2.89-5.87 5.04-8.24a23.13 23.13 0 0 1 7.51-5.53c2.86-1.32 5.96-1.98 9.3-1.98 4.16 0 7.94 1.01 11.32 3.04 3.38 2.03 5.9 4.8 7.55 8.32l-9.43 8.13c-.91-2.05-2.28-3.7-4.1-4.95-1.82-1.25-3.75-1.87-5.79-1.87-1.52 0-2.91.34-4.16 1.03-1.26.69-2.35 1.64-3.28 2.86-.93 1.22-1.65 2.67-2.15 4.36-.5 1.69-.75 3.53-.75 5.53s.26 3.91.78 5.57c.52 1.66 1.25 3.09 2.18 4.29.93 1.2 2.05 2.12 3.35 2.78 1.3.66 2.75.99 4.36.99 2.04 0 3.99-.57 5.85-1.72 1.86-1.15 3.56-2.77 5.07-4.87v13.92c-3.47 3.57-7.48 5.35-12.03 5.35Zm11.39-17.81h-8.52v-10.26h18.99v27.7h-10.47v-17.44ZM284.07 272.35v-52.03h12.68v52.03h-12.68Zm10.22-54.22-7.81-2.34 3.25-10.41h10.99l-6.44 12.75ZM315.36 220.33h14.18l14.7 52.03h-12.88l-2.39-10.19h-13.05l-2.39 10.19h-12.94l14.77-52.03Zm11.38 32.31-4.29-18.32-4.29 18.32h8.58ZM393.68 259.9v12.46h-32.91v-52.03h32.33v12.46h-19.64v7.33h16.78v11.58h-16.78v8.21h20.23ZM412.28 246.78v25.57H399.6v-52.03h9.89l18.54 26.45v-26.45h12.68v52.03h-10.08l-18.34-25.57Z"
    class="cls-1"/>
</svg>