<svg xmlns="http://www.w3.org/2000/svg" id="Capa_2" version="1.1" viewBox="0 0 551.3 233.7"><defs><style>.st0{isolation:isolate}</style></defs><g id="Capa_1-2"><g class="st0"><g class="st0"><path d="M27.6 14.6h14.9l26.2 71.7h-17l-5.6-16.1H23.8l-5.5 16.1H1.5l26.1-71.7Zm15.9 44.3-8.4-25.4-8.6 25.4h17ZM132.4 86.4V43.5l-15.6 31.2h-8.9L92.3 43.5v42.9H75.7V14.6h18l18.6 37.5L131 14.6h17.9v71.7h-16.6ZM193.5 72.2c2.8 0 5.2-.6 7.2-1.8 2-1.2 3.5-2.7 4.7-4.7 1.2-2 2.1-4.2 2.6-6.7s.8-5.1.8-7.7V14.6h16.6v36.7c0 5-.6 9.6-1.9 13.9-1.2 4.3-3.2 8.1-5.8 11.3-2.6 3.2-5.9 5.8-9.9 7.6-4 1.9-8.8 2.8-14.3 2.8s-10.6-1-14.6-2.9c-4-2-7.3-4.6-9.8-7.8-2.5-3.3-4.4-7.1-5.6-11.4-1.2-4.3-1.8-8.8-1.8-13.5V14.6h16.6v36.7c0 2.8.3 5.4.8 7.9s1.4 4.7 2.6 6.7c1.2 2 2.8 3.5 4.7 4.6 1.9 1.1 4.3 1.7 7.1 1.7ZM238.1 86.4V14.6h16.6v57.2h34.7v14.5h-51.3ZM347.6 71.8v14.5h-50.4V14.6h49.5v14.5h-32.9V43h28.3v13.4h-28.3v15.3h33.8Z"/></g><path d="M410.8 29.2H389v57.2h-16.6V29.2h-21.9V14.7h60.3v14.5ZM449.5 87c-5.3 0-10.2-1-14.5-3.1-4.4-2.1-8.1-4.8-11.2-8.2-3.1-3.4-5.5-7.3-7.2-11.7-1.7-4.4-2.6-8.9-2.6-13.5s.9-9.3 2.7-13.6c1.8-4.4 4.3-8.2 7.5-11.6 3.2-3.3 7-6 11.4-8s9.2-3 14.3-3 10.2 1 14.5 3.1c4.4 2.1 8.1 4.8 11.2 8.3 3.1 3.4 5.5 7.3 7.2 11.7 1.7 4.4 2.5 8.8 2.5 13.3s-.9 9.3-2.7 13.6c-1.8 4.4-4.3 8.2-7.4 11.6-3.2 3.3-6.9 6-11.3 8s-9.2 3-14.3 3Zm-18.7-36.4c0 2.8.4 5.4 1.2 8 .8 2.6 2 4.9 3.6 6.9s3.6 3.6 5.9 4.8c2.4 1.2 5 1.8 8.1 1.8s5.9-.6 8.3-1.9c2.4-1.3 4.3-2.9 5.9-5 1.5-2.1 2.7-4.4 3.5-7 .8-2.6 1.2-5.2 1.2-7.9s-.4-5.4-1.2-8c-.8-2.6-2-4.9-3.6-6.9s-3.6-3.6-5.9-4.7c-2.3-1.2-5-1.8-8-1.8s-5.9.6-8.2 1.9-4.3 2.9-5.9 4.9c-1.6 2-2.8 4.3-3.5 6.9-.8 2.6-1.2 5.2-1.2 7.9ZM537.8 35.7c-.2-.3-.9-.8-2.1-1.5-1.2-.7-2.7-1.5-4.5-2.3-1.8-.8-3.8-1.5-6-2.1-2.2-.6-4.3-.9-6.5-.9-5.9 0-8.9 2-8.9 6s.3 2.2 1 3c.6.8 1.6 1.5 2.8 2.2 1.2.6 2.8 1.2 4.7 1.8 1.9.5 4.1 1.1 6.6 1.8 3.4.9 6.5 2 9.3 3.1 2.8 1.1 5.1 2.5 7 4.1 1.9 1.7 3.4 3.7 4.4 6 1 2.4 1.6 5.2 1.6 8.5s-.8 7.5-2.3 10.3c-1.5 2.8-3.5 5-6 6.8-2.5 1.7-5.4 3-8.6 3.7-3.2.8-6.6 1.2-10 1.2s-5.3-.2-8.1-.6c-2.8-.4-5.5-1-8.1-1.8-2.6-.8-5.2-1.7-7.6-2.8-2.5-1.1-4.7-2.3-6.8-3.7l7.3-14.4c.3.3 1.1 1 2.6 1.9 1.5.9 3.3 1.9 5.5 2.8 2.2.9 4.6 1.8 7.3 2.5s5.4 1.1 8.2 1.1c5.9 0 8.8-1.8 8.8-5.4s-.4-2.5-1.3-3.3c-.9-.9-2.1-1.7-3.6-2.4s-3.4-1.4-5.5-2c-2.1-.6-4.4-1.3-6.9-2-3.3-1-6.2-2.1-8.6-3.3-2.4-1.2-4.4-2.5-6-4.1-1.6-1.5-2.8-3.3-3.5-5.4-.8-2-1.2-4.4-1.2-7.1s.7-7.1 2.1-10c1.4-2.9 3.3-5.3 5.8-7.3 2.4-2 5.2-3.5 8.4-4.5s6.6-1.5 10.2-1.5 4.9.2 7.4.7c2.4.5 4.7 1.1 7 1.8 2.2.7 4.3 1.6 6.2 2.5 1.9.9 3.7 1.9 5.3 2.8l-7.3 13.7Z" class="st0"/></g><g class="st0"><g class="st0"><path d="M5.8 214.7v-60.4h25.8c2.9 0 5.5.6 8 1.8 2.4 1.2 4.5 2.8 6.2 4.7 1.7 1.9 3.1 4.1 4.1 6.6 1 2.4 1.5 4.9 1.5 7.4s-.5 5.2-1.4 7.7c-.9 2.4-2.2 4.6-3.9 6.6-1.7 1.9-3.7 3.5-6.1 4.6-2.4 1.1-5 1.7-7.9 1.7H19.8v19.5h-14ZM19.7 183h11.4c1.6 0 3.1-.7 4.3-2.1 1.2-1.4 1.8-3.5 1.8-6.2s-.2-2.6-.6-3.7c-.4-1-.9-1.9-1.5-2.6-.6-.7-1.3-1.2-2.1-1.5-.8-.3-1.6-.5-2.4-.5H19.7v16.5ZM85.2 215.2c-4.5 0-8.6-.9-12.3-2.6-3.7-1.8-6.8-4.1-9.4-6.9-2.6-2.9-4.6-6.1-6.1-9.8-1.4-3.7-2.2-7.5-2.2-11.4s.8-7.8 2.3-11.5c1.5-3.7 3.6-6.9 6.3-9.7 2.7-2.8 5.9-5 9.6-6.7 3.7-1.7 7.7-2.5 12.1-2.5s8.6.9 12.3 2.6c3.7 1.8 6.8 4.1 9.4 7 2.6 2.9 4.6 6.2 6 9.9 1.4 3.7 2.1 7.4 2.1 11.2s-.8 7.8-2.3 11.5c-1.5 3.7-3.6 6.9-6.3 9.7-2.7 2.8-5.8 5.1-9.5 6.8-3.7 1.7-7.7 2.6-12.1 2.6Zm-15.7-30.6c0 2.3.3 4.6 1 6.8s1.7 4.1 3 5.8c1.3 1.7 3 3.1 5 4.1 2 1 4.3 1.5 6.8 1.5s5-.5 7-1.6 3.6-2.5 4.9-4.2c1.3-1.7 2.3-3.7 2.9-5.9.7-2.2 1-4.4 1-6.7s-.3-4.6-1-6.8-1.7-4.1-3.1-5.8c-1.4-1.7-3-3-5-4s-4.2-1.5-6.8-1.5-5 .5-6.9 1.6c-2 1-3.6 2.4-4.9 4.1-1.3 1.7-2.3 3.6-3 5.8-.7 2.2-1 4.4-1 6.7ZM123.4 214.7v-60.4h27.2c2.8 0 5.5.6 7.9 1.8 2.4 1.2 4.5 2.8 6.3 4.7 1.8 1.9 3.1 4.1 4.1 6.6 1 2.4 1.5 4.9 1.5 7.4s-.2 3.7-.7 5.4c-.5 1.7-1.1 3.4-2 4.9-.9 1.5-1.9 2.9-3.1 4.1s-2.6 2.3-4.1 3.1l13.3 22.5h-15.7l-11.6-19.5h-9.1v19.5h-14Zm14-31.7h12.8c1.6 0 3.1-.8 4.3-2.3 1.2-1.6 1.8-3.6 1.8-6s-.7-4.5-2-6c-1.4-1.5-2.8-2.2-4.4-2.2h-12.3V183ZM200.3 214.7v-60.4h22.5c5 0 9.4.8 13.1 2.4 3.7 1.6 6.9 3.7 9.4 6.5 2.5 2.7 4.4 5.9 5.7 9.6 1.3 3.7 1.9 7.6 1.9 11.7s-.7 8.8-2.1 12.5c-1.4 3.7-3.4 6.9-6.1 9.5-2.6 2.6-5.8 4.7-9.5 6.1-3.7 1.4-7.8 2.2-12.4 2.2h-22.5Zm38.4-30.3c0-2.7-.4-5.1-1.1-7.3-.7-2.2-1.7-4.1-3.1-5.7-1.4-1.6-3-2.8-5-3.7-2-.9-4.2-1.3-6.7-1.3h-8.6v35.9h8.6c2.6 0 4.8-.5 6.8-1.4 2-.9 3.6-2.2 5-3.8 1.3-1.6 2.4-3.5 3.1-5.7.7-2.2 1.1-4.6 1.1-7.2ZM287.7 215.2c-4.5 0-8.6-.9-12.3-2.6-3.7-1.8-6.8-4.1-9.4-6.9-2.6-2.9-4.6-6.1-6.1-9.8-1.4-3.7-2.2-7.5-2.2-11.4s.8-7.8 2.3-11.5c1.5-3.7 3.6-6.9 6.3-9.7 2.7-2.8 5.9-5 9.6-6.7 3.7-1.7 7.7-2.5 12.1-2.5s8.6.9 12.3 2.6c3.7 1.8 6.8 4.1 9.4 7s4.6 6.2 6 9.9c1.4 3.7 2.1 7.4 2.1 11.2s-.8 7.8-2.3 11.5c-1.5 3.7-3.6 6.9-6.3 9.7s-5.8 5.1-9.5 6.8c-3.7 1.7-7.7 2.6-12.1 2.6Zm-15.8-30.6c0 2.3.3 4.6 1 6.8s1.7 4.1 3 5.8c1.3 1.7 3 3.1 5 4.1 2 1 4.3 1.5 6.8 1.5s5-.5 7-1.6 3.6-2.5 4.9-4.2c1.3-1.7 2.3-3.7 2.9-5.9.7-2.2 1-4.4 1-6.7s-.3-4.6-1-6.8-1.7-4.1-3.1-5.8c-1.4-1.7-3-3-5-4s-4.2-1.5-6.8-1.5-5 .5-6.9 1.6-3.6 2.4-4.9 4.1c-1.3 1.7-2.3 3.6-3 5.8-.7 2.2-1 4.4-1 6.7ZM322.4 184c0-3.6.7-7.2 2-10.8 1.4-3.6 3.3-6.8 6-9.7 2.6-2.8 5.8-5.1 9.5-6.9 3.7-1.8 8-2.6 12.8-2.6s10.6 1.2 14.8 3.7c4.2 2.4 7.3 5.6 9.3 9.5l-10.7 7.5c-.7-1.6-1.5-2.9-2.6-4-1-1-2.2-1.9-3.4-2.6-1.2-.7-2.5-1.1-3.8-1.4-1.3-.3-2.6-.4-3.8-.4-2.7 0-5 .5-7 1.6s-3.6 2.5-4.9 4.2-2.3 3.6-2.9 5.8c-.6 2.2-.9 4.3-.9 6.6s.4 4.7 1.1 6.9c.7 2.2 1.8 4.2 3.2 5.9 1.4 1.7 3.1 3 5 4 2 1 4.2 1.5 6.6 1.5s2.5-.2 3.9-.5c1.3-.3 2.6-.8 3.8-1.4 1.2-.7 2.3-1.5 3.4-2.6 1-1 1.8-2.3 2.5-3.9l11.4 6.7c-.9 2.2-2.3 4.2-4 6-1.8 1.8-3.8 3.2-6.2 4.4-2.3 1.2-4.8 2.1-7.4 2.7-2.6.6-5.2.9-7.7.9-4.4 0-8.4-.9-12-2.7-3.7-1.8-6.8-4.2-9.4-7.1-2.6-2.9-4.7-6.3-6.1-10-1.4-3.7-2.2-7.5-2.2-11.4ZM426.8 202.4v12.3h-42.5v-60.4H426v12.3h-27.7v11.7h23.8v11.3h-23.8v12.8h28.5ZM449.3 180.1v34.5h-14v-60.4h10.9l28.2 35.5v-35.5h14v60.4h-11.2l-27.8-34.5Z"/></g><path d="M516.6 154.3h12.6l22 60.4h-14.3l-4.7-13.5h-18.8l-4.6 13.5h-14.3l22-60.4Zm13.4 37.2-7.1-21.4-7.2 21.4H530Z" class="st0"/></g><g class="st0"><path d="M3.9 116c0-2.1.4-4.2 1.1-6.2.7-2.1 1.8-3.9 3.2-5.6 1.4-1.6 3.1-3 5.2-4 2-1 4.4-1.5 7-1.5s5.7.7 8 2.1c2.2 1.4 3.9 3.2 4.9 5.5l-3.5 2.2c-.5-1.1-1.1-2-1.9-2.8-.7-.7-1.5-1.3-2.4-1.8-.9-.5-1.7-.8-2.7-1-.9-.2-1.8-.3-2.7-.3-1.9 0-3.6.4-5.1 1.2-1.5.8-2.7 1.8-3.7 3.1s-1.8 2.7-2.3 4.3c-.5 1.6-.8 3.2-.8 4.9s.3 3.6.9 5.2c.6 1.6 1.4 3.1 2.5 4.4 1.1 1.3 2.3 2.3 3.8 3 1.5.7 3.1 1.1 4.8 1.1s1.8-.1 2.8-.3c1-.2 1.9-.6 2.8-1.1.9-.5 1.7-1.1 2.5-1.9.8-.8 1.4-1.7 1.9-2.8l3.7 2c-.6 1.3-1.3 2.4-2.3 3.4-1 1-2.1 1.8-3.4 2.5-1.3.7-2.6 1.2-4 1.6-1.4.4-2.8.5-4.1.5-2.4 0-4.6-.5-6.5-1.6-2-1-3.7-2.4-5.1-4.1-1.4-1.7-2.6-3.6-3.4-5.7-.8-2.1-1.2-4.3-1.2-6.5Z" class="st0"/><g class="st0"><path d="M53.1 133.8c-2.4 0-4.7-.5-6.7-1.5s-3.7-2.3-5.1-4c-1.4-1.6-2.5-3.5-3.3-5.6-.8-2.1-1.2-4.3-1.2-6.5s.4-4.5 1.2-6.6c.8-2.1 2-4 3.4-5.6 1.5-1.6 3.2-2.9 5.2-3.9s4.2-1.4 6.5-1.4 4.7.5 6.6 1.5c2 1 3.7 2.4 5.1 4 1.4 1.7 2.5 3.5 3.3 5.6s1.2 4.2 1.2 6.4-.4 4.5-1.2 6.6c-.8 2.1-2 4-3.4 5.6-1.4 1.6-3.2 2.9-5.2 3.9s-4.2 1.4-6.5 1.4Zm-11.9-17.5c0 1.8.3 3.5.9 5.1.6 1.6 1.4 3.1 2.4 4.4 1 1.3 2.3 2.3 3.8 3 1.5.7 3.1 1.1 4.9 1.1s3.5-.4 5-1.2c1.5-.8 2.7-1.8 3.7-3.1s1.8-2.7 2.3-4.4c.5-1.6.8-3.3.8-4.9s-.3-3.5-.9-5.1c-.6-1.6-1.4-3.1-2.4-4.3-1.1-1.3-2.3-2.3-3.8-3-1.4-.7-3.1-1.1-4.8-1.1s-3.5.4-5 1.2c-1.5.8-2.7 1.8-3.7 3.1s-1.8 2.7-2.4 4.3c-.6 1.6-.8 3.3-.8 5ZM79.9 107.1v26.4h-4.4V98.9h3.4l21.5 27V99h4.4v34.6h-3.7l-21.2-26.4ZM138.1 102.8h-12v30.7h-4.4v-30.7h-12v-3.9H138v3.9ZM143.1 133.6V99h14.8c1.5 0 2.9.3 4.2 1 1.3.6 2.4 1.5 3.3 2.5.9 1.1 1.7 2.2 2.2 3.6.5 1.3.8 2.7.8 4s-.2 2.4-.5 3.5-.8 2.1-1.5 3c-.6.9-1.4 1.7-2.3 2.3-.9.7-1.9 1.1-3 1.4l8.4 13.3h-5l-7.9-12.4h-9.2v12.4H143Zm4.4-16.4H158c.9 0 1.7-.2 2.5-.6.7-.4 1.4-.9 1.9-1.6.5-.7.9-1.4 1.2-2.3.3-.9.4-1.8.4-2.7s-.2-1.9-.5-2.8-.8-1.6-1.4-2.3c-.6-.7-1.2-1.2-2-1.6-.8-.4-1.6-.6-2.4-.6h-10.2v14.4Z"/></g><path d="M185.7 98.9h3.7l14.2 34.6h-4.7l-4.1-10.2h-14.5l-4 10.2h-4.7l14.2-34.6Zm8.1 21.1-6.2-16-6.4 16h12.7Z" class="st0"/><g class="st0"><path d="M218 122.2v-3.9h14.4v3.9H218ZM252 133.6V99h14.8c1.5 0 2.9.3 4.2 1 1.3.6 2.4 1.5 3.3 2.5.9 1.1 1.7 2.2 2.2 3.6.5 1.3.8 2.7.8 4s-.2 2.4-.5 3.5-.8 2.1-1.5 3c-.6.9-1.4 1.7-2.3 2.3s-1.9 1.1-3 1.4l8.4 13.3h-5l-7.9-12.4h-9.2v12.4h-4.4Zm4.4-16.4h10.5c.9 0 1.7-.2 2.5-.6.7-.4 1.4-.9 1.9-1.6.5-.7.9-1.4 1.2-2.3.3-.9.4-1.8.4-2.7s-.2-1.9-.5-2.8-.8-1.6-1.4-2.3c-.6-.7-1.2-1.2-2-1.6-.8-.4-1.6-.6-2.4-.6h-10.2v14.4ZM307.6 129.7v3.9h-23.5V99h23.1v3.9h-18.7v11.2h16.2v3.7h-16.2v12h19.1ZM333.9 106.2c-.4-.5-.9-.9-1.6-1.3-.7-.4-1.4-.8-2.2-1.1-.8-.3-1.7-.6-2.7-.8-1-.2-2-.3-3-.3-2.7 0-4.7.5-5.9 1.5-1.3 1-1.9 2.4-1.9 4.1s.2 1.7.5 2.3c.4.6.9 1.1 1.7 1.6.8.4 1.7.8 2.9 1.1 1.1.3 2.5.7 4.1 1 1.8.4 3.4.8 4.9 1.3 1.4.5 2.7 1.1 3.7 1.9 1 .7 1.8 1.7 2.3 2.7.5 1.1.8 2.4.8 4s-.3 3.1-1 4.3c-.7 1.2-1.5 2.2-2.7 3-1.1.8-2.4 1.4-4 1.8-1.5.4-3.2.6-5 .6-2.7 0-5.2-.4-7.6-1.2-2.4-.8-4.6-2-6.5-3.6l2.1-3.7c.5.6 1.2 1.1 2 1.7.8.6 1.8 1 2.8 1.5 1.1.4 2.2.8 3.4 1.1 1.2.3 2.5.4 3.8.4 2.5 0 4.4-.4 5.8-1.3 1.4-.9 2-2.2 2-4s-.2-1.8-.7-2.5-1.1-1.2-1.9-1.7c-.8-.5-1.9-.9-3.1-1.3-1.3-.4-2.7-.8-4.3-1.1-1.8-.4-3.3-.9-4.6-1.4s-2.4-1.1-3.3-1.8c-.9-.7-1.6-1.5-2-2.5-.5-1-.7-2.1-.7-3.5s.3-3.1.9-4.4 1.5-2.3 2.6-3.2c1.1-.9 2.4-1.5 4-2s3.2-.7 5-.7 4.5.4 6.3 1.1c1.9.7 3.6 1.7 5 2.9l-2 3.6ZM367.7 128.9c-3.1 3.3-6.6 4.9-10.5 4.9s-4.4-.5-6.4-1.5-3.7-2.3-5.1-4c-1.4-1.6-2.6-3.5-3.4-5.6-.8-2.1-1.2-4.3-1.2-6.5s.4-4.6 1.2-6.7 1.9-4 3.4-5.6c1.4-1.6 3.1-2.9 5.1-3.8s4.1-1.4 6.4-1.4c3.3 0 6.1.7 8.3 2.1 2.2 1.4 3.8 3.2 5 5.5l-3.4 2.3c-1-2-2.4-3.5-4.1-4.5-1.7-1-3.7-1.5-5.8-1.5s-3.4.4-4.8 1.1-2.7 1.8-3.7 3c-1 1.3-1.8 2.7-2.3 4.3-.6 1.6-.8 3.3-.8 5.1s.3 3.6.9 5.2c.6 1.6 1.5 3.1 2.5 4.3 1.1 1.3 2.3 2.2 3.8 3s3.1 1.1 4.8 1.1c3.8 0 7.2-1.8 10.2-5.5v-4.8h-7.5v-3.3h11.2v17.3h-3.7v-4.7Z"/></g><path d="M392.4 129.9c2 0 3.7-.4 5-1.2 1.3-.8 2.4-1.8 3.2-3 .8-1.3 1.4-2.7 1.7-4.3s.5-3.2.5-4.9V99h4.4v17.5c0 2.3-.3 4.6-.8 6.7-.5 2.1-1.4 3.9-2.6 5.5-1.2 1.6-2.7 2.9-4.6 3.8-1.9.9-4.1 1.4-6.8 1.4s-5.1-.5-7-1.5c-1.9-1-3.4-2.3-4.6-3.9s-2-3.5-2.5-5.6c-.5-2.1-.8-4.3-.8-6.5V98.9h4.4v17.5c0 1.7.2 3.4.5 5s.9 3 1.7 4.3 1.9 2.2 3.2 3c1.3.8 3 1.1 5 1.1Z" class="st0"/><g class="st0"><path d="M424.1 98.9h3.7l14.2 34.6h-4.7l-4.1-10.2h-14.5l-4 10.2H410l14.2-34.6Zm8.1 21.1-6.2-16-6.4 16h12.7ZM446.6 133.6V99h14.8c1.5 0 2.9.3 4.2 1s2.4 1.5 3.3 2.5c.9 1.1 1.7 2.2 2.2 3.6.5 1.3.8 2.7.8 4s-.2 2.4-.5 3.5-.8 2.1-1.5 3c-.6.9-1.4 1.7-2.3 2.3-.9.7-1.9 1.1-3 1.4l8.4 13.3h-5l-7.9-12.4h-9.2v12.4h-4.4Zm4.4-16.4h10.5c.9 0 1.7-.2 2.5-.6s1.4-.9 1.9-1.6c.5-.7.9-1.4 1.2-2.3.3-.9.4-1.8.4-2.7s-.2-1.9-.5-2.8-.8-1.6-1.4-2.3-1.2-1.2-2-1.6-1.6-.6-2.4-.6H451v14.4ZM478.7 133.6V99h12c2.8 0 5.2.5 7.3 1.4s3.8 2.1 5.2 3.7c1.4 1.6 2.4 3.4 3.1 5.5.7 2.1 1 4.3 1 6.7s-.4 5-1.2 7.1-1.9 4-3.4 5.5-3.2 2.7-5.3 3.5c-2.1.8-4.4 1.2-6.9 1.2h-12Zm24.3-17.4c0-2-.3-3.7-.8-5.4-.5-1.6-1.3-3-2.4-4.2-1.1-1.2-2.4-2.1-3.9-2.8s-3.3-1-5.2-1h-7.6v26.8h7.6c2 0 3.7-.3 5.3-1 1.5-.7 2.8-1.6 3.9-2.8 1-1.2 1.8-2.6 2.3-4.3.5-1.6.8-3.4.8-5.3ZM527.7 133.8c-2.4 0-4.7-.5-6.7-1.5s-3.7-2.3-5.1-4c-1.4-1.6-2.5-3.5-3.3-5.6-.8-2.1-1.2-4.3-1.2-6.5s.4-4.5 1.2-6.6c.8-2.1 2-4 3.4-5.6 1.5-1.6 3.2-2.9 5.2-3.9s4.2-1.4 6.5-1.4 4.7.5 6.6 1.5c2 1 3.7 2.4 5.1 4 1.4 1.7 2.5 3.5 3.3 5.6.8 2.1 1.2 4.2 1.2 6.4s-.4 4.5-1.2 6.6c-.8 2.1-2 4-3.4 5.6-1.4 1.6-3.2 2.9-5.2 3.9s-4.2 1.4-6.5 1.4Zm-11.9-17.5c0 1.8.3 3.5.9 5.1.6 1.6 1.4 3.1 2.4 4.4 1 1.3 2.3 2.3 3.8 3 1.5.7 3.1 1.1 4.9 1.1s3.5-.4 5-1.2c1.5-.8 2.7-1.8 3.7-3.1s1.8-2.7 2.3-4.4c.5-1.6.8-3.3.8-4.9s-.3-3.5-.9-5.1c-.6-1.6-1.4-3.1-2.4-4.3-1.1-1.3-2.3-2.3-3.8-3-1.4-.7-3.1-1.1-4.8-1.1s-3.5.4-5 1.2c-1.5.8-2.7 1.8-3.7 3.1s-1.8 2.7-2.4 4.3c-.6 1.6-.8 3.3-.8 5Z"/></g></g></g></svg>