<svg xmlns="http://www.w3.org/2000/svg" viewBox="0 0 654.45 399.84">
  <defs>
    <style>.cls-1{fill:#00569d}.cls-4{fill:#fff}.cls-5{fill:#004077}</style>
  </defs>
  <g style="isolation:isolate">

    <rect width="546.57" height="89.67" x="56.06" y="310.16" rx="4.63" ry="4.63" style="fill:#009ee2"/>
    <path
      d="M120.24 339.17c-.85-1.64-2.41-2.46-4.67-2.46-1.25 0-2.27.34-3.08 1-.81.67-1.44 1.75-1.9 3.25-.46 1.5-.78 3.46-.97 5.88-.18 2.42-.28 5.38-.28 8.89 0 3.74.13 6.76.38 9.06.25 2.31.65 4.09 1.18 5.36.53 1.27 1.2 2.12 2.01 2.56.81.44 1.74.66 2.8.66.88 0 1.69-.15 2.46-.45.76-.3 1.42-.9 1.97-1.8s.99-2.17 1.31-3.8c.32-1.64.48-3.79.48-6.47h9.96c0 2.68-.21 5.21-.62 7.61-.42 2.4-1.19 4.5-2.32 6.29-1.13 1.8-2.72 3.21-4.77 4.22-2.05 1.01-4.72 1.52-7.99 1.52-3.74 0-6.71-.6-8.92-1.8s-3.91-2.93-5.08-5.19c-1.18-2.26-1.94-4.96-2.28-8.09-.35-3.14-.52-6.59-.52-10.38s.17-7.18.52-10.34 1.11-5.87 2.28-8.13c1.18-2.26 2.87-4.02 5.08-5.29 2.21-1.27 5.19-1.9 8.92-1.9s6.35.58 8.4 1.73c2.05 1.15 3.58 2.62 4.6 4.39 1.01 1.78 1.65 3.69 1.9 5.74.25 2.05.38 3.98.38 5.78h-9.96c0-3.6-.43-6.21-1.28-7.85ZM137.05 344.7c.35-3.16 1.11-5.87 2.28-8.13 1.18-2.26 2.87-4.02 5.08-5.29 2.21-1.27 5.19-1.9 8.92-1.9s6.71.63 8.92 1.9 3.91 3.03 5.08 5.29c1.18 2.26 1.94 4.97 2.28 8.13.35 3.16.52 6.61.52 10.34s-.17 7.24-.52 10.38c-.35 3.14-1.11 5.83-2.28 8.09-1.18 2.26-2.87 3.99-5.08 5.19-2.21 1.2-5.19 1.8-8.92 1.8s-6.71-.6-8.92-1.8-3.91-2.93-5.08-5.19c-1.18-2.26-1.94-4.96-2.28-8.09-.35-3.14-.52-6.59-.52-10.38s.17-7.18.52-10.34Zm9.69 18.82c.16 2.33.48 4.22.97 5.67.48 1.45 1.18 2.51 2.08 3.18.9.67 2.09 1 3.56 1s2.66-.33 3.56-1c.9-.67 1.59-1.73 2.08-3.18.48-1.45.81-3.34.97-5.67.16-2.33.24-5.15.24-8.47s-.08-6.13-.24-8.44c-.16-2.31-.48-4.2-.97-5.67-.48-1.48-1.18-2.55-2.08-3.22-.9-.67-2.09-1-3.56-1s-2.66.34-3.56 1c-.9.67-1.59 1.74-2.08 3.22-.48 1.48-.81 3.37-.97 5.67-.16 2.31-.24 5.12-.24 8.44s.08 6.15.24 8.47ZM199.55 364.18h.14v-33.83h9.13v49.39h-11.34l-12.17-34.59h-.14v34.59h-9.13v-49.39h11.48l12.04 33.83ZM244.65 338.51h-10.79v41.23h-9.96v-41.23h-10.79v-8.16h31.54v8.16ZM267.34 330.35c4.15 0 7.38 1.05 9.68 3.15 2.31 2.1 3.46 5.29 3.46 9.58 0 3.32-.67 6.03-2.01 8.13-1.34 2.1-3.41 3.45-6.23 4.05v.14c2.49.37 4.31 1.18 5.46 2.42 1.15 1.25 1.87 3.25 2.14 6.02.09.92.16 1.93.21 3.01.05 1.08.09 2.29.14 3.63.09 2.63.23 4.63.42 6.02.28 1.38.88 2.33 1.8 2.84v.42h-10.79c-.51-.69-.83-1.49-.97-2.39-.14-.9-.23-1.83-.28-2.8l-.28-9.48c-.09-1.94-.58-3.46-1.45-4.57-.88-1.11-2.35-1.66-4.43-1.66h-5.33v20.89h-9.96v-49.39h18.4Zm-4.29 21.58c2.4 0 4.24-.56 5.53-1.69s1.94-3.03 1.94-5.71c0-4.57-2.31-6.85-6.92-6.85h-4.7v14.25h4.15ZM309.33 330.35l13.07 49.39h-10.38l-2.28-10.45H296.6l-2.28 10.45h-10.38l13.07-49.39h12.31Zm-1.32 30.78-4.77-22.2h-.14l-4.77 22.2h9.68ZM370.06 338.51h-17.64v11.62h16.6v8.16h-16.6v13.28h18.33v8.16h-28.29v-49.39h27.6v8.16ZM399.25 364.18h.14v-33.83h9.13v49.39h-11.34l-12.17-34.59h-.14v34.59h-9.13v-49.39h11.48l12.04 33.83ZM429.83 366.87h.21l7.33-36.52h10.31l-11.34 49.39h-12.8l-11.34-49.39h10.65l6.99 36.52ZM451.82 330.35h9.96v49.39h-9.96v-49.39ZM485.99 330.35c3.46 0 6.25.57 8.37 1.69 2.12 1.13 3.77 2.74 4.95 4.84 1.18 2.1 1.97 4.62 2.39 7.57.42 2.95.62 6.25.62 9.89 0 4.34-.27 8.11-.8 11.31-.53 3.21-1.44 5.85-2.73 7.92-1.29 2.08-3.02 3.62-5.19 4.63-2.17 1.01-4.91 1.52-8.23 1.52h-15.7v-49.39h16.32Zm-1.93 42.06c1.75 0 3.16-.3 4.22-.9 1.06-.6 1.9-1.59 2.52-2.97.62-1.38 1.04-3.2 1.25-5.46.21-2.26.31-5.07.31-8.44 0-2.81-.09-5.28-.28-7.4-.18-2.12-.57-3.88-1.14-5.29-.58-1.41-1.43-2.47-2.56-3.18-1.13-.71-2.64-1.07-4.53-1.07h-4.22v34.73h4.43ZM509.37 330.35h9.96v49.39h-9.96v-49.39ZM548.66 330.35l13.07 49.39h-10.38l-2.28-10.45h-13.14l-2.28 10.45h-10.38l13.07-49.39h12.31Zm-1.31 30.78-4.77-22.2h-.14l-4.77 22.2h9.68Z"
      class="cls-4"/>
    <g style="mix-blend-mode:multiply">
      <path
        d="M42.28 2.29h23.08l42.28 123.32H84.56L74.34 93.02H33.29l-10.22 32.59H0L42.28 2.29Zm25.54 70.47L53.73 28.01 39.64 72.76h28.19ZM104.99 63.95c0-9.63 1.44-18.38 4.32-26.25 2.88-7.87 7.02-14.59 12.42-20.17 5.4-5.58 11.92-9.89 19.55-12.95C148.91 1.53 157.55 0 167.18 0c11.04 0 20.7 1.97 28.98 5.9 8.28 3.94 15.24 9.42 20.88 16.47L199.07 34.7c-3.76-4.58-8.25-8.13-13.48-10.66-5.23-2.52-11.36-3.79-18.41-3.79-6.34 0-12.01 1.03-17 3.08-4.99 2.06-9.19 4.96-12.6 8.72-3.41 3.76-6.02 8.34-7.84 13.74-1.82 5.4-2.73 11.45-2.73 18.14s.91 12.74 2.73 18.15c1.82 5.4 4.43 9.98 7.84 13.74s7.6 6.67 12.6 8.72c4.99 2.06 10.66 3.08 17 3.08 5.28 0 10.1-.67 14.45-2.03 4.34-1.35 8.16-3.26 11.45-5.73V78.72h-25.9V58.46h47.92v49.33c-4.82 5.99-11.25 10.83-19.29 14.53-8.05 3.7-17.59 5.55-28.63 5.55-9.63 0-18.26-1.53-25.9-4.58-7.64-3.05-14.15-7.37-19.55-12.95-5.4-5.58-9.54-12.3-12.42-20.17-2.88-7.87-4.32-16.62-4.32-26.25ZM261.95 2.29h23.08l42.28 123.32h-23.08l-10.22-32.59h-41.05l-10.22 32.59h-23.08L261.95 2.29Zm25.55 70.47-14.09-44.75-14.09 44.75h28.19ZM330.83 2.29h22.02v123.32h-22.02V2.29ZM385.44 41.4v84.21h-22.02V2.29h23.78l47.04 84.21V2.29h22.02v123.32h-23.78L385.44 41.4ZM555.09 89.84c0 5.28-.88 10.25-2.64 14.89-1.76 4.64-4.43 8.63-8.02 11.98-3.58 3.35-8.1 5.99-13.56 7.93-5.46 1.94-11.95 2.91-19.47 2.91-5.52 0-10.63-.5-15.33-1.5-4.7-1-9.01-2.35-12.95-4.05-3.94-1.7-7.49-3.64-10.66-5.81-3.17-2.17-5.93-4.37-8.28-6.61l13.92-15.15c4.81 4.11 9.87 7.28 15.15 9.51 5.28 2.23 11.27 3.35 17.97 3.35 4.23 0 7.75-.47 10.57-1.41 2.82-.94 5.08-2.14 6.78-3.61 1.7-1.47 2.88-3.17 3.52-5.11.64-1.94.97-3.85.97-5.73 0-3.64-.97-6.63-2.91-8.98-1.94-2.35-4.52-4.32-7.75-5.9-3.23-1.59-6.9-2.93-11.01-4.05-4.11-1.11-8.31-2.26-12.6-3.44-4.29-1.17-8.49-2.55-12.6-4.14-4.11-1.59-7.78-3.61-11.01-6.08-3.23-2.47-5.81-5.55-7.75-9.25-1.94-3.7-2.91-8.31-2.91-13.83 0-5.17.94-9.92 2.82-14.27 1.88-4.34 4.61-8.07 8.19-11.19 3.58-3.11 8.04-5.55 13.39-7.31C494.26 1.23 500.4.35 507.33.35c9.51 0 18.11 1.56 25.81 4.67 7.69 3.11 14.36 7.08 19.99 11.89l-12.86 16.03c-5.64-4.46-11.13-7.63-16.47-9.51-5.35-1.88-10.78-2.82-16.3-2.82-7.4 0-12.74 1.29-16.03 3.88-3.29 2.58-4.93 5.76-4.93 9.51 0 3.06.97 5.58 2.91 7.58 1.94 2 4.52 3.67 7.75 5.02 3.23 1.35 6.9 2.53 11.01 3.52 4.11 1 8.31 2.11 12.6 3.35 4.29 1.23 8.48 2.7 12.6 4.4 4.11 1.7 7.78 3.94 11.01 6.69 3.23 2.76 5.81 6.2 7.75 10.31 1.94 4.11 2.91 9.1 2.91 14.97ZM595.43 22.55h-36.82V2.29h95.83v20.26h-36.99v103.06h-22.02V22.55Z"
        class="cls-1"/>
      <path
        d="M109.24 145.89h94.43v22.81h-69.63v31.54h57.33v22.81h-57.33v39.08h69.63v22.81l-94.43-.2V145.88ZM238.38 189.93v94.82h-24.8V145.89h26.78l52.97 94.82v-94.82h24.8v138.86h-26.78l-52.97-94.82ZM367.92 284.76 324.08 145.9h25.59l30.75 98.99 30.55-98.99h25.59l-43.84 138.86h-24.8Z"
        class="cls-5"/>
      <path d="m462.54 145.89 32.73 69.63 32.53-69.63h25.99l-46.22 97.21v41.66h-24.8V243.1l-46.22-97.21h25.99Z"
            class="cls-5"/>
    </g>
  </g>
</svg>