<?xml version="1.0" encoding="UTF-8"?>
<svg id="Capa_2" data-name="Capa 2" xmlns="http://www.w3.org/2000/svg" viewBox="0 0 975.34 271.66">
  <defs>
    <style>
      .cls-1 {
        fill: #e41aa2;
      }
    </style>
  </defs>
  <g id="Capa_1-2" data-name="Capa 1">
    <g>
      <g>
        <path class="cls-1" d="M111.53,176.07h63.73v15.4h-46.99v21.29h38.69v15.4h-38.69v41.64h-16.74v-93.72Z"/>
        <path class="cls-1" d="M175.93,222.93c0-7.32,1.09-13.97,3.28-19.95,2.19-5.98,5.33-11.09,9.44-15.33,4.1-4.24,9.06-7.52,14.86-9.84,5.8-2.32,12.36-3.48,19.68-3.48s13.9,1.16,19.75,3.48c5.84,2.32,10.82,5.6,14.93,9.84,4.1,4.24,7.25,9.35,9.44,15.33,2.19,5.98,3.28,12.63,3.28,19.95s-1.09,13.97-3.28,19.95c-2.19,5.98-5.33,11.11-9.44,15.4-4.11,4.28-9.08,7.59-14.93,9.91-5.85,2.32-12.43,3.48-19.75,3.48s-13.88-1.16-19.68-3.48c-5.8-2.32-10.76-5.62-14.86-9.91-4.11-4.28-7.25-9.42-9.44-15.4-2.19-5.98-3.28-12.63-3.28-19.95ZM192.67,222.93c0,5.09.69,9.71,2.08,13.86,1.38,4.15,3.37,7.65,5.96,10.51,2.59,2.86,5.78,5.07,9.57,6.63,3.79,1.56,8.1,2.34,12.92,2.34s9.12-.78,12.92-2.34c3.79-1.56,7.01-3.77,9.64-6.63,2.63-2.86,4.64-6.36,6.03-10.51,1.38-4.15,2.08-8.77,2.08-13.86s-.69-9.68-2.08-13.79c-1.39-4.1-3.39-7.59-6.03-10.44-2.63-2.86-5.85-5.06-9.64-6.63-3.79-1.56-8.1-2.34-12.92-2.34s-9.13.78-12.92,2.34c-3.79,1.56-6.99,3.77-9.57,6.63-2.59,2.86-4.58,6.34-5.96,10.44-1.38,4.11-2.08,8.7-2.08,13.79Z"/>
        <path class="cls-1" d="M277.28,176.07h43.51c5,0,9.53.8,13.59,2.41,4.06,1.61,7.52,3.88,10.38,6.83,2.86,2.95,5.09,6.49,6.69,10.64,1.61,4.15,2.41,8.77,2.41,13.86,0,7.32-1.65,13.64-4.95,18.94-3.3,5.31-7.9,9.17-13.79,11.58l19.28,29.46h-19.81l-17.54-26.78h-23.03v26.78h-16.74v-93.72ZM319.19,227.61c5.44,0,9.79-1.63,13.05-4.89,3.26-3.26,4.89-7.7,4.89-13.32s-1.63-9.79-4.89-13.05c-3.26-3.26-7.61-4.89-13.05-4.89h-25.17v36.15h25.17Z"/>
        <path class="cls-1" d="M389.88,176.07h17.27l20.75,66.81,20.62-66.81h17.27l-5.89,18.61,15,48.2,20.62-66.81h17.27l-29.59,93.72h-16.74l-15.13-47.93-15.13,47.93h-16.74l-29.59-93.72Z"/>
        <path class="cls-1" d="M510.11,222.93c0-7.32,1.09-13.97,3.28-19.95,2.19-5.98,5.33-11.09,9.44-15.33,4.1-4.24,9.06-7.52,14.86-9.84,5.8-2.32,12.36-3.48,19.68-3.48s13.9,1.16,19.75,3.48c5.84,2.32,10.82,5.6,14.93,9.84,4.1,4.24,7.25,9.35,9.44,15.33,2.19,5.98,3.28,12.63,3.28,19.95s-1.09,13.97-3.28,19.95c-2.19,5.98-5.33,11.11-9.44,15.4-4.11,4.28-9.08,7.59-14.93,9.91-5.85,2.32-12.43,3.48-19.75,3.48s-13.88-1.16-19.68-3.48c-5.8-2.32-10.76-5.62-14.86-9.91-4.11-4.28-7.25-9.42-9.44-15.4-2.19-5.98-3.28-12.63-3.28-19.95ZM526.85,222.93c0,5.09.69,9.71,2.08,13.86,1.38,4.15,3.37,7.65,5.96,10.51,2.59,2.86,5.78,5.07,9.57,6.63,3.79,1.56,8.1,2.34,12.92,2.34s9.12-.78,12.92-2.34c3.79-1.56,7.01-3.77,9.64-6.63,2.63-2.86,4.64-6.36,6.03-10.51,1.38-4.15,2.08-8.77,2.08-13.86s-.69-9.68-2.08-13.79c-1.39-4.1-3.39-7.59-6.03-10.44-2.63-2.86-5.85-5.06-9.64-6.63-3.79-1.56-8.1-2.34-12.92-2.34s-9.13.78-12.92,2.34c-3.79,1.56-6.99,3.77-9.57,6.63-2.59,2.86-4.58,6.34-5.96,10.44-1.38,4.11-2.08,8.7-2.08,13.79Z"/>
        <path class="cls-1" d="M611.46,176.07h19.41l27.31,71.36,27.18-71.36h19.41v93.72h-16.74v-57.44l-21.69,56.9.13.54h-16.74l.13-.54-21.69-56.9v57.44h-16.74v-93.72Z"/>
        <path class="cls-1" d="M712.81,176.07h63.73v15.4h-46.99v21.29h38.69v15.4h-38.69v26.38h46.99v15.4l-63.73-.13v-93.72Z"/>
        <path class="cls-1" d="M799.97,205.79v64h-16.74v-93.72h18.07l35.75,64v-64h16.74v93.72h-18.08l-35.75-64Z"/>
      </g>
      <g>
        <path class="cls-1" d="M46.85,0h25.57l46.85,136.66h-25.57l-11.32-36.12h-45.49l-11.32,36.12H0L46.85,0ZM75.16,78.09l-15.62-49.59-15.62,49.59h31.24Z"/>
        <path class="cls-1" d="M145.44,22.45h-40.8V0h106.2v22.45h-41v114.21h-24.4V22.45Z"/>
        <path class="cls-1" d="M219.63,0h63.45c7.29,0,13.89,1.17,19.82,3.51,5.92,2.34,10.96,5.66,15.13,9.96,4.16,4.29,7.42,9.47,9.76,15.52,2.34,6.05,3.51,12.79,3.51,20.21,0,10.67-2.41,19.88-7.22,27.62-4.82,7.74-11.52,13.37-20.11,16.89l28.11,42.95h-28.89l-25.58-39.05h-33.58v39.05h-24.4V0ZM280.73,75.16c7.94,0,14.28-2.37,19.03-7.13,4.75-4.75,7.13-11.23,7.13-19.43s-2.38-14.28-7.13-19.03c-4.75-4.75-11.1-7.13-19.03-7.13h-36.7v52.71h36.7Z"/>
        <path class="cls-1" d="M381.86,0h25.57l46.85,136.66h-25.57l-11.32-36.12h-45.49l-11.32,36.12h-25.57L381.86,0ZM410.17,78.09l-15.62-49.59-15.62,49.59h31.24Z"/>
        <path class="cls-1" d="M458.39,0l32.21,68.52L522.62,0h25.57l-45.49,95.66v41h-24.4v-41L432.81,0h25.57Z"/>
        <path class="cls-1" d="M553.07,0h92.93v22.45h-68.53v31.04h56.42v22.45h-56.42v38.46h68.53v22.45l-92.93-.2V0Z"/>
        <path class="cls-1" d="M680.16,43.34v93.32h-24.4V0h26.36l52.12,93.32V0h24.4v136.66h-26.36l-52.13-93.32Z"/>
        <path class="cls-1" d="M808.23,22.45h-40.8V0h106.2v22.45h-41v114.21h-24.4V22.45Z"/>
        <path class="cls-1" d="M882.41,0h92.93v22.45h-68.53v31.04h56.42v22.45h-56.42v38.46h68.53v22.45l-92.93-.2V0Z"/>
      </g>
    </g>
  </g>
</svg>