<?xml version="1.0" encoding="UTF-8"?>
<svg id="Capa_2" data-name="Capa 2" xmlns="http://www.w3.org/2000/svg" viewBox="0 0 918.13 255.73">
  <defs>
    <style>
      .cls-1 {
        fill: #131ea5;
      }
    </style>
  </defs>
  <g id="Capa_1-2" data-name="Capa 1">
    <g>
      <g>
        <path class="cls-1" d="M207.38,165.74h59.99v14.49h-44.24v20.04h36.42v14.49h-36.42v39.2h-15.75v-88.22Z"/>
        <path class="cls-1" d="M268.01,209.85c0-6.89,1.03-13.15,3.09-18.78,2.06-5.63,5.02-10.44,8.89-14.43,3.86-3.99,8.53-7.08,13.99-9.26,5.46-2.18,11.64-3.28,18.53-3.28s13.09,1.09,18.59,3.28c5.5,2.19,10.19,5.27,14.05,9.26,3.86,3.99,6.83,8.8,8.89,14.43,2.06,5.63,3.09,11.89,3.09,18.78s-1.03,13.15-3.09,18.78c-2.06,5.63-5.02,10.46-8.89,14.49-3.87,4.03-8.55,7.14-14.05,9.33-5.5,2.18-11.7,3.28-18.59,3.28s-13.07-1.09-18.53-3.28c-5.46-2.18-10.13-5.29-13.99-9.33-3.87-4.03-6.83-8.86-8.89-14.49-2.06-5.63-3.09-11.89-3.09-18.78ZM283.76,209.85c0,4.79.65,9.14,1.95,13.04,1.3,3.91,3.17,7.21,5.61,9.89,2.44,2.69,5.44,4.77,9.01,6.24,3.57,1.47,7.62,2.21,12.16,2.21s8.59-.73,12.16-2.21c3.57-1.47,6.6-3.55,9.07-6.24,2.48-2.69,4.37-5.99,5.67-9.89,1.3-3.91,1.95-8.26,1.95-13.04s-.65-9.12-1.95-12.98c-1.3-3.86-3.19-7.14-5.67-9.83-2.48-2.69-5.5-4.77-9.07-6.24-3.57-1.47-7.62-2.21-12.16-2.21s-8.59.74-12.16,2.21c-3.57,1.47-6.58,3.55-9.01,6.24-2.44,2.69-4.31,5.97-5.61,9.83-1.3,3.87-1.95,8.19-1.95,12.98Z"/>
        <path class="cls-1" d="M363.41,165.74h40.96c4.7,0,8.97.76,12.79,2.27,3.82,1.51,7.08,3.65,9.77,6.43,2.69,2.77,4.79,6.11,6.3,10.02,1.51,3.91,2.27,8.26,2.27,13.04,0,6.89-1.56,12.84-4.66,17.83-3.11,5-7.44,8.63-12.98,10.9l18.15,27.73h-18.65l-16.51-25.21h-21.68v25.21h-15.75v-88.22ZM402.86,214.26c5.12,0,9.22-1.53,12.29-4.6,3.07-3.07,4.6-7.25,4.6-12.54s-1.53-9.22-4.6-12.29c-3.07-3.07-7.16-4.6-12.29-4.6h-23.69v34.03h23.69Z"/>
        <path class="cls-1" d="M473.19,165.74h18.27l25.71,67.18,25.58-67.18h18.27v88.22h-15.75v-54.07l-20.42,53.56.13.5h-15.75l.13-.5-20.42-53.56v54.07h-15.75v-88.22Z"/>
        <path class="cls-1" d="M568.59,165.74h59.99v14.49h-44.24v20.04h36.42v14.49h-36.42v24.83h44.24v14.49l-59.99-.13v-88.22Z"/>
        <path class="cls-1" d="M650.64,193.72v60.24h-15.75v-88.22h17.01l33.65,60.24v-60.24h15.75v88.22h-17.01l-33.65-60.24Z"/>
      </g>
      <g>
        <path class="cls-1" d="M44.11,0h24.07l44.11,128.64h-24.07l-10.66-34h-42.82l-10.66,34H0L44.11,0ZM70.75,73.51l-14.7-46.68-14.7,46.68h29.4Z"/>
        <path class="cls-1" d="M136.91,21.13h-38.41V0h99.97v21.13h-38.59v107.51h-22.97V21.13Z"/>
        <path class="cls-1" d="M206.75,0h59.73c6.86,0,13.08,1.1,18.65,3.31,5.57,2.21,10.32,5.33,14.24,9.37,3.92,4.04,6.98,8.91,9.19,14.61,2.21,5.7,3.31,12.04,3.31,19.02,0,10.05-2.27,18.72-6.8,26-4.53,7.29-10.84,12.59-18.93,15.9l26.46,40.43h-27.2l-24.07-36.76h-31.61v36.76h-22.97V0ZM264.27,70.75c7.47,0,13.44-2.23,17.92-6.71,4.47-4.47,6.71-10.57,6.71-18.29s-2.24-13.44-6.71-17.92c-4.47-4.47-10.45-6.71-17.92-6.71h-34.55v49.62h34.55Z"/>
        <path class="cls-1" d="M359.46,0h24.07l44.11,128.64h-24.07l-10.66-34h-42.82l-10.66,34h-24.07L359.46,0ZM386.11,73.51l-14.7-46.68-14.7,46.68h29.4Z"/>
        <path class="cls-1" d="M431.5,0l30.32,64.51L491.96,0h24.07l-42.82,90.05v38.59h-22.97v-38.59L407.43,0h24.07Z"/>
        <path class="cls-1" d="M520.63,0h87.48v21.13h-64.5v29.22h53.11v21.13h-53.11v36.2h64.5v21.13l-87.48-.18V0Z"/>
        <path class="cls-1" d="M640.27,40.8v87.84h-22.97V0h24.81l49.07,87.84V0h22.97v128.64h-24.81l-49.07-87.84Z"/>
        <path class="cls-1" d="M760.82,21.13h-38.41V0h99.97v21.13h-38.59v107.51h-22.97V21.13Z"/>
        <path class="cls-1" d="M830.66,0h87.48v21.13h-64.5v29.22h53.11v21.13h-53.11v36.2h64.5v21.13l-87.48-.18V0Z"/>
      </g>
    </g>
  </g>
</svg>