<?xml version="1.0" encoding="UTF-8"?>
<svg id="Capa_2" data-name="Capa 2" xmlns="http://www.w3.org/2000/svg" viewBox="0 0 652.44 436.44">
  <defs>
    <style>
      .cls-1 {
        fill: #7d4e24;
      }
    </style>
  </defs>
  <g id="Capa_1-2" data-name="Capa 1">
    <g>
      <g>
        <path class="cls-1" d="M14.52,85.69c0-12.9,1.92-24.63,5.78-35.17,3.85-10.54,9.4-19.55,16.64-27.03,7.24-7.47,15.97-13.26,26.2-17.35C73.37,2.05,84.94,0,97.85,0c14.79,0,27.74,2.64,38.83,7.91,11.09,5.27,20.42,12.63,27.97,22.07l-24.08,16.52c-5.04-6.14-11.06-10.9-18.06-14.28-7-3.38-15.23-5.08-24.67-5.08-8.5,0-16.09,1.38-22.78,4.13-6.69,2.76-12.31,6.65-16.88,11.68-4.57,5.04-8.07,11.18-10.5,18.41-2.44,7.24-3.66,15.34-3.66,24.31s1.22,17.08,3.66,24.31c2.44,7.24,5.94,13.38,10.5,18.41,4.56,5.04,10.19,8.93,16.88,11.68,6.69,2.76,14.28,4.13,22.78,4.13,9.44,0,17.66-1.69,24.67-5.08,7-3.38,13.02-8.14,18.06-14.28l24.08,16.52c-7.55,9.44-16.88,16.8-27.97,22.07-11.09,5.27-24.04,7.91-38.83,7.91-12.91,0-24.47-2.05-34.7-6.14-10.23-4.09-18.97-9.87-26.2-17.35-7.24-7.47-12.79-16.48-16.64-27.03-3.86-10.54-5.78-22.27-5.78-35.17Z"/>
        <path class="cls-1" d="M168.19,85.69c0-12.9,1.92-24.63,5.78-35.17,3.85-10.54,9.4-19.55,16.64-27.03,7.24-7.47,15.97-13.26,26.2-17.35,10.23-4.09,21.79-6.14,34.7-6.14s24.51,2.05,34.82,6.14c10.3,4.09,19.08,9.88,26.32,17.35,7.24,7.48,12.78,16.49,16.64,27.03,3.85,10.54,5.78,22.27,5.78,35.17s-1.93,24.63-5.78,35.17c-3.86,10.54-9.41,19.59-16.64,27.15-7.24,7.55-16.01,13.38-26.32,17.47-10.31,4.09-21.92,6.14-34.82,6.14s-24.47-2.05-34.7-6.14c-10.23-4.09-18.97-9.91-26.2-17.47-7.24-7.55-12.79-16.6-16.64-27.15-3.86-10.54-5.78-22.27-5.78-35.17ZM197.69,85.69c0,8.97,1.22,17.11,3.66,24.43,2.44,7.32,5.94,13.5,10.5,18.53,4.56,5.04,10.19,8.93,16.88,11.68,6.69,2.76,14.28,4.13,22.78,4.13s16.09-1.38,22.78-4.13c6.69-2.75,12.35-6.65,17-11.68,4.64-5.03,8.18-11.21,10.62-18.53,2.44-7.32,3.66-15.46,3.66-24.43s-1.22-17.07-3.66-24.31c-2.44-7.24-5.98-13.37-10.62-18.41-4.64-5.03-10.31-8.93-17-11.68-6.69-2.75-14.28-4.13-22.78-4.13s-16.09,1.38-22.78,4.13c-6.69,2.76-12.31,6.65-16.88,11.68-4.57,5.04-8.07,11.18-10.5,18.41-2.44,7.24-3.66,15.34-3.66,24.31Z"/>
        <path class="cls-1" d="M346.88,3.07h34.23l48.15,125.82L477.18,3.07h34.23v165.24h-29.51v-101.27l-38.24,100.32.24.94h-29.51l.24-.94-38.24-100.32v101.27h-29.51V3.07Z"/>
        <path class="cls-1" d="M525.57,3.07h112.36v27.15h-82.85v37.53h68.22v27.15h-68.22v46.5h82.85v27.15l-112.36-.24V3.07Z"/>
        <path class="cls-1" d="M49.33,214.87H0v-27.15h128.41v27.15h-49.57v138.09h-29.51v-138.09Z"/>
        <path class="cls-1" d="M124.87,270.34c0-12.9,1.92-24.63,5.78-35.17,3.85-10.54,9.4-19.55,16.64-27.03,7.24-7.47,15.97-13.26,26.2-17.35,10.23-4.09,21.79-6.14,34.7-6.14s24.51,2.05,34.82,6.14c10.3,4.09,19.08,9.88,26.32,17.35,7.24,7.48,12.78,16.49,16.64,27.03,3.85,10.54,5.78,22.27,5.78,35.17s-1.93,24.63-5.78,35.17c-3.86,10.54-9.41,19.59-16.64,27.15-7.24,7.55-16.01,13.38-26.32,17.47-10.31,4.09-21.92,6.14-34.82,6.14s-24.47-2.05-34.7-6.14c-10.23-4.09-18.97-9.91-26.2-17.47-7.24-7.55-12.79-16.6-16.64-27.15-3.86-10.54-5.78-22.27-5.78-35.17ZM154.38,270.34c0,8.97,1.22,17.11,3.66,24.43,2.44,7.32,5.94,13.5,10.5,18.53,4.56,5.04,10.19,8.93,16.88,11.68,6.69,2.76,14.28,4.13,22.78,4.13s16.09-1.38,22.78-4.13c6.69-2.75,12.35-6.65,17-11.68,4.64-5.03,8.18-11.21,10.62-18.53,2.44-7.32,3.66-15.46,3.66-24.43s-1.22-17.07-3.66-24.31c-2.44-7.24-5.98-13.37-10.62-18.41-4.64-5.03-10.31-8.93-17-11.68-6.69-2.75-14.28-4.13-22.78-4.13s-16.09,1.38-22.78,4.13c-6.69,2.76-12.31,6.65-16.88,11.68-4.57,5.04-8.07,11.18-10.5,18.41-2.44,7.24-3.66,15.34-3.66,24.31Z"/>
        <path class="cls-1" d="M361.39,187.73h34.23l48.15,125.82,47.92-125.82h34.23v165.24h-29.51v-101.27l-38.24,100.32.24.94h-29.51l.24-.94-38.24-100.32v101.27h-29.51v-165.24Z"/>
        <path class="cls-1" d="M540.08,187.73h112.36v27.15h-82.85v37.53h68.22v27.15h-68.22v46.5h82.85v27.15l-112.36-.24v-165.24Z"/>
      </g>
      <g>
        <path class="cls-1" d="M178.62,436.35l-19.79-62.69h11.55l13.88,44.69,13.79-44.69h11.55l-19.79,62.69h-11.2Z"/>
        <path class="cls-1" d="M212.74,373.66h42.63v10.3h-31.44v14.24h25.88v10.3h-25.88v17.64h31.44v10.3l-42.63-.09v-62.69Z"/>
        <path class="cls-1" d="M271.05,393.54v42.81h-11.2v-62.69h12.09l23.91,42.81v-42.81h11.2v62.69h-12.09l-23.91-42.81Z"/>
        <path class="cls-1" d="M353.62,373.66h11.73l21.5,62.69h-11.73l-5.2-16.57h-20.87l-5.2,16.57h-11.73l21.5-62.69ZM366.61,409.48l-7.17-22.75-7.17,22.75h14.33Z"/>
        <path class="cls-1" d="M411.93,373.66h12.99l18.27,47.74,18.18-47.74h12.99v62.69h-11.19v-38.42l-14.51,38.06.09.36h-11.2l.09-.36-14.51-38.06v38.42h-11.2v-62.69Z"/>
        <path class="cls-1" d="M479.72,373.66h11.2v62.69h-11.2v-62.69Z"/>
      </g>
    </g>
  </g>
</svg>