<?xml version="1.0" encoding="UTF-8"?>
<svg id="Capa_2" data-name="Capa 2" xmlns="http://www.w3.org/2000/svg" viewBox="0 0 519.16 634.07">
  <defs>
    <style>
      .cls-1 {
        fill: #7a4012;
      }
    </style>
  </defs>
  <g id="Capa_1-2" data-name="Capa 1">
    <path class="cls-1" d="M312.88,231.46c-1.34-.37-11.21-7.44-14.63-9.99-3.41-2.56-10.36-5.12-10.36-5.12,13.41,13.41,26.33,15.48,24.99,15.11ZM181.12,133.1c1.71-1.71,7.44,5.12,7.44,5.12,0,0-.73-4.63.49-5.61,1.22-.97,2.19-.85,4.14,3.78s-2.07,7.92-2.07,7.92c16.21-3.53,10.24-21.82,13.41-20.84,4.87,1.5,5,10.24,5,10.24,3.53-1.34.49-7.44,3.53-7.68,3.05-.24.61,10.97.61,10.97,9.99-5.61,4.14-20.11,6.58-20.35,3.67-.37,12.31,16.7,12.31,16.7-.73-1.34-.61-20.11,1.34-16.45,3.9,7.31,9.14,6.34,9.14,6.34-3.41-2.19-2.93-12.92,3.78-4.14,16.49,21.59,29.01,18.65,29.01,18.65-27.3-13.16-42.25-45.49-54.48-68.62-5.43-10.27-11.27-17.87-11.94-20.23-2.19-7.68-6.7-8.29-9.39-8.29s-5.91,1.95-7.74,2.56c-1.83.61-17.12,4.51-17.12,4.51,9.99,2.8,17.06,10.12,18.65,18.28,1.34,6.92-14.5,11.21-19.62,51.8-2.65,20.99,6.83,34.98,6.83,34.98,0,0-1.58-17.92.12-19.62ZM276.31,210.25c12.68,21.09,34.62,22.79,34.62,22.79-19.14-6.83-34.62-22.79-34.62-22.79ZM2.28,367.2h514.6c1.26,0,2.28-1.02,2.28-2.28s-1.02-2.28-2.28-2.28h-16.33c-14.67-3.05-23.47-16.89-23.56-17.03,0,0-.02,0-.02-.02-19.62-67.14-70.55-122.92-136.49-147.94-1.2-.44-2.5.15-2.94,1.32-.44,1.17.15,2.49,1.32,2.94,69.72,26.46,122.36,87.97,137.76,160.73h-9.36c-15.83-71.55-68.56-130.64-138.05-154.47-1.13-.39-2.33.21-2.71,1.33-.39,1.12.21,2.33,1.33,2.72,67.78,23.24,119.29,80.73,135.04,150.42h-55.89c-16.34-52.18-59.56-91.97-112.87-103.88-1.2-.25-2.3.47-2.56,1.62-.26,1.15.47,2.3,1.62,2.56,51.39,11.48,93.09,49.62,109.29,99.7H118.49c14.98-46.4,51.49-82.46,98.24-96.77,1.13-.35,1.76-1.54,1.42-2.67-.35-1.13-1.53-1.76-2.68-1.42-48.54,14.86-86.34,52.5-101.47,100.86h-55.92c16.83-74.6,72.8-133.47,146.67-154.02,1.14-.32,1.81-1.5,1.49-2.64-.31-1.14-1.5-1.81-2.63-1.49-75.72,21.05-133,81.56-149.92,158.14h-9.31c16.9-79.79,78.16-145.19,156.92-167.03,1.21-.33,1.92-1.59,1.59-2.8-.34-1.21-1.54-1.93-2.81-1.58-75,20.79-134.43,80.3-156.07,154.32-.02.03-.07.03-.08.06-.09.14-8.89,13.98-23.56,17.03H2.28C1.02,362.64,0,363.66,0,364.92s1.02,2.28,2.28,2.28ZM300.43,236.34c-25.37-12.92-34.6-29.5-34.6-29.5,0,0-3.29-.61-4.63,0s-.98,1.83-.98,1.83c0,0-1.34-.85-2.8-.73-1.46.12-1.71,3.17-1.71,3.17l-16.33-1.46c2.21,1.23,5.51,4.95,12.07,9.14,6.96,4.45,17.31,9.49,23.89,14.26,8.13,5.9,12.54,11.34,13.77,11.34,3.17,0,11.32-8.04,11.32-8.04ZM153.75,279.22l-14.33-15.58c-1.42-1.55-2.15-2.71-2.17-3.49-.02-.78.47-1.74,1.5-2.9l-.51-.55-6.94,6.39.5.55c1.17-.9,2.06-1.34,2.68-1.32.93.04,2.13.87,3.62,2.49l9.04,9.83-24.44-3.66-5.05,4.64.5.55c.63-.53,1.14-.88,1.56-1.04.41-.16,1.07-.18,1.98-.07l.84.11,11.99,13.04c1.43,1.56,2.17,2.71,2.22,3.46.05.74-.48,1.74-1.59,2.99l.5.55,6.96-6.39-.51-.55c-1.18.87-2.06,1.28-2.66,1.25-.92-.06-2.12-.89-3.62-2.51l-10.59-11.52,28,4.2.52-.47ZM112.99,327.36l5.3-9.8-.64-.36c-.82,1.24-1.52,1.95-2.09,2.14-.56.19-1.5-.06-2.77-.75l-15.72-8.53c-1.26-.69-1.98-1.33-2.15-1.92-.17-.6.06-1.57.66-2.92l-.65-.36-5.32,9.8.66.36c.8-1.26,1.49-1.98,2.09-2.15.58-.18,1.5.08,2.77.77l6.89,3.73-5.83,10.74-6.88-3.74c-1.26-.69-1.98-1.33-2.15-1.92-.17-.59.05-1.56.65-2.9l-.65-.36-5.32,9.8.66.35c.8-1.25,1.49-1.96,2.08-2.14.58-.18,1.52.07,2.78.76l15.3,8.31c1.52.82,2.36,1.5,2.54,2.04.18.54-.04,1.54-.64,3l.66.36,5.32-9.8-.66-.36c-.8,1.23-1.49,1.95-2.07,2.14-.58.2-1.5-.06-2.79-.75l-7.28-3.95,5.81-10.73,6.87,3.73c1.52.82,2.38,1.5,2.56,2.04.18.54-.04,1.55-.66,3.01l.66.36ZM251.17,228.22c-9.5-4.58-19.27-19.71-19.8-20.24-.53-.53-1.76,0-1.76,0-3.98,1.59,13.1,18.46,22.44,27.64,3.04,2.99,5.99,6.95,6.16,6.95.7,0,5.72-2.11,5.37-3.61s-2.9-6.16-12.41-10.74ZM189.71,559.21c.99-.29,2.51,0,4.56.83l2.09.86-7.64,18.59c-.66,1.6-1.26,2.52-1.82,2.76-.55.24-1.64.1-3.26-.43l-.28.69,10.84,4.46.28-.69c-1.47-.72-2.36-1.35-2.67-1.88-.3-.52-.16-1.5.43-2.94l7.81-19.03,2.07.85c2.15.88,3.44,1.77,3.87,2.64.42.88.45,2.4.07,4.56l.89.37,2.39-6.4-21.02-8.64-2.82,6.22.91.37c1.2-1.84,2.3-2.9,3.28-3.19ZM197.67,252.99l5.91-2.63-.29-.68c-.77.26-1.44.36-2.02.3-.58-.05-1.23-.26-1.95-.63l-11.71-5.95c1.9-1.22,3.23-2.59,3.98-4.09.76-1.51.72-3.17-.09-5-1.21-2.72-3.38-3.99-6.51-3.82-1.65.09-3.54.61-5.65,1.55l-10.16,4.53.31.68c1.37-.48,2.34-.61,2.91-.38.56.23,1.14.99,1.71,2.28l7.08,15.91c.68,1.52.93,2.57.77,3.14-.17.57-.92,1.23-2.27,2l.3.68,10.21-4.54-.31-.68c-1.43.5-2.44.66-3.01.48-.57-.18-1.16-.95-1.77-2.31l-3.22-7.24,1.57-.8,14.22,7.23ZM181.27,245.21l-4.02-9.04c-.25-.55-.29-.95-.12-1.2.17-.25.77-.61,1.82-1.07,1.53-.68,2.87-1.03,3.99-1.03,2.09,0,3.6,1.06,4.55,3.19.98,2.2.68,4.14-.91,5.81-.93.96-2.69,2.07-5.3,3.35ZM211.81,566.81c.31.52.3,1.48-.04,2.85l-4.12,16.91c-.39,1.62-.83,2.61-1.31,2.96-.47.35-1.47.41-3.01.2l-.18.72,10.85,2.65.18-.73c-1.44-.49-2.34-.98-2.69-1.47-.34-.49-.34-1.45.02-2.9l1.88-7.7,1.73.32,6.84,14.42,6.29,1.54.17-.73c-.75-.26-1.35-.6-1.77-.99-.43-.4-.82-.96-1.17-1.68l-5.62-11.88c2.25.2,4.14-.07,5.65-.79,1.52-.73,2.52-2.07,3-4.01.71-2.89-.23-5.22-2.82-7-1.36-.93-3.17-1.68-5.42-2.23l-10.81-2.64-.18.72c1.39.46,2.23.95,2.55,1.48ZM216.07,569.24c.14-.59.36-.93.64-1.02.28-.1.98-.01,2.09.25,1.64.41,2.9.94,3.79,1.63,1.65,1.28,2.2,3.05,1.65,5.31-.57,2.35-2,3.7-4.27,4.04-1.32.19-3.41,0-6.24-.59l2.35-9.61ZM332.36,251.69c-.75,1.47-1.39,2.33-1.95,2.57-.54.25-1.53.09-2.96-.48l-.34.66,10.04,5.08.34-.67c-1.39-.83-2.2-1.52-2.44-2.08-.23-.56-.02-1.51.66-2.86l3.29-6.51c.29.15.74.38,1.33.7s1.08.58,1.46.77c2.69,1.36,5.21,1.94,7.55,1.74,2.33-.19,4.13-1.51,5.37-3.95.97-1.92.95-3.89-.06-5.87-1.02-2-3.05-3.76-6.09-5.3l-9.45-4.78-.34.66c1.23.76,1.94,1.42,2.12,2.01.17.59-.06,1.51-.68,2.76l-7.85,15.54ZM344.47,236.58c.26-.5.5-.79.75-.84.25-.06.74.09,1.47.47,1.55.78,2.72,1.65,3.51,2.61,1.48,1.77,1.66,3.76.56,5.95-1.19,2.34-2.85,3.5-5,3.48-1.18-.01-2.6-.43-4.24-1.26-.18-.09-.38-.2-.56-.31-.2-.11-.6-.36-1.21-.74l4.72-9.35ZM385.54,271.53l-4.46,8.97-3.94,7.92.42.43,16.53-7.29-5.72,11.93-2.11,4.45.44.45,7-3.18,4.46-2.03,11.56-5.25c.9-.39,1.73-.48,2.47-.25.43.12.93.41,1.5.85l.53-.52-5.52-5.76-.53.52c.53.59.86,1.07,1.01,1.48.28.71.15,1.32-.39,1.84-.15.14-.37.31-.66.5-.51.34-1.15.68-1.9,1l-13.33,5.81,6.86-14.62c.25-.53.42-.88.51-1.04.09-.15.23-.32.4-.49.5-.47,1.03-.58,1.61-.29.36.18.89.63,1.6,1.36l.54-.52-7.45-7.77-.53.52c.58.62.95,1.15,1.1,1.58.26.72.2,1.51-.19,2.38l-2.26,4.77-11.07,4.73,6.89-14.65c.18-.38.34-.68.47-.9.13-.23.29-.42.48-.61.42-.41.93-.47,1.5-.19.33.17.77.52,1.34,1.09l.53-.52-6.81-7.11-.54.52c.77.9,1.02,1.85.78,2.86-.26,1.01-1.3,3.37-3.14,7.06ZM247.67,127.49c-.85.37-.85,1.95-3.29,2.19-2.44.24-6.7-2.19-6.7-2.19,4.51,26.82-12.91,20.96-12.91,20.96,0,0,2.55-2.32,3.16-5.97.31-1.83-1.22-9.02-1.34-7.68-.12,1.34-2.07,3.53-2.93,3.66-.85.12-1.83-.49-2.8.98-.97,1.46-6.22,3.66-7.31,4.39s-.85,5.73-.85,5.73c-3.41.24-6.95-7.8-6.95-7.8-9.08,14.75-15.84,9.26-16.82,9.63-.97.37-1.34,10-1.34,10,26.33,42.78,59.73,42.42,59.73,42.42-7.68-4.75-6.95-11.82-6.95-11.82,0,0,14.14,13.77,14.02,7.8-.12-5.97,4.51-15.85,4.27-12.92-.24,2.93,4.02,20.35,3.54,16.21-.49-4.14,2.68-6.22,2.68-6.22,8.41,10.48,17.55,12.07,17.55,12.07,0,0-10.97-9.26-10.6-22.79.46-16.81,12.07-18.65,12.07-18.65-8.41-8.65-2.56-17.67,1.34-18.04,3.9-.37,5.24,5.36,7.19,12.55,1.95,7.19,7.31,17.8,11.09,18.4,3.78.61,8.9,3.78,14.75,9.14,5.85,5.36,11.7,5.24,8.78,4.37s-3.78-4.73-3.78-4.73c0,0,5.73-.73,4.14-.73s-2.8-3.78-2.8-3.78c15.97,3.41,34.13,0,34.13,0-10.12-2.56-11.33-5.24-11.33-5.24,0,0,12.19.73,12.68-1.71.49-2.44-2.56-.98-3.05-2.19-.49-1.22.73-3.66,14.63-6.34,13.89-2.68,24.26,5.61,24.26,5.61-1.58-6.7-8.04-4.63-16.46-10.97-8.41-6.34-4.63-15.11-4.63-15.11,1.22,11.7,9.63,11.7,9.63,11.7-5.73-1.34-6.83-12.19-5.12-9.14,1.71,3.05,9.75,3.66,9.75,3.66,0,0-4.02-1.95,0-5.73,4.02-3.78,14.26.37,14.26.37.24-2.56-9.14-5.12-7.68-5.36s6.83-1.83,6.83-1.83c-18.77-4.75-17.67-13.77-13.77-10.73,3.9,3.05,10.36,2.32,10.36,2.32-8.17-.49-13.41-10.73-1.46-10.48,11.95.24,18.04,23.4,18.04,23.4,2.19-30.47-18.41-28.77-21.57-28.77s-4.27-.73-3.17-1.46c1.1-.73,9.26-4.27,7.8-4.02s-12.55,2.19-13.53,1.22c-.97-.98,5.12-3.66,3.54-3.29-1.58.37-7.19-.85-7.68-2.8-.49-1.95,7.92-5.97,16.94-5.97s16.7,2.93,16.7,2.93c-26.69-18.65-64.84,18.77-64.84,18.77,9.75-19.99,36.2-28.4,47.17-30.23,10.97-1.83,21.33,5.12,21.33,5.12-18.77-17.79-63.14-1.34-63.14-1.34,5-11.46,18.89-16.33,28.28-16.33s12.8,4.14,21.09,4.14c22.44,0,21.57-13.53,21.57-13.53-12.19,20.96-29.5-9.26-39.25-9.26s-18.89,12.43-19.75,9.87c-2.2-6.6,12.68-20.72,31.45-20.72s22.55,5.24,22.55,5.24c-5.73-10.48-29.74-9.63-29.74-9.63,8.65-4.51,28.64-.24,28.64-.24-11.09-6.95-35.47-2.07-35.47-2.07,0,0,5.3-6.58,20.72-6.58,25.85,0,36.81,32.67,36.81,32.67-5.61-24.99-19.75-35.47-38.03-37.42-18.28-1.95-41.93,18.89-41.93,18.89,0,0,18.89-32.06,47.9-30.23,43.41,2.74,43.27,68.87,43.27,68.87,5.85-55.7-16.45-69.11-16.45-69.11,18.53.12,30.71,34.01,30.71,34.01-9.87-45.46-48.75-46.56-48.75-46.56,59.36-3.66,55.95,49.61,55.95,49.61C477.79,29.01,469.01-.14,428.18,0c-55.17.19-83.11,39.74-100.8,77.4-16.86,35.89-24.19,70-46.19,68.99-23.03-1.06-32.67-19.26-33.52-18.89ZM432.7,16.48c-50.03-11.37-74.81,26.64-91.42,60.88-10.15,20.94-21.38,43.57-21.38,43.57,45-145.58,112.8-104.45,112.8-104.45ZM329.21,161.26c15.84-.12,14.02-13.53,26.94-5.18,0,0-7.8.91-9.02,3.47-1.22,2.56-6.46,13.77-24.87,6.34,0,0-1.71,12.68,19.38,12.8,0,0-33.27,5.48-38.4-27.79,0,0,10.12,10.48,25.96,10.36ZM516.88,485.22H2.28C1.02,485.22,0,486.24,0,487.5s1.02,2.28,2.28,2.28h16.58c28.23,10.09,42.28,24.26,42.42,24.4.03.03.08.02.12.05,38.73,72.63,115.44,119.84,199.08,119.84s160.34-47.21,199.08-119.84c.03-.03.08-.02.12-.05.13-.14,14.17-14.31,42.41-24.4h14.8c1.26,0,2.28-1.02,2.28-2.28s-1.02-2.28-2.28-2.28ZM385.61,489.78c-27.69,42.59-74.29,67.99-125.13,67.99s-97.42-25.37-125.1-67.99h250.24ZM130.26,489.78c28.28,45.27,76.83,72.27,130.21,72.27s101.56-26.79,129.89-71.68c.12-.18.05-.39.1-.59h61.01c-32.67,76.83-107.27,126.28-191,126.28s-158.34-49.46-191-126.28h60.79ZM260.47,629.51c-90.23,0-172.3-56.04-205.43-139.73h9.8c32.96,79.37,109.57,130.56,195.64,130.56s162.67-51.2,195.63-130.56h9.8c-33.13,83.69-115.21,139.73-205.44,139.73ZM414.98,297.34l-14.9,9.9c-1.26.83-2.16,1.17-2.71,1.01-.55-.16-1.3-.81-2.26-1.95l-.61.41,12.03,18.09,6.67-2.23-.62-.93c-2.47.41-4.32.23-5.54-.52-1.22-.75-2.58-2.26-4.09-4.53-1.39-2.09-2.17-3.39-2.33-3.89-.17-.5.09-.97.76-1.42l8.29-5.51,3.43,5.16c.95,1.42,1.33,2.47,1.17,3.14-.15.67-.8,1.56-1.92,2.68l.52.78,7.73-5.14-.52-.78c-1.46.61-2.52.87-3.2.76-.68-.11-1.49-.88-2.45-2.31l-3.43-5.16,7.47-4.97c.43-.29.77-.43,1-.42.23.01.52.26.84.75l3.03,4.56c1.31,1.96,1.93,3.38,1.87,4.23-.06.85-.73,1.91-2.01,3.18l.56.85,4.71-3.3-11.82-17.78-.62.41c.74,1.3,1.04,2.25.91,2.85-.12.6-.79,1.3-1.96,2.09ZM304.71,186.36c-12.19-2.19-14.14-14.75-14.14-14.75,0,0,.61,7.8-1.83,8.29-2.44.49-4.02-3.41-4.02-3.41-5.97,25.84,14.75,42.29,14.75,42.29-11.46-19.5-5.73-23.28-5.73-23.28,11.91,30.53,34.74,34.98,34.74,34.98-44.37-24.5-23.77-44.12-23.77-44.12ZM281.54,246.26c-.35-.35-5.23-3.7-5.23-3.7,0,0-16.42,9.24-19.94,10.65-3.52,1.41-22.62,5.1-22.62,21.74s2.55,16.28,2.55,16.28c0,0,3.08-1.94,3.08-3.26,0-1.32-2.29-5.02-2.29-5.02.09-5.63,4.31-12.59,4.84-12.06.53.53-.62,2.73.97,8.98,1.58,6.25,6.25,4.93,5.1,4.49s-4.14-3.61-2.55-4.66c1.58-1.06,1.06-4.66.86-6.16-.2-1.5,3.98-5.02,4.42-4.49.44.53,6.34,8.36,7.3,7.31s-3.7-7.31-3.61-8.27c.09-.97.97-4.49,1.94-7.57.97-3.08,25.52-13.91,25.17-14.26ZM429.2,319.89l-15.74,7.44c-1.51.71-2.55.99-3.12.85-.58-.15-1.25-.89-2.04-2.23l-.67.32,4.77,10.1.67-.32c-.53-1.43-.71-2.43-.55-3.01.17-.58.92-1.18,2.27-1.82l7.16-3.39.84,1.55-6.9,14.38,2.76,5.86.68-.32c-.27-.75-.39-1.43-.35-2.01.04-.58.24-1.24.59-1.97l5.68-11.84c1.27,1.87,2.66,3.17,4.18,3.9,1.53.71,3.2.64,5-.2,2.69-1.28,3.92-3.47,3.67-6.6-.13-1.65-.69-3.52-1.68-5.61l-4.75-10.06-.68.32c.51,1.36.66,2.33.45,2.9-.21.58-.96,1.16-2.24,1.76ZM432.24,322.97c.53-.26.94-.3,1.2-.14.25.16.63.76,1.11,1.78.72,1.53,1.09,2.85,1.12,3.97.05,2.09-.98,3.63-3.08,4.63-2.18,1.03-4.13.77-5.83-.78-.99-.91-2.14-2.66-3.47-5.23l8.95-4.22ZM271.44,537.24c4.57,0,7.78-2.62,9.63-7.87.98-2.79,1.47-5.76,1.47-8.92,0-4.01-.8-7.56-2.4-10.66-2.01-3.82-4.84-5.73-8.49-5.73-4.05,0-7.04,2.01-8.99,6.02-1.44,2.95-2.16,6.47-2.16,10.56,0,5.2,1.07,9.32,3.23,12.34,2.01,2.84,4.58,4.26,7.7,4.26ZM265.99,511.95c.99-4.4,2.84-6.61,5.54-6.61s4.54,2.14,5.52,6.42c.52,2.3.79,5.37.79,9.22,0,4.83-.44,8.52-1.31,11.07-.87,2.55-2.47,3.83-4.81,3.83-2.79,0-4.69-2.01-5.7-6.04-.54-2.15-.81-5.03-.81-8.63,0-3.83.26-6.92.79-9.27ZM159.89,569.45c.29-.17.63-.14,1.04.1.17.1.72.7,1.66,1.78.93,1.09,1.94,1.94,3.01,2.57,2.14,1.24,4.26,1.65,6.34,1.23,2.09-.42,3.65-1.55,4.71-3.37.8-1.35,1.09-2.76.9-4.2-.21-1.44-.94-3.3-2.17-5.59l-1.95-3.66c-.74-1.36-1.18-2.52-1.36-3.49-.17-.95,0-1.87.52-2.76.58-1,1.38-1.57,2.42-1.72,1.03-.15,2.03.05,2.98.61,1.22.71,2.2,1.87,2.93,3.48.74,1.61.74,3.69.01,6.25l.83.49,3.54-7.85-.72-.41c-.31.33-.6.53-.88.65-.28.11-.63.04-1.06-.21-.16-.1-.69-.66-1.58-1.69-.88-1.04-1.73-1.79-2.52-2.25-1.92-1.12-3.8-1.44-5.64-.94-1.85.48-3.28,1.61-4.29,3.37-.77,1.32-.98,2.82-.63,4.48.2.89.58,1.87,1.14,2.95l1.88,3.57c1.09,2.06,1.75,3.51,1.97,4.34.33,1.31.16,2.53-.5,3.67-.73,1.25-1.71,2-2.92,2.23-1.22.23-2.38.03-3.49-.61-2.04-1.18-3.28-3-3.73-5.41-.25-1.38-.22-3.04.1-4.94l-.8-.46-3.26,8,.76.44c.21-.25.45-.47.74-.63ZM373.38,249.76c-2.95-2.09-6.11-2.88-9.5-2.38-3.71.56-6.79,2.59-9.28,6.09-2.36,3.33-3.25,6.8-2.69,10.38.56,3.52,2.37,6.37,5.44,8.54,2.88,2.03,6,2.82,9.36,2.38,3.76-.5,6.89-2.53,9.4-6.09,2.49-3.51,3.37-7.08,2.67-10.74-.64-3.37-2.44-6.1-5.4-8.2ZM372.4,266.07c-2.5,3.54-5.01,5.62-7.52,6.26-2.52.64-4.73.27-6.67-1.1-1.98-1.4-3.06-3.4-3.25-6.02-.19-2.61.93-5.64,3.38-9.09,2.45-3.46,4.95-5.53,7.48-6.22,2.53-.68,4.78-.33,6.75,1.06,1.9,1.34,2.98,3.3,3.25,5.88.26,2.58-.87,5.65-3.41,9.23ZM285.67,288.68s-7.66,4.4-9.59,4.93c-1.94.53-11.18-2.99-10.21-5.19.97-2.2,7.22-27.11,5.54-27.02-1.67.09-8.27,6.95-8.27,6.95,0,0-.62,9.33-1.06,18.75-.44,9.42-6.07,19.63-8.1,20.33s-21.47,2.82-22.44,3.96c-.97,1.14,2.73,3.34,5.1,3.52,2.38.18,4.93-1.06,5.54-1.76s11.27-2.29,13.99-2.73c2.73-.44,11.88.62,14.08,1.32s9.06.53,8.98-1.67-4.75-.97-8.54-1.67c-3.78-.7-4.49-.53-5.46-2.11-.97-1.58.62-9.95.62-9.95,17.6,3.61,19.8-7.66,19.8-7.66ZM79.1,477.51c-.85.42-2.23.7-4.16.82v1.95h24.23c8.77,0,15.71-2.71,20.83-8.13,4.54-4.82,6.81-10.7,6.81-17.64,0-7.74-2.26-13.91-6.78-18.5-4.97-5.04-12.19-7.57-21.65-7.57h-23.44v1.95c2.02.18,3.44.49,4.27.94,1.42.77,2.14,2.15,2.14,4.12v37.83c0,2.05-.75,3.46-2.25,4.23ZM93.75,435.49c0-1.57.2-2.63.6-3.18.6-.85,1.9-1.27,3.9-1.27,6.04,0,10.34,3.13,12.88,9.4,1.57,3.9,2.36,8.55,2.36,13.97,0,9.12-1.46,15.28-4.38,18.48-2.92,3.21-6.65,4.81-11.2,4.81-1.68,0-2.77-.35-3.28-1.05-.51-.7-.8-1.84-.88-3.41v-37.75ZM335.43,556.19c.6.15,1.27.83,2.01,2.07l8.97,14.92c.89,1.49,1.27,2.51,1.15,3.06-.13.56-.82,1.31-2.08,2.26l.38.64,9.56-5.74-.39-.64c-1.33.66-2.28.92-2.87.79-.6-.12-1.26-.81-2.01-2.07l-4.27-7.1,10.46-6.29,4.03,6.7c.89,1.49,1.28,2.51,1.16,3.06-.12.55-.81,1.31-2.09,2.26l.39.64,9.55-5.74-.38-.64c-1.34.65-2.3.91-2.88.79-.59-.13-1.26-.82-2.01-2.07l-9.2-15.33c-.74-1.23-1.04-2.15-.88-2.75.15-.6.84-1.32,2.04-2.17l-.38-.64-9.56,5.74.39.64c1.33-.68,2.3-.94,2.89-.79.59.14,1.25.83,2,2.07l4.03,6.72-10.47,6.29-4.03-6.72c-.74-1.23-1.04-2.15-.88-2.75.16-.6.83-1.32,2.04-2.17l-.38-.64-9.56,5.74.39.64c1.33-.67,2.28-.93,2.88-.79ZM146.8,407.76h-2.14c-2.39,5.22-5.14,8.78-8.24,10.67-3.1,1.9-7.09,2.85-11.99,2.85-2.6,0-4.31-.29-5.14-.88-.84-.59-1.26-1.69-1.26-3.31v-18.58c4.37,0,7.4.89,9.08,2.68,1.68,1.79,2.8,4.86,3.35,9.23h1.95v-25.92h-1.95c-.82,4.35-2.01,7.34-3.56,8.97-1.55,1.63-4.51,2.43-8.88,2.38v-17.75c0-1.45.32-2.42.96-2.9.63-.49,2.12-.73,4.47-.73,6.16,0,10.42.91,12.75,2.73,2.34,1.82,3.99,5.21,4.97,10.15h1.87v-15.47h-44.2v1.95c2.22.13,3.76.42,4.61.89,1.47.77,2.21,2.27,2.21,4.5v37.15c0,2.2-.71,3.7-2.14,4.5-.93.52-2.49.82-4.68.9v1.95h44.83l3.11-15.95ZM435.99,481.82c7.72,0,14.14-2.5,19.29-7.49,5.27-5.12,7.91-11.71,7.91-19.78s-2.63-14.66-7.91-19.77c-5.11-4.99-11.55-7.49-19.29-7.49s-14.6,2.62-19.7,7.86c-5.05,5.17-7.56,11.77-7.56,19.81,0,7.29,2.41,13.51,7.23,18.65,5.17,5.47,11.85,8.2,20.04,8.2ZM424.05,440.25c2.15-6.92,6.13-10.37,11.93-10.37,4.17,0,7.48,2.07,9.92,6.22,2.44,4.15,3.66,10.3,3.66,18.46,0,5.94-.58,10.76-1.72,14.46-2.15,6.82-6.1,10.22-11.85,10.22s-9.76-3.41-11.88-10.22c-1.15-3.67-1.72-8.49-1.72-14.46s.56-10.63,1.68-14.31ZM127.45,306.65c2.17-2.77,3.11-5.85,2.82-9.23-.33-3.78-2.2-7-5.65-9.68-3.38-2.64-6.91-3.7-10.59-3.17-3.4.48-6.21,2.15-8.45,5.02-2.22,2.85-3.16,5.97-2.81,9.38.39,3.72,2.27,6.9,5.65,9.54,3.22,2.51,6.63,3.57,10.24,3.18,3.54-.39,6.47-2.06,8.79-5.04ZM111.22,304.92c-3.35-2.61-5.29-5.19-5.86-7.75-.56-2.56-.1-4.79,1.38-6.69,1.44-1.83,3.44-2.83,6.02-2.97,2.59-.14,5.61,1.14,9.07,3.83,3.41,2.66,5.38,5.27,5.89,7.81.52,2.54.05,4.74-1.41,6.61-1.5,1.91-3.55,2.9-6.17,2.96-2.62.07-5.59-1.2-8.93-3.8ZM176.93,464.33h-2.14c-2.39,5.22-5.14,8.77-8.24,10.67-3.1,1.9-7.09,2.85-11.99,2.85-2.6,0-4.31-.29-5.14-.88-.84-.59-1.26-1.69-1.26-3.31v-18.58c4.37,0,7.4.89,9.08,2.68,1.68,1.79,2.8,4.86,3.35,9.23h1.95v-25.92h-1.95c-.82,4.35-2.01,7.34-3.56,8.97-1.55,1.63-4.51,2.43-8.88,2.38v-17.75c0-1.45.32-2.42.96-2.9.63-.49,2.12-.73,4.48-.73,6.16,0,10.42.91,12.75,2.73,2.34,1.82,3.99,5.21,4.97,10.15h1.87v-15.47h-44.2v1.95c2.22.13,3.76.42,4.61.89,1.47.77,2.21,2.27,2.21,4.5v37.15c0,2.2-.71,3.7-2.14,4.5-.93.52-2.49.82-4.68.9v1.95h44.83l3.11-15.95ZM247.09,537.24c4.57,0,7.78-2.62,9.63-7.87.98-2.79,1.47-5.76,1.47-8.92,0-4.01-.8-7.56-2.4-10.66-2.01-3.82-4.84-5.73-8.49-5.73-4.05,0-7.04,2.01-8.99,6.02-1.44,2.95-2.16,6.47-2.16,10.56,0,5.2,1.07,9.32,3.24,12.34,2.01,2.84,4.58,4.26,7.7,4.26ZM241.64,511.95c.99-4.4,2.84-6.61,5.54-6.61s4.54,2.14,5.52,6.42c.52,2.3.79,5.37.79,9.22,0,4.83-.44,8.52-1.31,11.07-.87,2.55-2.47,3.83-4.81,3.83-2.79,0-4.69-2.01-5.7-6.04-.54-2.15-.81-5.03-.81-8.63,0-3.83.26-6.92.79-9.27ZM186.05,408.7c0-4.14-1.41-7.66-4.21-10.56-1.5-1.55-3.51-2.96-6.03-4.23l-5.67-2.85c-4.73-2.37-7.77-4.17-9.13-5.4-1.39-1.2-2.07-3.01-2.07-5.44,0-2.03.74-3.74,2.21-5.15,1.48-1.41,3.49-2.12,6.02-2.12,3.62,0,6.69,1.4,9.21,4.19,2.53,2.8,4.29,6.13,5.29,10h2.14v-16.7h-2.28c-.2.8-.45,1.44-.77,1.93-.32.48-.9.73-1.73.73-.37,0-1.85-.43-4.44-1.27-2.59-.85-5.27-1.27-8.05-1.27-5.45,0-9.5,1.62-12.14,4.87-2.64,3.25-3.96,6.75-3.96,10.49,0,3.52.99,6.49,2.99,8.88,1.99,2.4,5.41,4.82,10.26,7.27l4.88,2.47c3.04,1.53,5.05,2.76,6.05,3.71,1.5,1.45,2.25,3.32,2.25,5.62,0,1.97-.72,3.85-2.16,5.64-1.44,1.79-3.87,2.68-7.29,2.68s-6.64-1.3-9.35-3.9c-2.73-2.6-4.7-6.77-5.92-12.5h-2.21v18.99h2.21c.22-.85.48-1.5.77-1.97.29-.46.83-.69,1.62-.69.22,0,.49.03.81.09.32.06.65.14.99.24l1.47.56c1.53.6,3.07,1.04,4.63,1.33,1.56.29,3.1.43,4.62.43,6.63,0,11.45-1.72,14.46-5.15,3.01-3.43,4.51-7.08,4.51-10.95ZM293.24,522.73c2.78,0,5.13-1.36,7.03-4.08,1.92-2.72,2.87-5.51,2.87-8.36,0-.59-.02-1.02-.07-1.29-.04-.28-.14-.63-.26-1.06.4.13.8.22,1.2.29.63.11,1.38.17,2.25.17.98,0,1.77-.09,2.36-.26.6-.17,1.5-.54,2.71-1.09l-17.11,30.44h2.31l18.88-33.61h-1.88c-.91.89-1.78,1.56-2.61,2.02-1.55.89-3.23,1.33-5.06,1.33-.71,0-1.39-.06-2.06-.19-.67-.13-1.19-.35-1.55-.67l-.91-.81c-.32-.29-.65-.49-.98-.62-.62-.25-1.42-.38-2.41-.38-2.76,0-5.21,1.27-7.34,3.81-2.14,2.54-3.2,5.11-3.2,7.73,0,2.17.61,3.82,1.81,4.94,1.21,1.13,2.55,1.69,4.03,1.69ZM293.45,510.12c1.6-2.75,3.16-4.12,4.7-4.12.11,0,.43.18.94.56.52.37.96.6,1.34.7.54.13.92.33,1.13.62.21.29.33.93.33,1.92,0,2.79-.81,5.37-2.42,7.73-1.62,2.36-3.4,3.54-5.35,3.54-1.03,0-1.8-.3-2.3-.89-.5-.6-.75-1.42-.75-2.46,0-2.31.8-4.85,2.39-7.6ZM400.88,408.65h17.22l1.95,4.64c.42,1.02.76,1.9,1.01,2.62.4,1.22.6,2.13.6,2.73,0,1.32-.39,2.15-1.18,2.47s-2.43.54-4.92.64v1.95h24.83v-1.95c-1.75.05-3.1-.58-4.05-1.89-.95-1.31-2.39-4.23-4.31-8.74l-17.11-40.3h-2.14l-17.04,41.98c-1.34,3.32-2.38,5.47-3.11,6.44-1.12,1.55-2.61,2.39-4.46,2.51v1.95h15.65v-1.95c-1.75-.02-3.06-.17-3.93-.45-1.47-.5-2.21-1.3-2.21-2.4,0-.9.34-2.33,1.01-4.31.33-.92,1.05-2.91,2.17-5.95ZM408.96,387.87h.64l7.38,17.75h-14.94l6.92-17.75ZM309.67,522.39c-2.18,2.43-3.27,5.02-3.27,7.77,0,2.3.58,3.99,1.74,5.08,1.17,1.09,2.55,1.63,4.14,1.63,2.96,0,5.35-1.45,7.15-4.35,1.8-2.9,2.71-5.55,2.71-7.94,0-2.23-.53-3.77-1.6-4.59-1.06-.83-2.28-1.24-3.65-1.24-2.65,0-5.06,1.22-7.23,3.65ZM317.32,520.28c1.04,0,1.89.37,2.54,1.12.65.75.97,1.78.97,3.12,0,2.15-.77,4.5-2.31,7.03-1.55,2.53-3.28,3.79-5.21,3.79-.95,0-1.72-.28-2.33-.83-.6-.56-.9-1.36-.9-2.4,0-2.11.74-4.61,2.21-7.49s3.15-4.33,5.03-4.33ZM220.21,508.15c.63,0,1.05.2,1.24.59.19.4.28.98.28,1.74v22.02c0,1.43-.29,2.35-.88,2.78-.59.43-1.84.69-3.76.79v.71h13.44v-.67c-1.79-.06-3.01-.26-3.66-.6-.66-.33-.98-1.11-.98-2.33v-28.63c0-.14,0-.23-.01-.27,0-.04-.04-.1-.1-.18h-.29l-8.73,4.45v.66c.57-.25,1.19-.49,1.85-.72.66-.23,1.19-.34,1.6-.34ZM314.29,570.76c-.43-2.15-.4-3.68.1-4.58s1.79-1.76,3.85-2.59l2.1-.86,7.55,18.63c.65,1.6.87,2.68.64,3.23-.23.56-1.1,1.22-2.63,1.98l.28.69,10.86-4.41-.28-.69c-1.56.5-2.63.68-3.23.52-.58-.17-1.17-.96-1.75-2.4l-7.74-19.06,2.08-.84c2.15-.87,3.69-1.16,4.61-.83.91.33,1.99,1.4,3.24,3.21l.9-.36-2.77-6.25-21.06,8.55,2.34,6.41.91-.37ZM258.58,573.78c.43.13.95.53,1.59,1.18l.59.61,1.17,17.67c.14,2.12,0,3.48-.44,4.08-.44.61-1.47,1.06-3.11,1.34l.05.75,9.42-.62-.06-.75c-1.46-.06-2.41-.29-2.85-.69-.68-.62-1.09-2.03-1.24-4.22l-1.04-15.62,19.21,20.82.68-.05-1.4-21.12c-.13-2.1.03-3.46.5-4.08.47-.63,1.46-1.06,2.98-1.32l-.05-.74-9.42.62.05.74c1.49.03,2.46.25,2.91.65.7.62,1.12,2.03,1.26,4.22l.89,13.33-16.76-18.16-6.84.45.05.74c.83-.03,1.45.03,1.87.17ZM286.83,477.7c-.79.33-2.43.54-4.92.64v1.95h24.83v-1.95c-1.75.05-3.1-.58-4.05-1.89-.95-1.31-2.39-4.23-4.31-8.74l-17.11-40.3h-2.14l-17.04,41.98c-1.34,3.32-2.38,5.47-3.11,6.44-1.12,1.55-2.61,2.38-4.46,2.51v1.95h15.65v-1.95c-1.75-.02-3.06-.17-3.94-.45-1.47-.5-2.21-1.3-2.21-2.4,0-.9.34-2.33,1.01-4.31.33-.92,1.05-2.91,2.17-5.95h17.23l1.95,4.64c.42,1.02.76,1.9,1.01,2.62.4,1.22.6,2.13.6,2.73,0,1.32-.39,2.15-1.18,2.47ZM268.38,462.19l6.92-17.75h.64l7.38,17.75h-14.94ZM194.68,420.17c-.86.89-2.55,1.42-5.08,1.59v1.95h25.54v-1.95c-2.6-.1-4.36-.59-5.32-1.46-.95-.87-1.42-2.72-1.42-5.54v-14.31c4.57,0,8.02-.1,10.34-.3,2.32-.2,4.65-.77,6.97-1.72,3.07-1.35,5.27-3.12,6.61-5.33,1.33-2.21,2-4.58,2-7.1,0-5.17-1.7-8.81-5.11-10.94-3.41-2.12-8.38-3.18-14.92-3.18h-24.68v1.95c2.5.27,4.19.79,5.06,1.55.87.76,1.31,2.58,1.31,5.46v33.93c0,2.72-.44,4.52-1.3,5.41ZM208.41,377.19c0-1.05.33-1.76.99-2.12.66-.36,1.76-.54,3.28-.54,3.32,0,5.57,1.07,6.74,3.22,1.17,2.15,1.76,4.97,1.76,8.46,0,5.12-1.22,8.45-3.63,10-1.52.98-4.57,1.5-9.14,1.57v-20.6ZM168.37,269.01c2.95-1.92,4.84-4.52,5.66-7.81.92-3.67.19-7.34-2.19-10.98-2.34-3.6-5.35-5.75-9-6.44-3.36-.64-6.57.02-9.61,2-3.03,1.98-4.94,4.63-5.71,7.96-.85,3.65-.09,7.26,2.25,10.86,2.24,3.42,5.12,5.53,8.66,6.33,3.47.78,6.79.13,9.94-1.92ZM153.58,262.11c-2.32-3.55-3.33-6.64-3.03-9.24.29-2.6,1.45-4.57,3.47-5.88,1.95-1.28,4.17-1.56,6.66-.86,2.5.71,4.94,2.89,7.33,6.57,2.37,3.63,3.38,6.72,3.05,9.29-.33,2.57-1.5,4.5-3.48,5.79-2.03,1.33-4.29,1.6-6.79.81s-4.9-2.95-7.21-6.49ZM225.36,481.74c4.7,0,8.94-.52,12.73-1.57,3.8-1.05,6.54-2.1,8.24-3.15v-9.77c0-2.65.43-4.45,1.29-5.41.86-.96,2.62-1.49,5.26-1.59v-1.95h-26.29v1.95c2.82.05,4.7.3,5.62.75,1.42.72,2.14,2.25,2.14,4.57v8.09c0,1.57-.33,2.75-.97,3.52-1.12,1.38-3.32,2.06-6.59,2.06-6.05,0-10.12-2.5-12.23-7.51-2.11-5.01-3.17-10.71-3.17-17.1,0-7.79,1.14-13.83,3.41-18.13,2.27-4.29,5.88-6.44,10.83-6.44,4.54,0,8.61,2.07,12.21,6.22,1.92,2.25,3.81,5.32,5.65,9.21h1.95v-17.94h-2.14c-.32,1.18-.74,2.05-1.23,2.62-.5.57-1.16.86-1.98.86-.77,0-2.74-.59-5.88-1.78-3.15-1.19-6.3-1.78-9.48-1.78-7.91,0-14.42,2.68-19.51,8.05-4.92,5.22-7.38,11.65-7.38,19.29s2.37,13.86,7.11,18.88c5.1,5.37,11.9,8.05,20.41,8.05ZM294.21,593.18c3.15,1.62,6.63,1.98,10.45,1.1,2.08-.49,4.14-1.38,6.22-2.66,2.07-1.29,3.04-2.17,2.93-2.62l-1.79-7.71c-.29-1.28-.23-2.18.21-2.71.26-.33.86-.64,1.81-.93l-.17-.73-9.98,2.33.17.73c1.47-.25,2.45-.23,2.97.03.51.27.94,1.16,1.29,2.68l1.46,6.24c.1.43.07.78-.11,1.06-.18.27-.7.68-1.55,1.2-.53.32-1.1.6-1.72.84-.62.24-1.17.41-1.63.52-2.79.65-5.38.18-7.75-1.4-2.38-1.58-3.97-4.18-4.81-7.78-1.02-4.37-.8-7.73.66-10.08,1.46-2.36,3.45-3.81,5.96-4.4,2.47-.58,4.67-.23,6.59,1.04,1.07.73,2.22,1.95,3.47,3.66l.9-.21-2.23-8.17-.86.2c-.07.45-.2.81-.39,1.08-.18.27-.55.47-1.12.6-.21.05-1.11.04-2.68-.05-1.56-.08-3.09.06-4.62.41-4.19.98-7.22,3.2-9.09,6.66-1.69,3.14-2.12,6.53-1.26,10.17.96,4.14,3.18,7.1,6.64,8.89ZM255.53,592.39l-1.12-.1c-1.23,2.19-2.52,3.52-3.87,3.99-1.34.48-3.37.6-6.09.35-2.51-.23-4.01-.44-4.5-.63-.48-.18-.69-.68-.62-1.48l.9-9.91,6.18.56c1.69.15,2.75.5,3.17,1.05.42.54.71,1.6.87,3.18l.94.08.84-9.24-.94-.09c-.43,1.52-.9,2.51-1.41,2.97-.52.46-1.62.62-3.33.46l-6.18-.55.81-8.94c.05-.52.15-.87.3-1.04.16-.17.53-.24,1.12-.19l5.46.49c2.33.21,3.82.61,4.46,1.19.63.58,1.04,1.77,1.22,3.56l1.01.1.38-5.74-21.26-1.93-.07.74c1.47.24,2.41.6,2.81,1.07.39.48.52,1.42.39,2.84l-1.62,17.81c-.13,1.5-.44,2.42-.9,2.75-.47.33-1.45.51-2.94.53l-.07.74,21.64,1.96,2.43-6.6ZM386.08,406.33h-2.25c-2.27,5.89-4.97,9.86-8.11,11.89-3.13,2.04-7.01,3.05-11.63,3.05-2.57,0-4.3-.28-5.19-.83-.89-.55-1.33-1.67-1.33-3.37v-36.25c0-3.03.52-4.93,1.55-5.7,1.04-.77,3.12-1.2,6.24-1.3v-1.95h-26.81v1.95c2.22.13,3.76.42,4.6.89,1.45.77,2.17,2.27,2.17,4.5v37.15c0,2.25-.76,3.77-2.28,4.57-.9.48-2.4.75-4.49.82v1.95h44.42l3.11-17.38ZM405.54,462.9h-2.25c-2.27,5.89-4.97,9.86-8.11,11.89-3.13,2.03-7.01,3.05-11.63,3.05-2.57,0-4.3-.28-5.19-.83-.89-.55-1.33-1.67-1.33-3.37v-36.25c0-3.03.52-4.93,1.55-5.7,1.04-.77,3.12-1.2,6.24-1.3v-1.95h-26.81v1.95c2.22.13,3.76.42,4.6.89,1.45.77,2.17,2.27,2.17,4.5v37.15c0,2.25-.76,3.77-2.28,4.57-.9.48-2.4.75-4.49.82v1.95h44.42l3.11-17.38ZM355.92,462.9h-2.25c-2.27,5.89-4.97,9.86-8.11,11.89-3.13,2.03-7.01,3.05-11.63,3.05-2.57,0-4.3-.28-5.19-.83-.89-.55-1.33-1.67-1.33-3.37v-36.25c0-3.03.52-4.93,1.55-5.7,1.04-.77,3.12-1.2,6.24-1.3v-1.95h-26.81v1.95c2.22.13,3.76.42,4.6.89,1.45.77,2.17,2.27,2.17,4.5v37.15c0,2.25-.76,3.77-2.28,4.57-.9.48-2.4.75-4.49.82v1.95h44.42l3.11-17.38ZM336.72,407.76h-2.14c-2.39,5.22-5.14,8.78-8.24,10.67-3.1,1.9-7.09,2.85-11.99,2.85-2.6,0-4.31-.29-5.14-.88-.84-.59-1.26-1.69-1.26-3.31v-18.58c4.37,0,7.4.89,9.08,2.68,1.68,1.79,2.8,4.86,3.35,9.23h1.95v-25.92h-1.95c-.82,4.35-2.01,7.34-3.56,8.97-1.55,1.63-4.51,2.43-8.88,2.38v-17.75c0-1.45.32-2.42.96-2.9.63-.49,2.12-.73,4.48-.73,6.16,0,10.42.91,12.75,2.73,2.34,1.82,3.99,5.21,4.97,10.15h1.87v-15.47h-44.2v1.95c2.22.13,3.76.42,4.61.89,1.47.77,2.21,2.27,2.21,4.5v37.15c0,2.2-.71,3.7-2.14,4.5-.93.52-2.49.82-4.68.9v1.95h44.83l3.11-15.95ZM276.72,419.93c3.15-3.54,4.72-8.58,4.72-15.09v-24.53c0-2.47.39-4.05,1.18-4.74s2.41-1.27,4.85-1.74v-1.95h-16.85v1.95c2.95.23,4.92.86,5.94,1.89,1.01,1.03,1.52,2.93,1.52,5.67v23.47c0,4.32-.58,7.69-1.73,10.09-2.07,4.37-6.05,6.56-11.95,6.56-4.75,0-7.96-1.98-9.63-5.93-.93-2.12-1.39-5.14-1.39-9.04v-25.7c0-2.93.5-4.8,1.5-5.62,1-.82,2.98-1.28,5.95-1.38v-1.95h-25.92v1.95c2.68.3,4.39.82,5.15,1.57.76.75,1.14,2.56,1.14,5.44v25.68c0,4.42.87,8.04,2.58,10.83,3.25,5.27,9.28,7.91,18.09,7.91,6.74,0,11.69-1.77,14.83-5.32Z"/>
  </g>
</svg>