<?xml version="1.0" encoding="UTF-8"?>
<svg id="Capa_2" data-name="Capa 2" xmlns="http://www.w3.org/2000/svg" viewBox="0 0 595.36 433.78">
  <defs>
    <style>
      .cls-1 {
        fill: #fff;
      }

      .cls-2 {
        fill: #009540;
      }

      .cls-3 {
        fill: #bbce00;
      }
    </style>
  </defs>
  <g id="Capa_1-2" data-name="Capa 1">
    <g>
      <rect class="cls-3" x="0" y="343.76" width="595.36" height="90.02" rx="5.1" ry="5.1"/>
      <g>
        <path class="cls-1" d="M68.1,402.8c0,2.41-.4,4.67-1.2,6.78-.8,2.11-2.02,3.93-3.65,5.46-1.63,1.52-3.69,2.73-6.18,3.61-2.49.88-5.45,1.32-8.87,1.32-2.52,0-4.84-.23-6.98-.68-2.14-.45-4.11-1.07-5.9-1.85-1.79-.78-3.41-1.66-4.86-2.65-1.44-.99-2.7-1.99-3.77-3.01l6.34-6.9c2.19,1.87,4.49,3.32,6.9,4.33,2.41,1.02,5.14,1.53,8.19,1.53,1.93,0,3.53-.21,4.82-.64,1.28-.43,2.31-.98,3.09-1.65.78-.67,1.31-1.44,1.61-2.33.29-.88.44-1.75.44-2.61,0-1.66-.44-3.02-1.32-4.09-.88-1.07-2.06-1.97-3.53-2.69-1.47-.72-3.14-1.34-5.02-1.85-1.87-.51-3.79-1.03-5.74-1.57-1.95-.53-3.87-1.16-5.74-1.89-1.87-.72-3.55-1.65-5.02-2.77-1.47-1.12-2.65-2.53-3.53-4.21-.88-1.69-1.32-3.79-1.32-6.3,0-2.35.43-4.52,1.28-6.5.86-1.98,2.1-3.68,3.73-5.1,1.63-1.42,3.66-2.53,6.1-3.33,2.43-.8,5.23-1.2,8.39-1.2,4.33,0,8.25.71,11.76,2.13,3.5,1.42,6.54,3.22,9.11,5.42l-5.86,7.3c-2.57-2.03-5.07-3.48-7.51-4.33-2.44-.86-4.91-1.28-7.42-1.28-3.37,0-5.81.59-7.3,1.77-1.5,1.18-2.25,2.62-2.25,4.33,0,1.39.44,2.54,1.32,3.45.88.91,2.06,1.67,3.53,2.29,1.47.62,3.14,1.15,5.02,1.61,1.87.46,3.79.96,5.74,1.52,1.95.56,3.87,1.23,5.74,2.01,1.87.78,3.54,1.79,5.02,3.05,1.47,1.26,2.65,2.82,3.53,4.7.88,1.87,1.32,4.15,1.32,6.82Z"/>
        <path class="cls-1" d="M93.95,420.14c-3.43,0-6.5-.48-9.23-1.44s-5.06-2.35-6.98-4.17c-1.93-1.82-3.41-4.01-4.45-6.58-1.04-2.57-1.57-5.46-1.57-8.67v-36.36h10.03v37.08c0,3.48,1.08,6.17,3.25,8.07,2.17,1.9,5.18,2.85,9.03,2.85s7.1-.95,9.27-2.85c2.17-1.9,3.25-4.59,3.25-8.07v-37.08h10.03v36.36c0,3.21-.52,6.1-1.57,8.67-1.04,2.57-2.53,4.76-4.45,6.58-1.93,1.82-4.25,3.21-6.98,4.17-2.73.96-5.81,1.44-9.23,1.44h-.4Z"/>
        <path class="cls-1" d="M121.4,362.91h38.21v9.23h-28.17v12.76h23.2v9.23h-23.2v15.81h28.17v9.23l-38.21-.08v-56.19Z"/>
        <path class="cls-1" d="M163.62,362.91h26.09c3,0,5.71.48,8.15,1.44,2.43.96,4.51,2.33,6.22,4.09,1.71,1.77,3.05,3.89,4.01,6.38.96,2.49,1.44,5.26,1.44,8.31,0,4.39-.99,8.18-2.97,11.36-1.98,3.18-4.74,5.5-8.27,6.94l11.56,17.66h-11.88l-10.52-16.05h-13.81v16.05h-10.03v-56.19ZM188.74,393.81c3.26,0,5.87-.98,7.83-2.93,1.95-1.95,2.93-4.62,2.93-7.99s-.98-5.87-2.93-7.83c-1.95-1.95-4.56-2.93-7.83-2.93h-15.09v21.67h15.09Z"/>
        <path class="cls-1" d="M227.43,372.14h-16.78v-9.23h43.67v9.23h-16.86v46.96h-10.03v-46.96Z"/>
        <path class="cls-1" d="M257.93,362.91h38.21v9.23h-28.17v12.76h23.2v9.23h-23.2v15.81h28.17v9.23l-38.21-.08v-56.19Z"/>
        <path class="cls-1" d="M319.82,362.91h26.09c3,0,5.71.48,8.15,1.44,2.43.96,4.51,2.33,6.22,4.09,1.71,1.77,3.05,3.89,4.01,6.38.96,2.49,1.44,5.26,1.44,8.31,0,4.39-.99,8.18-2.97,11.36-1.98,3.18-4.74,5.5-8.27,6.94l11.56,17.66h-11.88l-10.52-16.05h-13.81v16.05h-10.03v-56.19ZM344.94,393.81c3.26,0,5.87-.98,7.83-2.93,1.95-1.95,2.93-4.62,2.93-7.99s-.98-5.87-2.93-7.83c-1.95-1.95-4.56-2.93-7.83-2.93h-15.09v21.67h15.09Z"/>
        <path class="cls-1" d="M386.52,362.91h10.52l19.26,56.19h-10.52l-4.66-14.85h-18.7l-4.66,14.85h-10.52l19.26-56.19ZM398.16,395.01l-6.42-20.39-6.42,20.39h12.84ZM386.04,359.05c1.28-1.82,2.38-3.79,3.29-5.9.91-2.11,1.44-4.03,1.61-5.74h6.58c-.32,1.18-.78,2.36-1.36,3.53-.59,1.18-1.27,2.26-2.05,3.25-.78.99-1.58,1.9-2.41,2.73-.83.83-1.62,1.54-2.37,2.13h-3.29Z"/>
        <path class="cls-1" d="M417.91,362.91h25.45c3.05,0,5.83.5,8.35,1.48,2.51.99,4.67,2.38,6.46,4.17,1.79,1.79,3.18,3.95,4.17,6.46.99,2.52,1.48,5.3,1.48,8.35s-.5,6.02-1.48,8.59c-.99,2.57-2.38,4.76-4.17,6.58-1.79,1.82-3.95,3.22-6.46,4.21-2.52.99-5.3,1.49-8.35,1.49h-15.41v14.85h-10.03v-56.19ZM442.47,395.01c3.42,0,6.17-1.03,8.23-3.09,2.06-2.06,3.09-4.8,3.09-8.23s-1.03-6.34-3.09-8.43c-2.06-2.09-4.8-3.13-8.23-3.13h-14.53v22.88h14.53Z"/>
        <path class="cls-1" d="M467.43,362.91h10.03v56.19h-10.03v-56.19Z"/>
        <path class="cls-1" d="M482.28,362.91h21.27c4.17,0,7.93.67,11.28,2.01,3.34,1.34,6.18,3.21,8.51,5.62,2.33,2.41,4.12,5.33,5.38,8.75,1.26,3.43,1.89,7.22,1.89,11.4s-.63,8.26-1.89,11.76c-1.26,3.51-3.05,6.49-5.38,8.95-2.33,2.46-5.16,4.36-8.51,5.7-3.34,1.34-7.1,2.01-11.28,2.01h-21.27v-56.19ZM502.59,409.86c2.84,0,5.36-.44,7.59-1.32,2.22-.88,4.09-2.15,5.62-3.81,1.53-1.66,2.7-3.64,3.53-5.94.83-2.3,1.24-4.84,1.24-7.63s-.42-5.51-1.24-7.87c-.83-2.35-2.01-4.36-3.53-6.02-1.53-1.66-3.4-2.93-5.62-3.81-2.22-.88-4.75-1.32-7.59-1.32h-10.27v37.73h10.27Z"/>
        <path class="cls-1" d="M547.46,362.91h10.52l19.26,56.19h-10.52l-4.66-14.85h-18.7l-4.66,14.85h-10.52l19.26-56.19ZM559.1,395.01l-6.42-20.39-6.42,20.39h12.84Z"/>
      </g>
      <g>
        <path class="cls-2" d="M67.61,2.43h104.95v25.35h-77.39v35.06h63.72v25.35h-63.72v68.57h-27.56V2.43Z"/>
        <path class="cls-2" d="M208.94,2.43h28.88l52.91,154.33h-28.88l-12.79-40.79h-51.37l-12.79,40.79h-28.88L208.94,2.43ZM240.91,90.62l-17.64-56-17.64,56h35.28Z"/>
        <path class="cls-2" d="M406.7,112c0,6.61-1.1,12.83-3.31,18.63-2.2,5.81-5.55,10.8-10.03,14.99-4.49,4.19-10.14,7.5-16.98,9.92-6.83,2.43-14.96,3.64-24.36,3.64-6.91,0-13.3-.63-19.18-1.87-5.88-1.25-11.28-2.94-16.21-5.07-4.93-2.13-9.37-4.55-13.34-7.28-3.97-2.72-7.42-5.47-10.36-8.27l17.42-18.96c6.03,5.15,12.35,9.12,18.96,11.91,6.61,2.79,14.11,4.19,22.49,4.19,5.29,0,9.7-.59,13.23-1.76,3.53-1.17,6.36-2.68,8.49-4.52,2.13-1.84,3.6-3.97,4.41-6.39.81-2.43,1.21-4.81,1.21-7.17,0-4.55-1.21-8.3-3.64-11.24-2.43-2.94-5.66-5.4-9.7-7.39-4.04-1.98-8.64-3.67-13.78-5.07-5.15-1.4-10.4-2.83-15.76-4.3-5.37-1.47-10.62-3.2-15.76-5.18-5.15-1.98-9.74-4.52-13.78-7.61-4.04-3.09-7.28-6.95-9.7-11.57-2.43-4.63-3.64-10.4-3.64-17.31,0-6.47,1.17-12.42,3.53-17.86,2.35-5.44,5.77-10.1,10.25-14,4.48-3.89,10.07-6.95,16.76-9.15,6.69-2.2,14.37-3.31,23.04-3.31,11.91,0,22.67,1.95,32.3,5.84,9.63,3.9,17.97,8.86,25.02,14.88l-16.09,20.06c-7.06-5.58-13.93-9.55-20.61-11.91-6.69-2.35-13.49-3.53-20.39-3.53-9.26,0-15.95,1.62-20.06,4.85-4.12,3.23-6.17,7.2-6.17,11.91,0,3.82,1.21,6.98,3.64,9.48,2.43,2.5,5.66,4.6,9.7,6.28,4.04,1.69,8.63,3.16,13.78,4.41,5.14,1.25,10.4,2.65,15.76,4.19,5.36,1.54,10.62,3.38,15.76,5.51,5.14,2.13,9.74,4.93,13.78,8.38,4.04,3.46,7.28,7.75,9.7,12.9,2.43,5.15,3.64,11.39,3.64,18.74Z"/>
        <path class="cls-2" d="M457.19,27.78h-46.08V2.43h119.94v25.35h-46.3v128.98h-27.56V27.78Z"/>
      </g>
      <g>
        <path class="cls-2" d="M40.28,171.16h27.56v128.98h74.52v25.35H40.28v-154.33Z"/>
        <path class="cls-2" d="M211.15,328.36c-9.41,0-17.86-1.32-25.35-3.97-7.5-2.65-13.89-6.47-19.18-11.46-5.29-5-9.37-11.02-12.24-18.08s-4.3-14.99-4.3-23.81v-99.88h27.56v101.86c0,9.56,2.98,16.94,8.93,22.16,5.95,5.22,14.22,7.83,24.8,7.83s19.51-2.61,25.47-7.83c5.95-5.22,8.93-12.6,8.93-22.16v-101.86h27.56v99.88c0,8.82-1.43,16.76-4.3,23.81s-6.94,13.08-12.24,18.08c-5.29,5-11.69,8.82-19.18,11.46s-15.95,3.97-25.35,3.97h-1.1Z"/>
        <path class="cls-2" d="M284.35,248.33c0-12.05,1.8-23,5.4-32.85,3.6-9.85,8.78-18.26,15.54-25.24,6.76-6.98,14.92-12.38,24.47-16.21,9.55-3.82,20.36-5.73,32.41-5.73,13.81,0,25.91,2.46,36.27,7.39,10.36,4.93,19.07,11.8,26.13,20.61l-22.49,15.43c-4.71-5.73-10.33-10.18-16.87-13.34-6.54-3.16-14.22-4.74-23.04-4.74-7.94,0-15.03,1.29-21.28,3.86-6.25,2.57-11.5,6.21-15.76,10.91-4.26,4.71-7.53,10.44-9.81,17.2-2.28,6.76-3.42,14.33-3.42,22.71s1.14,15.95,3.42,22.71c2.28,6.76,5.55,12.49,9.81,17.2,4.26,4.71,9.51,8.34,15.76,10.91,6.25,2.57,13.34,3.86,21.28,3.86,8.82,0,16.5-1.58,23.04-4.74,6.54-3.16,12.16-7.61,16.87-13.34l22.49,15.43c-7.06,8.82-15.76,15.69-26.13,20.61s-22.45,7.39-36.27,7.39c-12.05,0-22.86-1.91-32.41-5.73-9.56-3.82-17.71-9.22-24.47-16.21-6.76-6.98-11.94-15.4-15.54-25.24-3.6-9.85-5.4-20.8-5.4-32.85Z"/>
        <path class="cls-2" d="M434.49,171.16h27.56v69.45l61.29-69.45h34.39l-61.29,69.45,61.95,84.88h-32.19l-47.4-65.04-16.76,18.96v46.08h-27.56v-154.33Z"/>
      </g>
    </g>
  </g>
</svg>