<?xml version="1.0" encoding="UTF-8"?>
<svg id="Capa_2" data-name="Capa 2" xmlns="http://www.w3.org/2000/svg" viewBox="0 0 537.22 446.55">
  <defs>
    <style>
      .cls-1 {
        fill: #1d1d1b;
      }

      .cls-2 {
        fill: #e20613;
      }

      .cls-3 {
        fill: #009540;
      }

      .cls-4 {
        fill: #005ca8;
      }
    </style>
  </defs>
  <g id="Capa_1-2" data-name="Capa 1">
    <g>
      <g>
        <path class="cls-1" d="M35.04,434.45c0,1.67-.28,3.24-.84,4.71-.56,1.47-1.4,2.73-2.54,3.79-1.13,1.06-2.56,1.9-4.29,2.51-1.73.61-3.78.92-6.16.92-1.75,0-3.36-.16-4.85-.47-1.49-.32-2.85-.74-4.1-1.28-1.25-.54-2.37-1.15-3.37-1.84-1-.69-1.88-1.38-2.62-2.09l4.4-4.79c1.52,1.3,3.12,2.31,4.79,3.01,1.67.71,3.57,1.06,5.69,1.06,1.34,0,2.45-.15,3.35-.45.89-.3,1.61-.68,2.15-1.14.54-.46.91-1,1.11-1.62.2-.61.31-1.22.31-1.81,0-1.15-.31-2.1-.92-2.84-.61-.74-1.43-1.37-2.45-1.87-1.02-.5-2.18-.93-3.48-1.28-1.3-.35-2.63-.72-3.99-1.09-1.36-.37-2.69-.81-3.99-1.31-1.3-.5-2.46-1.14-3.48-1.92-1.02-.78-1.84-1.76-2.45-2.93s-.92-2.63-.92-4.38c0-1.64.3-3.14.89-4.52.59-1.37,1.46-2.56,2.59-3.54,1.13-.98,2.55-1.76,4.24-2.31,1.69-.56,3.63-.84,5.83-.84,3.01,0,5.73.49,8.17,1.48,2.43.99,4.54,2.24,6.33,3.76l-4.07,5.07c-1.78-1.41-3.52-2.42-5.21-3.01-1.69-.59-3.41-.89-5.16-.89-2.34,0-4.03.41-5.07,1.23-1.04.82-1.56,1.82-1.56,3.01,0,.97.31,1.77.92,2.4.61.63,1.43,1.16,2.45,1.59,1.02.43,2.18.8,3.48,1.11,1.3.32,2.63.67,3.99,1.06,1.36.39,2.69.86,3.99,1.39,1.3.54,2.46,1.25,3.48,2.12,1.02.87,1.84,1.96,2.45,3.26.61,1.3.92,2.88.92,4.74Z"/>
        <path class="cls-1" d="M48.7,406.74h7.3l13.38,39.03h-7.3l-3.23-10.31h-12.99l-3.23,10.31h-7.3l13.38-39.03ZM56.79,429.04l-4.46-14.16-4.46,14.16h8.92Z"/>
        <path class="cls-1" d="M70.5,406.74h6.97v32.62h18.85v6.41h-25.82v-39.03Z"/>
        <path class="cls-1" d="M113.71,446.5c-2.38,0-4.52-.33-6.41-1-1.9-.67-3.51-1.64-4.85-2.9-1.34-1.26-2.37-2.79-3.09-4.57s-1.09-3.79-1.09-6.02v-25.26h6.97v25.76c0,2.42.75,4.28,2.26,5.6,1.51,1.32,3.6,1.98,6.27,1.98s4.93-.66,6.44-1.98c1.51-1.32,2.26-3.19,2.26-5.6v-25.76h6.97v25.26c0,2.23-.36,4.24-1.09,6.02s-1.76,3.31-3.09,4.57c-1.34,1.26-2.96,2.23-4.85,2.9-1.9.67-4.03,1-6.41,1h-.28Z"/>
        <path class="cls-1" d="M132.78,406.74h14.78c2.9,0,5.51.47,7.83,1.39,2.32.93,4.29,2.23,5.91,3.9,1.62,1.67,2.86,3.7,3.74,6.08.87,2.38,1.31,5.02,1.31,7.92s-.44,5.73-1.31,8.17c-.87,2.44-2.12,4.51-3.74,6.22-1.62,1.71-3.59,3.03-5.91,3.96-2.32.93-4.93,1.39-7.83,1.39h-14.78v-39.03ZM146.89,439.36c1.97,0,3.73-.31,5.27-.92,1.54-.61,2.84-1.5,3.9-2.65,1.06-1.15,1.88-2.53,2.45-4.13.58-1.6.86-3.36.86-5.3s-.29-3.83-.86-5.46c-.58-1.64-1.39-3.03-2.45-4.18-1.06-1.15-2.36-2.04-3.9-2.65-1.54-.61-3.3-.92-5.27-.92h-7.14v26.21h7.14Z"/>
        <path class="cls-1" d="M182.8,406.74h14.78c2.9,0,5.51.47,7.83,1.39,2.32.93,4.29,2.23,5.91,3.9,1.62,1.67,2.86,3.7,3.74,6.08.87,2.38,1.31,5.02,1.31,7.92s-.44,5.73-1.31,8.17c-.87,2.44-2.12,4.51-3.74,6.22-1.62,1.71-3.59,3.03-5.91,3.96-2.32.93-4.93,1.39-7.83,1.39h-14.78v-39.03ZM196.9,439.36c1.97,0,3.73-.31,5.27-.92,1.54-.61,2.84-1.5,3.9-2.65,1.06-1.15,1.88-2.53,2.45-4.13.58-1.6.86-3.36.86-5.3s-.29-3.83-.86-5.46c-.58-1.64-1.39-3.03-2.45-4.18-1.06-1.15-2.36-2.04-3.9-2.65-1.54-.61-3.3-.92-5.27-.92h-7.14v26.21h7.14Z"/>
        <path class="cls-1" d="M219.15,406.74h6.97v39.03h-6.97v-39.03Z"/>
        <path class="cls-1" d="M236.43,419.12v26.65h-6.97v-39.03h7.53l14.89,26.65v-26.65h6.97v39.03h-7.53l-14.89-26.65Z"/>
        <path class="cls-1" d="M262.19,406.74h26.54v6.41h-19.57v8.87h16.11v6.41h-16.11v10.98h19.57v6.41l-26.54-.06v-39.03Z"/>
        <path class="cls-1" d="M291.52,406.74h18.12c2.08,0,3.97.33,5.66,1,1.69.67,3.13,1.62,4.32,2.84,1.19,1.23,2.12,2.7,2.79,4.43.67,1.73,1,3.65,1,5.77,0,3.05-.69,5.68-2.06,7.89-1.38,2.21-3.29,3.82-5.74,4.82l8.03,12.27h-8.25l-7.3-11.15h-9.59v11.15h-6.97v-39.03ZM308.97,428.21c2.27,0,4.08-.68,5.44-2.04,1.36-1.36,2.04-3.21,2.04-5.55s-.68-4.08-2.04-5.44c-1.36-1.36-3.17-2.04-5.44-2.04h-10.48v15.05h10.48Z"/>
        <path class="cls-1" d="M325.58,426.26c0-3.05.45-5.82,1.37-8.31.91-2.49,2.22-4.62,3.93-6.38,1.71-1.77,3.77-3.13,6.19-4.1,2.42-.97,5.15-1.45,8.2-1.45s5.79.48,8.22,1.45c2.43.97,4.51,2.33,6.22,4.1,1.71,1.77,3.02,3.89,3.93,6.38.91,2.49,1.37,5.26,1.37,8.31s-.46,5.82-1.37,8.31c-.91,2.49-2.22,4.63-3.93,6.41-1.71,1.78-3.78,3.16-6.22,4.13-2.44.97-5.18,1.45-8.22,1.45s-5.78-.48-8.2-1.45c-2.42-.97-4.48-2.34-6.19-4.13-1.71-1.78-3.02-3.92-3.93-6.41-.91-2.49-1.37-5.26-1.37-8.31ZM332.55,426.26c0,2.12.29,4.04.86,5.77.58,1.73,1.4,3.19,2.48,4.38,1.08,1.19,2.41,2.11,3.99,2.76,1.58.65,3.37.98,5.38.98s3.8-.32,5.38-.98c1.58-.65,2.92-1.57,4.01-2.76,1.1-1.19,1.93-2.65,2.51-4.38.58-1.73.86-3.65.86-5.77s-.29-4.03-.86-5.74c-.58-1.71-1.41-3.16-2.51-4.35-1.1-1.19-2.44-2.11-4.01-2.76-1.58-.65-3.37-.98-5.38-.98s-3.8.33-5.38.98c-1.58.65-2.91,1.57-3.99,2.76-1.08,1.19-1.91,2.64-2.48,4.35-.58,1.71-.86,3.62-.86,5.74Z"/>
        <path class="cls-1" d="M393.16,406.74h7.3l13.38,39.03h-7.3l-3.23-10.31h-12.99l-3.23,10.31h-7.3l13.38-39.03ZM401.25,429.04l-4.46-14.16-4.46,14.16h8.92Z"/>
        <path class="cls-1" d="M414.96,406.74h8.08l11.37,29.72,11.32-29.72h8.08v39.03h-6.97v-23.92l-9.03,23.7.06.22h-6.97l.06-.22-9.03-23.7v23.92h-6.97v-39.03Z"/>
        <path class="cls-1" d="M456.61,426.26c0-3.05.45-5.82,1.37-8.31.91-2.49,2.22-4.62,3.93-6.38,1.71-1.77,3.77-3.13,6.19-4.1,2.42-.97,5.15-1.45,8.2-1.45s5.79.48,8.22,1.45c2.43.97,4.51,2.33,6.22,4.1,1.71,1.77,3.02,3.89,3.93,6.38.91,2.49,1.37,5.26,1.37,8.31s-.46,5.82-1.37,8.31c-.91,2.49-2.22,4.63-3.93,6.41-1.71,1.78-3.78,3.16-6.22,4.13-2.44.97-5.18,1.45-8.22,1.45s-5.78-.48-8.2-1.45c-2.42-.97-4.48-2.34-6.19-4.13-1.71-1.78-3.02-3.92-3.93-6.41-.91-2.49-1.37-5.26-1.37-8.31ZM463.58,426.26c0,2.12.29,4.04.86,5.77.58,1.73,1.4,3.19,2.48,4.38,1.08,1.19,2.41,2.11,3.99,2.76,1.58.65,3.37.98,5.38.98s3.8-.32,5.38-.98c1.58-.65,2.92-1.57,4.01-2.76,1.1-1.19,1.93-2.65,2.51-4.38.58-1.73.86-3.65.86-5.77s-.29-4.03-.86-5.74c-.58-1.71-1.41-3.16-2.51-4.35-1.1-1.19-2.44-2.11-4.01-2.76-1.58-.65-3.37-.98-5.38-.98s-3.8.33-5.38.98c-1.58.65-2.91,1.57-3.99,2.76-1.08,1.19-1.91,2.64-2.48,4.35-.58,1.71-.86,3.62-.86,5.74Z"/>
        <path class="cls-1" d="M498.82,406.74h18.12c2.08,0,3.97.33,5.66,1,1.69.67,3.13,1.62,4.32,2.84,1.19,1.23,2.12,2.7,2.79,4.43.67,1.73,1,3.65,1,5.77,0,3.05-.69,5.68-2.06,7.89-1.38,2.21-3.29,3.82-5.74,4.82l8.03,12.27h-8.25l-7.3-11.15h-9.59v11.15h-6.97v-39.03ZM516.27,428.21c2.27,0,4.08-.68,5.44-2.04,1.36-1.36,2.04-3.21,2.04-5.55s-.68-4.08-2.04-5.44c-1.36-1.36-3.17-2.04-5.44-2.04h-10.48v15.05h10.48Z"/>
      </g>
      <g>
        <path class="cls-4" d="M0,0h20.56v47.54h50.33V0h20.56v115.14h-20.56v-48.69H20.56v48.69H0V0Z"/>
        <path class="cls-4" d="M101.33,0h78.3v18.92h-57.74v26.15h47.54v18.92h-47.54v32.4h57.74v18.92l-78.3-.16V0Z"/>
        <path class="cls-4" d="M221.57,0h21.55l39.48,115.14h-21.55l-9.54-30.43h-38.33l-9.54,30.43h-21.55L221.57,0ZM245.42,65.8l-13.16-41.78-13.16,41.78h26.32Z"/>
        <path class="cls-4" d="M285.88,0h20.56v96.23h55.6v18.92h-76.16V0Z"/>
        <path class="cls-4" d="M383.26,18.92h-34.38V0h89.48v18.92h-34.54v96.23h-20.56V18.92Z"/>
        <path class="cls-4" d="M445.77,0h20.56v47.54h50.33V0h20.56v115.14h-20.56v-48.69h-50.33v48.69h-20.56V0Z"/>
        <path class="cls-3" d="M10.12,128.68h23.85l33.56,87.67,33.39-87.67h23.85v115.14h-20.56v-70.57l-26.65,69.91.16.66h-20.56l.16-.66-26.65-69.91v70.57H10.12v-115.14Z"/>
        <path class="cls-3" d="M132.99,186.25c0-8.99,1.34-17.16,4.03-24.51,2.69-7.35,6.55-13.62,11.6-18.83,5.04-5.21,11.13-9.24,18.26-12.09,7.13-2.85,15.19-4.28,24.18-4.28s17.08,1.43,24.26,4.28c7.18,2.85,13.3,6.88,18.34,12.09,5.04,5.21,8.91,11.49,11.6,18.83,2.69,7.35,4.03,15.52,4.03,24.51s-1.34,17.16-4.03,24.51c-2.69,7.35-6.55,13.65-11.6,18.92-5.05,5.26-11.16,9.32-18.34,12.17-7.18,2.85-15.27,4.28-24.26,4.28s-17.05-1.43-24.18-4.28c-7.13-2.85-13.22-6.91-18.26-12.17-5.05-5.26-8.91-11.57-11.6-18.92-2.69-7.35-4.03-15.52-4.03-24.51ZM153.55,186.25c0,6.25.85,11.93,2.55,17.02,1.7,5.1,4.14,9.4,7.32,12.91,3.18,3.51,7.1,6.23,11.76,8.14,4.66,1.92,9.95,2.88,15.87,2.88s11.21-.96,15.87-2.88c4.66-1.92,8.61-4.63,11.84-8.14,3.23-3.51,5.7-7.81,7.4-12.91,1.7-5.1,2.55-10.77,2.55-17.02s-.85-11.9-2.55-16.94c-1.7-5.04-4.17-9.32-7.4-12.83-3.24-3.51-7.18-6.22-11.84-8.14-4.66-1.92-9.95-2.88-15.87-2.88s-11.21.96-15.87,2.88c-4.66,1.92-8.58,4.63-11.76,8.14-3.18,3.51-5.62,7.79-7.32,12.83-1.7,5.05-2.55,10.69-2.55,16.94Z"/>
        <path class="cls-3" d="M278.07,165.19v78.63h-20.56v-115.14h22.21l43.92,78.63v-78.63h20.56v115.14h-22.21l-43.92-78.63Z"/>
        <path class="cls-3" d="M354.06,128.68h78.3v18.92h-57.74v26.15h47.54v18.92h-47.54v32.4h57.74v18.92l-78.3-.16v-115.14Z"/>
        <path class="cls-3" d="M456.38,128.68l27.14,57.74,26.98-57.74h21.55l-38.33,80.6v34.54h-20.56v-34.54l-38.33-80.6h21.55Z"/>
        <path class="cls-2" d="M88.25,257.35h20.56v96.23h55.6v18.92h-76.16v-115.14Z"/>
        <path class="cls-2" d="M162.76,314.92c0-8.99,1.34-17.16,4.03-24.51,2.69-7.35,6.55-13.62,11.6-18.83,5.04-5.21,11.13-9.24,18.26-12.09,7.13-2.85,15.19-4.28,24.18-4.28s17.08,1.43,24.26,4.28c7.18,2.85,13.3,6.88,18.34,12.09,5.04,5.21,8.91,11.49,11.6,18.83,2.69,7.35,4.03,15.52,4.03,24.51s-1.34,17.16-4.03,24.51c-2.69,7.35-6.55,13.65-11.6,18.92-5.05,5.26-11.16,9.32-18.34,12.17-7.18,2.85-15.27,4.28-24.26,4.28s-17.05-1.43-24.18-4.28c-7.13-2.85-13.22-6.91-18.26-12.17-5.05-5.26-8.91-11.57-11.6-18.92-2.69-7.35-4.03-15.52-4.03-24.51ZM183.33,314.92c0,6.25.85,11.93,2.55,17.02,1.7,5.1,4.14,9.4,7.32,12.91,3.18,3.51,7.1,6.23,11.76,8.14,4.66,1.92,9.95,2.88,15.87,2.88s11.21-.96,15.87-2.88c4.66-1.92,8.61-4.63,11.84-8.14,3.23-3.51,5.7-7.81,7.4-12.91,1.7-5.1,2.55-10.77,2.55-17.02s-.85-11.9-2.55-16.94c-1.7-5.04-4.17-9.32-7.4-12.83-3.24-3.51-7.18-6.22-11.84-8.14-4.66-1.92-9.95-2.88-15.87-2.88s-11.21.96-15.87,2.88c-4.66,1.92-8.58,4.63-11.76,8.14-3.18,3.51-5.62,7.79-7.32,12.83-1.7,5.05-2.55,10.69-2.55,16.94Z"/>
        <path class="cls-2" d="M310.48,372.5l-36.35-115.14h21.22l25.5,82.08,25.33-82.08h21.22l-36.35,115.14h-20.56Z"/>
        <path class="cls-2" d="M373.14,257.35h78.3v18.92h-57.74v26.15h47.54v18.92h-47.54v32.4h57.74v18.92l-78.3-.16v-115.14Z"/>
      </g>
    </g>
  </g>
</svg>