<?xml version="1.0" encoding="UTF-8"?>
<svg id="Capa_2" data-name="Capa 2" xmlns="http://www.w3.org/2000/svg" viewBox="0 0 657.46 424.75">
  <defs>
    <style>
      .cls-1 {
        fill: #1d1d1b;
      }
    </style>
  </defs>
  <g id="Capa_1-2" data-name="Capa 1">
    <g>
      <path class="cls-1" d="M0,133.74V0h16.89v119.31h22.35v14.43H0Z"/>
      <path class="cls-1" d="M46.81,0h41.71v14.43h-24.81v44.35h21.65v14.43h-21.65v46.11h25.17v14.43h-42.06V0Z"/>
      <path class="cls-1" d="M97.32,10.56L107.88,0h27.63l10.56,10.56v28.33h-16.89v-20.94l-3.52-3.52h-7.92l-3.52,3.52v97.84l3.52,3.52h7.92l3.52-3.52v-36.6h-8.45v-15.13h25.34v59.13l-10.56,10.56h-27.63l-10.56-10.56V10.56Z"/>
      <path class="cls-1" d="M156.8,0h41.71v14.43h-24.81v44.35h21.65v14.43h-21.65v46.11h25.17v14.43h-42.06V0Z"/>
      <path class="cls-1" d="M207.83,0h18.3l19.36,92.74V0h15.31v133.74h-18.3l-19.36-91.33v91.33h-15.31V0Z"/>
      <path class="cls-1" d="M322.57,10.56v112.63l-10.56,10.56h-39.59V0h39.59l10.56,10.56ZM305.68,115.79V17.95l-3.52-3.52h-12.85v104.88h12.85l3.52-3.52Z"/>
      <path class="cls-1" d="M411.79,123.19l-10.56,10.56h-29.39l-10.56-10.56V10.56l10.56-10.56h29.39l10.56,10.56v112.63ZM381.7,14.43l-3.52,3.52v97.84l3.52,3.52h9.68l3.52-3.52V17.95l-3.52-3.52h-9.68Z"/>
      <path class="cls-1" d="M464.06,14.43h-24.29v45.93h21.82v14.43h-21.82v58.95h-16.89V0h41.18v14.43Z"/>
      <path class="cls-1" d="M528.82,14.08v119.67h-16.89V14.08h-16.01V0h48.92v14.08h-16.01Z"/>
      <path class="cls-1" d="M569.11,59.31h17.77V0h16.89v133.74h-16.89v-59.66h-17.77v59.66h-16.89V0h16.89v59.31Z"/>
      <path class="cls-1" d="M615.4,0h41.71v14.43h-24.81v44.35h21.65v14.43h-21.65v46.11h25.17v14.43h-42.06V0Z"/>
      <path class="cls-1" d="M16.54,145.5h39.07l10.56,10.56v55.61l-9.33,9.33,10.56,58.25h-16.37l-10.38-57.02h-7.22v57.02h-16.89v-133.74ZM49.27,204.99v-41.88l-3.52-3.52h-12.32v48.92h12.32l3.52-3.52Z"/>
      <path class="cls-1" d="M78.13,145.5h41.71v14.43h-24.81v44.35h21.65v14.43h-21.65v46.11h25.17v14.43h-42.06v-133.74Z"/>
      <path class="cls-1" d="M179.32,156.06v112.63l-10.56,10.56h-39.59v-133.74h39.59l10.56,10.56ZM162.43,261.3v-97.84l-3.52-3.52h-12.85v104.88h12.85l3.52-3.52Z"/>
      <path class="cls-1" d="M247.25,159.58v119.67h-16.89v-119.67h-16.01v-14.08h48.92v14.08h-16.01Z"/>
      <path class="cls-1" d="M287.55,204.81h17.77v-59.31h16.89v133.74h-16.89v-59.66h-17.77v59.66h-16.89v-133.74h16.89v59.31Z"/>
      <path class="cls-1" d="M333.83,145.5h39.07l10.56,10.56v55.61l-9.33,9.33,10.56,58.25h-16.37l-10.38-57.02h-7.22v57.02h-16.89v-133.74ZM366.56,204.99v-41.88l-3.52-3.52h-12.32v48.92h12.32l3.52-3.52Z"/>
      <path class="cls-1" d="M395.43,145.5h41.71v14.43h-24.81v44.35h21.65v14.43h-21.65v46.11h25.17v14.43h-42.06v-133.74Z"/>
      <path class="cls-1" d="M462.47,244.76l-3.34,34.49h-16.89l16.01-133.74h24.29l16.37,133.74h-17.6l-3.34-34.49h-15.49ZM470.22,162.93l-6.51,67.4h13.02l-6.51-67.4Z"/>
      <path class="cls-1" d="M556.45,156.06v112.63l-10.56,10.56h-39.59v-133.74h39.59l10.56,10.56ZM539.55,261.3v-97.84l-3.52-3.52h-12.85v104.88h12.85l3.52-3.52Z"/>
      <path class="cls-1" d="M566.66,279.25v-19.36h17.6v19.36h-17.6Z"/>
      <path class="cls-1" d="M594.11,279.25v-19.36h17.6v19.36h-17.6Z"/>
      <path class="cls-1" d="M621.56,279.25v-19.36h17.6v19.36h-17.6Z"/>
      <path class="cls-1" d="M108.23,305.44h-24.29v45.93h21.82v14.43h-21.82v58.95h-16.89v-133.74h41.18v14.43Z"/>
      <path class="cls-1" d="M166.12,414.19l-10.56,10.56h-29.39l-10.56-10.56v-112.63l10.56-10.56h29.39l10.56,10.56v112.63ZM136.03,305.44l-3.52,3.52v97.84l3.52,3.52h9.68l3.52-3.52v-97.84l-3.52-3.52h-9.68Z"/>
      <path class="cls-1" d="M177.21,291.01h39.07l10.56,10.56v55.61l-9.33,9.33,10.56,58.25h-16.37l-10.38-57.02h-7.22v57.02h-16.89v-133.74ZM209.94,350.49v-41.88l-3.52-3.52h-12.32v48.92h12.32l3.52-3.52Z"/>
      <path class="cls-1" d="M266.96,424.75v-133.74h16.89v119.31h22.35v14.43h-39.24Z"/>
      <path class="cls-1" d="M363.75,414.19l-10.56,10.56h-29.39l-10.56-10.56v-112.63l10.56-10.56h29.39l10.56,10.56v112.63ZM333.65,305.44l-3.52,3.52v97.84l3.52,3.52h9.68l3.52-3.52v-97.84l-3.52-3.52h-9.68Z"/>
      <path class="cls-1" d="M384.86,424.75l-15.31-133.74h16.54l10.91,113.86,10.91-113.86h15.84l-15.31,133.74h-23.58Z"/>
      <path class="cls-1" d="M431.15,291.01h41.71v14.43h-24.81v44.35h21.65v14.43h-21.65v46.11h25.17v14.43h-42.06v-133.74Z"/>
      <path class="cls-1" d="M482.18,291.01h39.07l10.56,10.56v55.61l-9.33,9.33,10.56,58.25h-16.37l-10.38-57.02h-7.22v57.02h-16.89v-133.74ZM514.91,350.49v-41.88l-3.52-3.52h-12.32v48.92h12.32l3.52-3.52Z"/>
      <path class="cls-1" d="M571.93,308.61l-3.52-3.52h-6.16l-3.52,3.52v37.66l3.52,3.52h16.54l10.56,10.56v53.85l-10.56,10.56h-26.75l-10.56-10.56v-27.98h16.89v20.94l3.52,3.52h7.04l3.52-3.52v-39.42l-3.52-3.52h-16.54l-10.56-10.56v-52.09l10.56-10.56h25.87l10.56,10.56v28.16h-16.89v-21.12Z"/>
    </g>
  </g>
</svg>