<svg xmlns="http://www.w3.org/2000/svg" id="Capa_2" data-name="Capa 2" viewBox="0 0 657.46 424.75">
  <defs>
    <style>.cls-1{fill:#1d1d1b}</style>
  </defs>
  <path
    d="M0 133.74V0h16.89v119.31h22.35v14.43H0ZM46.81 0h41.71v14.43H63.71v44.35h21.65v14.43H63.71v46.11h25.17v14.43H46.82V0ZM97.32 10.56 107.88 0h27.63l10.56 10.56v28.33h-16.89V17.95l-3.52-3.52h-7.92l-3.52 3.52v97.84l3.52 3.52h7.92l3.52-3.52v-36.6h-8.45V64.06h25.34v59.13l-10.56 10.56h-27.63l-10.56-10.56V10.56ZM156.8 0h41.71v14.43H173.7v44.35h21.65v14.43H173.7v46.11h25.17v14.43h-42.06V0ZM207.83 0h18.3l19.36 92.74V0h15.31v133.74h-18.3l-19.36-91.33v91.33h-15.31V0ZM322.57 10.56v112.63l-10.56 10.56h-39.59V0h39.59l10.56 10.56Zm-16.89 105.23V17.95l-3.52-3.52h-12.85v104.88h12.85l3.52-3.52ZM411.79 123.19l-10.56 10.56h-29.39l-10.56-10.56V10.56L371.84 0h29.39l10.56 10.56v112.63ZM381.7 14.43l-3.52 3.52v97.84l3.52 3.52h9.68l3.52-3.52V17.95l-3.52-3.52h-9.68ZM464.06 14.43h-24.29v45.93h21.82v14.43h-21.82v58.95h-16.89V0h41.18v14.43ZM528.82 14.08v119.67h-16.89V14.08h-16.01V0h48.92v14.08h-16.01ZM569.11 59.31h17.77V0h16.89v133.74h-16.89V74.08h-17.77v59.66h-16.89V0h16.89v59.31ZM615.4 0h41.71v14.43H632.3v44.35h21.65v14.43H632.3v46.11h25.17v14.43h-42.06V0ZM16.54 145.5h39.07l10.56 10.56v55.61L56.84 221l10.56 58.25H51.03l-10.38-57.02h-7.22v57.02H16.54V145.51Zm32.73 59.49v-41.88l-3.52-3.52H33.43v48.92h12.32l3.52-3.52ZM78.13 145.5h41.71v14.43H95.03v44.35h21.65v14.43H95.03v46.11h25.17v14.43H78.14V145.51ZM179.32 156.06v112.63l-10.56 10.56h-39.59V145.51h39.59l10.56 10.56ZM162.43 261.3v-97.84l-3.52-3.52h-12.85v104.88h12.85l3.52-3.52ZM247.25 159.58v119.67h-16.89V159.58h-16.01V145.5h48.92v14.08h-16.01ZM287.55 204.81h17.77V145.5h16.89v133.74h-16.89v-59.66h-17.77v59.66h-16.89V145.5h16.89v59.31ZM333.83 145.5h39.07l10.56 10.56v55.61l-9.33 9.33 10.56 58.25h-16.37l-10.38-57.02h-7.22v57.02h-16.89V145.51Zm32.73 59.49v-41.88l-3.52-3.52h-12.32v48.92h12.32l3.52-3.52ZM395.43 145.5h41.71v14.43h-24.81v44.35h21.65v14.43h-21.65v46.11h25.17v14.43h-42.06V145.51ZM462.47 244.76l-3.34 34.49h-16.89l16.01-133.74h24.29l16.37 133.74h-17.6l-3.34-34.49h-15.49Zm7.75-81.83-6.51 67.4h13.02l-6.51-67.4ZM556.45 156.06v112.63l-10.56 10.56H506.3V145.51h39.59l10.56 10.56Zm-16.9 105.24v-97.84l-3.52-3.52h-12.85v104.88h12.85l3.52-3.52ZM566.66 279.25v-19.36h17.6v19.36h-17.6ZM594.11 279.25v-19.36h17.6v19.36h-17.6ZM621.56 279.25v-19.36h17.6v19.36h-17.6ZM108.23 305.44H83.94v45.93h21.82v14.43H83.94v58.95H67.05V291.01h41.18v14.43ZM166.12 414.19l-10.56 10.56h-29.39l-10.56-10.56V301.56L126.17 291h29.39l10.56 10.56v112.63Zm-30.09-108.75-3.52 3.52v97.84l3.52 3.52h9.68l3.52-3.52v-97.84l-3.52-3.52h-9.68ZM177.21 291.01h39.07l10.56 10.56v55.61l-9.33 9.33 10.56 58.25H211.7l-10.38-57.02h-7.22v57.02h-16.89V291.02Zm32.73 59.48v-41.88l-3.52-3.52H194.1v48.92h12.32l3.52-3.52ZM266.96 424.75V291.01h16.89v119.31h22.35v14.43h-39.24ZM363.75 414.19l-10.56 10.56H323.8l-10.56-10.56V301.56L323.8 291h29.39l10.56 10.56v112.63Zm-30.1-108.75-3.52 3.52v97.84l3.52 3.52h9.68l3.52-3.52v-97.84l-3.52-3.52h-9.68ZM384.86 424.75l-15.31-133.74h16.54L397 404.87l10.91-113.86h15.84l-15.31 133.74h-23.58ZM431.15 291.01h41.71v14.43h-24.81v44.35h21.65v14.43h-21.65v46.11h25.17v14.43h-42.06V291.02ZM482.18 291.01h39.07l10.56 10.56v55.61l-9.33 9.33 10.56 58.25h-16.37l-10.38-57.02h-7.22v57.02h-16.89V291.02Zm32.73 59.48v-41.88l-3.52-3.52h-12.32v48.92h12.32l3.52-3.52ZM571.93 308.61l-3.52-3.52h-6.16l-3.52 3.52v37.66l3.52 3.52h16.54l10.56 10.56v53.85l-10.56 10.56h-26.75l-10.56-10.56v-27.98h16.89v20.94l3.52 3.52h7.04l3.52-3.52v-39.42l-3.52-3.52h-16.54l-10.56-10.56v-52.09l10.56-10.56h25.87l10.56 10.56v28.16h-16.89v-21.12Z"
    class="cls-1"/>
</svg>