<?xml version="1.0" encoding="UTF-8"?>
<svg id="Capa_2" data-name="Capa 2" xmlns="http://www.w3.org/2000/svg" viewBox="0 0 680.32 430.66">
  <defs>
    <style>
      .cls-1 {
        fill: #1d1d1b;
      }

      .cls-2 {
        fill: #0b1939;
      }

      .cls-3 {
        fill: #fff;
      }
    </style>
  </defs>
  <g id="Capa_1-2" data-name="Capa 1">
    <g>
      <g>
        <rect class="cls-2" x="0" y="322.93" width="680.32" height="107.73" rx="5.4" ry="5.4"/>
        <g>
          <path class="cls-3" d="M69.04,393.58c0,2.88-.48,5.59-1.44,8.12-.96,2.53-2.42,4.71-4.37,6.53-1.95,1.83-4.42,3.27-7.4,4.32s-6.52,1.58-10.62,1.58c-3.01,0-5.8-.27-8.36-.82-2.56-.54-4.92-1.28-7.06-2.21-2.15-.93-4.08-1.98-5.81-3.17-1.73-1.18-3.23-2.39-4.52-3.6l7.59-8.26c2.63,2.24,5.38,3.97,8.26,5.19,2.88,1.22,6.15,1.83,9.8,1.83,2.31,0,4.23-.26,5.76-.77,1.54-.51,2.77-1.17,3.7-1.97.93-.8,1.57-1.73,1.92-2.79.35-1.06.53-2.1.53-3.12,0-1.98-.53-3.62-1.58-4.9-1.06-1.28-2.47-2.35-4.23-3.22-1.76-.86-3.76-1.6-6-2.21-2.24-.61-4.53-1.23-6.87-1.87-2.34-.64-4.63-1.39-6.87-2.26-2.24-.86-4.24-1.97-6-3.31-1.76-1.34-3.17-3.03-4.23-5.04s-1.58-4.53-1.58-7.54c0-2.82.51-5.41,1.54-7.78,1.02-2.37,2.51-4.4,4.47-6.1,1.95-1.7,4.39-3.03,7.3-3.99,2.91-.96,6.26-1.44,10.04-1.44,5.19,0,9.88.85,14.07,2.55,4.19,1.7,7.83,3.86,10.9,6.48l-7.01,8.74c-3.07-2.43-6.07-4.16-8.98-5.19-2.91-1.02-5.88-1.54-8.89-1.54-4.03,0-6.95.71-8.74,2.11-1.79,1.41-2.69,3.14-2.69,5.19,0,1.67.53,3.04,1.58,4.13,1.06,1.09,2.46,2,4.23,2.74,1.76.74,3.76,1.38,6,1.92,2.24.54,4.53,1.15,6.87,1.83,2.34.67,4.63,1.47,6.87,2.4,2.24.93,4.24,2.15,6,3.65,1.76,1.51,3.17,3.38,4.23,5.62,1.06,2.24,1.59,4.96,1.59,8.17Z"/>
          <path class="cls-3" d="M92.57,345.84h12.58l23.06,67.24h-12.58l-5.57-17.77h-22.38l-5.57,17.77h-12.58l23.06-67.24ZM106.5,384.26l-7.69-24.4-7.69,24.4h15.37Z"/>
          <path class="cls-3" d="M142.14,367.16v45.92h-12.01v-67.24h12.97l25.65,45.92v-45.92h12.01v67.24h-12.97l-25.65-45.92Z"/>
          <path class="cls-3" d="M205.16,356.89h-20.08v-11.05h52.26v11.05h-20.17v56.2h-12.01v-56.2Z"/>
          <path class="cls-3" d="M253.19,345.84h12.58l23.06,67.24h-12.58l-5.57-17.77h-22.38l-5.57,17.77h-12.58l23.06-67.24ZM267.12,384.26l-7.69-24.4-7.69,24.4h15.37Z"/>
          <path class="cls-3" d="M315.73,345.84h13.93l19.6,51.2,19.5-51.2h13.93v67.24h-12.01v-41.21l-15.56,40.83.1.38h-12.01l.1-.38-15.56-40.83v41.21h-12.01v-67.24Z"/>
          <path class="cls-3" d="M414.58,414.33c-4.1,0-7.78-.58-11.05-1.73-3.27-1.15-6.05-2.82-8.36-5-2.31-2.18-4.08-4.8-5.33-7.88-1.25-3.07-1.87-6.53-1.87-10.37v-43.52h12.01v44.38c0,4.16,1.3,7.38,3.89,9.65,2.59,2.27,6.2,3.41,10.81,3.41s8.5-1.14,11.1-3.41c2.59-2.27,3.89-5.49,3.89-9.65v-44.38h12.01v43.52c0,3.84-.62,7.3-1.87,10.37-1.25,3.07-3.03,5.7-5.33,7.88-2.31,2.18-5.09,3.84-8.36,5-3.27,1.15-6.95,1.73-11.05,1.73h-.48Z"/>
          <path class="cls-3" d="M447.43,345.84h45.73v11.05h-33.72v15.27h27.76v11.05h-27.76v18.92h33.72v11.05l-45.73-.1v-67.24Z"/>
          <path class="cls-3" d="M497.96,345.84h31.22c3.59,0,6.84.58,9.75,1.73,2.91,1.15,5.4,2.79,7.45,4.9,2.05,2.11,3.65,4.66,4.8,7.64,1.15,2.98,1.73,6.29,1.73,9.94,0,5.25-1.19,9.78-3.55,13.59-2.37,3.81-5.67,6.58-9.89,8.31l13.83,21.13h-14.22l-12.58-19.21h-16.52v19.21h-12.01v-67.24ZM528.03,382.82c3.91,0,7.03-1.17,9.37-3.51,2.34-2.34,3.51-5.52,3.51-9.56s-1.17-7.03-3.51-9.37c-2.34-2.34-5.46-3.51-9.37-3.51h-18.06v25.94h18.06Z"/>
          <path class="cls-3" d="M574.33,356.89h-20.08v-11.05h52.26v11.05h-20.17v56.2h-12.01v-56.2Z"/>
          <path class="cls-3" d="M610.83,345.84h45.73v11.05h-33.72v15.27h27.76v11.05h-27.76v18.92h33.72v11.05l-45.73-.1v-67.24Z"/>
        </g>
      </g>
      <g>
        <path class="cls-1" d="M109.62,2.64h25.37v58.65h62.1V2.64h25.37v142.05h-25.37v-60.07h-62.1v60.07h-25.37V2.64Z"/>
        <path class="cls-1" d="M232.59,73.66c0-11.09,1.66-21.17,4.97-30.24,3.31-9.06,8.08-16.81,14.31-23.24,6.22-6.42,13.73-11.4,22.52-14.92,8.79-3.52,18.74-5.28,29.83-5.28s21.07,1.76,29.93,5.28c8.86,3.52,16.4,8.49,22.63,14.92,6.22,6.43,10.99,14.17,14.31,23.24,3.31,9.07,4.97,19.15,4.97,30.24s-1.66,21.17-4.97,30.24c-3.32,9.07-8.09,16.84-14.31,23.34-6.22,6.49-13.77,11.5-22.63,15.02-8.86,3.52-18.84,5.28-29.93,5.28s-21.04-1.76-29.83-5.28c-8.8-3.52-16.3-8.52-22.52-15.02-6.22-6.49-10.99-14.27-14.31-23.34-3.32-9.06-4.97-19.14-4.97-30.24ZM257.95,73.66c0,7.71,1.05,14.71,3.15,21,2.1,6.29,5.1,11.6,9.03,15.93,3.92,4.33,8.76,7.68,14.51,10.04,5.75,2.37,12.28,3.55,19.58,3.55s13.83-1.18,19.58-3.55c5.75-2.37,10.62-5.71,14.61-10.04,3.99-4.33,7.03-9.64,9.13-15.93,2.1-6.29,3.15-13.29,3.15-21s-1.05-14.68-3.15-20.9c-2.1-6.22-5.14-11.5-9.13-15.83-3.99-4.33-8.86-7.68-14.61-10.04-5.75-2.37-12.28-3.55-19.58-3.55s-13.83,1.19-19.58,3.55c-5.75,2.37-10.59,5.72-14.51,10.04-3.93,4.33-6.93,9.61-9.03,15.83-2.1,6.22-3.15,13.19-3.15,20.9Z"/>
        <path class="cls-1" d="M386.2,2.64h25.37v118.71h68.59v23.34h-93.96V2.64Z"/>
        <path class="cls-1" d="M483.41,2.64l33.48,71.23L550.17,2.64h26.58l-47.28,99.43v42.61h-25.37v-42.61L456.82,2.64h26.58Z"/>
        <path class="cls-1" d="M53.61,161.38h53.78c10.55,0,20.05,1.69,28.51,5.07,8.45,3.38,15.63,8.12,21.51,14.21,5.89,6.09,10.42,13.46,13.6,22.12,3.18,8.66,4.77,18.26,4.77,28.82s-1.59,20.87-4.77,29.73c-3.18,8.86-7.71,16.41-13.6,22.63-5.88,6.22-13.06,11.03-21.51,14.41-8.46,3.38-17.96,5.07-28.51,5.07h-53.78v-142.05ZM104.95,280.09c7.17,0,13.56-1.12,19.18-3.35,5.61-2.23,10.35-5.44,14.2-9.64,3.86-4.19,6.83-9.2,8.93-15.02,2.1-5.82,3.15-12.24,3.15-19.28s-1.05-13.93-3.15-19.89c-2.1-5.95-5.07-11.02-8.93-15.22-3.86-4.19-8.59-7.41-14.2-9.64-5.62-2.23-12.01-3.35-19.18-3.35h-25.98v95.38h25.98Z"/>
        <path class="cls-1" d="M185.91,161.38h96.59v23.34h-71.23v32.27h58.65v23.34h-58.65v39.98h71.23v23.34l-96.59-.2v-142.05Z"/>
        <path class="cls-1" d="M334.25,161.38h26.58l48.7,142.05h-26.58l-11.77-37.54h-47.28l-11.77,37.54h-26.58l48.7-142.05ZM363.68,242.55l-16.23-51.54-16.23,51.54h32.47Z"/>
        <path class="cls-1" d="M436.73,184.72h-42.41v-23.34h110.39v23.34h-42.61v118.71h-25.37v-118.71Z"/>
        <path class="cls-1" d="M513.84,161.38h25.37v58.65h62.1v-58.65h25.37v142.05h-25.37v-60.07h-62.1v60.07h-25.37v-142.05Z"/>
      </g>
    </g>
  </g>
</svg>