<svg xmlns="http://www.w3.org/2000/svg" id="Capa_2" data-name="Capa 2" viewBox="0 0 596.06 384.79">
  <defs>
    <style>.cls-1{fill:#82368c}</style>
  </defs>
  <path
    d="M20.14 2.41h23.14v53.51h56.65V2.41h23.14v129.6H99.93v-54.8H43.28v54.8H20.14V2.41ZM132.33 67.21c0-10.12 1.51-19.32 4.54-27.59 3.02-8.27 7.37-15.33 13.05-21.2 5.68-5.86 12.53-10.4 20.55-13.61C178.49 1.6 187.56 0 197.69 0S216.91 1.61 225 4.81c8.08 3.21 14.96 7.75 20.64 13.61 5.68 5.86 10.03 12.93 13.05 21.2 3.02 8.27 4.54 17.47 4.54 27.59s-1.51 19.32-4.54 27.59c-3.03 8.27-7.38 15.37-13.05 21.29-5.68 5.92-12.56 10.49-20.64 13.7-8.09 3.21-17.19 4.81-27.31 4.81s-19.19-1.61-27.22-4.81c-8.02-3.21-14.87-7.78-20.55-13.7-5.68-5.92-10.03-13.02-13.05-21.29-3.03-8.27-4.54-17.46-4.54-27.59Zm23.15 0c0 7.04.95 13.42 2.87 19.16 1.91 5.74 4.66 10.58 8.24 14.53 3.58 3.95 7.99 7.01 13.24 9.16 5.24 2.16 11.2 3.24 17.87 3.24s12.62-1.08 17.87-3.24c5.24-2.16 9.69-5.21 13.33-9.16 3.64-3.95 6.42-8.79 8.33-14.53 1.91-5.74 2.87-12.13 2.87-19.16s-.96-13.39-2.87-19.07c-1.92-5.68-4.69-10.49-8.33-14.44-3.64-3.95-8.08-7-13.33-9.16s-11.2-3.24-17.87-3.24-12.62 1.08-17.87 3.24c-5.25 2.16-9.66 5.22-13.24 9.16-3.58 3.95-6.33 8.77-8.24 14.44-1.92 5.68-2.87 12.03-2.87 19.07ZM295.62 43.51v88.5h-23.14V2.41h24.99l49.43 88.5V2.41h23.14v129.6h-24.99l-49.43-88.5ZM381.16 2.41h88.13V23.7h-64.98v29.44h53.51v21.29h-53.51v36.47h64.98v21.29l-88.13-.19V2.41ZM496.31 2.41l30.55 64.98 30.36-64.98h24.25l-43.14 90.72v38.88h-23.14V93.13L472.06 2.41h24.25ZM0 218.62c0-8.72 1.3-16.65 3.91-23.77 2.6-7.12 6.35-13.22 11.25-18.27 4.89-5.05 10.79-8.96 17.71-11.73 6.91-2.76 14.73-4.15 23.45-4.15s16.57 1.38 23.53 4.15c6.97 2.77 12.9 6.68 17.79 11.73 4.89 5.05 8.64 11.14 11.25 18.27 2.6 7.13 3.91 15.05 3.91 23.77s-1.3 16.65-3.91 23.77c-2.61 7.13-6.36 13.24-11.25 18.35-4.89 5.11-10.82 9.04-17.79 11.81-6.97 2.76-14.81 4.15-23.53 4.15s-16.54-1.38-23.45-4.15c-6.92-2.76-12.82-6.7-17.71-11.81-4.89-5.11-8.64-11.22-11.25-18.35C1.3 235.27 0 227.34 0 218.62Zm19.94 0c0 6.06.82 11.57 2.47 16.51 1.65 4.95 4.01 9.12 7.1 12.52 3.08 3.41 6.89 6.04 11.41 7.9 4.52 1.86 9.65 2.79 15.4 2.79s10.87-.93 15.4-2.79c4.52-1.86 8.35-4.49 11.49-7.9 3.14-3.4 5.53-7.58 7.18-12.52 1.65-4.95 2.47-10.45 2.47-16.51s-.83-11.54-2.47-16.43c-1.65-4.89-4.04-9.04-7.18-12.44-3.14-3.4-6.97-6.04-11.49-7.9-4.52-1.86-9.65-2.79-15.4-2.79s-10.88.93-15.4 2.79c-4.52 1.86-8.32 4.49-11.41 7.9s-5.45 7.55-7.1 12.44c-1.65 4.89-2.47 10.37-2.47 16.43ZM120.78 162.77h75.94v18.35h-56v25.37h46.11v18.35h-46.11v49.62h-19.94V162.78ZM243.79 162.77h19.94v93.34h53.93v18.35h-73.87V162.78ZM316.06 218.62c0-8.72 1.3-16.65 3.91-23.77 2.6-7.12 6.35-13.22 11.25-18.27 4.89-5.05 10.79-8.96 17.71-11.73 6.91-2.76 14.73-4.15 23.45-4.15s16.57 1.38 23.53 4.15c6.97 2.77 12.9 6.68 17.79 11.73 4.89 5.05 8.64 11.14 11.25 18.27 2.6 7.13 3.91 15.05 3.91 23.77s-1.3 16.65-3.91 23.77c-2.61 7.13-6.36 13.24-11.25 18.35-4.89 5.11-10.82 9.04-17.79 11.81-6.97 2.76-14.81 4.15-23.53 4.15s-16.54-1.38-23.45-4.15c-6.92-2.76-12.82-6.7-17.71-11.81-4.89-5.11-8.64-11.22-11.25-18.35-2.61-7.12-3.91-15.05-3.91-23.77Zm19.94 0c0 6.06.82 11.57 2.47 16.51 1.65 4.95 4.01 9.12 7.1 12.52 3.08 3.41 6.89 6.04 11.41 7.9 4.52 1.86 9.65 2.79 15.4 2.79s10.87-.93 15.4-2.79c4.52-1.86 8.35-4.49 11.49-7.9 3.14-3.4 5.53-7.58 7.18-12.52 1.65-4.95 2.47-10.45 2.47-16.51s-.83-11.54-2.47-16.43c-1.65-4.89-4.04-9.04-7.18-12.44-3.14-3.4-6.97-6.04-11.49-7.9-4.52-1.86-9.65-2.79-15.4-2.79s-10.88.93-15.4 2.79c-4.52 1.86-8.32 4.49-11.41 7.9s-5.45 7.55-7.1 12.44c-1.65 4.89-2.47 10.37-2.47 16.43ZM459.34 274.46l-35.26-111.68h20.58l24.73 79.61 24.57-79.61h20.58l-35.26 111.68h-19.94ZM520.12 162.77h75.94v18.35h-56v25.37h46.11v18.35h-46.11v31.43h56v18.35l-75.94-.16V162.78ZM23.66 322.75h12.6l17.73 46.31 17.64-46.31h12.6v60.83H73.37V346.3l-14.08 36.93.09.35H48.52l.09-.35-14.08-36.93v37.28H23.67v-60.83ZM89.44 322.75h10.86v60.83H89.44v-60.83ZM105.51 322.75h41.36v9.99h-30.5v13.82h25.11v9.99h-25.11v17.12h30.5v9.99l-41.36-.09v-60.83ZM151.22 322.75h10.86v50.83h29.37v9.99h-40.23v-60.83ZM217.08 322.75h23.03c4.52 0 8.59.73 12.21 2.17 3.62 1.45 6.69 3.48 9.21 6.08 2.52 2.61 4.46 5.76 5.82 9.47 1.36 3.71 2.04 7.82 2.04 12.34s-.68 8.94-2.04 12.73c-1.36 3.79-3.3 7.02-5.82 9.69-2.52 2.67-5.59 4.72-9.21 6.17-3.62 1.45-7.69 2.17-12.21 2.17h-23.03v-60.83Zm21.98 50.84c3.07 0 5.81-.48 8.21-1.43 2.4-.96 4.43-2.33 6.08-4.13 1.65-1.79 2.92-3.94 3.82-6.43.9-2.49 1.35-5.24 1.35-8.25s-.45-5.97-1.35-8.52c-.9-2.55-2.17-4.72-3.82-6.52-1.65-1.79-3.68-3.17-6.08-4.13s-5.14-1.43-8.21-1.43h-11.12v40.84h11.12ZM273.73 322.75h41.36v9.99h-30.5v13.82h25.11v9.99h-25.11v17.12h30.5v9.99l-41.36-.09v-60.83ZM358.98 322.75h11.38l20.85 60.83h-11.38l-5.04-16.08h-20.25l-5.04 16.08h-11.38l20.85-60.83Zm12.6 34.76-6.95-22.07-6.95 22.07h13.9ZM392.95 322.75h12.6l17.73 46.31 17.64-46.31h12.6v60.83h-10.86V346.3l-14.08 36.93.09.35h-10.86l.09-.35-14.08-36.93v37.28h-10.86v-60.83ZM457.86 353.17c0-4.75.71-9.07 2.13-12.95 1.42-3.88 3.46-7.2 6.13-9.95 2.66-2.75 5.88-4.88 9.65-6.39 3.77-1.51 8.02-2.26 12.77-2.26s9.02.75 12.82 2.26c3.79 1.51 7.02 3.64 9.69 6.39 2.66 2.75 4.71 6.07 6.13 9.95 1.42 3.88 2.13 8.2 2.13 12.95s-.71 9.07-2.13 12.95c-1.42 3.88-3.46 7.21-6.13 9.99-2.67 2.78-5.9 4.92-9.69 6.43-3.79 1.51-8.07 2.26-12.82 2.26s-9.01-.75-12.77-2.26c-3.77-1.51-6.98-3.65-9.65-6.43s-4.71-6.11-6.13-9.99-2.13-8.2-2.13-12.95Zm10.86 0c0 3.3.45 6.3 1.35 8.99.9 2.69 2.19 4.97 3.87 6.82 1.68 1.85 3.75 3.29 6.21 4.3 2.46 1.01 5.26 1.52 8.39 1.52s5.92-.51 8.39-1.52c2.46-1.01 4.55-2.45 6.26-4.3 1.71-1.85 3.01-4.13 3.91-6.82.9-2.69 1.35-5.69 1.35-8.99s-.45-6.28-1.35-8.95c-.9-2.66-2.2-4.92-3.91-6.78-1.71-1.85-3.79-3.29-6.26-4.3-2.46-1.01-5.26-1.52-8.39-1.52s-5.92.51-8.39 1.52c-2.46 1.01-4.53 2.45-6.21 4.3-1.68 1.85-2.97 4.11-3.87 6.78-.9 2.67-1.35 5.65-1.35 8.95ZM523.64 322.75h28.24c3.24 0 6.18.52 8.82 1.56 2.64 1.04 4.88 2.52 6.73 4.43 1.85 1.91 3.3 4.21 4.34 6.91 1.04 2.69 1.56 5.69 1.56 8.99 0 4.75-1.07 8.85-3.21 12.3-2.14 3.45-5.13 5.95-8.95 7.52l12.51 19.12h-12.86l-11.38-17.38h-14.95v17.38h-10.86v-60.83Zm27.2 33.46c3.53 0 6.36-1.06 8.47-3.17 2.11-2.11 3.17-5 3.17-8.65s-1.06-6.36-3.17-8.47c-2.12-2.11-4.94-3.17-8.47-3.17H534.5v23.46h16.34Z"
    class="cls-1"/>
</svg>