<?xml version="1.0" encoding="UTF-8"?>
<svg id="Capa_2" data-name="Capa 2" xmlns="http://www.w3.org/2000/svg" viewBox="0 0 478.48 315.44">
  <defs>
    <style>
      .cls-1 {
        fill: #1d1d1b;
      }
    </style>
  </defs>
  <g id="Capa_1-2" data-name="Capa 1">
    <g>
      <g>
        <path class="cls-1" d="M56.49,150.29c-8.43,0-16.09-1.26-22.98-3.79-6.89-2.53-12.83-6.18-17.81-10.96-4.99-4.78-8.82-10.54-11.49-17.28C1.54,111.51.21,103.92.21,95.49l-.21-8.43h26.56v10.33c0,9.14,2.74,16.2,8.22,21.18,5.48,4.99,12.79,7.48,21.92,7.48s16.9-2.49,22.45-7.48c5.55-4.99,8.33-12.05,8.33-21.18V24.24h-20.66V0h47v95.49c0,8.43-1.34,16.02-4,22.76-2.67,6.75-6.5,12.51-11.49,17.28-4.99,4.78-10.93,8.43-17.81,10.96-6.89,2.53-14.54,3.79-22.98,3.79h-1.05Z"/>
        <path class="cls-1" d="M164.41,0h27.61l50.59,147.55h-27.61l-12.23-39h-49.11l-12.22,39h-27.61L164.41,0ZM194.97,84.31l-16.86-53.54-16.86,53.54h33.73Z"/>
        <path class="cls-1" d="M246.83,0h26.35v123.31h71.25v24.24h-97.59V0Z"/>
        <path class="cls-1" d="M400.28,0h27.61l50.59,147.55h-27.61l-12.23-39h-49.11l-12.22,39h-27.61L400.28,0ZM430.84,84.31l-16.86-53.54-16.86,53.54h33.73Z"/>
      </g>
      <g>
        <path class="cls-1" d="M56.49,315.44c-8.43,0-16.09-1.26-22.98-3.79-6.89-2.53-12.83-6.18-17.81-10.96-4.99-4.78-8.82-10.54-11.49-17.28-2.67-6.75-4.01-14.33-4.01-22.76l-.21-8.43h26.56v10.33c0,9.14,2.74,16.2,8.22,21.18,5.48,4.99,12.79,7.48,21.92,7.48s16.9-2.49,22.45-7.48c5.55-4.99,8.33-12.05,8.33-21.18v-73.14h-20.66v-24.24h47v95.49c0,8.43-1.34,16.02-4,22.76-2.67,6.75-6.5,12.51-11.49,17.28-4.99,4.78-10.93,8.43-17.81,10.96-6.89,2.53-14.54,3.79-22.98,3.79h-1.05Z"/>
        <path class="cls-1" d="M164.41,165.15h27.61l50.59,147.55h-27.61l-12.23-39h-49.11l-12.22,39h-27.61l50.59-147.55ZM194.97,249.46l-16.86-53.54-16.86,53.54h33.73Z"/>
        <path class="cls-1" d="M246.83,165.15h26.35v123.31h71.25v24.24h-97.59v-147.55Z"/>
        <path class="cls-1" d="M400.28,165.15h27.61l50.59,147.55h-27.61l-12.23-39h-49.11l-12.22,39h-27.61l50.59-147.55ZM430.84,249.46l-16.86-53.54-16.86,53.54h33.73Z"/>
      </g>
    </g>
  </g>
</svg>