<?xml version="1.0" encoding="UTF-8"?>
<svg id="Capa_2" data-name="Capa 2" xmlns="http://www.w3.org/2000/svg" viewBox="0 0 725.35 371.21">
  <defs>
    <style>
      .cls-1 {
        fill: #004f9e;
      }

      .cls-2 {
        fill: #fff;
      }
    </style>
  </defs>
  <g id="Capa_1-2" data-name="Capa 1">
    <g>
      <rect class="cls-1" x="13.54" y="266.39" width="693.22" height="104.82" rx="5.1" ry="5.1"/>
      <g>
        <path class="cls-2" d="M79.61,288.68h12.24l22.43,65.42h-12.24l-5.42-17.29h-21.78l-5.42,17.29h-12.24l22.43-65.42ZM93.16,326.07l-7.48-23.74-7.48,23.74h14.95Z"/>
        <path class="cls-2" d="M116.16,288.68h11.68v54.68h31.59v10.75h-43.27v-65.42Z"/>
        <path class="cls-2" d="M163.63,288.68h44.49v10.75h-32.81v14.86h27.01v10.75h-27.01v18.41h32.81v10.75l-44.49-.09v-65.42Z"/>
        <path class="cls-2" d="M235.97,355.32c-3.74,0-7.14-.56-10.19-1.68-3.05-1.12-5.69-2.74-7.9-4.86-2.21-2.12-3.91-4.67-5.09-7.66-1.18-2.99-1.78-6.36-1.78-10.09l-.09-3.74h11.78v4.58c0,4.05,1.22,7.18,3.65,9.39,2.43,2.21,5.67,3.32,9.72,3.32s7.49-1.11,9.95-3.32c2.46-2.21,3.69-5.34,3.69-9.39v-32.43h-9.16v-10.75h20.84v42.34c0,3.74-.59,7.1-1.78,10.09-1.18,2.99-2.88,5.55-5.09,7.66-2.21,2.12-4.85,3.74-7.9,4.86-3.05,1.12-6.45,1.68-10.19,1.68h-.47Z"/>
        <path class="cls-2" d="M283.82,288.68h12.24l22.43,65.42h-12.24l-5.42-17.29h-21.78l-5.42,17.29h-12.24l22.43-65.42ZM297.38,326.07l-7.48-23.74-7.48,23.74h14.95Z"/>
        <path class="cls-2" d="M344.67,288.68h29.63c3.55,0,6.79.58,9.72,1.73,2.93,1.15,5.44,2.77,7.52,4.86,2.09,2.09,3.71,4.6,4.86,7.52,1.15,2.93,1.73,6.17,1.73,9.72s-.58,7.01-1.73,10c-1.15,2.99-2.77,5.55-4.86,7.66-2.09,2.12-4.6,3.75-7.52,4.91-2.93,1.15-6.17,1.73-9.72,1.73h-17.95v17.29h-11.68v-65.42ZM373.27,326.07c3.99,0,7.18-1.2,9.58-3.6,2.4-2.4,3.6-5.59,3.6-9.58s-1.2-7.38-3.6-9.81c-2.4-2.43-5.59-3.65-9.58-3.65h-16.92v26.64h16.92Z"/>
        <path class="cls-2" d="M401.4,321.39c0-5.11.76-9.75,2.29-13.93,1.53-4.17,3.72-7.74,6.59-10.7,2.87-2.96,6.32-5.25,10.37-6.87,4.05-1.62,8.63-2.43,13.74-2.43s9.7.81,13.79,2.43c4.08,1.62,7.55,3.91,10.42,6.87,2.87,2.96,5.06,6.53,6.59,10.7,1.53,4.18,2.29,8.82,2.29,13.93s-.76,9.75-2.29,13.93c-1.53,4.18-3.72,7.76-6.59,10.75-2.87,2.99-6.34,5.3-10.42,6.92-4.08,1.62-8.68,2.43-13.79,2.43s-9.69-.81-13.74-2.43c-4.05-1.62-7.51-3.93-10.37-6.92-2.87-2.99-5.06-6.57-6.59-10.75-1.53-4.17-2.29-8.82-2.29-13.93ZM413.08,321.39c0,3.55.48,6.78,1.45,9.67.97,2.9,2.35,5.34,4.16,7.34,1.81,1.99,4.03,3.54,6.68,4.63,2.65,1.09,5.65,1.64,9.02,1.64s6.37-.54,9.02-1.64c2.65-1.09,4.89-2.63,6.73-4.63,1.84-1.99,3.24-4.44,4.21-7.34.96-2.9,1.45-6.12,1.45-9.67s-.48-6.76-1.45-9.63c-.97-2.87-2.37-5.3-4.21-7.29-1.84-1.99-4.08-3.54-6.73-4.63-2.65-1.09-5.65-1.64-9.02-1.64s-6.37.55-9.02,1.64c-2.65,1.09-4.88,2.63-6.68,4.63-1.81,1.99-3.19,4.42-4.16,7.29-.97,2.87-1.45,6.08-1.45,9.63Z"/>
        <path class="cls-2" d="M472.15,288.68h11.68v54.68h31.59v10.75h-43.27v-65.42Z"/>
        <path class="cls-2" d="M519.62,288.68h11.68v65.42h-11.68v-65.42Z"/>
        <path class="cls-2" d="M535.98,321.39c0-5.11.76-9.75,2.29-13.93,1.53-4.17,3.72-7.74,6.59-10.7,2.87-2.96,6.32-5.25,10.37-6.87,4.05-1.62,8.63-2.43,13.74-2.43,5.86,0,10.98,1.04,15.37,3.13,4.39,2.09,8.08,5,11.08,8.74l-9.53,6.54c-2-2.43-4.38-4.31-7.15-5.65-2.77-1.34-6.03-2.01-9.77-2.01-3.37,0-6.37.55-9.02,1.64-2.65,1.09-4.88,2.63-6.68,4.63-1.81,1.99-3.19,4.42-4.16,7.29-.97,2.87-1.45,6.08-1.45,9.63s.48,6.76,1.45,9.63c.97,2.87,2.35,5.3,4.16,7.29,1.81,1.99,4.03,3.54,6.68,4.63,2.65,1.09,5.65,1.64,9.02,1.64,3.74,0,6.99-.67,9.77-2.01,2.77-1.34,5.15-3.22,7.15-5.65l9.53,6.54c-2.99,3.74-6.68,6.65-11.08,8.74-4.39,2.09-9.52,3.13-15.37,3.13-5.11,0-9.69-.81-13.74-2.43-4.05-1.62-7.51-3.91-10.37-6.87-2.87-2.96-5.06-6.53-6.59-10.7-1.53-4.17-2.29-8.82-2.29-13.93Z"/>
        <path class="cls-2" d="M598.79,284.19c1.5-2.12,2.77-4.41,3.83-6.87,1.06-2.46,1.68-4.69,1.87-6.68h7.66c-.37,1.37-.9,2.74-1.59,4.11-.69,1.37-1.48,2.63-2.38,3.79-.9,1.15-1.84,2.21-2.8,3.18-.97.97-1.89,1.79-2.76,2.48h-3.83ZM599.63,288.68h11.68v65.42h-11.68v-65.42Z"/>
        <path class="cls-2" d="M637.01,288.68h12.24l22.43,65.42h-12.24l-5.42-17.29h-21.78l-5.42,17.29h-12.24l22.43-65.42ZM650.56,326.07l-7.48-23.74-7.48,23.74h14.95Z"/>
      </g>
      <g>
        <path class="cls-1" d="M0,1.85h21.04v98.48h56.9v19.36H0V1.85Z"/>
        <path class="cls-1" d="M122.55,1.85h22.05l40.4,117.83h-22.05l-9.76-31.14h-39.22l-9.76,31.14h-22.05L122.55,1.85ZM146.95,69.19l-13.47-42.76-13.47,42.76h26.93Z"/>
        <path class="cls-1" d="M173.21,1.85h21.71l26.09,84L246.95,1.85h21.71l-7.41,23.4,18.85,60.6L306.03,1.85h21.71l-37.2,117.83h-21.04l-19.02-60.26-19.02,60.26h-21.04L173.21,1.85Z"/>
        <path class="cls-1" d="M459.21,85.51c0,5.05-.84,9.79-2.53,14.22-1.68,4.43-4.24,8.25-7.66,11.45-3.42,3.2-7.74,5.72-12.96,7.58-5.22,1.85-11.42,2.78-18.6,2.78-5.28,0-10.16-.48-14.65-1.43-4.49-.95-8.61-2.24-12.37-3.87-3.76-1.63-7.15-3.48-10.18-5.56-3.03-2.08-5.67-4.18-7.91-6.31l13.3-14.48c4.6,3.93,9.43,6.96,14.48,9.09,5.05,2.13,10.77,3.2,17.17,3.2,4.04,0,7.41-.45,10.1-1.35,2.69-.9,4.85-2.05,6.48-3.45,1.63-1.4,2.75-3.03,3.37-4.88.62-1.85.93-3.67.93-5.47,0-3.48-.93-6.34-2.78-8.58-1.85-2.24-4.32-4.12-7.41-5.64-3.09-1.52-6.59-2.8-10.52-3.87-3.93-1.07-7.94-2.16-12.04-3.28-4.1-1.12-8.11-2.44-12.04-3.96-3.93-1.52-7.44-3.45-10.52-5.81-3.09-2.36-5.55-5.3-7.41-8.84-1.85-3.53-2.78-7.94-2.78-13.21,0-4.94.9-9.48,2.69-13.64,1.79-4.15,4.4-7.71,7.83-10.69,3.42-2.97,7.69-5.3,12.79-6.99,5.11-1.68,10.97-2.53,17.59-2.53,9.09,0,17.31,1.49,24.66,4.46,7.35,2.97,13.72,6.76,19.11,11.36l-12.29,15.32c-5.39-4.26-10.63-7.29-15.74-9.09-5.11-1.79-10.3-2.69-15.57-2.69-7.07,0-12.18,1.24-15.32,3.7-3.14,2.47-4.71,5.5-4.71,9.09,0,2.92.93,5.33,2.78,7.24,1.85,1.91,4.32,3.51,7.41,4.8,3.08,1.29,6.59,2.41,10.52,3.37,3.93.95,7.94,2.02,12.04,3.2,4.09,1.18,8.11,2.58,12.04,4.21,3.93,1.63,7.43,3.76,10.52,6.4,3.08,2.64,5.55,5.92,7.41,9.85,1.85,3.93,2.78,8.7,2.78,14.31Z"/>
        <path class="cls-1" d="M497.76,21.21h-35.18V1.85h91.57v19.36h-35.35v98.48h-21.04V21.21Z"/>
        <path class="cls-1" d="M581.93,1.85h22.05l40.4,117.83h-22.05l-9.76-31.14h-39.22l-9.76,31.14h-22.05L581.93,1.85ZM606.34,69.19l-13.47-42.76-13.47,42.76h26.93Z"/>
        <path class="cls-1" d="M647.92,1.85l27.78,59.09,27.61-59.09h22.05l-39.22,82.48v35.35h-21.04v-35.35L625.86,1.85h22.05Z"/>
        <path class="cls-1" d="M193.42,133.53h22.05l40.4,117.83h-22.05l-9.76-31.14h-39.22l-9.76,31.14h-22.05l40.4-117.83ZM217.82,200.87l-13.47-42.76-13.47,42.76h26.93Z"/>
        <path class="cls-1" d="M244.08,133.53h21.71l26.09,84,25.92-84h21.71l-7.41,23.4,18.85,60.6,25.92-84h21.71l-37.2,117.83h-21.04l-19.02-60.26-19.02,60.26h-21.04l-37.2-117.83Z"/>
        <path class="cls-1" d="M423.87,133.53h22.05l40.4,117.83h-22.05l-9.76-31.14h-39.22l-9.76,31.14h-22.05l40.4-117.83ZM448.27,200.87l-13.47-42.76-13.47,42.76h26.93Z"/>
        <path class="cls-1" d="M489.85,133.53l27.78,59.09,27.61-59.09h22.05l-39.22,82.48v35.35h-21.04v-35.35l-39.22-82.48h22.05Z"/>
      </g>
    </g>
  </g>
</svg>