<svg xmlns="http://www.w3.org/2000/svg" id="Capa_2" data-name="Capa 2" viewBox="0 0 733.1 390.55">
  <defs>
    <style>.cls-2{fill:#fff}.cls-3{fill:#936037}</style>
  </defs>
  <rect width="733.1" height="100.05" y="290.5" rx="5.1" ry="5.1" style="fill:#7a4012"/>
  <path
    d="M30.75 316.55h36.79v8.89H40.41v12.29h22.33v8.89H40.41v15.22h27.13v8.89l-36.79-.08v-54.1ZM71.4 316.55h11.21l15.77 41.19 15.69-41.19h11.21v54.1h-9.66V337.5l-12.52 32.85.08.31h-9.66l.08-.31-12.52-32.85v33.15h-9.66v-54.1ZM129.9 316.55h25.97c2.21 0 4.21.35 5.99 1.04s3.28 1.69 4.52 2.98c1.24 1.29 2.19 2.8 2.86 4.52.67 1.73 1 3.65 1 5.76 0 2.63-.5 4.78-1.51 6.45-1 1.68-2.33 2.95-3.98 3.83 1.29.41 2.5 1 3.63 1.78 1.13.77 2.12 1.73 2.98 2.86.85 1.13 1.52 2.45 2.01 3.94.49 1.49.73 3.2.73 5.1 0 2.32-.37 4.44-1.12 6.38-.75 1.93-1.82 3.61-3.21 5.02-1.39 1.42-3.08 2.51-5.06 3.28-1.98.77-4.21 1.16-6.68 1.16H129.9v-54.1Zm24.73 20.87c1.8 0 3.25-.54 4.33-1.62s1.62-2.52 1.62-4.33-.54-3.32-1.62-4.41-2.52-1.62-4.33-1.62h-15.07v11.98h15.07Zm2.17 24.34c2.32 0 4.17-.7 5.56-2.09 1.39-1.39 2.09-3.25 2.09-5.56s-.7-4.26-2.09-5.68-3.25-2.13-5.56-2.13h-17.23v15.46h17.23ZM177.59 316.55h25.12c2.88 0 5.5.46 7.84 1.39 2.34.93 4.34 2.24 5.99 3.94 1.65 1.7 2.94 3.75 3.86 6.14.93 2.4 1.39 5.06 1.39 8 0 4.23-.95 7.87-2.86 10.94-1.91 3.07-4.56 5.29-7.96 6.69l11.13 17h-11.44l-10.12-15.46h-13.29v15.46h-9.66v-54.1Zm24.19 29.75c3.14 0 5.65-.94 7.54-2.82 1.88-1.88 2.82-4.44 2.82-7.69s-.94-5.65-2.82-7.54c-1.88-1.88-4.39-2.82-7.54-2.82h-14.53v20.87h14.53ZM246.21 371.65c-3.3 0-6.26-.46-8.89-1.39-2.63-.93-4.87-2.27-6.72-4.02-1.86-1.75-3.29-3.86-4.29-6.34-1-2.47-1.51-5.26-1.51-8.35v-35.01h9.66v35.7c0 3.35 1.04 5.94 3.13 7.77 2.09 1.83 4.98 2.74 8.69 2.74s6.84-.91 8.93-2.74 3.13-4.42 3.13-7.77v-35.7H268v35.01c0 3.09-.5 5.87-1.51 8.35s-2.43 4.59-4.29 6.34c-1.85 1.75-4.1 3.09-6.72 4.02-2.63.93-5.59 1.39-8.89 1.39h-.39ZM292.2 371.65c-3.09 0-5.9-.46-8.42-1.39-2.53-.93-4.7-2.27-6.53-4.02-1.83-1.75-3.23-3.86-4.21-6.34-.98-2.47-1.47-5.26-1.47-8.35l-.08-3.09h9.74v3.79c0 3.35 1 5.94 3.01 7.77 2.01 1.83 4.69 2.74 8.04 2.74s6.2-.91 8.23-2.74c2.03-1.83 3.05-4.42 3.05-7.77v-26.82h-7.57v-8.89h17.23v35.01c0 3.09-.49 5.87-1.47 8.35-.98 2.47-2.38 4.59-4.21 6.34s-4.01 3.09-6.53 4.02c-2.53.93-5.33 1.39-8.42 1.39h-.39ZM317.08 343.6c0-4.22.63-8.06 1.89-11.52 1.26-3.45 3.08-6.4 5.45-8.85 2.37-2.45 5.23-4.34 8.58-5.68 3.35-1.34 7.13-2.01 11.36-2.01s8.02.67 11.4 2.01c3.37 1.34 6.25 3.23 8.62 5.68 2.37 2.45 4.19 5.4 5.45 8.85 1.26 3.45 1.89 7.29 1.89 11.52s-.63 8.06-1.89 11.52c-1.26 3.45-3.08 6.41-5.45 8.89-2.37 2.47-5.24 4.38-8.62 5.72-3.38 1.34-7.18 2.01-11.4 2.01s-8.01-.67-11.36-2.01c-3.35-1.34-6.21-3.25-8.58-5.72-2.37-2.47-4.19-5.44-5.45-8.89-1.26-3.45-1.89-7.29-1.89-11.52Zm9.66 0c0 2.94.4 5.6 1.2 8 .8 2.4 1.94 4.42 3.44 6.07 1.49 1.65 3.33 2.92 5.53 3.83 2.19.9 4.68 1.35 7.46 1.35s5.27-.45 7.46-1.35c2.19-.9 4.04-2.18 5.56-3.83 1.52-1.65 2.68-3.67 3.48-6.07.8-2.4 1.2-5.06 1.2-8s-.4-5.59-1.2-7.96c-.8-2.37-1.96-4.38-3.48-6.03-1.52-1.65-3.38-2.92-5.56-3.83-2.19-.9-4.68-1.35-7.46-1.35s-5.27.45-7.46 1.35c-2.19.9-4.03 2.18-5.53 3.83s-2.64 3.66-3.44 6.03c-.8 2.37-1.2 5.02-1.2 7.96ZM394.52 316.55H415c4.02 0 7.64.64 10.86 1.93 3.22 1.29 5.95 3.09 8.19 5.41 2.24 2.32 3.97 5.13 5.18 8.42 1.21 3.3 1.82 6.96 1.82 10.97s-.61 7.95-1.82 11.32c-1.21 3.38-2.94 6.25-5.18 8.62-2.24 2.37-4.97 4.2-8.19 5.49-3.22 1.29-6.84 1.93-10.86 1.93h-20.48v-54.1Zm19.55 45.21c2.73 0 5.17-.43 7.3-1.28 2.14-.85 3.94-2.07 5.41-3.67 1.47-1.6 2.6-3.5 3.4-5.72.8-2.21 1.2-4.66 1.2-7.34s-.4-5.31-1.2-7.57c-.8-2.27-1.93-4.2-3.4-5.8-1.47-1.6-3.27-2.82-5.41-3.67-2.14-.85-4.57-1.28-7.3-1.28h-9.89v36.32h9.89ZM444.91 316.55h36.79v8.89h-27.13v12.29h22.33v8.89h-22.33v15.22h27.13v8.89l-36.79-.08v-54.1ZM520.72 316.55h10.12l18.55 54.1h-10.12l-4.48-14.3h-18.01l-4.48 14.3h-10.12l18.55-54.1Zm11.21 30.91-6.18-19.63-6.18 19.63h12.37ZM550.94 316.55h11.21l15.77 41.19 15.69-41.19h11.21v54.1h-9.66V337.5l-12.52 32.85.08.31h-9.66l.08-.31-12.52-32.85v33.15h-9.66v-54.1ZM608.67 343.6c0-4.22.63-8.06 1.89-11.52 1.26-3.45 3.08-6.4 5.45-8.85 2.37-2.45 5.23-4.34 8.58-5.68 3.35-1.34 7.13-2.01 11.36-2.01s8.02.67 11.4 2.01c3.37 1.34 6.25 3.23 8.62 5.68 2.37 2.45 4.19 5.4 5.45 8.85 1.26 3.45 1.89 7.29 1.89 11.52s-.63 8.06-1.89 11.52c-1.26 3.45-3.08 6.41-5.45 8.89-2.37 2.47-5.24 4.38-8.62 5.72-3.38 1.34-7.18 2.01-11.4 2.01s-8.01-.67-11.36-2.01c-3.35-1.34-6.21-3.25-8.58-5.72-2.37-2.47-4.19-5.44-5.45-8.89-1.26-3.45-1.89-7.29-1.89-11.52Zm9.66 0c0 2.94.4 5.6 1.2 8 .8 2.4 1.94 4.42 3.44 6.07 1.49 1.65 3.33 2.92 5.53 3.83 2.19.9 4.68 1.35 7.46 1.35s5.27-.45 7.46-1.35c2.19-.9 4.04-2.18 5.56-3.83 1.52-1.65 2.68-3.67 3.48-6.07.8-2.4 1.2-5.06 1.2-8s-.4-5.59-1.2-7.96c-.8-2.37-1.96-4.38-3.48-6.03-1.52-1.65-3.38-2.92-5.56-3.83-2.19-.9-4.68-1.35-7.46-1.35s-5.27.45-7.46 1.35c-2.19.9-4.03 2.18-5.53 3.83s-2.64 3.66-3.44 6.03c-.8 2.37-1.2 5.02-1.2 7.96ZM667.17 316.55h25.12c2.88 0 5.5.46 7.84 1.39 2.34.93 4.34 2.24 5.99 3.94 1.65 1.7 2.94 3.75 3.86 6.14.93 2.4 1.39 5.06 1.39 8 0 4.23-.95 7.87-2.86 10.94-1.91 3.07-4.56 5.29-7.96 6.69l11.13 17h-11.44l-10.12-15.46h-13.29v15.46h-9.66v-54.1Zm24.19 29.75c3.14 0 5.65-.94 7.54-2.82 1.88-1.88 2.82-4.44 2.82-7.69s-.94-5.65-2.82-7.54c-1.88-1.88-4.39-2.82-7.54-2.82h-14.53v20.87h14.53Z"
    class="cls-2"/>
  <path
    d="M163.73 2.4h23.12v108.21h62.52v21.27h-85.64V2.4ZM247.52 67.14c0-10.11 1.51-19.3 4.53-27.56 3.02-8.26 7.37-15.32 13.04-21.18 5.67-5.86 12.51-10.39 20.53-13.6 8.01-3.21 17.08-4.81 27.19-4.81s19.21 1.6 27.28 4.81c8.07 3.21 14.95 7.74 20.62 13.6 5.67 5.86 10.02 12.92 13.04 21.18 3.02 8.26 4.53 17.45 4.53 27.56s-1.51 19.3-4.53 27.56c-3.02 8.26-7.37 15.35-13.04 21.27-5.67 5.92-12.55 10.48-20.62 13.69-8.08 3.21-17.17 4.81-27.28 4.81s-19.18-1.6-27.19-4.81c-8.02-3.21-14.86-7.77-20.53-13.69-5.67-5.92-10.02-13.01-13.04-21.27-3.02-8.26-4.53-17.45-4.53-27.56Zm23.13 0c0 7.03.95 13.41 2.87 19.14 1.91 5.73 4.65 10.57 8.23 14.52 3.58 3.95 7.98 7 13.23 9.16 5.24 2.16 11.19 3.24 17.85 3.24s12.61-1.08 17.85-3.24c5.24-2.16 9.68-5.21 13.32-9.16 3.64-3.95 6.41-8.79 8.32-14.52 1.91-5.73 2.87-12.12 2.87-19.14s-.96-13.38-2.87-19.05c-1.91-5.67-4.69-10.48-8.32-14.43-3.64-3.94-8.08-7-13.32-9.16s-11.19-3.24-17.85-3.24-12.61 1.08-17.85 3.24c-5.24 2.16-9.65 5.21-13.23 9.16s-6.32 8.76-8.23 14.43c-1.91 5.67-2.87 12.02-2.87 19.05ZM413.63 131.88 372.75 2.4h23.86l28.67 92.3 28.48-92.3h23.86l-40.88 129.48h-23.12ZM484.09 2.4h88.04v21.27h-64.92v29.41h53.46v21.27h-53.46v36.44h64.92v21.27l-88.04-.19V2.4ZM214.6 239.03c0 5.55-.92 10.76-2.77 15.63-1.85 4.87-4.66 9.06-8.42 12.58-3.76 3.51-8.51 6.29-14.24 8.32-5.73 2.03-12.55 3.05-20.44 3.05-5.8 0-11.16-.53-16.09-1.57-4.93-1.05-9.47-2.47-13.6-4.25-4.13-1.79-7.86-3.82-11.19-6.1-3.33-2.28-6.23-4.59-8.69-6.94l14.61-15.91c5.05 4.32 10.36 7.65 15.91 9.99 5.55 2.34 11.84 3.51 18.87 3.51 4.44 0 8.14-.49 11.1-1.48 2.96-.99 5.33-2.25 7.12-3.79s3.02-3.33 3.7-5.36c.68-2.03 1.02-4.04 1.02-6.01 0-3.82-1.02-6.97-3.05-9.43-2.04-2.47-4.75-4.53-8.14-6.2-3.39-1.66-7.25-3.08-11.56-4.25-4.32-1.17-8.73-2.37-13.23-3.61-4.5-1.23-8.91-2.68-13.22-4.35-4.32-1.66-8.17-3.79-11.56-6.38-3.39-2.59-6.1-5.83-8.14-9.71-2.03-3.88-3.05-8.72-3.05-14.52 0-5.42.99-10.42 2.96-14.98 1.97-4.56 4.84-8.48 8.6-11.75 3.76-3.27 8.44-5.83 14.06-7.68 5.61-1.85 12.05-2.77 19.33-2.77 9.99 0 19.02 1.64 27.1 4.9 8.08 3.27 15.08 7.43 20.99 12.49l-13.5 16.83c-5.92-4.68-11.68-8.01-17.29-9.99-5.61-1.97-11.31-2.96-17.11-2.96-7.77 0-13.38 1.36-16.83 4.07-3.45 2.71-5.18 6.04-5.18 9.99 0 3.21 1.02 5.86 3.05 7.95 2.03 2.1 4.75 3.86 8.14 5.27 3.39 1.42 7.24 2.65 11.56 3.7 4.31 1.05 8.72 2.22 13.22 3.51 4.5 1.29 8.91 2.84 13.23 4.62 4.31 1.79 8.17 4.13 11.56 7.03 3.39 2.9 6.1 6.51 8.14 10.82 2.04 4.32 3.05 9.56 3.05 15.72ZM222.92 147.1h58.63c7.03 0 13.44 1.14 19.24 3.42 5.79 2.28 10.76 5.49 14.89 9.62 4.13 4.13 7.33 9.1 9.62 14.89 2.28 5.8 3.42 12.21 3.42 19.24s-1.14 13.87-3.42 19.79c-2.28 5.92-5.49 10.98-9.62 15.17-4.13 4.19-9.09 7.43-14.89 9.71-5.8 2.28-12.21 3.42-19.24 3.42h-35.51v34.22h-23.12V147.1Zm56.6 73.98c7.89 0 14.21-2.37 18.96-7.12s7.12-11.07 7.12-18.96-2.38-14.61-7.12-19.42c-4.75-4.81-11.07-7.21-18.96-7.21h-33.48v52.72h33.48ZM337.05 147.1h88.04v21.27h-64.92v29.41h53.46v21.27h-53.46v36.44h64.92v21.27l-88.04-.19V147.09ZM434.34 147.1h23.12v108.21h62.52v21.27h-85.64V147.1ZM528.3 147.1h23.12v108.21h62.52v21.27H528.3V147.1Z"
    class="cls-3"/>
</svg>