<?xml version="1.0" encoding="UTF-8"?>
<svg id="Capa_2" data-name="Capa 2" xmlns="http://www.w3.org/2000/svg" viewBox="0 0 696.45 369.15">
  <defs>
    <style>
      .cls-1 {
        fill: #063;
      }

      .cls-2 {
        fill: #dfe37b;
      }

      .cls-3 {
        fill: #007732;
      }
    </style>
  </defs>
  <g id="Capa_1-2" data-name="Capa 1">
    <g>
      <rect class="cls-3" x="0" y="277.42" width="696.45" height="91.73" rx="4.75" ry="4.75"/>
      <g>
        <path class="cls-2" d="M52.63,305.37l13.37,50.52h-10.61l-2.34-10.68h-13.44l-2.34,10.68h-10.61l13.37-50.52h12.6ZM51.29,336.86l-4.88-22.71h-.14l-4.88,22.71h9.91Z"/>
        <path class="cls-2" d="M95.23,313.72h-11.04v42.17h-10.19v-42.17h-11.04v-8.35h32.27v8.35Z"/>
        <path class="cls-2" d="M118.44,305.37c4.25,0,7.55,1.07,9.91,3.22,2.36,2.15,3.54,5.41,3.54,9.8,0,3.4-.68,6.17-2.05,8.31-1.37,2.15-3.49,3.53-6.37,4.14v.14c2.55.38,4.41,1.2,5.59,2.48,1.18,1.27,1.91,3.33,2.19,6.16.09.94.16,1.97.21,3.08.05,1.11.09,2.35.14,3.71.09,2.69.24,4.74.42,6.16.28,1.42.9,2.38,1.84,2.9v.42h-11.04c-.52-.71-.85-1.52-.99-2.44s-.24-1.88-.28-2.87l-.28-9.69c-.1-1.98-.59-3.54-1.49-4.67-.9-1.13-2.41-1.7-4.53-1.7h-5.45v21.37h-10.19v-50.52h18.82ZM114.05,327.45c2.45,0,4.34-.58,5.66-1.73,1.32-1.16,1.98-3.1,1.98-5.84,0-4.67-2.36-7.01-7.08-7.01h-4.81v14.58h4.25Z"/>
        <path class="cls-2" d="M161.39,305.37l13.37,50.52h-10.61l-2.34-10.68h-13.44l-2.34,10.68h-10.61l13.37-50.52h12.6ZM160.05,336.86l-4.88-22.71h-.14l-4.88,22.71h9.91Z"/>
        <path class="cls-2" d="M198.57,314.39c-.87-1.67-2.47-2.51-4.78-2.51-1.27,0-2.32.34-3.15,1.03-.83.68-1.47,1.79-1.95,3.33-.47,1.53-.8,3.54-.99,6.01-.19,2.48-.28,5.51-.28,9.09,0,3.82.13,6.91.39,9.27.26,2.36.66,4.19,1.2,5.48.54,1.3,1.23,2.17,2.05,2.62.82.45,1.78.67,2.87.67.9,0,1.73-.15,2.51-.46.78-.31,1.45-.92,2.02-1.84.57-.92,1.01-2.22,1.34-3.89.33-1.67.5-3.88.5-6.62h10.19c0,2.74-.21,5.33-.64,7.78-.42,2.45-1.22,4.6-2.37,6.44-1.16,1.84-2.78,3.28-4.88,4.32-2.1,1.04-4.82,1.56-8.17,1.56-3.82,0-6.86-.61-9.13-1.84-2.26-1.23-4-3-5.2-5.31-1.2-2.31-1.98-5.07-2.33-8.28-.35-3.21-.53-6.75-.53-10.61s.18-7.35.53-10.58c.35-3.23,1.13-6,2.33-8.31,1.2-2.31,2.94-4.11,5.2-5.41,2.26-1.3,5.31-1.95,9.13-1.95s6.5.59,8.6,1.77c2.1,1.18,3.67,2.68,4.71,4.49,1.04,1.82,1.69,3.77,1.95,5.87.26,2.1.39,4.07.39,5.91h-10.19c0-3.68-.44-6.36-1.31-8.03Z"/>
        <path class="cls-2" d="M236.57,314.39c-.87-1.67-2.47-2.51-4.78-2.51-1.27,0-2.32.34-3.15,1.03-.83.68-1.47,1.79-1.95,3.33-.47,1.53-.8,3.54-.99,6.01-.19,2.48-.28,5.51-.28,9.09,0,3.82.13,6.91.39,9.27.26,2.36.66,4.19,1.2,5.48.54,1.3,1.23,2.17,2.05,2.62.82.45,1.78.67,2.87.67.9,0,1.73-.15,2.51-.46.78-.31,1.45-.92,2.02-1.84.57-.92,1.01-2.22,1.34-3.89.33-1.67.5-3.88.5-6.62h10.19c0,2.74-.21,5.33-.64,7.78-.42,2.45-1.22,4.6-2.37,6.44-1.16,1.84-2.78,3.28-4.88,4.32-2.1,1.04-4.82,1.56-8.17,1.56-3.82,0-6.86-.61-9.13-1.84-2.26-1.23-4-3-5.2-5.31-1.2-2.31-1.98-5.07-2.33-8.28-.35-3.21-.53-6.75-.53-10.61s.18-7.35.53-10.58c.35-3.23,1.13-6,2.33-8.31,1.2-2.31,2.94-4.11,5.2-5.41,2.26-1.3,5.31-1.95,9.13-1.95s6.5.59,8.6,1.77c2.1,1.18,3.67,2.68,4.71,4.49,1.04,1.82,1.69,3.77,1.95,5.87.26,2.1.39,4.07.39,5.91h-10.19c0-3.68-.44-6.36-1.31-8.03Z"/>
        <path class="cls-2" d="M254.79,305.37h10.19v50.52h-10.19v-50.52Z"/>
        <path class="cls-2" d="M272.02,320.05c.35-3.23,1.13-6,2.33-8.31,1.2-2.31,2.94-4.11,5.2-5.41,2.26-1.3,5.31-1.95,9.13-1.95s6.86.65,9.13,1.95c2.26,1.3,4,3.1,5.2,5.41,1.2,2.31,1.98,5.08,2.34,8.31.35,3.23.53,6.76.53,10.58s-.18,7.41-.53,10.61c-.35,3.21-1.13,5.97-2.34,8.28-1.2,2.31-2.94,4.08-5.2,5.31-2.26,1.23-5.31,1.84-9.13,1.84s-6.86-.61-9.13-1.84c-2.26-1.23-4-3-5.2-5.31-1.2-2.31-1.98-5.07-2.33-8.28-.35-3.21-.53-6.75-.53-10.61s.18-7.35.53-10.58ZM281.93,339.3c.16,2.38.5,4.32.99,5.8s1.2,2.57,2.12,3.25c.92.68,2.13,1.03,3.64,1.03s2.72-.34,3.64-1.03c.92-.68,1.63-1.77,2.12-3.25.5-1.49.82-3.42.99-5.8.16-2.38.25-5.27.25-8.67s-.08-6.27-.25-8.63c-.17-2.36-.5-4.29-.99-5.8-.5-1.51-1.2-2.61-2.12-3.29-.92-.68-2.14-1.03-3.64-1.03s-2.72.34-3.64,1.03c-.92.68-1.63,1.78-2.12,3.29-.5,1.51-.83,3.44-.99,5.8-.17,2.36-.25,5.24-.25,8.63s.08,6.29.25,8.67ZM297.67,292.21l-6.93,10.19h-6.65l3.82-10.19h9.76Z"/>
        <path class="cls-2" d="M335.95,339.97h.14v-34.6h9.34v50.52h-11.6l-12.45-35.38h-.14v35.38h-9.34v-50.52h11.75l12.31,34.6Z"/>
        <path class="cls-2" d="M386.68,305.37c3.54,0,6.39.58,8.56,1.73,2.17,1.16,3.86,2.81,5.06,4.95,1.2,2.15,2.02,4.73,2.44,7.75.42,3.02.64,6.39.64,10.12,0,4.43-.27,8.29-.81,11.57-.54,3.28-1.47,5.98-2.8,8.1-1.32,2.12-3.09,3.7-5.31,4.74-2.22,1.04-5.02,1.56-8.42,1.56h-16.06v-50.52h16.7ZM384.7,348.39c1.79,0,3.23-.31,4.32-.92,1.08-.61,1.95-1.63,2.58-3.04.64-1.42,1.06-3.28,1.27-5.59.21-2.31.32-5.19.32-8.63,0-2.88-.1-5.4-.28-7.57-.19-2.17-.58-3.97-1.17-5.41-.59-1.44-1.46-2.52-2.62-3.25-1.16-.73-2.7-1.1-4.63-1.1h-4.32v35.52h4.53Z"/>
        <path class="cls-2" d="M438.34,313.72h-18.04v11.89h16.98v8.35h-16.98v13.59h18.75v8.35h-28.94v-50.52h28.23v8.35Z"/>
        <path class="cls-2" d="M478.31,305.37c3.54,0,6.39.58,8.56,1.73,2.17,1.16,3.86,2.81,5.06,4.95,1.2,2.15,2.02,4.73,2.44,7.75.42,3.02.64,6.39.64,10.12,0,4.43-.27,8.29-.81,11.57-.54,3.28-1.47,5.98-2.8,8.1-1.32,2.12-3.09,3.7-5.31,4.74-2.22,1.04-5.02,1.56-8.42,1.56h-16.06v-50.52h16.7ZM476.33,348.39c1.79,0,3.23-.31,4.32-.92,1.08-.61,1.95-1.63,2.58-3.04.64-1.42,1.06-3.28,1.27-5.59.21-2.31.32-5.19.32-8.63,0-2.88-.1-5.4-.28-7.57-.19-2.17-.58-3.97-1.17-5.41-.59-1.44-1.46-2.52-2.62-3.25-1.16-.73-2.7-1.1-4.63-1.1h-4.32v35.52h4.53Z"/>
        <path class="cls-2" d="M502.23,305.37h10.19v50.52h-10.19v-50.52Z"/>
        <path class="cls-2" d="M544.05,339.97h.14v-34.6h9.34v50.52h-11.6l-12.45-35.38h-.14v35.38h-9.34v-50.52h11.75l12.31,34.6Z"/>
        <path class="cls-2" d="M588.84,313.72h-18.04v11.89h16.98v8.35h-16.98v13.59h18.75v8.35h-28.94v-50.52h28.23v8.35Z"/>
        <path class="cls-2" d="M613.46,305.37c4.25,0,7.55,1.07,9.91,3.22,2.36,2.15,3.54,5.41,3.54,9.8,0,3.4-.68,6.17-2.05,8.31-1.37,2.15-3.49,3.53-6.37,4.14v.14c2.55.38,4.41,1.2,5.59,2.48,1.18,1.27,1.91,3.33,2.19,6.16.09.94.16,1.97.21,3.08.05,1.11.09,2.35.14,3.71.09,2.69.24,4.74.42,6.16.28,1.42.9,2.38,1.84,2.9v.42h-11.04c-.52-.71-.85-1.52-.99-2.44s-.24-1.88-.28-2.87l-.28-9.69c-.1-1.98-.59-3.54-1.49-4.67-.9-1.13-2.41-1.7-4.53-1.7h-5.45v21.37h-10.19v-50.52h18.82ZM609.07,327.45c2.45,0,4.34-.58,5.66-1.73,1.32-1.16,1.98-3.1,1.98-5.84,0-4.67-2.36-7.01-7.08-7.01h-4.81v14.58h4.25Z"/>
        <path class="cls-2" d="M633.45,320.05c.35-3.23,1.13-6,2.33-8.31,1.2-2.31,2.94-4.11,5.2-5.41,2.26-1.3,5.31-1.95,9.13-1.95s6.86.65,9.13,1.95c2.26,1.3,4,3.1,5.2,5.41,1.2,2.31,1.98,5.08,2.34,8.31.35,3.23.53,6.76.53,10.58s-.18,7.41-.53,10.61c-.35,3.21-1.13,5.97-2.34,8.28-1.2,2.31-2.94,4.08-5.2,5.31-2.26,1.23-5.31,1.84-9.13,1.84s-6.86-.61-9.13-1.84c-2.26-1.23-4-3-5.2-5.31-1.2-2.31-1.98-5.07-2.33-8.28-.35-3.21-.53-6.75-.53-10.61s.18-7.35.53-10.58ZM643.36,339.3c.16,2.38.5,4.32.99,5.8s1.2,2.57,2.12,3.25c.92.68,2.13,1.03,3.64,1.03s2.72-.34,3.64-1.03c.92-.68,1.63-1.77,2.12-3.25.5-1.49.82-3.42.99-5.8.16-2.38.25-5.27.25-8.67s-.08-6.27-.25-8.63c-.17-2.36-.5-4.29-.99-5.8-.5-1.51-1.2-2.61-2.12-3.29-.92-.68-2.14-1.03-3.64-1.03s-2.72.34-3.64,1.03c-.92.68-1.63,1.78-2.12,3.29-.5,1.51-.83,3.44-.99,5.8-.17,2.36-.25,5.24-.25,8.63s.08,6.29.25,8.67Z"/>
      </g>
      <g>
        <g>
          <path class="cls-1" d="M29.35,2.64h29.42l41.4,108.16L141.36,2.64h29.42v142.05h-25.37V57.63l-32.87,86.24.2.81h-25.37l.2-.81L54.71,57.63v87.05h-25.37V2.64Z"/>
          <path class="cls-1" d="M180.93,73.66c0-11.09,1.66-21.17,4.97-30.24,3.31-9.06,8.08-16.81,14.31-23.23,6.22-6.42,13.73-11.4,22.52-14.92,8.79-3.52,18.74-5.28,29.83-5.28s21.07,1.76,29.93,5.28c8.86,3.52,16.4,8.49,22.63,14.92,6.22,6.43,10.99,14.17,14.31,23.23,3.31,9.06,4.97,19.14,4.97,30.24s-1.66,21.17-4.97,30.24c-3.32,9.07-8.09,16.84-14.31,23.34-6.22,6.49-13.77,11.5-22.63,15.02-8.86,3.52-18.84,5.28-29.93,5.28s-21.04-1.76-29.83-5.28c-8.8-3.52-16.3-8.52-22.52-15.02-6.22-6.49-10.99-14.27-14.31-23.34-3.32-9.06-4.97-19.14-4.97-30.24ZM206.29,73.66c0,7.71,1.05,14.71,3.15,21,2.1,6.29,5.1,11.6,9.03,15.93,3.92,4.33,8.76,7.68,14.51,10.04,5.75,2.37,12.28,3.55,19.58,3.55s13.83-1.18,19.58-3.55c5.75-2.37,10.62-5.71,14.61-10.04,3.99-4.33,7.03-9.64,9.13-15.93,2.1-6.29,3.15-13.29,3.15-21s-1.05-14.68-3.15-20.9c-2.1-6.22-5.14-11.5-9.13-15.83-3.99-4.33-8.86-7.68-14.61-10.04-5.75-2.37-12.28-3.55-19.58-3.55s-13.83,1.19-19.58,3.55c-5.75,2.37-10.59,5.72-14.51,10.04-3.93,4.33-6.93,9.61-9.03,15.83-2.1,6.22-3.15,13.19-3.15,20.9Z"/>
          <path class="cls-1" d="M359.9,47.69v97h-25.37V2.64h27.39l54.18,97V2.64h25.37v142.05h-27.39l-54.18-97Z"/>
          <path class="cls-1" d="M453.65,2.64h96.59v23.34h-71.23v32.26h58.65v23.34h-58.65v39.98h71.23v23.34l-96.59-.2V2.64Z"/>
          <path class="cls-1" d="M579.87,2.64l33.48,71.23L646.63,2.64h26.58l-47.28,99.43v42.61h-25.37v-42.61L553.29,2.64h26.58Z"/>
        </g>
        <g>
          <path class="cls-1" d="M46.46,161.36h15.35l28.13,82.03h-15.35l-6.8-21.68h-27.31l-6.8,21.68h-15.35l28.13-82.03ZM63.45,208.23l-9.38-29.77-9.38,29.77h18.75Z"/>
          <path class="cls-1" d="M105.64,174.83h-24.49v-13.48h63.75v13.48h-24.61v68.56h-14.65v-68.56Z"/>
          <path class="cls-1" d="M172.91,174.83h-24.49v-13.48h63.75v13.48h-24.61v68.56h-14.65v-68.56Z"/>
          <path class="cls-1" d="M217.44,161.36h38.09c4.37,0,8.34.7,11.9,2.11,3.55,1.41,6.58,3.4,9.08,5.98,2.5,2.58,4.45,5.68,5.86,9.32,1.41,3.63,2.11,7.68,2.11,12.13,0,6.41-1.45,11.94-4.34,16.58-2.89,4.65-6.91,8.03-12.07,10.14l16.88,25.78h-17.34l-15.35-23.44h-20.16v23.44h-14.65v-82.03ZM254.12,206.47c4.76,0,8.57-1.42,11.43-4.28,2.85-2.85,4.28-6.74,4.28-11.66s-1.43-8.57-4.28-11.43c-2.85-2.85-6.66-4.28-11.43-4.28h-22.03v31.64h22.03Z"/>
          <path class="cls-1" d="M314.83,161.36h15.35l28.13,82.03h-15.35l-6.8-21.68h-27.31l-6.8,21.68h-15.35l28.13-82.03ZM331.82,208.23l-9.38-29.77-9.38,29.77h18.75Z"/>
          <path class="cls-1" d="M356.55,202.37c0-6.41.96-12.23,2.87-17.46,1.91-5.23,4.67-9.71,8.26-13.42,3.59-3.71,7.93-6.58,13.01-8.61,5.08-2.03,10.82-3.05,17.23-3.05,7.34,0,13.77,1.31,19.28,3.93,5.51,2.62,10.14,6.27,13.89,10.96l-11.95,8.2c-2.5-3.05-5.49-5.41-8.97-7.09-3.48-1.68-7.56-2.52-12.25-2.52-4.22,0-7.99.68-11.31,2.05-3.32,1.37-6.11,3.3-8.38,5.8-2.27,2.5-4,5.55-5.22,9.14-1.21,3.59-1.82,7.62-1.82,12.07s.6,8.48,1.82,12.07c1.21,3.59,2.95,6.64,5.22,9.14,2.27,2.5,5.06,4.43,8.38,5.8,3.32,1.37,7.09,2.05,11.31,2.05,4.69,0,8.77-.84,12.25-2.52,3.48-1.68,6.46-4.04,8.97-7.09l11.95,8.2c-3.75,4.69-8.38,8.34-13.89,10.96s-11.94,3.93-19.28,3.93c-6.41,0-12.15-1.02-17.23-3.05-5.08-2.03-9.42-4.9-13.01-8.61-3.59-3.71-6.35-8.18-8.26-13.42-1.92-5.23-2.87-11.05-2.87-17.46Z"/>
          <path class="cls-1" d="M459.09,174.83h-24.49v-13.48h63.75v13.48h-24.61v68.56h-14.65v-68.56Z"/>
          <path class="cls-1" d="M503.62,161.36h14.65v82.03h-14.65v-82.03Z"/>
          <path class="cls-1" d="M524.13,202.37c0-6.41.96-12.23,2.87-17.46,1.91-5.23,4.67-9.71,8.26-13.42,3.59-3.71,7.93-6.58,13.01-8.61,5.08-2.03,10.82-3.05,17.23-3.05s12.17,1.02,17.29,3.05c5.12,2.03,9.47,4.9,13.07,8.61,3.59,3.71,6.35,8.19,8.26,13.42,1.91,5.24,2.87,11.06,2.87,17.46s-.96,12.23-2.87,17.46c-1.92,5.24-4.67,9.73-8.26,13.48-3.59,3.75-7.95,6.64-13.07,8.67-5.12,2.03-10.88,3.05-17.29,3.05s-12.15-1.02-17.23-3.05c-5.08-2.03-9.42-4.92-13.01-8.67-3.59-3.75-6.35-8.24-8.26-13.48-1.92-5.23-2.87-11.05-2.87-17.46ZM538.78,202.37c0,4.45.6,8.5,1.82,12.13,1.21,3.63,2.95,6.7,5.22,9.2,2.27,2.5,5.06,4.43,8.38,5.8,3.32,1.37,7.09,2.05,11.31,2.05s7.99-.68,11.31-2.05c3.32-1.37,6.13-3.3,8.44-5.8,2.3-2.5,4.06-5.57,5.27-9.2,1.21-3.63,1.82-7.68,1.82-12.13s-.61-8.48-1.82-12.07c-1.21-3.59-2.97-6.64-5.27-9.14-2.31-2.5-5.12-4.43-8.44-5.8-3.32-1.37-7.09-2.05-11.31-2.05s-7.99.68-11.31,2.05c-3.32,1.37-6.11,3.3-8.38,5.8-2.27,2.5-4,5.55-5.22,9.14-1.21,3.59-1.82,7.62-1.82,12.07Z"/>
          <path class="cls-1" d="M627.49,187.37v56.02h-14.65v-82.03h15.82l31.29,56.02v-56.02h14.65v82.03h-15.82l-31.29-56.02Z"/>
        </g>
      </g>
    </g>
  </g>
</svg>