<?xml version="1.0" encoding="UTF-8"?>
<svg id="Capa_2" data-name="Capa 2" xmlns="http://www.w3.org/2000/svg" viewBox="0 0 627.19 452.07">
  <defs>
    <style>
      .cls-1 {
        fill: #1d1d1b;
      }

      .cls-2 {
        fill: #ffec00;
      }
    </style>
  </defs>
  <g id="Capa_1-2" data-name="Capa 1">
    <g>
      <rect class="cls-2" x="0" y="352.75" width="627.19" height="99.32" rx="5.34" ry="5.34"/>
      <g>
        <path class="cls-1" d="M61.09,373.87h11.6l21.25,61.99h-11.6l-5.14-16.38h-20.64l-5.14,16.38h-11.6l21.25-61.99ZM73.94,409.3l-7.08-22.49-7.08,22.49h14.17Z"/>
        <path class="cls-1" d="M95.72,373.87h29.76c2.54,0,4.83.4,6.86,1.2,2.04.8,3.76,1.93,5.18,3.41,1.42,1.48,2.51,3.2,3.28,5.18.77,1.98,1.15,4.18,1.15,6.6,0,3.01-.58,5.48-1.73,7.4-1.15,1.92-2.67,3.38-4.56,4.38,1.48.47,2.86,1.15,4.16,2.04,1.3.89,2.44,1.98,3.41,3.28.97,1.3,1.74,2.8,2.3,4.52.56,1.71.84,3.66.84,5.85,0,2.66-.43,5.09-1.28,7.31-.86,2.21-2.08,4.13-3.68,5.76-1.59,1.62-3.53,2.88-5.8,3.76-2.27.89-4.83,1.33-7.66,1.33h-32.24v-61.99ZM124.06,397.78c2.07,0,3.72-.62,4.96-1.86,1.24-1.24,1.86-2.89,1.86-4.96s-.62-3.81-1.86-5.05-2.89-1.86-4.96-1.86h-17.27v13.73h17.27ZM126.54,425.68c2.66,0,4.78-.8,6.38-2.39,1.59-1.59,2.39-3.72,2.39-6.38s-.8-4.88-2.39-6.51c-1.59-1.62-3.72-2.44-6.38-2.44h-19.75v17.71h19.75Z"/>
        <path class="cls-1" d="M150.36,373.87h28.78c3.31,0,6.3.53,8.99,1.59,2.69,1.06,4.97,2.57,6.86,4.52,1.89,1.95,3.37,4.3,4.43,7.04,1.06,2.75,1.59,5.8,1.59,9.17,0,4.84-1.09,9.02-3.28,12.53-2.19,3.51-5.23,6.07-9.12,7.66l12.75,19.48h-13.11l-11.6-17.71h-15.23v17.71h-11.07v-61.99ZM178.08,407.97c3.6,0,6.48-1.08,8.63-3.23s3.23-5.09,3.23-8.81-1.08-6.48-3.23-8.63c-2.16-2.15-5.03-3.23-8.63-3.23h-16.65v23.91h16.65Z"/>
        <path class="cls-1" d="M205.36,373.87h42.16v10.18h-31.09v14.08h25.59v10.18h-25.59v17.45h31.09v10.18l-42.16-.09v-61.99Z"/>
        <path class="cls-1" d="M272.31,404.87c0-4.84.72-9.24,2.17-13.2,1.45-3.95,3.53-7.34,6.24-10.14,2.71-2.8,5.99-4.97,9.83-6.51,3.84-1.53,8.18-2.3,13.02-2.3,5.55,0,10.41.99,14.57,2.97,4.16,1.98,7.66,4.74,10.49,8.28l-9.03,6.2c-1.89-2.3-4.15-4.09-6.78-5.36-2.63-1.27-5.71-1.9-9.25-1.9-3.19,0-6.04.52-8.55,1.55-2.51,1.03-4.62,2.49-6.33,4.38-1.71,1.89-3.03,4.19-3.94,6.91-.92,2.72-1.37,5.76-1.37,9.12s.46,6.41,1.37,9.12c.91,2.72,2.23,5.02,3.94,6.91,1.71,1.89,3.82,3.35,6.33,4.38,2.51,1.03,5.36,1.55,8.55,1.55,3.54,0,6.63-.63,9.25-1.9,2.63-1.27,4.88-3.06,6.78-5.36l9.03,6.2c-2.83,3.54-6.33,6.3-10.49,8.28-4.16,1.98-9.02,2.97-14.57,2.97-4.84,0-9.18-.77-13.02-2.3-3.84-1.53-7.12-3.7-9.83-6.51-2.72-2.8-4.8-6.18-6.24-10.14-1.45-3.95-2.17-8.35-2.17-13.2Z"/>
        <path class="cls-1" d="M350.34,373.87h11.6l21.25,61.99h-11.6l-5.14-16.38h-20.64l-5.14,16.38h-11.6l21.25-61.99ZM363.18,409.3l-7.08-22.49-7.08,22.49h14.17Z"/>
        <path class="cls-1" d="M384.96,373.87h12.84l18.07,47.2,17.98-47.2h12.84v61.99h-11.07v-37.99l-14.35,37.64.09.35h-11.07l.09-.35-14.35-37.64v37.99h-11.07v-61.99Z"/>
        <path class="cls-1" d="M452,373.87h11.07v61.99h-11.07v-61.99Z"/>
        <path class="cls-1" d="M479.46,393.53v42.33h-11.07v-61.99h11.96l23.65,42.33v-42.33h11.07v61.99h-11.96l-23.65-42.33Z"/>
        <path class="cls-1" d="M519.49,404.87c0-4.84.72-9.24,2.17-13.2,1.45-3.95,3.53-7.34,6.24-10.14,2.71-2.8,5.99-4.97,9.83-6.51,3.84-1.53,8.18-2.3,13.02-2.3s9.2.77,13.06,2.3c3.87,1.54,7.16,3.71,9.87,6.51,2.72,2.8,4.8,6.19,6.24,10.14,1.45,3.96,2.17,8.36,2.17,13.2s-.72,9.24-2.17,13.2c-1.45,3.96-3.53,7.35-6.24,10.18-2.72,2.83-6.01,5.02-9.87,6.55-3.87,1.53-8.22,2.3-13.06,2.3s-9.18-.77-13.02-2.3c-3.84-1.53-7.12-3.72-9.83-6.55-2.72-2.83-4.8-6.23-6.24-10.18-1.45-3.95-2.17-8.35-2.17-13.2ZM530.56,404.87c0,3.37.46,6.42,1.37,9.17.91,2.75,2.23,5.06,3.94,6.95,1.71,1.89,3.82,3.35,6.33,4.38,2.51,1.03,5.36,1.55,8.55,1.55s6.04-.52,8.55-1.55c2.51-1.03,4.63-2.49,6.38-4.38,1.74-1.89,3.07-4.21,3.99-6.95.91-2.75,1.37-5.8,1.37-9.17s-.46-6.41-1.37-9.12c-.92-2.72-2.24-5.02-3.99-6.91-1.74-1.89-3.87-3.35-6.38-4.38-2.51-1.03-5.36-1.55-8.55-1.55s-6.04.52-8.55,1.55c-2.51,1.03-4.62,2.49-6.33,4.38-1.71,1.89-3.03,4.19-3.94,6.91-.92,2.72-1.37,5.76-1.37,9.12Z"/>
      </g>
      <g>
        <path class="cls-1" d="M35.31,80.94c0-12.19,1.82-23.26,5.46-33.23,3.64-9.96,8.88-18.47,15.72-25.53,6.84-7.06,15.09-12.52,24.75-16.39C90.9,1.93,101.83,0,114.02,0s23.15,1.93,32.89,5.8c9.73,3.87,18.02,9.33,24.86,16.39,6.84,7.06,12.08,15.57,15.72,25.53,3.64,9.96,5.46,21.04,5.46,33.23s-1.82,23.27-5.46,33.23c-3.64,9.96-8.88,18.51-15.72,25.64-6.84,7.14-15.13,12.64-24.86,16.5-9.74,3.86-20.7,5.8-32.89,5.8s-23.12-1.93-32.78-5.8c-9.67-3.86-17.92-9.37-24.75-16.5-6.84-7.14-12.08-15.68-15.72-25.64-3.64-9.96-5.46-21.03-5.46-33.23ZM63.18,80.94c0,8.47,1.15,16.17,3.46,23.08,2.3,6.91,5.61,12.75,9.92,17.5,4.31,4.76,9.62,8.44,15.94,11.04,6.32,2.6,13.49,3.9,21.52,3.9s15.2-1.3,21.52-3.9c6.32-2.6,11.67-6.28,16.06-11.04,4.38-4.76,7.73-10.59,10.03-17.5,2.3-6.91,3.46-14.61,3.46-23.08s-1.15-16.13-3.46-22.97c-2.31-6.84-5.65-12.63-10.03-17.39-4.39-4.76-9.74-8.44-16.06-11.04-6.32-2.6-13.49-3.9-21.52-3.9s-15.2,1.3-21.52,3.9c-6.32,2.6-11.63,6.28-15.94,11.04-4.31,4.76-7.62,10.56-9.92,17.39-2.31,6.84-3.46,14.49-3.46,22.97Z"/>
        <path class="cls-1" d="M204.11,2.9h70.69c8.47,0,16.2,1.38,23.19,4.13,6.99,2.75,12.97,6.62,17.95,11.6,4.98,4.98,8.84,10.96,11.6,17.95,2.75,6.99,4.13,14.72,4.13,23.19s-1.38,16.72-4.13,23.86c-2.75,7.14-6.62,13.23-11.6,18.28-4.98,5.06-10.96,8.96-17.95,11.71-6.99,2.75-14.72,4.13-23.19,4.13h-42.81v41.25h-27.87V2.9ZM272.34,92.09c9.51,0,17.13-2.86,22.86-8.58,5.72-5.72,8.58-13.34,8.58-22.86s-2.86-17.62-8.58-23.41c-5.72-5.8-13.34-8.7-22.86-8.7h-40.36v63.55h40.36Z"/>
        <path class="cls-1" d="M341.69,2.9h106.14v25.64h-78.27v35.45h64.44v25.64h-64.44v43.93h78.27v25.64l-106.14-.22V2.9Z"/>
        <path class="cls-1" d="M486.85,52.4v106.59h-27.87V2.9h30.1l59.54,106.59V2.9h27.87v156.09h-30.1l-59.54-106.59Z"/>
        <path class="cls-1" d="M28.17,177.33h72.47c8.32,0,15.87,1.34,22.63,4.01,6.76,2.68,12.52,6.47,17.28,11.37,4.76,4.91,8.47,10.81,11.15,17.73s4.01,14.61,4.01,23.08c0,12.19-2.75,22.71-8.25,31.55-5.5,8.85-13.16,15.27-22.97,19.29l32.11,49.06h-33l-29.21-44.6h-38.35v44.6h-27.87v-156.09ZM97.96,263.18c9.07,0,16.31-2.71,21.74-8.14,5.42-5.42,8.14-12.82,8.14-22.19s-2.71-16.31-8.14-21.74c-5.43-5.42-12.68-8.14-21.74-8.14h-41.92v60.21h41.92Z"/>
        <path class="cls-1" d="M164.41,255.38c0-12.19,1.82-23.26,5.46-33.23,3.64-9.96,8.88-18.47,15.72-25.53,6.84-7.06,15.09-12.52,24.75-16.39,9.66-3.86,20.59-5.8,32.78-5.8s23.15,1.93,32.89,5.8c9.73,3.87,18.02,9.33,24.86,16.39,6.84,7.06,12.08,15.57,15.72,25.53,3.64,9.96,5.46,21.04,5.46,33.23s-1.82,23.27-5.46,33.23c-3.64,9.96-8.88,18.51-15.72,25.64-6.84,7.14-15.13,12.64-24.86,16.5-9.74,3.86-20.7,5.8-32.89,5.8s-23.12-1.93-32.78-5.8c-9.67-3.86-17.92-9.37-24.75-16.5-6.84-7.14-12.08-15.68-15.72-25.64-3.64-9.96-5.46-21.03-5.46-33.23ZM192.28,255.38c0,8.47,1.15,16.17,3.46,23.08,2.3,6.91,5.61,12.75,9.92,17.5,4.31,4.76,9.62,8.44,15.94,11.04,6.32,2.6,13.49,3.9,21.52,3.9s15.2-1.3,21.52-3.9c6.32-2.6,11.67-6.28,16.06-11.04,4.38-4.76,7.73-10.59,10.03-17.5,2.3-6.91,3.46-14.61,3.46-23.08s-1.15-16.13-3.46-22.97c-2.31-6.84-5.65-12.63-10.03-17.39-4.39-4.76-9.74-8.44-16.06-11.04-6.32-2.6-13.49-3.9-21.52-3.9s-15.2,1.3-21.52,3.9c-6.32,2.6-11.63,6.28-15.94,11.04-4.31,4.76-7.62,10.56-9.92,17.39-2.31,6.84-3.46,14.49-3.46,22.97Z"/>
        <path class="cls-1" d="M368.89,177.33h29.21l53.52,156.09h-29.21l-12.93-41.25h-51.96l-12.93,41.25h-29.21l53.52-156.09ZM401.22,266.53l-17.84-56.64-17.84,56.64h35.68Z"/>
        <path class="cls-1" d="M456.08,177.33h59.09c11.6,0,22.04,1.86,31.33,5.57,9.29,3.72,17.17,8.92,23.64,15.61,6.47,6.69,11.45,14.79,14.94,24.31,3.49,9.52,5.24,20.07,5.24,31.66s-1.75,22.93-5.24,32.67c-3.49,9.74-8.47,18.03-14.94,24.86-6.47,6.84-14.35,12.12-23.64,15.83-9.29,3.72-19.73,5.57-31.33,5.57h-59.09v-156.09ZM512.49,307.78c7.88,0,14.9-1.23,21.07-3.68,6.17-2.45,11.37-5.98,15.61-10.59,4.24-4.61,7.5-10.11,9.81-16.5,2.3-6.39,3.46-13.45,3.46-21.18s-1.15-15.31-3.46-21.85c-2.31-6.54-5.57-12.11-9.81-16.72-4.24-4.61-9.44-8.14-15.61-10.59-6.17-2.45-13.19-3.68-21.07-3.68h-28.54v104.8h28.54Z"/>
      </g>
    </g>
  </g>
</svg>