<?xml version="1.0" encoding="UTF-8"?>
<svg id="Capa_2" data-name="Capa 2" xmlns="http://www.w3.org/2000/svg" viewBox="0 0 616.12 307.14">
  <defs>
    <style>
      .cls-1 {
        fill: #e41aa2;
      }
    </style>
  </defs>
  <g id="Capa_1-2" data-name="Capa 1">
    <g>
      <g>
        <g>
          <path class="cls-1" d="M17.95,82.33c0,2.54.37,4.52,1.11,5.97.74,1.44,2.03,2.38,3.87,2.82v.66H3.79v-.66c1.84-.44,3.12-1.38,3.87-2.82.74-1.44,1.11-3.43,1.11-5.97V9.44c0-2.53-.37-4.52-1.11-5.97-.74-1.44-2.03-2.38-3.87-2.82v-.66h29.89c6.73,0,12.41,1.29,17.04,3.87,4.63,2.58,8.17,5.79,10.62,9.64,2.45,3.85,3.78,8.04,4,12.59.22,4.55-.79,8.74-3.02,12.59-2.23,3.85-5.73,7.06-10.49,9.64-4.76,2.58-10.82,3.87-18.16,3.87h-15.73v30.15ZM33.68,50.87c4.89,0,9-1.22,12.32-3.67,3.32-2.45,5.81-5.51,7.47-9.18,1.66-3.67,2.53-7.65,2.62-11.93.09-4.28-.7-8.26-2.36-11.93-1.66-3.67-4.15-6.73-7.47-9.18-3.32-2.45-7.52-3.67-12.59-3.67h-10.75c-1.92,0-3.23.72-3.93,2.16-.7,1.44-1.05,3.43-1.05,5.97v41.43h15.73Z"/>
          <path class="cls-1" d="M70.39,10.88c0-1.75-.18-2.77-.52-3.08-.35-.31-.88-.46-1.57-.46v-.66c1.75-.17,3.71-.85,5.9-2.03,2.18-1.18,3.76-2.73,4.72-4.65h.66v39.59c1.66-3.58,3.82-6.44,6.49-8.59,2.67-2.14,5.53-3.63,8.59-4.46,3.06-.83,6.14-1,9.24-.52,3.1.48,5.9,1.6,8.39,3.34,2.49,1.75,4.52,4.13,6.1,7.15,1.57,3.02,2.36,6.58,2.36,10.68v35.14c0,2.54.37,4.52,1.11,5.97.74,1.44,2.03,2.38,3.87,2.82v.66h-19.14v-.66c1.84-.44,3.12-1.38,3.87-2.82.74-1.44,1.11-3.43,1.11-5.97v-38.81c0-4.46-.79-7.93-2.36-10.42-1.57-2.49-3.54-4.15-5.9-4.98-2.36-.83-4.94-.92-7.73-.26-2.8.66-5.38,1.9-7.73,3.74s-4.33,4.2-5.9,7.08c-1.57,2.88-2.36,6.08-2.36,9.57v34.09c0,2.54.37,4.52,1.11,5.97.74,1.44,2.03,2.38,3.87,2.82v.66h-19.14v-.66c1.84-.44,3.12-1.38,3.87-2.82.74-1.44,1.11-3.43,1.11-5.97V10.88Z"/>
          <path class="cls-1" d="M155.73,26.22c4.54,0,8.39.98,11.54,2.95s5.4,4.35,6.75,7.15c1.35,2.8,1.72,5.75,1.11,8.85-.61,3.1-2.45,5.75-5.51,7.93-3.06,2.19-7.41,3.67-13.04,4.46-5.64.79-12.78.31-21.44-1.44-.09,3.85.28,7.65,1.11,11.41.83,3.76,2.1,7.19,3.8,10.29,1.7,3.1,3.87,5.73,6.49,7.87,2.62,2.14,5.68,3.47,9.18,4,4.46.7,8.89.05,13.31-1.97,4.41-2.01,8.15-5.59,11.21-10.75l1.44.66c-1.66,2.88-3.54,5.24-5.64,7.08s-4.28,3.28-6.56,4.33c-2.27,1.05-4.57,1.77-6.88,2.16-2.32.39-4.61.59-6.88.59-6.82,0-12.46-1.62-16.91-4.85-4.46-3.23-7.76-7.28-9.9-12.13-2.14-4.85-3.17-10.12-3.08-15.8.09-5.68,1.27-10.95,3.54-15.8,2.27-4.85,5.61-8.89,10.03-12.13,4.41-3.23,9.85-4.85,16.32-4.85ZM135.15,54.8c5.77.87,10.84.81,15.21-.2,4.37-1,7.97-2.51,10.82-4.52,2.84-2.01,4.92-4.28,6.23-6.82,1.31-2.53,1.88-4.94,1.7-7.21-.18-2.27-1.16-4.2-2.95-5.77-1.79-1.57-4.35-2.36-7.67-2.36s-6.25.74-9.05,2.23c-2.8,1.49-5.22,3.45-7.28,5.9-2.05,2.45-3.69,5.29-4.92,8.52-1.23,3.23-1.92,6.64-2.1,10.23Z"/>
          <path class="cls-1" d="M186.67,37.1c0-1.75-.18-2.77-.52-3.08-.35-.31-.88-.46-1.57-.46v-.66c1.75-.17,3.71-.85,5.9-2.03,2.18-1.18,3.76-2.73,4.72-4.65h.66v17.7c2.18-4.46,4.89-8.11,8.13-10.95,3.23-2.84,6.62-5.02,10.16-6.56,3.54-1.53,6.97-2.38,10.29-2.56,3.32-.17,6.16.22,8.52,1.18,1.49.61,2.38,1.38,2.69,2.29.31.92.24,1.75-.2,2.49-.44.74-1.16,1.27-2.16,1.57-1.01.31-2.12.15-3.34-.46-3.85-1.92-7.78-2.67-11.8-2.23-4.02.44-7.69,1.77-11.01,4-3.32,2.23-6.03,5.16-8.13,8.78-2.1,3.63-3.15,7.67-3.15,12.13v28.71c0,2.54.37,4.52,1.11,5.97.74,1.44,2.03,2.38,3.87,2.82v.66h-19.14v-.66c1.84-.44,3.12-1.38,3.87-2.82.74-1.44,1.11-3.43,1.11-5.97v-45.23Z"/>
          <path class="cls-1" d="M259.44,91.77c-6.64,0-12.19-1.62-16.65-4.85-4.46-3.23-7.8-7.28-10.03-12.13-2.23-4.85-3.34-10.12-3.34-15.8s1.11-10.95,3.34-15.8c2.23-4.85,5.57-8.89,10.03-12.13,4.46-3.23,10.01-4.85,16.65-4.85s12.19,1.62,16.65,4.85c4.46,3.23,7.8,7.28,10.03,12.13,2.23,4.85,3.34,10.12,3.34,15.8s-1.11,10.95-3.34,15.8c-2.23,4.85-5.57,8.89-10.03,12.13-4.46,3.23-10.01,4.85-16.65,4.85ZM259.44,90.46c4.63,0,8.5-1.55,11.6-4.65,3.1-3.1,5.42-6.99,6.95-11.67,1.53-4.67,2.27-9.72,2.23-15.14-.04-5.42-.83-10.47-2.36-15.14-1.53-4.67-3.85-8.56-6.95-11.67-3.1-3.1-6.93-4.65-11.47-4.65s-8.35,1.55-11.41,4.65c-3.06,3.1-5.38,6.99-6.95,11.67-1.57,4.68-2.36,9.72-2.36,15.14s.74,10.47,2.23,15.14c1.48,4.68,3.78,8.57,6.88,11.67,3.1,3.1,6.97,4.65,11.6,4.65Z"/>
          <path class="cls-1" d="M294.44,37.1c0-1.75-.18-2.77-.52-3.08-.35-.31-.88-.46-1.57-.46v-.66c1.75-.17,3.71-.85,5.9-2.03,2.18-1.18,3.76-2.73,4.72-4.65h.66v13.37c1.48-3.15,3.39-5.75,5.7-7.8,2.31-2.05,4.81-3.58,7.47-4.59,2.67-1,5.4-1.49,8.19-1.44,2.8.05,5.42.59,7.87,1.64,2.45,1.05,4.65,2.6,6.62,4.65,1.97,2.05,3.39,4.61,4.26,7.67v-.13c1.66-3.58,3.82-6.44,6.49-8.59,2.67-2.14,5.53-3.63,8.59-4.46,3.06-.83,6.16-1,9.31-.52,3.15.48,5.96,1.6,8.46,3.34,2.49,1.75,4.52,4.13,6.1,7.15,1.57,3.02,2.36,6.58,2.36,10.68v35.14c0,2.54.37,4.52,1.11,5.97.74,1.44,2.03,2.38,3.87,2.82v.66h-19.14v-.66c1.84-.44,3.12-1.38,3.87-2.82.74-1.44,1.11-3.43,1.11-5.97v-38.81c0-4.11-.68-7.36-2.03-9.77-1.36-2.4-3.06-4.13-5.11-5.18-2.05-1.05-4.33-1.42-6.82-1.11-2.49.31-4.9,1.11-7.21,2.43-2.32,1.31-4.41,3.08-6.29,5.31-1.88,2.23-3.21,4.79-4,7.67.26,1.31.39,2.75.39,4.33v35.14c0,2.54.37,4.52,1.11,5.97.74,1.44,2.03,2.38,3.87,2.82v.66h-19.14v-.66c1.84-.44,3.12-1.38,3.87-2.82.74-1.44,1.11-3.43,1.11-5.97v-38.81c0-4.46-.79-7.93-2.36-10.42-1.57-2.49-3.54-4.15-5.9-4.98-2.36-.83-4.94-.92-7.73-.26-2.8.66-5.38,1.9-7.73,3.74s-4.33,4.2-5.9,7.08c-1.57,2.88-2.36,6.08-2.36,9.57v34.09c0,2.54.37,4.52,1.11,5.97.74,1.44,2.03,2.38,3.87,2.82v.66h-19.14v-.66c1.84-.44,3.12-1.38,3.87-2.82.74-1.44,1.11-3.43,1.11-5.97v-45.23Z"/>
          <path class="cls-1" d="M420.04,91.77c-6.64,0-12.19-1.62-16.65-4.85-4.46-3.23-7.8-7.28-10.03-12.13-2.23-4.85-3.34-10.12-3.34-15.8s1.11-10.95,3.34-15.8c2.23-4.85,5.57-8.89,10.03-12.13,4.46-3.23,10.01-4.85,16.65-4.85s12.19,1.62,16.65,4.85c4.46,3.23,7.8,7.28,10.03,12.13,2.23,4.85,3.34,10.12,3.34,15.8s-1.11,10.95-3.34,15.8c-2.23,4.85-5.57,8.89-10.03,12.13-4.46,3.23-10.01,4.85-16.65,4.85ZM420.04,90.46c4.63,0,8.5-1.55,11.6-4.65,3.1-3.1,5.42-6.99,6.95-11.67,1.53-4.67,2.27-9.72,2.23-15.14-.04-5.42-.83-10.47-2.36-15.14-1.53-4.67-3.85-8.56-6.95-11.67-3.1-3.1-6.93-4.65-11.47-4.65s-8.35,1.55-11.41,4.65c-3.06,3.1-5.38,6.99-6.95,11.67-1.57,4.68-2.36,9.72-2.36,15.14s.74,10.47,2.23,15.14c1.48,4.68,3.78,8.57,6.88,11.67,3.1,3.1,6.97,4.65,11.6,4.65Z"/>
          <path class="cls-1" d="M455.04,37.1c0-1.75-.18-2.77-.52-3.08-.35-.31-.88-.46-1.57-.46v-.66c1.75-.17,3.71-.85,5.9-2.03,2.18-1.18,3.76-2.73,4.72-4.65h.66v13.37c1.66-3.58,3.82-6.44,6.49-8.59,2.67-2.14,5.53-3.63,8.59-4.46,3.06-.83,6.14-1,9.24-.52,3.1.48,5.9,1.6,8.39,3.34,2.49,1.75,4.52,4.13,6.1,7.15,1.57,3.02,2.36,6.58,2.36,10.68v35.14c0,2.54.37,4.52,1.11,5.97.74,1.44,2.03,2.38,3.87,2.82v.66h-19.14v-.66c1.84-.44,3.12-1.38,3.87-2.82.74-1.44,1.11-3.43,1.11-5.97v-38.81c0-4.46-.79-7.93-2.36-10.42-1.57-2.49-3.54-4.15-5.9-4.98-2.36-.83-4.94-.92-7.73-.26-2.8.66-5.38,1.9-7.73,3.74s-4.33,4.2-5.9,7.08c-1.57,2.88-2.36,6.08-2.36,9.57v34.09c0,2.54.37,4.52,1.11,5.97.74,1.44,2.03,2.38,3.87,2.82v.66h-19.14v-.66c1.84-.44,3.12-1.38,3.87-2.82.74-1.44,1.11-3.43,1.11-5.97v-45.23Z"/>
          <path class="cls-1" d="M540.38,26.22c4.54,0,8.39.98,11.54,2.95s5.4,4.35,6.75,7.15c1.35,2.8,1.72,5.75,1.11,8.85-.61,3.1-2.45,5.75-5.51,7.93-3.06,2.19-7.41,3.67-13.04,4.46-5.64.79-12.78.31-21.44-1.44-.09,3.85.28,7.65,1.11,11.41.83,3.76,2.1,7.19,3.8,10.29,1.7,3.1,3.87,5.73,6.49,7.87,2.62,2.14,5.68,3.47,9.18,4,4.46.7,8.89.05,13.31-1.97,4.41-2.01,8.15-5.59,11.21-10.75l1.44.66c-1.66,2.88-3.54,5.24-5.64,7.08s-4.28,3.28-6.56,4.33c-2.27,1.05-4.57,1.77-6.88,2.16-2.32.39-4.61.59-6.88.59-6.82,0-12.46-1.62-16.91-4.85-4.46-3.23-7.76-7.28-9.9-12.13-2.14-4.85-3.17-10.12-3.08-15.8.09-5.68,1.27-10.95,3.54-15.8,2.27-4.85,5.61-8.89,10.03-12.13,4.41-3.23,9.85-4.85,16.32-4.85ZM519.8,54.8c5.77.87,10.84.81,15.21-.2,4.37-1,7.97-2.51,10.82-4.52,2.84-2.01,4.92-4.28,6.23-6.82,1.31-2.53,1.88-4.94,1.7-7.21-.18-2.27-1.16-4.2-2.95-5.77-1.79-1.57-4.35-2.36-7.67-2.36s-6.25.74-9.05,2.23c-2.8,1.49-5.22,3.45-7.28,5.9-2.05,2.45-3.69,5.29-4.92,8.52-1.23,3.23-1.92,6.64-2.1,10.23Z"/>
          <path class="cls-1" d="M605.54,75.12c-.35-1.92-1.46-3.65-3.34-5.18-1.88-1.53-4.11-3.02-6.69-4.46-2.58-1.44-5.31-2.9-8.19-4.39-2.88-1.49-5.53-3.08-7.93-4.79-2.4-1.7-4.41-3.61-6.03-5.7-1.62-2.1-2.43-4.5-2.43-7.21,0-3.93,1-7.28,3.02-10.03,2.01-2.75,4.52-4.89,7.54-6.42,3.02-1.53,6.36-2.49,10.03-2.88s7.17-.24,10.49.46c3.32.7,6.25,1.92,8.78,3.67,2.53,1.75,4.24,4.02,5.11,6.82.35,1.22.28,2.27-.2,3.15-.48.87-1.14,1.44-1.97,1.7-.83.26-1.66.18-2.49-.26-.83-.44-1.42-1.35-1.77-2.75-.7-3.06-1.97-5.48-3.8-7.28-1.84-1.79-3.93-2.99-6.29-3.61-2.36-.61-4.81-.72-7.34-.33-2.54.39-4.81,1.22-6.82,2.49-2.01,1.27-3.63,2.91-4.85,4.92-1.23,2.01-1.7,4.33-1.44,6.95.26,2.19,1.18,4.15,2.75,5.9,1.57,1.75,3.54,3.37,5.9,4.85,2.36,1.49,4.92,2.93,7.67,4.33,2.75,1.4,5.38,2.88,7.87,4.46,2.49,1.57,4.72,3.28,6.69,5.11,1.97,1.84,3.34,3.93,4.13,6.29,1.05,3.32,1.18,6.25.39,8.78-.79,2.54-2.21,4.65-4.26,6.36-2.05,1.7-4.55,3.04-7.47,4-2.93.96-6.01,1.55-9.24,1.77-3.23.22-6.47.07-9.7-.46-3.23-.52-6.12-1.4-8.65-2.62-2.54-1.22-4.61-2.8-6.23-4.72-1.62-1.92-2.43-4.15-2.43-6.69,0-1.22.31-2.18.92-2.88.61-.7,1.31-1.13,2.1-1.31.79-.17,1.53-.04,2.23.39.7.44,1.09,1.14,1.18,2.1.44,3.5,1.64,6.36,3.61,8.59,1.97,2.23,4.28,3.85,6.95,4.85,2.67,1.01,5.44,1.44,8.33,1.31s5.46-.81,7.73-2.03c2.27-1.22,4.04-2.95,5.31-5.18,1.27-2.23,1.55-4.92.85-8.06Z"/>
        </g>
        <g>
          <path class="cls-1" d="M5.68,136.04c0-3.91.55-7.08,1.66-9.51,1.1-2.43,2.49-4.27,4.16-5.54,1.67-1.26,3.52-2.03,5.54-2.32,2.02-.28,3.96-.2,5.82.24,1.86.44,3.52,1.18,4.97,2.22,1.45,1.04,2.46,2.22,3.03,3.55.31.82.33,1.51.05,2.08-.28.57-.71.95-1.28,1.14s-1.2.16-1.89-.09c-.69-.25-1.23-.85-1.61-1.8-1.07-2.52-2.4-4.32-3.97-5.39-1.58-1.07-3.09-1.37-4.54-.9-1.45.47-2.7,1.72-3.74,3.74-1.04,2.02-1.56,4.86-1.56,8.52v5.49h6.62v.95h-6.62v39.55c0,1.83.27,3.26.8,4.31.54,1.04,1.47,1.72,2.79,2.03v.47H2.08v-.47c1.32-.31,2.25-.99,2.79-2.03.54-1.04.8-2.47.8-4.31v-39.55H0v-.95h5.68v-1.42Z"/>
          <path class="cls-1" d="M47.03,184.77c-4.79,0-8.8-1.17-12.02-3.5-3.22-2.33-5.63-5.25-7.24-8.75-1.61-3.5-2.41-7.3-2.41-11.4s.8-7.9,2.41-11.4c1.61-3.5,4.02-6.42,7.24-8.75,3.22-2.33,7.22-3.5,12.02-3.5s8.8,1.17,12.02,3.5c3.22,2.33,5.63,5.25,7.24,8.75,1.61,3.5,2.41,7.3,2.41,11.4s-.8,7.9-2.41,11.4c-1.61,3.5-4.02,6.42-7.24,8.75-3.22,2.33-7.22,3.5-12.02,3.5ZM47.03,183.83c3.34,0,6.13-1.12,8.37-3.36,2.24-2.24,3.91-5.05,5.02-8.42,1.1-3.37,1.64-7.02,1.61-10.93-.03-3.91-.6-7.55-1.7-10.93-1.1-3.37-2.78-6.18-5.02-8.42-2.24-2.24-5-3.36-8.28-3.36s-6.02,1.12-8.23,3.36c-2.21,2.24-3.88,5.05-5.01,8.42-1.14,3.38-1.7,7.02-1.7,10.93s.54,7.56,1.61,10.93c1.07,3.38,2.73,6.18,4.97,8.42,2.24,2.24,5.03,3.36,8.37,3.36Z"/>
          <path class="cls-1" d="M72.29,145.32c0-1.26-.13-2-.38-2.22-.25-.22-.63-.33-1.14-.33v-.47c1.26-.13,2.68-.62,4.26-1.47,1.58-.85,2.71-1.97,3.41-3.36h.47v12.77c1.58-3.22,3.53-5.85,5.87-7.9,2.33-2.05,4.78-3.63,7.33-4.73,2.55-1.1,5.03-1.72,7.43-1.85,2.4-.13,4.45.16,6.15.85,1.07.44,1.72.99,1.94,1.66.22.66.17,1.26-.14,1.8-.32.54-.84.92-1.56,1.14-.73.22-1.53.11-2.41-.33-2.78-1.39-5.62-1.92-8.52-1.61-2.9.32-5.55,1.28-7.95,2.89-2.4,1.61-4.35,3.72-5.87,6.34-1.51,2.62-2.27,5.54-2.27,8.75v20.72c0,1.83.27,3.26.8,4.31.54,1.04,1.47,1.72,2.79,2.03v.47h-13.81v-.47c1.32-.31,2.25-.99,2.79-2.03.54-1.04.8-2.47.8-4.31v-32.65Z"/>
        </g>
        <g>
          <path class="cls-1" d="M161.62,226.07l-31.37-74.18c-.81-1.85-1.47-3.44-1.99-4.77-.52-1.33-1.1-2.45-1.73-3.38-.64-.92-1.39-1.67-2.25-2.25-.87-.58-1.99-.98-3.38-1.21v-.87h23.4v.87c-2.08.58-3.12,1.71-3.12,3.38s.81,4.42,2.43,8.23l23.57,56.16,18.03-43.33-5.37-12.83c-.81-1.85-1.47-3.44-1.99-4.77-.52-1.33-1.1-2.45-1.73-3.38-.64-.92-1.39-1.67-2.25-2.25-.87-.58-1.99-.98-3.38-1.21v-.87h23.4v.87c-2.08.58-3.12,1.71-3.12,3.38s.81,4.42,2.43,8.23l23.57,56.16,23.75-56.85c1.62-3.81,2.25-6.44,1.91-7.89-.35-1.44-1.56-2.45-3.64-3.03v-.87h13.35v.87c-1.39.23-2.54.64-3.47,1.21-.93.58-1.73,1.33-2.43,2.25-.69.93-1.33,2.05-1.91,3.38-.58,1.33-1.27,2.92-2.08,4.77l-31.03,74.18-24.96-58.93-24.61,58.93Z"/>
          <path class="cls-1" d="M287.45,226.07c-8.78,0-16.12-2.14-22.01-6.41-5.89-4.27-10.31-9.62-13.26-16.03s-4.42-13.37-4.42-20.89,1.47-14.47,4.42-20.89,7.37-11.76,13.26-16.03c5.89-4.27,13.23-6.41,22.01-6.41s16.12,2.14,22.01,6.41c5.89,4.28,10.31,9.62,13.26,16.03,2.95,6.41,4.42,13.38,4.42,20.89s-1.47,14.47-4.42,20.89c-2.95,6.41-7.37,11.76-13.26,16.03-5.89,4.28-13.23,6.41-22.01,6.41ZM287.45,224.33c6.12,0,11.24-2.05,15.34-6.15s7.16-9.24,9.19-15.43c2.02-6.18,3-12.85,2.95-20.02-.06-7.16-1.1-13.84-3.12-20.02-2.02-6.18-5.09-11.32-9.19-15.43-4.1-4.1-9.16-6.15-15.17-6.15s-11.04,2.05-15.08,6.15c-4.05,4.1-7.11,9.25-9.19,15.43-2.08,6.18-3.12,12.86-3.12,20.02s.98,13.84,2.95,20.02c1.96,6.18,5,11.33,9.1,15.43,4.1,4.1,9.21,6.15,15.34,6.15Z"/>
          <path class="cls-1" d="M333.73,153.79c0-2.31-.23-3.67-.69-4.07-.46-.4-1.16-.61-2.08-.61v-.87c2.31-.23,4.91-1.13,7.8-2.69,2.89-1.56,4.97-3.61,6.24-6.15h.87v17.68c1.96-4.16,4.48-7.6,7.54-10.31,3.06-2.71,6.35-4.74,9.88-6.07,3.52-1.33,7.13-1.96,10.83-1.91,3.7.06,7.16.78,10.4,2.17,3.23,1.39,6.15,3.44,8.75,6.15,2.6,2.72,4.48,6.1,5.63,10.14v-.17c2.19-4.74,5.05-8.52,8.58-11.35,3.52-2.83,7.31-4.79,11.35-5.89,4.04-1.1,8.15-1.33,12.31-.69,4.16.64,7.89,2.11,11.18,4.42,3.29,2.31,5.98,5.46,8.06,9.45s3.12,8.7,3.12,14.13v46.45c0,3.35.49,5.98,1.47,7.89.98,1.91,2.69,3.15,5.11,3.73v.87h-25.31v-.87c2.43-.58,4.13-1.82,5.11-3.73.98-1.91,1.47-4.53,1.47-7.89v-51.3c0-5.43-.9-9.73-2.69-12.91-1.79-3.18-4.05-5.46-6.76-6.85-2.72-1.39-5.72-1.88-9.01-1.47-3.29.41-6.47,1.47-9.53,3.21-3.06,1.73-5.84,4.07-8.32,7.02-2.49,2.95-4.25,6.33-5.29,10.14.35,1.73.52,3.64.52,5.72v46.45c0,3.35.49,5.98,1.47,7.89.98,1.91,2.69,3.15,5.11,3.73v.87h-25.31v-.87c2.43-.58,4.13-1.82,5.11-3.73.98-1.91,1.47-4.53,1.47-7.89v-51.3c0-5.89-1.04-10.49-3.12-13.78s-4.68-5.49-7.8-6.59c-3.12-1.1-6.53-1.21-10.23-.35-3.7.87-7.11,2.51-10.23,4.94-3.12,2.43-5.72,5.55-7.8,9.36-2.08,3.81-3.12,8.03-3.12,12.65v45.06c0,3.35.49,5.98,1.47,7.89.98,1.91,2.69,3.15,5.11,3.73v.87h-25.31v-.87c2.43-.58,4.13-1.82,5.11-3.73.98-1.91,1.47-4.53,1.47-7.89v-59.8Z"/>
          <path class="cls-1" d="M499.77,139.4c6.01,0,11.09,1.3,15.25,3.9,4.16,2.6,7.13,5.75,8.93,9.45,1.79,3.7,2.28,7.6,1.47,11.7-.81,4.1-3.24,7.6-7.28,10.49-4.05,2.89-9.79,4.85-17.25,5.89-7.45,1.04-16.9.41-28.34-1.91-.12,5.09.37,10.11,1.47,15.08,1.1,4.97,2.77,9.51,5.03,13.61,2.25,4.1,5.11,7.57,8.58,10.4,3.47,2.83,7.51,4.59,12.13,5.29,5.89.93,11.76.06,17.59-2.6,5.83-2.66,10.77-7.39,14.82-14.21l1.91.87c-2.2,3.81-4.68,6.93-7.45,9.36-2.77,2.43-5.66,4.33-8.67,5.72-3.01,1.39-6.04,2.34-9.1,2.86-3.06.52-6.1.78-9.1.78-9.01,0-16.47-2.14-22.36-6.41-5.89-4.27-10.26-9.62-13.09-16.03-2.83-6.41-4.19-13.37-4.07-20.89.11-7.51,1.67-14.47,4.68-20.89,3-6.41,7.42-11.76,13.26-16.03,5.83-4.27,13.03-6.41,21.58-6.41ZM472.56,177.19c7.63,1.16,14.33,1.07,20.11-.26,5.78-1.33,10.54-3.32,14.3-5.98,3.75-2.66,6.5-5.66,8.23-9.01,1.73-3.35,2.48-6.53,2.25-9.53-.23-3-1.53-5.55-3.9-7.63-2.37-2.08-5.75-3.12-10.14-3.12s-8.26.98-11.96,2.95c-3.7,1.97-6.91,4.57-9.62,7.8-2.72,3.24-4.88,6.99-6.5,11.27-1.62,4.28-2.54,8.78-2.77,13.52Z"/>
          <path class="cls-1" d="M540.68,153.79c0-2.31-.23-3.67-.69-4.07-.46-.4-1.16-.61-2.08-.61v-.87c2.31-.23,4.91-1.13,7.8-2.69,2.89-1.56,4.97-3.61,6.24-6.15h.87v17.68c2.19-4.74,5.05-8.52,8.58-11.35,3.52-2.83,7.31-4.79,11.35-5.89,4.04-1.1,8.12-1.33,12.22-.69,4.1.64,7.8,2.11,11.09,4.42,3.29,2.31,5.98,5.46,8.06,9.45,2.08,3.99,3.12,8.7,3.12,14.13v46.45c0,3.35.49,5.98,1.47,7.89.98,1.91,2.69,3.15,5.11,3.73v.87h-25.31v-.87c2.43-.58,4.13-1.82,5.11-3.73.98-1.91,1.47-4.53,1.47-7.89v-51.3c0-5.89-1.04-10.49-3.12-13.78s-4.68-5.49-7.8-6.59c-3.12-1.1-6.53-1.21-10.23-.35-3.7.87-7.11,2.51-10.23,4.94-3.12,2.43-5.72,5.55-7.8,9.36-2.08,3.81-3.12,8.03-3.12,12.65v45.06c0,3.35.49,5.98,1.47,7.89.98,1.91,2.69,3.15,5.11,3.73v.87h-25.31v-.87c2.43-.58,4.13-1.82,5.11-3.73.98-1.91,1.47-4.53,1.47-7.89v-59.8Z"/>
        </g>
      </g>
      <g>
        <path class="cls-1" d="M19.26,289.53v-35.99c0-1.25-.18-2.23-.55-2.95-.37-.71-1-1.18-1.91-1.39v-.32h29.58v8.16h-.32c-.13-1.04-.37-2.01-.71-2.91-.35-.91-.87-1.7-1.59-2.4-.71-.69-1.65-1.23-2.82-1.62s-2.59-.58-4.27-.58h-10.42c-.95,0-1.6.36-1.94,1.07-.35.71-.52,1.69-.52,2.95v17.22h10.62c1.25,0,2.23-.29,2.95-.87.71-.58,1.18-1.33,1.39-2.23h.32v6.86h-.32c-.22-.91-.68-1.65-1.39-2.23-.71-.58-1.69-.87-2.95-.87h-10.62v18.12c0,1.25.18,2.23.55,2.95.37.71,1,1.18,1.91,1.39v.32h-9.45v-.32c.91-.22,1.54-.68,1.91-1.39.37-.71.55-1.69.55-2.95Z"/>
        <path class="cls-1" d="M59.27,261.83c2.24,0,4.14.49,5.7,1.46,1.55.97,2.66,2.15,3.33,3.53.67,1.38.85,2.84.55,4.37-.3,1.53-1.21,2.84-2.72,3.92-1.51,1.08-3.66,1.81-6.44,2.2s-6.31.15-10.58-.71c-.04,1.9.14,3.78.55,5.63.41,1.86,1.04,3.55,1.88,5.08.84,1.53,1.91,2.83,3.2,3.88,1.29,1.06,2.8,1.72,4.53,1.97,2.2.35,4.39.02,6.57-.97,2.18-.99,4.02-2.76,5.53-5.31l.71.32c-.82,1.42-1.75,2.59-2.78,3.5-1.04.91-2.11,1.62-3.24,2.14-1.12.52-2.26.87-3.4,1.07-1.14.19-2.28.29-3.4.29-3.37,0-6.15-.8-8.35-2.4-2.2-1.6-3.83-3.59-4.89-5.99-1.06-2.4-1.56-4.99-1.52-7.8.04-2.8.62-5.41,1.75-7.8,1.12-2.4,2.77-4.39,4.95-5.99,2.18-1.6,4.86-2.4,8.06-2.4ZM49.1,275.94c2.85.43,5.35.4,7.51-.1,2.16-.5,3.94-1.24,5.34-2.23,1.4-.99,2.43-2.11,3.07-3.37.65-1.25.93-2.44.84-3.56-.09-1.12-.57-2.07-1.46-2.85-.89-.78-2.15-1.17-3.79-1.17s-3.09.37-4.47,1.1c-1.38.73-2.58,1.71-3.59,2.91-1.01,1.21-1.82,2.61-2.43,4.21-.6,1.6-.95,3.28-1.04,5.05Z"/>
        <path class="cls-1" d="M75.84,267.2c0-.86-.09-1.37-.26-1.52-.17-.15-.43-.23-.78-.23v-.32c.86-.09,1.83-.42,2.91-1,1.08-.58,1.85-1.35,2.33-2.3h.32v8.74c1.08-2.2,2.42-4,4.01-5.41,1.6-1.4,3.27-2.48,5.02-3.24,1.75-.75,3.44-1.18,5.08-1.26,1.64-.09,3.04.11,4.21.58.73.3,1.18.68,1.33,1.13.15.45.12.86-.1,1.23-.22.37-.57.63-1.07.78-.5.15-1.05.08-1.65-.23-1.9-.95-3.84-1.32-5.83-1.1-1.99.22-3.8.87-5.44,1.97-1.64,1.1-2.98,2.55-4.01,4.34-1.04,1.79-1.55,3.79-1.55,5.99v14.18c0,1.25.18,2.23.55,2.95.37.71,1,1.18,1.91,1.39v.32h-9.45v-.32c.91-.22,1.54-.68,1.91-1.39.37-.71.55-1.69.55-2.95v-22.33Z"/>
        <path class="cls-1" d="M113.06,294.19c-3.28,0-6.02-.8-8.22-2.4-2.2-1.6-3.85-3.59-4.95-5.99-1.1-2.4-1.65-4.99-1.65-7.8s.55-5.41,1.65-7.8c1.1-2.4,2.75-4.39,4.95-5.99,2.2-1.6,4.94-2.4,8.22-2.4s6.02.8,8.22,2.4c2.2,1.6,3.85,3.59,4.95,5.99,1.1,2.4,1.65,5,1.65,7.8s-.55,5.41-1.65,7.8-2.75,4.39-4.95,5.99c-2.2,1.6-4.94,2.4-8.22,2.4ZM113.06,293.54c2.29,0,4.2-.77,5.73-2.3,1.53-1.53,2.67-3.45,3.43-5.76.75-2.31,1.12-4.8,1.1-7.48-.02-2.68-.41-5.17-1.17-7.48-.76-2.31-1.9-4.23-3.43-5.76-1.53-1.53-3.42-2.3-5.66-2.3s-4.12.77-5.63,2.3c-1.51,1.53-2.65,3.45-3.43,5.76-.78,2.31-1.17,4.8-1.17,7.48s.37,5.17,1.1,7.48c.73,2.31,1.87,4.23,3.4,5.76,1.53,1.53,3.44,2.3,5.73,2.3Z"/>
        <path class="cls-1" d="M131.64,267.2c0-.86-.09-1.37-.26-1.52-.17-.15-.43-.23-.78-.23v-.32c.86-.09,1.83-.42,2.91-1,1.08-.58,1.85-1.35,2.33-2.3h.32v6.6c.73-1.55,1.67-2.84,2.82-3.85,1.14-1.01,2.37-1.77,3.69-2.27,1.32-.5,2.66-.73,4.05-.71,1.38.02,2.68.29,3.88.81,1.21.52,2.3,1.28,3.27,2.3.97,1.01,1.67,2.28,2.1,3.79v-.06c.82-1.77,1.89-3.18,3.2-4.24,1.32-1.06,2.73-1.79,4.24-2.2,1.51-.41,3.04-.5,4.6-.26,1.55.24,2.95.79,4.18,1.65,1.23.86,2.23,2.04,3.01,3.53.78,1.49,1.17,3.25,1.17,5.28v17.35c0,1.25.18,2.23.55,2.95.37.71,1,1.18,1.91,1.39v.32h-9.45v-.32c.91-.22,1.54-.68,1.91-1.39.37-.71.55-1.69.55-2.95v-19.16c0-2.03-.33-3.64-1-4.82-.67-1.19-1.51-2.04-2.52-2.56-1.01-.52-2.14-.7-3.37-.55-1.23.15-2.42.55-3.56,1.2-1.14.65-2.18,1.52-3.11,2.62-.93,1.1-1.59,2.36-1.97,3.79.13.65.19,1.36.19,2.14v17.35c0,1.25.18,2.23.55,2.95.37.71,1,1.18,1.91,1.39v.32h-9.45v-.32c.91-.22,1.54-.68,1.91-1.39.37-.71.55-1.69.55-2.95v-19.16c0-2.2-.39-3.92-1.17-5.15s-1.75-2.05-2.91-2.46c-1.17-.41-2.44-.45-3.82-.13-1.38.32-2.65.94-3.82,1.84-1.17.91-2.14,2.07-2.91,3.5s-1.17,3-1.17,4.73v16.83c0,1.25.18,2.23.55,2.95.37.71,1,1.18,1.91,1.39v.32h-9.45v-.32c.91-.22,1.54-.68,1.91-1.39.37-.71.55-1.69.55-2.95v-22.33Z"/>
        <path class="cls-1" d="M194.94,294.19c-3.28,0-6.02-.8-8.22-2.4-2.2-1.6-3.85-3.59-4.95-5.99-1.1-2.4-1.65-4.99-1.65-7.8s.55-5.41,1.65-7.8c1.1-2.4,2.75-4.39,4.95-5.99,2.2-1.6,4.94-2.4,8.22-2.4s6.02.8,8.22,2.4c2.2,1.6,3.85,3.59,4.95,5.99,1.1,2.4,1.65,5,1.65,7.8s-.55,5.41-1.65,7.8-2.75,4.39-4.95,5.99c-2.2,1.6-4.94,2.4-8.22,2.4ZM194.94,293.54c2.29,0,4.2-.77,5.73-2.3,1.53-1.53,2.67-3.45,3.43-5.76.75-2.31,1.12-4.8,1.1-7.48-.02-2.68-.41-5.17-1.17-7.48-.76-2.31-1.9-4.23-3.43-5.76-1.53-1.53-3.42-2.3-5.66-2.3s-4.12.77-5.63,2.3c-1.51,1.53-2.65,3.45-3.43,5.76-.78,2.31-1.17,4.8-1.17,7.48s.37,5.17,1.1,7.48c.73,2.31,1.87,4.23,3.4,5.76,1.53,1.53,3.44,2.3,5.73,2.3Z"/>
        <path class="cls-1" d="M213.52,267.2c0-.86-.09-1.37-.26-1.52-.17-.15-.43-.23-.78-.23v-.32c.86-.09,1.83-.42,2.91-1,1.08-.58,1.85-1.35,2.33-2.3h.32v6.6c.82-1.77,1.89-3.18,3.2-4.24,1.32-1.06,2.73-1.79,4.24-2.2,1.51-.41,3.03-.5,4.56-.26,1.53.24,2.91.79,4.14,1.65,1.23.86,2.23,2.04,3.01,3.53.78,1.49,1.17,3.25,1.17,5.28v17.35c0,1.25.18,2.23.55,2.95.37.71,1,1.18,1.91,1.39v.32h-9.45v-.32c.91-.22,1.54-.68,1.91-1.39.37-.71.55-1.69.55-2.95v-19.16c0-2.2-.39-3.92-1.17-5.15s-1.75-2.05-2.91-2.46c-1.17-.41-2.44-.45-3.82-.13-1.38.32-2.65.94-3.82,1.84-1.17.91-2.14,2.07-2.91,3.5s-1.17,3-1.17,4.73v16.83c0,1.25.18,2.23.55,2.95.37.71,1,1.18,1.91,1.39v.32h-9.45v-.32c.91-.22,1.54-.68,1.91-1.39.37-.71.55-1.69.55-2.95v-22.33Z"/>
        <path class="cls-1" d="M263.1,285.52c-.52,1.38-1.23,2.65-2.14,3.82-.91,1.17-1.94,2.14-3.11,2.91-1.17.78-2.45,1.35-3.85,1.72-1.4.37-2.86.44-4.37.23-2.33-.34-4.13-1.19-5.4-2.52-1.27-1.34-1.95-2.86-2.04-4.56-.09-1.7.45-3.4,1.62-5.08,1.17-1.68,3.02-3.02,5.57-4.01,1.6-.65,3.18-1.2,4.76-1.65,1.57-.45,3.01-.99,4.3-1.62,1.29-.62,2.36-1.41,3.2-2.36.84-.95,1.3-2.22,1.39-3.82.09-1.94-.33-3.47-1.26-4.6-.93-1.12-2.08-1.79-3.46-2.01-1.38-.22-2.83.04-4.34.78-1.51.73-2.81,1.99-3.88,3.75-.39.65-.82,1.04-1.29,1.17-.48.13-.89.12-1.23-.03-.35-.15-.6-.42-.78-.81-.17-.39-.15-.8.06-1.23.47-.95,1.32-1.79,2.52-2.52,1.21-.73,2.58-1.25,4.11-1.55,1.53-.3,3.14-.37,4.82-.19,1.68.17,3.21.7,4.6,1.59,1.38.89,2.51,2.14,3.4,3.75.88,1.62,1.33,3.72,1.33,6.31v16.57c0,1.25.18,2.23.55,2.95.37.71,1,1.18,1.91,1.39v.32h-9.45v-.32c.91-.22,1.54-.88,1.91-2.01.37-1.12.55-2.44.55-3.95v-2.4ZM263.1,271.34c-.56,1.21-1.35,2.16-2.36,2.85-1.01.69-2.13,1.28-3.33,1.78-1.21.5-2.45.98-3.72,1.46-1.27.48-2.47,1.1-3.59,1.88-1.12.78-1.97,1.86-2.56,3.24-.58,1.38-.84,2.76-.78,4.14.06,1.38.49,2.65,1.26,3.82.78,1.17,1.96,1.92,3.56,2.27,1.6.35,3.1.22,4.5-.39,1.4-.6,2.62-1.48,3.66-2.62,1.04-1.14,1.85-2.43,2.46-3.85.6-1.42.91-2.78.91-4.08v-10.49Z"/>
        <path class="cls-1" d="M290.74,285.97c-.17-.95-.72-1.8-1.65-2.56-.93-.75-2.03-1.49-3.3-2.2-1.27-.71-2.62-1.43-4.05-2.17-1.42-.73-2.73-1.52-3.92-2.36-1.19-.84-2.18-1.78-2.98-2.82-.8-1.04-1.2-2.22-1.2-3.56,0-1.94.5-3.59,1.49-4.95.99-1.36,2.23-2.42,3.72-3.17,1.49-.75,3.14-1.23,4.95-1.42,1.81-.19,3.54-.12,5.18.23,1.64.35,3.08.95,4.34,1.81,1.25.86,2.09,1.99,2.52,3.37.17.6.14,1.12-.1,1.55-.24.43-.56.71-.97.84-.41.13-.82.09-1.23-.13-.41-.22-.7-.67-.87-1.36-.35-1.51-.97-2.71-1.88-3.59-.91-.88-1.94-1.48-3.11-1.78-1.17-.3-2.37-.36-3.62-.16-1.25.19-2.37.6-3.37,1.23-.99.63-1.79,1.44-2.4,2.43-.6.99-.84,2.14-.71,3.43.13,1.08.58,2.05,1.36,2.91.78.86,1.75,1.66,2.91,2.4,1.17.73,2.43,1.45,3.79,2.14,1.36.69,2.65,1.42,3.88,2.2,1.23.78,2.33,1.62,3.3,2.52.97.91,1.65,1.94,2.04,3.11.52,1.64.58,3.09.19,4.34-.39,1.25-1.09,2.3-2.1,3.14-1.01.84-2.24,1.5-3.69,1.97-1.45.48-2.97.77-4.56.87-1.6.11-3.19.03-4.79-.23-1.6-.26-3.02-.69-4.27-1.29-1.25-.6-2.28-1.38-3.07-2.33-.8-.95-1.2-2.05-1.2-3.3,0-.6.15-1.08.45-1.42.3-.34.65-.56,1.04-.65.39-.09.75-.02,1.1.19.34.22.54.56.58,1.04.22,1.73.81,3.14,1.78,4.24.97,1.1,2.11,1.9,3.43,2.4,1.32.5,2.69.71,4.11.65,1.42-.06,2.7-.4,3.82-1,1.12-.6,2-1.46,2.62-2.56.63-1.1.77-2.43.42-3.98Z"/>
        <path class="cls-1" d="M313.98,267.2c0-.86-.09-1.37-.26-1.52-.17-.15-.43-.23-.78-.23v-.32c.86-.09,1.83-.42,2.91-1,1.08-.58,1.85-1.35,2.33-2.3h.32v5.24c.86-1.51,2.05-2.76,3.56-3.75,1.51-.99,3.37-1.49,5.57-1.49,3.32,0,6.08.8,8.29,2.4,2.2,1.6,3.85,3.59,4.95,5.99,1.1,2.4,1.65,5,1.65,7.8s-.55,5.41-1.65,7.8-2.75,4.39-4.95,5.99c-2.2,1.6-4.96,2.4-8.29,2.4-2.29,0-4.23-.56-5.83-1.68-1.6-1.12-2.7-2.48-3.3-4.08v14.05c0,1.25.18,2.23.55,2.95.37.71,1,1.18,1.91,1.39v.32h-9.45v-.32c.91-.22,1.54-.68,1.91-1.39.37-.71.55-1.69.55-2.95v-35.28ZM318.51,284.74c.22,1.55.6,2.88,1.17,3.98.56,1.1,1.25,1.99,2.07,2.65.82.67,1.74,1.12,2.75,1.36,1.01.24,2.06.29,3.14.16,2.29-.3,4.19-1.2,5.7-2.69,1.51-1.49,2.64-3.27,3.4-5.34.75-2.07,1.13-4.29,1.13-6.67s-.38-4.62-1.13-6.73c-.76-2.11-1.89-3.94-3.4-5.47-1.51-1.53-3.41-2.49-5.7-2.88-.99-.17-2-.15-3.01.06-1.01.22-1.94.6-2.78,1.17-.84.56-1.55,1.31-2.14,2.23-.58.93-.98,2.02-1.2,3.27v14.89Z"/>
        <path class="cls-1" d="M364.79,285.52c-.52,1.38-1.23,2.65-2.14,3.82-.91,1.17-1.94,2.14-3.11,2.91-1.17.78-2.45,1.35-3.85,1.72-1.4.37-2.86.44-4.37.23-2.33-.34-4.13-1.19-5.4-2.52-1.27-1.34-1.95-2.86-2.04-4.56-.09-1.7.45-3.4,1.62-5.08,1.17-1.68,3.02-3.02,5.57-4.01,1.6-.65,3.18-1.2,4.76-1.65,1.57-.45,3.01-.99,4.3-1.62,1.29-.62,2.36-1.41,3.2-2.36.84-.95,1.3-2.22,1.39-3.82.09-1.94-.33-3.47-1.26-4.6-.93-1.12-2.08-1.79-3.46-2.01-1.38-.22-2.83.04-4.34.78-1.51.73-2.81,1.99-3.88,3.75-.39.65-.82,1.04-1.29,1.17-.48.13-.89.12-1.23-.03-.35-.15-.6-.42-.78-.81-.17-.39-.15-.8.06-1.23.47-.95,1.32-1.79,2.52-2.52,1.21-.73,2.58-1.25,4.11-1.55,1.53-.3,3.14-.37,4.82-.19,1.68.17,3.21.7,4.6,1.59,1.38.89,2.51,2.14,3.4,3.75.88,1.62,1.33,3.72,1.33,6.31v16.57c0,1.25.18,2.23.55,2.95.37.71,1,1.18,1.91,1.39v.32h-9.45v-.32c.91-.22,1.54-.88,1.91-2.01.37-1.12.55-2.44.55-3.95v-2.4ZM364.79,271.34c-.56,1.21-1.35,2.16-2.36,2.85-1.01.69-2.13,1.28-3.33,1.78-1.21.5-2.45.98-3.72,1.46-1.27.48-2.47,1.1-3.59,1.88-1.12.78-1.97,1.86-2.56,3.24-.58,1.38-.84,2.76-.78,4.14.06,1.38.49,2.65,1.26,3.82.78,1.17,1.96,1.92,3.56,2.27,1.6.35,3.1.22,4.5-.39,1.4-.6,2.62-1.48,3.66-2.62,1.04-1.14,1.85-2.43,2.46-3.85.6-1.42.91-2.78.91-4.08v-10.49Z"/>
        <path class="cls-1" d="M375.54,267.2c0-.86-.09-1.37-.26-1.52-.17-.15-.43-.23-.78-.23v-.32c.86-.09,1.83-.42,2.91-1,1.08-.58,1.85-1.35,2.33-2.3h.32v8.74c1.08-2.2,2.42-4,4.01-5.41,1.6-1.4,3.27-2.48,5.02-3.24,1.75-.75,3.44-1.18,5.08-1.26,1.64-.09,3.04.11,4.21.58.73.3,1.18.68,1.33,1.13.15.45.12.86-.1,1.23-.22.37-.57.63-1.07.78-.5.15-1.05.08-1.65-.23-1.9-.95-3.84-1.32-5.83-1.1-1.99.22-3.8.87-5.44,1.97-1.64,1.1-2.98,2.55-4.01,4.34-1.04,1.79-1.55,3.79-1.55,5.99v14.18c0,1.25.18,2.23.55,2.95.37.71,1,1.18,1.91,1.39v.32h-9.45v-.32c.91-.22,1.54-.68,1.91-1.39.37-.71.55-1.69.55-2.95v-22.33Z"/>
        <path class="cls-1" d="M416.97,285.52c-.52,1.38-1.23,2.65-2.14,3.82-.91,1.17-1.94,2.14-3.11,2.91-1.17.78-2.45,1.35-3.85,1.72-1.4.37-2.86.44-4.37.23-2.33-.34-4.13-1.19-5.4-2.52-1.27-1.34-1.95-2.86-2.04-4.56-.09-1.7.45-3.4,1.62-5.08,1.17-1.68,3.02-3.02,5.57-4.01,1.6-.65,3.18-1.2,4.76-1.65,1.57-.45,3.01-.99,4.3-1.62,1.29-.62,2.36-1.41,3.2-2.36.84-.95,1.3-2.22,1.39-3.82.09-1.94-.33-3.47-1.26-4.6-.93-1.12-2.08-1.79-3.46-2.01-1.38-.22-2.83.04-4.34.78-1.51.73-2.81,1.99-3.88,3.75-.39.65-.82,1.04-1.29,1.17-.48.13-.89.12-1.23-.03-.35-.15-.6-.42-.78-.81-.17-.39-.15-.8.06-1.23.47-.95,1.32-1.79,2.52-2.52,1.21-.73,2.58-1.25,4.11-1.55,1.53-.3,3.14-.37,4.82-.19,1.68.17,3.21.7,4.6,1.59,1.38.89,2.51,2.14,3.4,3.75.88,1.62,1.33,3.72,1.33,6.31v16.57c0,1.25.18,2.23.55,2.95.37.71,1,1.18,1.91,1.39v.32h-9.45v-.32c.91-.22,1.54-.88,1.91-2.01.37-1.12.55-2.44.55-3.95v-2.4ZM416.97,271.34c-.56,1.21-1.35,2.16-2.36,2.85-1.01.69-2.13,1.28-3.33,1.78-1.21.5-2.45.98-3.72,1.46-1.27.48-2.47,1.1-3.59,1.88-1.12.78-1.97,1.86-2.56,3.24-.58,1.38-.84,2.76-.78,4.14.06,1.38.49,2.65,1.26,3.82.78,1.17,1.96,1.92,3.56,2.27,1.6.35,3.1.22,4.5-.39,1.4-.6,2.62-1.48,3.66-2.62,1.04-1.14,1.85-2.43,2.46-3.85.6-1.42.91-2.78.91-4.08v-10.49Z"/>
        <path class="cls-1" d="M441.95,267.2c0-.86-.09-1.37-.26-1.52-.17-.15-.43-.23-.78-.23v-.32c.86-.09,1.83-.42,2.91-1,1.08-.58,1.85-1.35,2.33-2.3h.32v6.6c.73-1.55,1.67-2.84,2.82-3.85,1.14-1.01,2.37-1.77,3.69-2.27,1.32-.5,2.66-.73,4.05-.71,1.38.02,2.68.29,3.88.81,1.21.52,2.3,1.28,3.27,2.3.97,1.01,1.67,2.28,2.1,3.79v-.06c.82-1.77,1.89-3.18,3.2-4.24,1.32-1.06,2.73-1.79,4.24-2.2,1.51-.41,3.04-.5,4.6-.26,1.55.24,2.95.79,4.18,1.65,1.23.86,2.23,2.04,3.01,3.53.78,1.49,1.17,3.25,1.17,5.28v17.35c0,1.25.18,2.23.55,2.95.37.71,1,1.18,1.91,1.39v.32h-9.45v-.32c.91-.22,1.54-.68,1.91-1.39.37-.71.55-1.69.55-2.95v-19.16c0-2.03-.33-3.64-1-4.82-.67-1.19-1.51-2.04-2.52-2.56-1.01-.52-2.14-.7-3.37-.55-1.23.15-2.42.55-3.56,1.2-1.14.65-2.18,1.52-3.11,2.62-.93,1.1-1.59,2.36-1.97,3.79.13.65.19,1.36.19,2.14v17.35c0,1.25.18,2.23.55,2.95.37.71,1,1.18,1.91,1.39v.32h-9.45v-.32c.91-.22,1.54-.68,1.91-1.39.37-.71.55-1.69.55-2.95v-19.16c0-2.2-.39-3.92-1.17-5.15s-1.75-2.05-2.91-2.46c-1.17-.41-2.44-.45-3.82-.13-1.38.32-2.65.94-3.82,1.84-1.17.91-2.14,2.07-2.91,3.5s-1.17,3-1.17,4.73v16.83c0,1.25.18,2.23.55,2.95.37.71,1,1.18,1.91,1.39v.32h-9.45v-.32c.91-.22,1.54-.68,1.91-1.39.37-.71.55-1.69.55-2.95v-22.33Z"/>
        <path class="cls-1" d="M516.33,289.53c0,1.25.18,2.23.55,2.95.37.71,1,1.18,1.91,1.39v.32h-6.99v-6.6c-.82,1.77-1.89,3.18-3.2,4.24-1.32,1.06-2.73,1.79-4.24,2.2-1.51.41-3.03.5-4.56.26-1.53-.24-2.91-.79-4.14-1.65-1.23-.86-2.23-2.04-3.01-3.53-.78-1.49-1.17-3.25-1.17-5.28v-16.64c0-.86-.09-1.37-.26-1.52-.17-.15-.43-.23-.78-.23v-.32c.86-.09,1.83-.42,2.91-1,1.08-.58,1.85-1.35,2.33-2.3h.32v23.82c0,2.2.39,3.92,1.17,5.15.78,1.23,1.75,2.05,2.91,2.46,1.17.41,2.44.45,3.82.13,1.38-.32,2.65-.94,3.82-1.84s2.14-2.07,2.91-3.5c.78-1.42,1.17-3,1.17-4.73v-16.12c0-.86-.09-1.37-.26-1.52-.17-.15-.43-.23-.78-.23v-.32c.86-.09,1.83-.42,2.91-1,1.08-.58,1.85-1.35,2.33-2.3h.32v27.7Z"/>
        <path class="cls-1" d="M527.78,290.89c0,2.68-.38,4.84-1.13,6.51-.76,1.66-1.71,2.92-2.85,3.79-1.14.86-2.41,1.39-3.79,1.59-1.38.19-2.71.14-3.98-.16-1.27-.3-2.41-.81-3.4-1.52-.99-.71-1.68-1.52-2.07-2.43-.22-.56-.23-1.04-.03-1.42.19-.39.49-.65.87-.78.39-.13.82-.11,1.29.06.47.17.84.58,1.1,1.23.73,1.73,1.64,2.96,2.72,3.69,1.08.73,2.11.94,3.11.61.99-.32,1.85-1.18,2.56-2.56.71-1.38,1.07-3.32,1.07-5.83v-26.47c0-.86-.09-1.37-.26-1.52-.17-.15-.43-.23-.78-.23v-.32c.86-.09,1.83-.42,2.91-1,1.08-.58,1.85-1.35,2.33-2.3h.32v29.06ZM525.26,259.56c-.95,0-1.65-.28-2.1-.84-.45-.56-.68-1.19-.68-1.88s.23-1.32.68-1.88c.45-.56,1.15-.84,2.1-.84s1.59.28,2.04.84c.45.56.68,1.19.68,1.88s-.23,1.32-.68,1.88c-.45.56-1.13.84-2.04.84Z"/>
        <path class="cls-1" d="M545.71,261.83c2.24,0,4.14.49,5.7,1.46,1.55.97,2.66,2.15,3.33,3.53.67,1.38.85,2.84.55,4.37-.3,1.53-1.21,2.84-2.72,3.92-1.51,1.08-3.66,1.81-6.44,2.2s-6.31.15-10.58-.71c-.04,1.9.14,3.78.55,5.63.41,1.86,1.04,3.55,1.88,5.08.84,1.53,1.91,2.83,3.2,3.88,1.29,1.06,2.8,1.72,4.53,1.97,2.2.35,4.39.02,6.57-.97,2.18-.99,4.02-2.76,5.53-5.31l.71.32c-.82,1.42-1.75,2.59-2.78,3.5-1.04.91-2.11,1.62-3.24,2.14-1.12.52-2.26.87-3.4,1.07-1.14.19-2.28.29-3.4.29-3.37,0-6.15-.8-8.35-2.4-2.2-1.6-3.83-3.59-4.89-5.99-1.06-2.4-1.56-4.99-1.52-7.8.04-2.8.62-5.41,1.75-7.8,1.12-2.4,2.77-4.39,4.95-5.99,2.18-1.6,4.86-2.4,8.06-2.4ZM535.55,275.94c2.85.43,5.35.4,7.51-.1,2.16-.5,3.94-1.24,5.34-2.23,1.4-.99,2.43-2.11,3.07-3.37.65-1.25.93-2.44.84-3.56-.09-1.12-.57-2.07-1.46-2.85-.89-.78-2.15-1.17-3.79-1.17s-3.09.37-4.47,1.1c-1.38.73-2.58,1.71-3.59,2.91-1.01,1.21-1.82,2.61-2.43,4.21-.6,1.6-.95,3.28-1.04,5.05Z"/>
        <path class="cls-1" d="M562.28,267.2c0-.86-.09-1.37-.26-1.52-.17-.15-.43-.23-.78-.23v-.32c.86-.09,1.83-.42,2.91-1,1.08-.58,1.85-1.35,2.33-2.3h.32v8.74c1.08-2.2,2.42-4,4.01-5.41,1.6-1.4,3.27-2.48,5.02-3.24,1.75-.75,3.44-1.18,5.08-1.26,1.64-.09,3.04.11,4.21.58.73.3,1.18.68,1.33,1.13.15.45.12.86-.1,1.23-.22.37-.57.63-1.07.78-.5.15-1.05.08-1.65-.23-1.9-.95-3.84-1.32-5.83-1.1-1.99.22-3.8.87-5.44,1.97-1.64,1.1-2.98,2.55-4.01,4.34-1.04,1.79-1.55,3.79-1.55,5.99v14.18c0,1.25.18,2.23.55,2.95.37.71,1,1.18,1.91,1.39v.32h-9.45v-.32c.91-.22,1.54-.68,1.91-1.39.37-.71.55-1.69.55-2.95v-22.33Z"/>
      </g>
    </g>
  </g>
</svg>