<?xml version="1.0" encoding="UTF-8"?>
<svg id="Capa_2" data-name="Capa 2" xmlns="http://www.w3.org/2000/svg" viewBox="0 0 731.18 298.53">
  <defs>
    <style>
      .cls-1 {
        fill: #000ba2;
      }
    </style>
  </defs>
  <g id="Capa_1-2" data-name="Capa 1">
    <g>
      <g>
        <path class="cls-1" d="M0,1.2h33.93c10.26,0,17.59,3.31,21.97,9.94,4.38,6.63,6.58,16.32,6.58,29.07s-1.94,22.37-5.83,28.85c-3.89,6.48-10.86,9.72-20.93,9.72h-10.46v50.82H0V1.2ZM26.75,55.6c3.09,0,5.36-.57,6.8-1.72,1.44-1.14,2.39-2.79,2.84-4.93.45-2.14.67-5.21.67-9.19,0-5.38-.6-9.27-1.79-11.66-1.2-2.39-3.59-3.59-7.17-3.59h-2.84v31.09h1.49Z"/>
        <path class="cls-1" d="M70.55,129.59V1.2h25.56v45.89h12.11V1.2h25.56v128.39h-25.56v-58.29h-12.11v58.29h-25.56Z"/>
        <path class="cls-1" d="M145.13,129.59V1.2h51.42v24.81h-25.26v24.96h24.21v24.21h-24.21v29.45h26.9v24.96h-53.06Z"/>
        <path class="cls-1" d="M206.71,1.2h39.46c6.28,0,11.14,1.42,14.57,4.26,3.44,2.84,5.75,6.83,6.95,11.96,1.2,5.13,1.79,11.68,1.79,19.65,0,7.27-.95,12.95-2.84,17.04-1.89,4.09-5.18,6.93-9.86,8.52,3.89.8,6.7,2.74,8.44,5.83,1.74,3.09,2.62,7.27,2.62,12.56l-.3,48.58h-25.11v-50.22c0-3.59-.7-5.88-2.09-6.88-1.4-.99-3.94-1.49-7.62-1.49v58.59h-26.01V1.2ZM238.99,48.73c3.59,0,5.38-3.89,5.38-11.66,0-3.39-.15-5.93-.45-7.62-.3-1.69-.85-2.86-1.64-3.51-.8-.65-1.94-.97-3.44-.97h-5.98v23.77h6.13Z"/>
        <path class="cls-1" d="M285.03,121.29c-5.38-6.33-8.07-15.22-8.07-26.68v-61.13c0-11.06,2.69-19.41,8.07-25.04,5.38-5.63,13.25-8.44,23.62-8.44s18.23,2.82,23.62,8.44c5.38,5.63,8.07,13.98,8.07,25.04v61.13c0,11.56-2.69,20.48-8.07,26.75s-13.25,9.42-23.62,9.42-18.23-3.16-23.62-9.49ZM313.28,104.18c.8-1.99,1.2-4.78,1.2-8.37v-62.78c0-2.79-.37-5.06-1.12-6.8-.75-1.74-2.27-2.62-4.56-2.62-4.29,0-6.43,3.24-6.43,9.72v62.63c0,3.69.45,6.48,1.35,8.37.9,1.89,2.54,2.84,4.93,2.84s3.83-.99,4.63-2.99Z"/>
        <path class="cls-1" d="M350.64,129.59V1.2h39.16l10.76,78.32L411.32,1.2h39.46v128.39h-23.47V37.07l-14.8,92.52h-23.02l-15.69-92.52v92.52h-23.17Z"/>
        <path class="cls-1" d="M469.17,121.29c-5.38-6.33-8.07-15.22-8.07-26.68v-61.13c0-11.06,2.69-19.41,8.07-25.04,5.38-5.63,13.25-8.44,23.62-8.44s18.23,2.82,23.62,8.44c5.38,5.63,8.07,13.98,8.07,25.04v61.13c0,11.56-2.69,20.48-8.07,26.75s-13.25,9.42-23.62,9.42-18.23-3.16-23.62-9.49ZM497.42,104.18c.8-1.99,1.2-4.78,1.2-8.37v-62.78c0-2.79-.37-5.06-1.12-6.8-.75-1.74-2.27-2.62-4.56-2.62-4.29,0-6.43,3.24-6.43,9.72v62.63c0,3.69.45,6.48,1.35,8.37.9,1.89,2.54,2.84,4.93,2.84s3.83-.99,4.63-2.99Z"/>
        <path class="cls-1" d="M534.78,129.59V1.2h26.46l11.81,61.43V1.2h24.81v128.39h-25.11l-12.85-64.27v64.27h-25.11Z"/>
        <path class="cls-1" d="M609.21,129.59V1.2h51.42v24.81h-25.26v24.96h24.21v24.21h-24.21v29.45h26.9v24.96h-53.06Z"/>
        <path class="cls-1" d="M676.02,122.11c-5.18-5.78-7.77-15.1-7.77-27.95v-12.56h25.26v15.99c0,6.38,2.04,9.57,6.13,9.57,2.29,0,3.89-.67,4.78-2.02.9-1.35,1.35-3.61,1.35-6.8,0-4.19-.5-7.65-1.49-10.39-1-2.74-2.27-5.03-3.81-6.88-1.55-1.84-4.31-4.71-8.3-8.59l-11.06-11.06c-8.57-8.37-12.85-17.64-12.85-27.8,0-10.96,2.52-19.3,7.55-25.04,5.03-5.73,12.38-8.59,22.05-8.59,11.56,0,19.88,3.06,24.96,9.19,5.08,6.13,7.62,15.72,7.62,28.77h-26.16l-.15-8.82c0-1.69-.47-3.04-1.42-4.04-.95-.99-2.27-1.49-3.96-1.49-1.99,0-3.49.55-4.48,1.64-1,1.1-1.49,2.59-1.49,4.48,0,4.19,2.39,8.52,7.17,13l14.95,14.35c3.49,3.39,6.38,6.6,8.67,9.64,2.29,3.04,4.13,6.63,5.53,10.76,1.39,4.14,2.09,9.04,2.09,14.72,0,12.66-2.32,22.25-6.95,28.77-4.63,6.53-12.28,9.79-22.94,9.79-11.66,0-20.08-2.89-25.26-8.67Z"/>
      </g>
      <g>
        <path class="cls-1" d="M74.87,297.11v-152.98h61.26v29.74h-30.45v24.4h28.85v29.38h-28.85v69.46h-30.81Z"/>
        <path class="cls-1" d="M154.29,287.22c-6.41-7.54-9.62-18.13-9.62-31.79v-72.84c0-13.18,3.21-23.12,9.62-29.83,6.41-6.71,15.79-10.06,28.14-10.06s21.73,3.36,28.14,10.06c6.41,6.71,9.62,16.65,9.62,29.83v72.84c0,13.77-3.21,24.4-9.62,31.88s-15.79,11.22-28.14,11.22-21.73-3.77-28.14-11.31ZM187.95,266.83c.95-2.37,1.42-5.7,1.42-9.97v-74.8c0-3.32-.45-6.02-1.34-8.1-.89-2.08-2.7-3.12-5.43-3.12-5.11,0-7.66,3.86-7.66,11.58v74.62c0,4.39.53,7.72,1.6,9.97,1.07,2.26,3.03,3.38,5.88,3.38s4.57-1.19,5.52-3.56Z"/>
        <path class="cls-1" d="M232.47,144.13h47.02c7.48,0,13.27,1.69,17.36,5.08s6.86,8.13,8.28,14.25c1.42,6.12,2.14,13.92,2.14,23.42,0,8.67-1.13,15.44-3.38,20.3-2.26,4.87-6.17,8.25-11.75,10.15,4.63.95,7.98,3.27,10.06,6.95,2.08,3.68,3.12,8.67,3.12,14.96l-.36,57.88h-29.92v-59.84c0-4.27-.83-7-2.49-8.19-1.66-1.19-4.69-1.78-9.08-1.78v69.81h-30.99v-152.98ZM270.94,200.76c4.27,0,6.41-4.63,6.41-13.89,0-4.03-.18-7.06-.53-9.08-.36-2.02-1.01-3.41-1.96-4.19-.95-.77-2.32-1.16-4.1-1.16h-7.12v28.32h7.3Z"/>
        <path class="cls-1" d="M359.09,297.11v-152.98h46.66l12.82,93.32,12.82-93.32h47.02v152.98h-27.96v-110.24l-17.63,110.24h-27.43l-18.7-110.24v110.24h-27.6Z"/>
        <path class="cls-1" d="M487.85,297.11l14.78-152.98h51.82l14.6,152.98h-29.03l-2.14-24.75h-18.52l-1.78,24.75h-29.74ZM521.69,247.95h13.89l-6.77-77.83h-1.42l-5.7,77.83Z"/>
        <path class="cls-1" d="M578.32,297.11v-152.98h31.52l14.07,73.19v-73.19h29.56v152.98h-29.92l-15.32-76.58v76.58h-29.92Z"/>
      </g>
    </g>
  </g>
</svg>