<svg xmlns="http://www.w3.org/2000/svg" id="Capa_2" data-name="Capa 2" viewBox="0 0 798.05 364.87">
  <defs>
    <style>.cls-1{fill:#be1622}</style>
  </defs>
  <path
    d="M0 3.15h76.69c9.19 0 17.57 1.49 25.15 4.47 7.58 2.99 14.07 7.18 19.48 12.58 5.4 5.41 9.59 11.9 12.57 19.48 2.99 7.58 4.48 15.96 4.48 25.16s-1.49 18.14-4.48 25.88c-2.99 7.74-7.18 14.35-12.57 19.84-5.41 5.48-11.9 9.72-19.48 12.7-7.58 2.99-15.96 4.47-25.15 4.47H30.24v44.75H0V3.15Zm74.03 96.76c10.31 0 18.58-3.1 24.79-9.31 6.2-6.21 9.31-14.48 9.31-24.79s-3.11-19.11-9.31-25.4c-6.21-6.29-14.48-9.43-24.79-9.43H30.24v68.94h43.79ZM146.83 87.81c0-13.22 1.98-25.24 5.93-36.04 3.95-10.8 9.64-20.03 17.05-27.7 7.42-7.65 16.36-13.59 26.85-17.78C207.14 2.1 219 0 232.23 0s25.12 2.1 35.68 6.29c10.57 4.19 19.56 10.12 26.98 17.78 7.42 7.67 13.1 16.9 17.05 27.7 3.95 10.81 5.93 22.82 5.93 36.04s-1.98 25.25-5.93 36.05c-3.95 10.81-9.64 20.08-17.05 27.82-7.42 7.74-16.41 13.71-26.98 17.9-10.57 4.19-22.46 6.29-35.68 6.29s-25.08-2.1-35.57-6.29c-10.48-4.19-19.43-10.16-26.85-17.9-7.42-7.74-13.1-17.01-17.05-27.82-3.95-10.8-5.93-22.82-5.93-36.05Zm30.24 0c0 9.19 1.25 17.54 3.76 25.04 2.49 7.5 6.09 13.83 10.76 18.99 4.67 5.16 10.44 9.16 17.29 11.98 6.86 2.82 14.64 4.23 23.35 4.23s16.49-1.41 23.35-4.23c6.84-2.82 12.66-6.82 17.41-11.98s8.38-11.49 10.89-18.99c2.5-7.5 3.76-15.85 3.76-25.04s-1.25-17.5-3.76-24.91c-2.5-7.41-6.13-13.71-10.89-18.87-4.75-5.16-10.57-9.15-17.41-11.97-6.86-2.83-14.64-4.24-23.35-4.24s-16.49 1.41-23.35 4.24c-6.86 2.82-12.62 6.81-17.29 11.97s-8.27 11.46-10.76 18.87c-2.5 7.42-3.76 15.73-3.76 24.91ZM329.96 3.15h35.07l49.36 128.94 49.1-128.94h35.07v169.34h-30.24V68.71l-39.18 102.81.24.97h-30.24l.24-.97-39.19-102.81v103.78h-30.24V3.15ZM513.08 3.15h81.28c6.92 0 13.18 1.09 18.74 3.27 5.57 2.18 10.29 5.28 14.16 9.31s6.84 8.75 8.95 14.15c2.09 5.41 3.15 11.42 3.15 18.02 0 8.22-1.57 14.96-4.72 20.2-3.15 5.24-7.29 9.23-12.46 11.97 4.03 1.29 7.82 3.15 11.37 5.56 3.55 2.42 6.66 5.41 9.31 8.95 2.66 3.55 4.75 7.66 6.29 12.34 1.53 4.68 2.3 10 2.3 15.96 0 7.26-1.17 13.91-3.5 19.96-2.34 6.05-5.68 11.29-10.05 15.73-4.35 4.43-9.64 7.86-15.84 10.28-6.21 2.42-13.18 3.63-20.92 3.63h-88.06V3.15Zm77.41 65.31c5.64 0 10.15-1.69 13.54-5.08 3.39-3.38 5.09-7.9 5.09-13.55s-1.7-10.4-5.09-13.79c-3.39-3.39-7.9-5.08-13.54-5.08h-47.18v37.49h47.18Zm6.78 76.2c7.26 0 13.06-2.18 17.41-6.53 4.35-4.36 6.53-10.16 6.53-17.42s-2.18-13.34-6.53-17.78c-4.35-4.44-10.15-6.65-17.41-6.65h-53.95v48.38h53.95ZM708.31 3.15h31.68l58.06 169.34h-31.7l-14.03-44.75h-56.36l-14.02 44.75h-31.7L708.31 3.15Zm35.07 96.76-19.35-61.44-19.35 61.44h38.7ZM145.87 277.05c0-13.22 1.98-25.24 5.93-36.04 3.95-10.8 9.64-20.03 17.05-27.7 7.42-7.65 16.36-13.59 26.85-17.78 10.48-4.19 22.34-6.29 35.57-6.29 15.16 0 28.42 2.7 39.79 8.11 11.37 5.4 20.92 12.94 28.66 22.62l-24.67 16.93c-5.17-6.29-11.33-11.17-18.51-14.64-7.18-3.47-15.6-5.2-25.28-5.2-8.7 0-16.49 1.41-23.35 4.24-6.86 2.82-12.62 6.81-17.29 11.97-4.67 5.16-8.27 11.46-10.76 18.87-2.5 7.42-3.76 15.73-3.76 24.91s1.25 17.5 3.76 24.92c2.49 7.42 6.09 13.71 10.76 18.87s10.44 9.15 17.29 11.97c6.86 2.83 14.64 4.24 23.35 4.24 7.26 0 13.87-.93 19.83-2.78 5.97-1.85 11.21-4.47 15.72-7.86v-29.03h-35.55v-27.82h65.8v67.74c-6.61 8.22-15.45 14.88-26.49 19.96-11.05 5.08-24.15 7.62-39.31 7.62-13.23 0-25.08-2.1-35.57-6.29-10.48-4.19-19.43-10.12-26.85-17.78-7.42-7.66-13.1-16.89-17.05-27.7-3.95-10.8-5.93-22.82-5.93-36.05ZM313.02 192.38h30.24v169.34h-30.24V192.38ZM357.77 192.38h78.62c9.03 0 17.21 1.45 24.55 4.35 7.34 2.91 13.59 7.02 18.75 12.34s9.19 11.73 12.09 19.23c2.91 7.5 4.35 15.85 4.35 25.04 0 13.22-2.99 24.63-8.95 34.23-5.97 9.6-14.27 16.57-24.92 20.92l34.83 53.22h-35.8l-31.7-48.38h-41.61v48.38h-30.24V192.37Zm75.71 93.14c9.84 0 17.7-2.94 23.59-8.83 5.89-5.89 8.83-13.91 8.83-24.07s-2.94-17.7-8.83-23.58c-5.89-5.89-13.75-8.83-23.59-8.83H388v65.31h45.48ZM558.81 192.38h31.68l58.06 169.34h-31.7l-14.03-44.75h-56.36l-14.02 44.75h-31.7l58.06-169.34Zm35.07 96.77-19.35-61.44-19.35 61.44h38.7Z"
    class="cls-1"/>
</svg>