<?xml version="1.0" encoding="UTF-8"?>
<svg id="Capa_2" data-name="Capa 2" xmlns="http://www.w3.org/2000/svg" viewBox="0 0 804.25 316.8">
  <defs>
    <style>
      .cls-1 {
        fill: #003bd0;
      }
    </style>
  </defs>
  <g id="Capa_1-2" data-name="Capa 1">
    <g>
      <path class="cls-1" d="M224.83,106.84c0,6.31-1.05,12.23-3.16,17.77-2.1,5.54-5.29,10.31-9.57,14.3-4.28,4-9.67,7.15-16.19,9.46-6.52,2.31-14.27,3.47-23.24,3.47-6.59,0-12.69-.6-18.3-1.79-5.61-1.19-10.76-2.8-15.46-4.84-4.7-2.03-8.94-4.34-12.72-6.94-3.79-2.59-7.08-5.22-9.88-7.89l16.62-18.09c5.75,4.91,11.78,8.7,18.09,11.36,6.31,2.67,13.46,4,21.45,4,5.05,0,9.25-.56,12.62-1.68,3.37-1.12,6.06-2.56,8.1-4.31,2.03-1.75,3.43-3.79,4.21-6.1.77-2.31,1.16-4.59,1.16-6.84,0-4.34-1.16-7.92-3.47-10.73-2.31-2.8-5.4-5.15-9.25-7.05-3.86-1.89-8.24-3.5-13.15-4.84-4.91-1.33-9.92-2.7-15.04-4.1-5.12-1.4-10.13-3.05-15.04-4.94-4.91-1.89-9.29-4.31-13.15-7.26-3.86-2.94-6.94-6.63-9.25-11.04s-3.47-9.92-3.47-16.51c0-6.17,1.12-11.85,3.37-17.04,2.24-5.19,5.5-9.64,9.78-13.36,4.28-3.71,9.6-6.62,15.98-8.73,6.38-2.1,13.7-3.15,21.98-3.15,11.36,0,21.63,1.86,30.81,5.57,9.18,3.72,17.14,8.45,23.87,14.2l-15.35,19.14c-6.73-5.33-13.29-9.11-19.67-11.36-6.38-2.24-12.87-3.36-19.46-3.36-8.83,0-15.21,1.54-19.14,4.63-3.93,3.09-5.89,6.87-5.89,11.36,0,3.65,1.16,6.66,3.47,9.04,2.31,2.39,5.4,4.38,9.25,5.99,3.86,1.61,8.24,3.02,13.15,4.21,4.91,1.19,9.92,2.52,15.04,4,5.12,1.47,10.13,3.23,15.04,5.26,4.91,2.03,9.29,4.7,13.14,7.99,3.85,3.3,6.94,7.4,9.25,12.3,2.31,4.91,3.47,10.87,3.47,17.88Z"/>
      <path class="cls-1" d="M276.36,2.31h27.55l50.48,147.22h-27.55l-12.2-38.91h-49l-12.2,38.91h-27.55L276.36,2.31ZM306.85,86.44l-16.83-53.42-16.83,53.42h33.65Z"/>
      <path class="cls-1" d="M358.59,2.31h26.29v147.22h-26.29V2.31Z"/>
      <path class="cls-1" d="M423.79,49v100.53h-26.29V2.31h28.39l56.16,100.53V2.31h26.29v147.22h-28.39l-56.16-100.53Z"/>
      <path class="cls-1" d="M561.76,26.5h-43.96V2.31h114.41v24.19h-44.17v123.04h-26.29V26.5Z"/>
      <path class="cls-1" d="M0,166.84h30.5l42.91,112.1,42.7-112.1h30.5v147.22h-26.29v-90.23l-34.07,89.39.21.84h-26.29l.21-.84-34.07-89.39v90.23H0v-147.22Z"/>
      <path class="cls-1" d="M159.21,166.84h26.29v147.22h-26.29v-147.22Z"/>
      <path class="cls-1" d="M196.01,240.45c0-11.5,1.71-21.94,5.15-31.34,3.43-9.39,8.38-17.42,14.83-24.08,6.45-6.66,14.23-11.81,23.35-15.46,9.11-3.64,19.42-5.47,30.92-5.47,13.18,0,24.71,2.35,34.6,7.05,9.88,4.7,18.19,11.25,24.92,19.67l-21.45,14.72c-4.49-5.47-9.85-9.71-16.09-12.72-6.24-3.01-13.57-4.52-21.98-4.52-7.57,0-14.34,1.23-20.3,3.68-5.96,2.45-10.97,5.93-15.04,10.41-4.07,4.49-7.19,9.96-9.36,16.41-2.18,6.45-3.26,13.67-3.26,21.66s1.08,15.22,3.26,21.66c2.17,6.45,5.29,11.92,9.36,16.41,4.06,4.49,9.08,7.96,15.04,10.41,5.96,2.45,12.72,3.68,20.3,3.68,8.41,0,15.74-1.5,21.98-4.52,6.24-3.01,11.6-7.26,16.09-12.72l21.45,14.72c-6.73,8.41-15.04,14.97-24.92,19.67s-21.42,7.05-34.6,7.05c-11.5,0-21.8-1.82-30.92-5.47-9.12-3.64-16.9-8.8-23.35-15.46-6.45-6.66-11.39-14.69-14.83-24.08-3.44-9.39-5.15-19.84-5.15-31.34Z"/>
      <path class="cls-1" d="M339.24,166.84h26.29v60.78h64.36v-60.78h26.29v147.22h-26.29v-62.26h-64.36v62.26h-26.29v-147.22Z"/>
      <path class="cls-1" d="M514.01,166.84h27.55l50.48,147.22h-27.55l-12.2-38.91h-49l-12.2,38.91h-27.55l50.48-147.22ZM544.51,250.97l-16.83-53.42-16.83,53.42h33.65Z"/>
      <path class="cls-1" d="M596.25,166.84h100.11v24.19h-73.82v33.44h60.78v24.19h-60.78v41.43h73.82v24.19l-100.11-.21v-147.22Z"/>
      <path class="cls-1" d="M706.88,166.84h26.29v123.04h71.09v24.19h-97.38v-147.22Z"/>
    </g>
  </g>
</svg>