<svg xmlns="http://www.w3.org/2000/svg" id="Capa_2" data-name="Capa 2" viewBox="0 0 750.41 401.06">
  <defs>
    <style>.cls-2{fill:#fff}.cls-3{fill:#008ab9}</style>
  </defs>
  <rect width="684.55" height="102.74" x="31.7" y="298.32" rx="5.1" ry="5.1" style="fill:#e5007e"/>
  <path
    d="M95.54 325.06h10.39l19.05 55.55h-10.39l-4.6-14.68h-18.5l-4.6 14.68H76.5l19.05-55.55Zm11.51 31.75-6.35-20.16-6.34 20.16h12.7ZM129.74 325.06h11.51l16.2 42.3 16.11-42.3h11.51v55.55h-9.92v-34.05l-12.85 33.73.08.32h-9.92l.08-.32-12.85-33.73v34.05h-9.92v-55.55ZM210.06 325.06h10.39l19.05 55.55h-10.39l-4.6-14.68h-18.5l-4.6 14.68h-10.39l19.05-55.55Zm11.5 31.75-6.35-20.16-6.34 20.16h12.7ZM254.18 342.68v37.94h-9.92v-55.55h10.72l21.18 37.94v-37.94h9.92v55.55h-10.71l-21.19-37.94ZM333.77 364.51c0 2.38-.39 4.61-1.19 6.7-.8 2.09-2 3.89-3.61 5.4-1.61 1.51-3.65 2.7-6.11 3.57-2.47.88-5.39 1.31-8.77 1.31-2.49 0-4.79-.23-6.9-.68-2.12-.45-4.06-1.06-5.83-1.82-1.78-.77-3.37-1.64-4.81-2.62-1.43-.98-2.67-1.97-3.73-2.98l6.27-6.82c2.16 1.85 4.45 3.28 6.82 4.29 2.38 1 5.07 1.5 8.09 1.5 1.9 0 3.49-.21 4.76-.63 1.27-.42 2.29-.96 3.06-1.63.77-.66 1.29-1.43 1.58-2.3.3-.87.43-1.73.43-2.58 0-1.64-.43-2.99-1.31-4.05s-2.04-1.95-3.49-2.66-3.11-1.32-4.96-1.82c-1.86-.5-3.75-1.02-5.67-1.55-1.94-.53-3.83-1.15-5.67-1.86a19.85 19.85 0 0 1-4.97-2.74c-1.46-1.11-2.62-2.5-3.49-4.16-.87-1.67-1.31-3.75-1.31-6.23 0-2.33.42-4.47 1.27-6.43s2.08-3.63 3.7-5.04c1.61-1.4 3.62-2.5 6.03-3.29 2.41-.8 5.17-1.19 8.29-1.19 4.29 0 8.16.7 11.62 2.1 3.47 1.4 6.47 3.19 9.01 5.36l-5.79 7.22c-2.54-2.01-5.02-3.44-7.41-4.28-2.41-.85-4.86-1.27-7.35-1.27-3.33 0-5.74.58-7.22 1.75-1.48 1.16-2.22 2.59-2.22 4.28 0 1.38.43 2.51 1.31 3.41.88.9 2.04 1.66 3.49 2.26 1.46.61 3.11 1.14 4.97 1.59 1.85.45 3.74.95 5.67 1.51 1.93.56 3.82 1.21 5.67 1.98s3.5 1.78 4.96 3.01c1.46 1.24 2.62 2.79 3.49 4.65.88 1.85 1.31 4.1 1.31 6.75ZM356.4 325.06h10.39l19.05 55.55h-10.39l-4.6-14.68h-18.5l-4.6 14.68h-10.39l19.05-55.55Zm11.51 31.75-6.35-20.16-6.34 20.16h12.7ZM413.22 352.84c0-4.34.65-8.28 1.95-11.83 1.3-3.55 3.16-6.57 5.6-9.09 2.43-2.51 5.37-4.45 8.8-5.83 3.44-1.38 7.34-2.07 11.67-2.07 4.97 0 9.32.89 13.05 2.66 3.74 1.77 6.86 4.24 9.41 7.42l-8.1 5.56a17.74 17.74 0 0 0-6.07-4.8c-2.35-1.14-5.11-1.71-8.29-1.71-2.86 0-5.41.47-7.66 1.39s-4.14 2.23-5.67 3.93c-1.53 1.69-2.71 3.76-3.53 6.19-.83 2.43-1.23 5.16-1.23 8.17s.4 5.74 1.23 8.17c.82 2.43 2 4.5 3.53 6.19 1.53 1.7 3.42 3 5.67 3.93 2.25.93 4.8 1.39 7.66 1.39 2.38 0 4.54-.3 6.51-.91 1.95-.6 3.67-1.47 5.15-2.58v-9.52h-11.66v-9.13h21.59v22.22c-2.17 2.7-5.06 4.88-8.69 6.54-3.62 1.67-7.93 2.5-12.89 2.5-4.34 0-8.23-.69-11.67-2.07-3.43-1.37-6.37-3.32-8.8-5.83-2.44-2.51-4.3-5.54-5.6-9.09s-1.95-7.49-1.95-11.83ZM492.42 381.65c-3.38 0-6.42-.48-9.13-1.43-2.69-.95-5-2.33-6.9-4.13-1.9-1.8-3.37-3.97-4.41-6.51-1.02-2.54-1.54-5.4-1.54-8.58v-35.95h9.92v36.67c0 3.44 1.07 6.1 3.22 7.98s5.11 2.82 8.93 2.82 7.02-.94 9.17-2.82 3.21-4.54 3.21-7.98v-36.67h9.92V361c0 3.18-.51 6.03-1.54 8.58-1.03 2.54-2.5 4.71-4.41 6.51s-4.21 3.18-6.9 4.13c-2.69.95-5.74 1.43-9.13 1.43h-.4ZM537.02 325.06h10.39l19.05 55.55h-10.39l-4.6-14.68h-18.5l-4.6 14.68h-10.39l19.05-55.55Zm11.51 31.75-6.35-20.16-6.34 20.16h12.7ZM571.23 325.06h25.16c3.02 0 5.77.49 8.26 1.47 2.48.98 4.61 2.35 6.38 4.13 1.77 1.77 3.15 3.9 4.13 6.39.97 2.49 1.47 5.24 1.47 8.26s-.49 5.95-1.47 8.49-2.36 4.71-4.13 6.51c-1.77 1.8-3.9 3.19-6.38 4.17-2.49.98-5.24 1.47-8.26 1.47h-15.23v14.68h-9.92v-55.55Zm24.29 31.75c3.38 0 6.1-1.02 8.13-3.05s3.05-4.75 3.05-8.14-1.01-6.27-3.05-8.33c-2.04-2.07-4.75-3.1-8.13-3.1h-14.37v22.62h14.37ZM622.57 352.84c0-4.34.65-8.28 1.95-11.83 1.3-3.55 3.16-6.57 5.6-9.09 2.43-2.51 5.37-4.45 8.8-5.83 3.44-1.38 7.34-2.07 11.67-2.07s8.24.69 11.7 2.07 6.41 3.32 8.85 5.83c2.43 2.51 4.3 5.54 5.6 9.09 1.3 3.55 1.95 7.49 1.95 11.83s-.65 8.28-1.95 11.83c-1.3 3.55-3.17 6.58-5.6 9.13-2.44 2.54-5.39 4.5-8.85 5.87-3.46 1.38-7.37 2.07-11.7 2.07s-8.23-.69-11.67-2.07c-3.43-1.37-6.37-3.33-8.8-5.87-2.44-2.54-4.3-5.58-5.6-9.13-1.3-3.55-1.95-7.49-1.95-11.83Zm9.93 0c0 3.01.4 5.75 1.23 8.21.82 2.46 2 4.54 3.53 6.23 1.53 1.7 3.42 3 5.67 3.93 2.25.93 4.8 1.39 7.66 1.39s5.41-.46 7.66-1.39c2.24-.92 4.15-2.23 5.71-3.93 1.55-1.69 2.74-3.77 3.57-6.23.82-2.46 1.23-5.2 1.23-8.21s-.41-5.74-1.23-8.17c-.83-2.43-2.02-4.5-3.57-6.19-1.56-1.7-3.47-3-5.71-3.93-2.25-.92-4.81-1.39-7.66-1.39s-5.41.47-7.66 1.39-4.14 2.23-5.67 3.93c-1.53 1.69-2.71 3.76-3.53 6.19-.83 2.43-1.23 5.16-1.23 8.17Z"
    class="cls-2"/>
  <path
    d="M104.56 24.31H64.87V2.47H168.2v21.84h-39.89v111.12h-23.75V24.31ZM199.53 2.47h24.89L270 135.43h-24.88l-11.01-35.14h-44.26l-11.01 35.14h-24.88L199.53 2.47Zm27.54 75.97L211.88 30.2l-15.19 48.24h30.39ZM273.79 2.47h27.55l38.75 101.24L378.65 2.47h27.55v132.96h-23.75V53.94l-30.77 80.72.2.76h-23.75l.2-.76-30.77-80.72v81.49h-23.75V2.47ZM417.58 2.47h23.75v132.96h-23.75V2.47ZM476.47 44.63v90.79h-23.75V2.47h25.65l50.71 90.79V2.47h23.74v132.96h-25.64l-50.71-90.79ZM562.31 68.95c0-10.38 1.54-19.82 4.65-28.3 3.1-8.48 7.56-15.73 13.39-21.75 5.82-6.01 12.84-10.67 21.07-13.96C609.65 1.65 618.96 0 629.35 0c11.9 0 22.31 2.12 31.24 6.36s16.43 10.16 22.51 17.76l-19.37 13.3c-4.06-4.94-8.9-8.77-14.53-11.49s-12.25-4.09-19.85-4.09c-6.84 0-12.95 1.11-18.33 3.32-5.39 2.22-9.91 5.35-13.58 9.4-3.68 4.06-6.49 8.99-8.46 14.82-1.96 5.83-2.94 12.35-2.94 19.57s.98 13.74 2.94 19.57c1.97 5.83 4.78 10.76 8.46 14.82 3.67 4.05 8.19 7.19 13.58 9.4 5.38 2.22 11.49 3.32 18.33 3.32 5.69 0 10.89-.73 15.57-2.18 4.69-1.46 8.8-3.52 12.35-6.18V84.91h-27.92V63.06h51.66v53.19c-5.19 6.46-12.13 11.68-20.8 15.67s-18.96 5.98-30.86 5.98c-10.38 0-19.7-1.65-27.93-4.94-8.23-3.29-15.25-7.95-21.07-13.96-5.83-6.01-10.3-13.27-13.39-21.75-3.11-8.48-4.65-17.92-4.65-28.3ZM33.66 181.61H0v-18.52h87.61v18.52H53.79v94.23H33.66v-94.23ZM94.86 163.09H115v46.55h49.28v-46.55h20.14v112.75h-20.14v-47.68H115v47.68H94.86V163.09ZM194.08 163.09h76.67v18.52h-56.53v25.61h46.55v18.52h-46.55v31.73h56.53v18.52l-76.67-.16V163.08ZM318.26 163.09h54.12c4.62 0 8.78.73 12.49 2.18 3.7 1.45 6.84 3.52 9.42 6.2s4.56 5.83 5.96 9.42c1.4 3.6 2.09 7.6 2.09 12 0 5.48-1.05 9.96-3.15 13.45-2.08 3.49-4.86 6.15-8.29 7.98 2.68.86 5.2 2.09 7.57 3.7 2.36 1.61 4.43 3.6 6.2 5.96 1.77 2.37 3.17 5.1 4.19 8.22 1.02 3.12 1.53 6.66 1.53 10.63 0 4.83-.79 9.26-2.34 13.29s-3.79 7.52-6.68 10.47c-2.9 2.96-6.42 5.24-10.55 6.85-4.14 1.61-8.78 2.41-13.94 2.41h-58.63V163.1Zm51.54 43.49c3.76 0 6.77-1.13 9.03-3.38 2.25-2.26 3.38-5.26 3.38-9.02s-1.13-6.92-3.38-9.18c-2.26-2.25-5.27-3.38-9.03-3.38h-31.4v24.97h31.4Zm4.52 50.74c4.83 0 8.69-1.45 11.59-4.35 2.9-2.9 4.35-6.77 4.35-11.6s-1.45-8.89-4.35-11.84c-2.9-2.95-6.77-4.43-11.59-4.43h-35.91v32.21h35.91ZM462.26 277.93c-6.87 0-13.04-.97-18.52-2.9s-10.15-4.72-14.01-8.37c-3.86-3.65-6.84-8.05-8.94-13.21-2.09-5.15-3.15-10.96-3.15-17.4v-72.96h20.14v74.42c0 6.98 2.17 12.38 6.52 16.19 4.35 3.81 10.38 5.72 18.12 5.72s14.25-1.91 18.6-5.72c4.35-3.81 6.53-9.2 6.53-16.19v-74.42h20.13v72.96c0 6.44-1.05 12.24-3.15 17.4-2.08 5.15-5.06 9.56-8.94 13.21-3.86 3.65-8.54 6.44-14 8.37-5.48 1.93-11.65 2.9-18.53 2.9h-.81ZM517.34 163.09h20.14v94.23h54.44v18.52h-74.58V163.09ZM599.16 163.09h20.14v94.23h54.44v18.52h-74.58V163.09ZM676.32 163.09l26.57 56.54 26.41-56.54h21.1l-37.54 78.92v33.82h-20.13v-33.82l-37.53-78.92h21.1Z"
    class="cls-3"/>
</svg>