<?xml version="1.0" encoding="UTF-8"?>
<svg id="Capa_2" data-name="Capa 2" xmlns="http://www.w3.org/2000/svg" viewBox="0 0 801.54 266.86">
  <defs>
    <style>
      .cls-1 {
        fill: #1d1d1b;
      }
    </style>
  </defs>
  <g id="Capa_1-2" data-name="Capa 1">
    <g>
      <g>
        <path class="cls-1" d="M43.11,181.71l22.2,83.86h-17.62l-3.88-17.74h-22.32l-3.88,17.74H0l22.2-83.86h20.91ZM40.87,233.97l-8.1-37.7h-.23l-8.1,37.7h16.44Z"/>
        <path class="cls-1" d="M113.81,195.57h-18.32v70h-16.91v-70h-18.32v-13.86h53.56v13.86Z"/>
        <path class="cls-1" d="M152.34,181.71c7.05,0,12.53,1.78,16.44,5.34,3.91,3.56,5.87,8.99,5.87,16.27,0,5.64-1.14,10.24-3.41,13.8-2.27,3.56-5.79,5.85-10.57,6.87v.24c4.23.63,7.32,2,9.28,4.11,1.96,2.11,3.17,5.52,3.64,10.22.16,1.57.27,3.27.35,5.11.08,1.84.16,3.9.23,6.17.16,4.46.39,7.87.71,10.22.47,2.35,1.49,3.95,3.05,4.82v.7h-18.32c-.86-1.17-1.41-2.53-1.64-4.05-.23-1.53-.39-3.11-.47-4.76l-.47-16.09c-.16-3.29-.98-5.87-2.47-7.75-1.49-1.88-3.99-2.82-7.52-2.82h-9.04v35.47h-16.91v-83.86h31.24ZM145.06,218.35c4.07,0,7.2-.96,9.4-2.88,2.19-1.92,3.29-5.15,3.29-9.69,0-7.75-3.92-11.63-11.75-11.63h-7.99v24.2h7.05Z"/>
        <path class="cls-1" d="M223.63,181.71l22.2,83.86h-17.62l-3.88-17.74h-22.32l-3.88,17.74h-17.62l22.2-83.86h20.91ZM221.4,233.97l-8.1-37.7h-.23l-8.1,37.7h16.44Z"/>
        <path class="cls-1" d="M281.3,181.71c4.31,0,7.93.72,10.87,2.17,2.94,1.45,5.3,3.35,7.11,5.7,1.8,2.35,3.09,5.03,3.88,8.05.78,3.02,1.17,6.09,1.17,9.22,0,4.31-.65,8.07-1.94,11.28-1.29,3.21-3.09,5.83-5.4,7.87-2.31,2.04-5.11,3.56-8.4,4.58-3.29,1.02-6.93,1.53-10.92,1.53h-9.04v33.47h-16.91v-83.86h29.6ZM276.13,219.64c3.37,0,6.09-1.02,8.16-3.05,2.07-2.04,3.11-5.21,3.11-9.51s-.9-7.44-2.7-9.63c-1.8-2.19-4.82-3.29-9.04-3.29h-7.05v25.49h7.52Z"/>
        <path class="cls-1" d="M345.55,181.71l22.2,83.86h-17.62l-3.88-17.74h-22.32l-3.88,17.74h-17.62l22.2-83.86h20.91ZM343.32,233.97l-8.1-37.7h-.23l-8.1,37.7h16.44Z"/>
        <path class="cls-1" d="M418.72,181.71v32.06h19.73v-32.06h16.91v83.86h-16.91v-37.23h-19.73v37.23h-16.91v-83.86h16.91Z"/>
        <path class="cls-1" d="M466.24,206.08c.59-5.36,1.88-9.96,3.88-13.8,2-3.84,4.87-6.83,8.63-8.99,3.76-2.15,8.81-3.23,15.15-3.23s11.39,1.08,15.15,3.23c3.76,2.15,6.64,5.15,8.63,8.99,2,3.84,3.29,8.44,3.88,13.8.59,5.36.88,11.22.88,17.56s-.29,12.29-.88,17.62c-.59,5.33-1.88,9.91-3.88,13.74-2,3.84-4.87,6.77-8.63,8.81-3.76,2.04-8.81,3.05-15.15,3.05s-11.39-1.02-15.15-3.05c-3.76-2.04-6.64-4.97-8.63-8.81-2-3.84-3.29-8.42-3.88-13.74-.59-5.32-.88-11.2-.88-17.62s.29-12.2.88-17.56ZM482.68,238.03c.27,3.95.82,7.16,1.64,9.63s2,4.27,3.52,5.4c1.53,1.14,3.54,1.7,6.05,1.7s4.52-.57,6.05-1.7c1.53-1.13,2.7-2.94,3.52-5.4s1.37-5.68,1.64-9.63c.27-3.95.41-8.75.41-14.39s-.14-10.41-.41-14.33c-.28-3.91-.82-7.12-1.64-9.63-.82-2.51-2-4.33-3.52-5.46-1.53-1.13-3.54-1.7-6.05-1.7s-4.52.57-6.05,1.7c-1.53,1.14-2.7,2.96-3.52,5.46-.82,2.51-1.37,5.72-1.64,9.63-.28,3.92-.41,8.69-.41,14.33s.14,10.44.41,14.39Z"/>
        <path class="cls-1" d="M557.91,181.71l11.98,59.2h.23l12.1-59.2h25.02v83.86h-15.5v-66.95h-.24l-14.92,66.95h-13.15l-14.92-66.95h-.23v66.95h-15.5v-83.86h25.14Z"/>
        <path class="cls-1" d="M647.64,181.71c3.45,0,6.64.35,9.57,1.06,2.94.7,5.46,1.88,7.58,3.52,2.11,1.64,3.76,3.84,4.93,6.58,1.17,2.74,1.76,6.11,1.76,10.1,0,4.54-1.06,8.44-3.17,11.69-2.11,3.25-5.29,5.46-9.51,6.64v.23c4.7.63,8.42,2.62,11.16,5.99,2.74,3.37,4.11,7.87,4.11,13.51,0,3.29-.43,6.42-1.29,9.4-.86,2.98-2.33,5.58-4.4,7.81-2.08,2.23-4.78,4.01-8.1,5.34-3.33,1.33-7.46,2-12.39,2h-28.54v-83.86h28.31ZM641.06,216.12c4.7,0,8.12-.84,10.28-2.53,2.15-1.68,3.23-4.52,3.23-8.52s-.98-6.81-2.94-8.46c-1.96-1.64-5.05-2.47-9.28-2.47h-6.11v21.96h4.82ZM642.83,253.12c4.07,0,7.36-.9,9.87-2.7,2.5-1.8,3.76-5.13,3.76-9.98,0-2.43-.33-4.44-1-6.05-.67-1.6-1.57-2.9-2.7-3.88-1.14-.98-2.49-1.66-4.05-2.06-1.57-.39-3.29-.59-5.17-.59h-7.28v25.25h6.58Z"/>
        <path class="cls-1" d="M715.88,181.71c7.05,0,12.53,1.78,16.44,5.34,3.91,3.56,5.87,8.99,5.87,16.27,0,5.64-1.14,10.24-3.41,13.8-2.27,3.56-5.79,5.85-10.57,6.87v.24c4.23.63,7.32,2,9.28,4.11,1.96,2.11,3.17,5.52,3.64,10.22.16,1.57.27,3.27.35,5.11.08,1.84.16,3.9.23,6.17.16,4.46.39,7.87.71,10.22.47,2.35,1.49,3.95,3.05,4.82v.7h-18.32c-.86-1.17-1.41-2.53-1.64-4.05-.23-1.53-.39-3.11-.47-4.76l-.47-16.09c-.16-3.29-.98-5.87-2.47-7.75-1.49-1.88-3.99-2.82-7.52-2.82h-9.04v35.47h-16.91v-83.86h31.24ZM708.6,218.35c4.07,0,7.2-.96,9.4-2.88,2.19-1.92,3.29-5.15,3.29-9.69,0-7.75-3.92-11.63-11.75-11.63h-7.99v24.2h7.05Z"/>
        <path class="cls-1" d="M796.81,195.57h-29.95v19.73h28.19v13.86h-28.19v22.55h31.12v13.86h-48.04v-83.86h46.86v13.86Z"/>
      </g>
      <g>
        <path class="cls-1" d="M55.74,26.59H7.43V0h125.77v26.59h-48.55v135.24h-28.9V26.59Z"/>
        <path class="cls-1" d="M143.59,0h28.9v161.83h-28.9V0Z"/>
        <path class="cls-1" d="M186.36,0h110.04v26.59h-81.15v36.76h66.81v26.59h-66.81v45.54h81.15v26.59l-110.04-.23V0Z"/>
        <path class="cls-1" d="M364.6,0h33.52l47.16,123.22L492.22,0h33.52v161.83h-28.9V62.65l-37.45,98.25.23.92h-28.9l.23-.92-37.45-98.25v99.18h-28.9V0Z"/>
        <path class="cls-1" d="M589.31,0h30.29l55.48,161.83h-30.29l-13.41-42.77h-53.87l-13.41,42.77h-30.29L589.31,0ZM622.83,92.47l-18.5-58.72-18.5,58.72h36.99Z"/>
        <path class="cls-1" d="M708.6,51.32v110.51h-28.9V0h31.21l61.73,110.51V0h28.9v161.83h-31.21l-61.73-110.51Z"/>
      </g>
    </g>
  </g>
</svg>