<svg xmlns="http://www.w3.org/2000/svg" id="Capa_2" version="1.1" viewBox="0 0 856.4 351"><defs><style>.st0{isolation:isolate}.st1{fill:#fff}</style></defs><g id="Capa_1-2"><g class="st0"><g class="st0"><path d="M14.3 145.3c4.8-.2 8.1-.9 10.1-2 3.3-1.9 5-5.4 5-10.6V46.1c0-5-1.5-8.4-4.5-10.2-1.8-1-5.4-1.8-10.7-2.3v-4.5h60.5v4.5c-5.2.3-8.9 1-10.9 2.1-3.4 1.8-5.1 5.3-5.1 10.5v37.1h42.6V46.2c0-5.1-1.6-8.6-4.8-10.4-2-1.1-5.7-1.8-11.1-2.2v-4.5h60.9v4.5c-5.2.4-8.8 1.2-10.7 2.3-3.2 1.8-4.8 5.2-4.8 10.3v86.6c0 5.2 1.8 8.8 5.3 10.7 2 1.1 5.4 1.7 10.2 1.9v4.5H85.4v-4.5c5.1-.2 8.8-.9 10.9-2.1 3.3-1.9 5-5.4 5-10.5V91.6H58.7v41.2c0 5.3 1.8 8.9 5.4 10.7 2.1 1 5.6 1.7 10.6 1.8v4.5H14.3v-4.5ZM165 76.8c7.3-7.6 16.1-11.4 26.4-11.4s11.4 1.5 16.6 4.6c5.2 3.1 9.2 7.4 12 12.8 2.1 4.1 3.6 9.5 4.4 16.1.4 3.1.6 5.4.6 7.1h-45.7c.4 7.2 1.6 13.4 3.5 18.6 3.5 9.8 9.7 14.8 18.5 14.8s8.2-1.3 11.9-3.9c2.3-1.6 5.1-4.2 8.5-7.9l4.1 2.5c-5.5 9.1-11.9 15.4-19.2 18.9-4.7 2.3-10.1 3.4-16.3 3.4-8.8 0-17-3.5-24.7-10.4-7.7-6.9-11.5-18-11.5-33.2s3.7-24.4 11-32Zm38.1 22.6c-.1-10.5-.9-17.9-2.5-22.1S196 71 191.5 71s-7.9 2.4-9.6 7.2c-1.7 4.8-2.7 11.9-2.9 21.1h24.1ZM232.7 145.6c3.4-.4 5.8-1.2 7.2-2.4 1.3-1.2 2.1-3.6 2.2-7.1l.2-5.2V82.3c0-3.8-.6-6.3-1.9-7.7-1.3-1.4-3.8-2.3-7.6-2.7v-4.3h33.9v14.1c3.8-4.9 7.6-8.9 11.3-11.8 3.7-2.9 8.1-4.4 13-4.4s7 1.2 9.9 3.5c2.9 2.4 4.4 5.8 4.4 10.3s-1 6.4-3.1 8.6c-2.1 2.3-4.8 3.4-8.1 3.4s-7.1-1.8-9.8-5.3c-2.8-3.6-4.7-5.3-5.8-5.3-2.4 0-4.8 1.5-7.2 4.4-2.4 2.9-3.6 7.2-3.6 12.6v33.9c0 5.9.9 9.6 2.6 11.1 1.7 1.5 5.1 2.4 10.3 2.9v4.3H233v-4.3ZM312.1 145.6c3.4-.4 5.8-1.2 7.2-2.4 1.3-1.2 2.1-3.6 2.2-7.1l.2-5.2V82.3c0-3.8-.6-6.3-1.9-7.7-1.3-1.4-3.8-2.3-7.6-2.7v-4.3h33.9v14.1c3.8-4.9 7.6-8.9 11.3-11.8 3.7-2.9 8.1-4.4 13-4.4s7 1.2 9.9 3.5c2.9 2.4 4.4 5.8 4.4 10.3s-1 6.4-3.1 8.6c-2.1 2.3-4.8 3.4-8.1 3.4s-7.1-1.8-9.8-5.3c-2.8-3.6-4.7-5.3-5.8-5.3-2.4 0-4.8 1.5-7.2 4.4-2.4 2.9-3.6 7.2-3.6 12.6v33.9c0 5.9.9 9.6 2.6 11.1 1.7 1.5 5.1 2.4 10.3 2.9v4.3h-47.6v-4.3ZM404.4 114c7.7-4.7 19.9-9.5 36.4-14.3v-13c0-5.3-1.1-9.2-3.4-11.7-2.2-2.5-6.2-3.8-11.9-3.8s-5.8.6-7.9 1.8c-2.1 1.2-3.1 2.7-3.1 4.5s.1 1.3.3 1.7c.2.5.6 1 1 1.5l1 1.2c.8 1 1.5 2.1 2 3.3.5 1.2.7 2.5.7 3.8 0 3.4-1.1 6-3.4 7.8-2.2 1.8-4.8 2.8-7.8 2.8s-6.4-1-8.8-3c-2.4-2-3.6-5-3.6-8.8 0-6.9 3.2-12.3 9.7-16.3 6.5-4 14.4-6 23.8-6s18.6 2 25.4 5.8c6.8 4 10.1 11.2 10.1 21.8v43.3c0 1.3.3 2.4 1 3.3.7.9 1.4 1.4 2.2 1.4s1.3-.1 1.9-.4c.6-.3 1.4-1 2.6-2.1l2.7 3.8c-3.5 4.1-7.4 6.9-11.6 8.6-2.7 1-5.5 1.6-8.5 1.6-5.3 0-9.2-1.5-11.6-4.6-1.4-1.7-2.4-4.3-3.1-7.8-4.9 5-10.5 8.5-16.8 10.5-3.8 1.3-7.5 1.9-11.2 1.9s-9.5-1.6-13.7-4.7c-4.2-3.1-6.4-8-6.4-14.6s3.9-14.4 11.6-19.2Zm31.2 23c1.4-1.1 3.1-2.7 5-4.9v-26.2c-4.8 1.2-9 3-12.6 5.5-6.1 4.3-9.2 9.7-9.2 16.3s.9 6.9 2.7 8.9c1.8 2 3.8 3 6 3s5.6-.9 8.1-2.6ZM492.3 77.7c6.7-8.2 14.8-12.3 24.2-12.3s8.9 1.2 12.6 3.5c2.3 1.4 5.1 3.9 8.6 7.5V43.7c0-4.5-.9-7.3-2.6-8.4-1.7-1.1-5.4-1.7-10.8-2V29h38.5v102.9c0 3.7.7 6.2 2.1 7.7 1.4 1.4 4.1 2.3 8.2 2.6v4.1c-10 1-16.5 1.7-19.4 2.2-2.9.5-8 1.8-15.4 3.8v-11.8c-3.4 3.5-6.5 6.1-9.3 7.8-4.4 2.7-9.2 4-14.3 4-8.7 0-16.3-3.7-22.8-11.1-6.5-7.4-9.7-17.4-9.7-30.1s3.4-25.3 10.1-33.5Zm40.8 59.4c3.1-3.4 4.6-5.8 4.6-7.2V86.4c0-1.5-1.3-3.6-3.9-6.5-2.6-2.9-6.1-4.3-10.4-4.3-6.4 0-10.7 4.4-13 13.2-1.2 4.7-1.8 11.4-1.8 20s.6 16.1 1.8 20.8c2.2 8.4 6.3 12.7 12.4 12.7s7.3-1.7 10.4-5.2ZM613.7 67.5v60.7c0 3.6.4 6.3 1.3 7.9 1.5 3 4.5 4.5 9 4.5s5.6-.9 8.4-2.7c1.6-1 3.5-2.6 5.9-5V82.2c0-3.8-.7-6.4-2.2-7.9-1.5-1.5-4.5-2.3-9-2.5v-4.3h35.6v64.4c0 3.7.7 6.2 2.1 7.7 1.4 1.4 4.1 2.3 8.2 2.6v4.1c-11.1 1-18 1.8-20.9 2.3-2.9.5-7.5 1.7-13.8 3.7v-11.8c-4.2 3.7-7.8 6.3-10.6 7.8-4.9 2.7-10 4-15.3 4s-11.1-1.8-16.1-5.5c-5-3.7-7.5-10.2-7.5-19.6V82.1c0-3.8-.6-6.3-1.8-7.5-1.2-1.2-3.6-2.1-7.1-2.9v-4.3h33.7ZM679.8 145.6c3.4-.4 5.8-1.2 7.2-2.4 1.3-1.2 2.1-3.6 2.2-7.1l.2-5.2V82.3c0-3.8-.6-6.3-1.9-7.7-1.3-1.4-3.8-2.3-7.6-2.7v-4.3h33.9v14.1c3.8-4.9 7.6-8.9 11.3-11.8 3.7-2.9 8.1-4.4 13-4.4s7 1.2 9.9 3.5 4.4 5.8 4.4 10.3-1 6.4-3.1 8.6-4.8 3.4-8.1 3.4-7.1-1.8-9.8-5.3c-2.8-3.6-4.7-5.3-5.8-5.3-2.4 0-4.8 1.5-7.2 4.4-2.4 2.9-3.6 7.2-3.6 12.6v33.9c0 5.9.9 9.6 2.6 11.1 1.7 1.5 5.1 2.4 10.3 2.9v4.3h-47.6v-4.3ZM772.1 114c7.7-4.7 19.9-9.5 36.4-14.3v-13c0-5.3-1.1-9.2-3.4-11.7-2.2-2.5-6.2-3.8-11.9-3.8s-5.8.6-7.9 1.8c-2.1 1.2-3.1 2.7-3.1 4.5s.1 1.3.3 1.7c.2.5.6 1 1 1.5l1 1.2c.8 1 1.5 2.1 2 3.3.5 1.2.7 2.5.7 3.8 0 3.4-1.1 6-3.4 7.8-2.2 1.8-4.8 2.8-7.8 2.8s-6.4-1-8.8-3c-2.4-2-3.6-5-3.6-8.8 0-6.9 3.2-12.3 9.7-16.3 6.5-4 14.4-6 23.8-6s18.6 2 25.4 5.8c6.8 4 10.1 11.2 10.1 21.8v43.3c0 1.3.3 2.4 1 3.3.7.9 1.4 1.4 2.2 1.4s1.3-.1 1.9-.4c.6-.3 1.4-1 2.6-2.1l2.7 3.8c-3.5 4.1-7.4 6.9-11.6 8.6-2.7 1-5.5 1.6-8.5 1.6-5.3 0-9.2-1.5-11.6-4.6-1.4-1.7-2.4-4.3-3.1-7.8-4.9 5-10.5 8.5-16.8 10.5-3.8 1.3-7.5 1.9-11.2 1.9s-9.5-1.6-13.7-4.7c-4.2-3.1-6.4-8-6.4-14.6s3.9-14.4 11.6-19.2Zm31.2 23c1.4-1.1 3.1-2.7 5-4.9v-26.2c-4.8 1.2-9 3-12.6 5.5-6.1 4.3-9.2 9.7-9.2 16.3s.9 6.9 2.7 8.9c1.8 2 3.8 3 6 3s5.6-.9 8.1-2.6Z" class="st1"/></g></g><g class="st0"><g class="st0"><path d="M11.5 237.4c5.3-6.4 11.6-9.6 19-9.6s7 .9 9.9 2.7c1.8 1.1 4 3.1 6.7 5.9v-25.7c0-3.5-.7-5.7-2.1-6.6-1.4-.9-4.2-1.4-8.5-1.6v-3.4h30.2v80.7c0 2.9.5 4.9 1.6 6s3.2 1.8 6.4 2.1v3.2c-7.8.8-12.9 1.4-15.2 1.7-2.3.4-6.3 1.4-12 3v-9.2c-2.6 2.7-5.1 4.8-7.3 6.1-3.5 2.1-7.2 3.1-11.2 3.1-6.8 0-12.8-2.9-17.9-8.7-5.1-5.8-7.6-13.7-7.6-23.6s2.6-19.8 7.9-26.2Zm31.9 46.5c2.4-2.7 3.6-4.6 3.6-5.7v-34.1c0-1.1-1-2.8-3.1-5.1-2.1-2.2-4.8-3.4-8.2-3.4-5 0-8.4 3.4-10.2 10.3-1 3.7-1.4 8.9-1.4 15.7s.5 12.6 1.4 16.3c1.7 6.6 4.9 9.9 9.7 9.9s5.7-1.3 8.1-4ZM89.6 236.7c5.7-6 12.6-8.9 20.7-8.9s9 1.2 13 3.6c4.1 2.4 7.2 5.8 9.4 10.1 1.6 3.2 2.8 7.4 3.4 12.6.3 2.4.5 4.3.5 5.5h-35.8c.3 5.6 1.2 10.5 2.7 14.6 2.7 7.7 7.6 11.6 14.5 11.6s6.4-1 9.3-3.1c1.8-1.2 4-3.3 6.7-6.2l3.2 2c-4.3 7.1-9.4 12.1-15.1 14.8-3.7 1.8-7.9 2.7-12.7 2.7-6.9 0-13.4-2.7-19.4-8.1-6-5.4-9-14.1-9-26s2.9-19.1 8.6-25.1Zm29.8 17.7c0-8.3-.7-14-1.9-17.3s-3.6-4.9-7.1-4.9-6.2 1.9-7.5 5.7c-1.4 3.8-2.1 9.3-2.3 16.6h18.9ZM180.1 261.2h4c2.2 10.5 5.8 18.1 10.8 22.8 5 4.8 10.7 7.1 17.1 7.1s10.7-1.6 13.3-4.9c2.6-3.3 3.9-6.7 3.9-10.3s-1.4-7.6-4.1-10.3c-1.8-1.7-5.5-4-11-6.8l-8.9-4.5c-8.9-4.5-15.1-8.9-18.8-13.3-3.6-4.4-5.5-9.8-5.5-16.2s2.4-13.2 7.2-19.2c4.8-5.9 12.2-8.9 22.2-8.9s10 .8 14.7 2.3c4.7 1.6 7.4 2.3 8.1 2.3 1.5 0 2.6-.4 3.2-1.3.6-.9 1.1-2.1 1.4-3.5h4.2V227H238c-1.8-7.1-5.1-13.2-9.7-18.3-4.6-5.1-10.2-7.7-16.8-7.7s-8.3 1.3-11 3.9c-2.7 2.6-4 5.7-4 9.4s1.3 7.7 3.8 9.9 8 5.5 16.7 9.9l10.3 5.2c4.6 2.3 8.3 4.9 11 7.7 5.1 5.3 7.7 11.7 7.7 19.3s-2.7 13.7-8.2 20c-5.5 6.3-14.3 9.4-26.4 9.4s-5.6-.3-8.4-.8-5.7-1.3-8.4-2.4l-2.7-1c-.6-.2-1.2-.3-1.8-.4-.6-.1-1.1-.2-1.5-.2-1.4 0-2.4.4-3 1.3-.5.8-1 2-1.4 3.6h-4v-34.7ZM265.8 265.8c6.1-3.7 15.6-7.4 28.5-11.2v-10.2c0-4.2-.9-7.2-2.6-9.2-1.8-2-4.9-3-9.3-3s-4.6.5-6.2 1.4c-1.6.9-2.4 2.1-2.4 3.5s0 1 .3 1.4c.2.4.5.8.8 1.2l.8 1c.6.8 1.2 1.6 1.5 2.6.4.9.6 1.9.6 3 0 2.6-.9 4.7-2.6 6.1-1.8 1.4-3.8 2.2-6.1 2.2s-5-.8-6.9-2.4c-1.9-1.6-2.8-3.9-2.8-6.9 0-5.4 2.5-9.6 7.6-12.8 5.1-3.1 11.3-4.7 18.7-4.7s14.6 1.5 19.9 4.6c5.3 3.1 7.9 8.8 7.9 17.1v33.9c0 1 .3 1.9.8 2.6.5.7 1.1 1.1 1.7 1.1s1-.1 1.5-.3c.4-.2 1.1-.8 2-1.7l2.1 2.9c-2.7 3.2-5.8 5.4-9.1 6.7-2.1.8-4.3 1.2-6.6 1.2-4.2 0-7.2-1.2-9.1-3.6-1.1-1.4-1.9-3.4-2.4-6.1-3.9 3.9-8.3 6.6-13.1 8.2-3 1-5.9 1.5-8.8 1.5s-7.4-1.2-10.7-3.7c-3.3-2.4-5-6.2-5-11.4s3-11.3 9.1-15Zm24.4 18c1.1-.8 2.4-2.1 3.9-3.8v-20.5c-3.7.9-7 2.4-9.9 4.3-4.8 3.3-7.2 7.6-7.2 12.8s.7 5.4 2.1 7c1.4 1.6 3 2.4 4.7 2.4s4.4-.7 6.4-2.1ZM325.4 290.6c2.6-.3 4.4-1 5.6-2.1 1.2-1.1 1.8-3.2 1.8-6.4v-41.2c0-2.9-.5-4.8-1.5-5.9-1-1.1-3-1.8-6-2.2v-3.4h26.5v10.1c2.2-3.4 5.1-6.2 8.5-8.4 3.4-2.2 7.3-3.3 11.5-3.3 6 0 10.7 1.6 14 4.7 3.3 3.1 5 8.6 5 16.4v33.9c0 3.1.5 5.2 1.6 6.1 1.1.9 2.9 1.5 5.4 1.8v3.4h-32.9v-3.4c2.5-.5 4.2-1.2 5.1-2.1.9-.9 1.4-2.8 1.4-5.9v-33.9c0-3.2-.3-5.6-1-7.2-1.1-2.9-3.3-4.3-6.5-4.3s-4.6.9-6.7 2.6c-2 1.8-3.6 3.5-4.7 5.3v37.5c0 3.1.5 5 1.4 5.9.9.9 2.6 1.6 5.1 2.1v3.4h-33.7v-3.4ZM438 290.4c5.3 0 8.8-1 10.4-2.8 1.6-1.8 2.4-4.6 2.4-8.3v-66.6c0-3.8-.9-6.3-2.7-7.5-1.8-1.2-5.1-2-9.7-2.3v-3.6h35.3l27.6 64.9h1.2l27.4-64.9h35.3v3.6c-4.7.4-8 1.2-9.7 2.6-1.7 1.4-2.6 4.8-2.6 10.2v62c0 5.2.9 8.5 2.6 10.1 1.7 1.6 5 2.5 9.7 2.7v3.6h-46.5v-3.6c4.2-.1 7.3-.8 9.4-2.1 2.1-1.3 3.1-4 3.1-8.2v-68.5h-1l-34.3 82.4h-3.8l-34.7-80.7h-.6v63.4c0 4.7.9 8.1 2.6 10.2 1.7 2.2 5.6 3.3 11.5 3.6v3.6h-32.8v-3.6ZM570.6 290.6c2.5-.4 4.2-1 5.1-1.8 1.4-1.2 2.1-3.4 2.1-6.6V241c0-2.9-.5-4.8-1.4-5.8-1-1-2.9-1.8-5.7-2.3v-3.4h26.9v53.2c0 3.1.5 5 1.4 5.9.9.9 2.6 1.6 5.1 2.1v3.4h-33.4v-3.4Zm9.4-90.3c2.1-2.1 4.7-3.2 7.7-3.2s5.5 1.1 7.6 3.2 3.2 4.7 3.2 7.7-1.1 5.6-3.2 7.7-4.7 3.2-7.6 3.2-5.6-1.1-7.7-3.2-3.2-4.7-3.2-7.7 1.1-5.6 3.2-7.7ZM613 303.9c1.7-2.1 4.6-3.5 8.7-4.1v-1c-2.7-1-4.7-2.1-6-3.2-2.2-2-3.3-4.6-3.3-7.9s1.7-7.3 5.2-10.1c3.4-2.8 6.8-4.7 10.1-5.8v-1c-4.7-1.9-8.6-4.7-11.5-8.2-2.9-3.6-4.4-7.9-4.4-12.9s2.6-11.7 7.7-15.8c5.1-4.2 12-6.2 20.7-6.2s6.3.3 9 1c2.7.6 4.9 1.3 6.4 2h18.5v7.5h-11.4c1.8 1.8 3.2 3.9 4.2 6.2 1 2.4 1.5 5 1.5 7.7 0 8.8-4.2 14.8-12.5 18-4.4 1.7-9.8 2.6-16.4 2.6h-4.8c-1.4.2-2.8 1-4.3 2.2-1.6 1.3-2.3 2.8-2.3 4.6s.4 2.5 1.2 3.3c.8.8 1.8 1.3 3.2 1.4.7 0 2.1.2 4.4.2 2.2 0 4 .1 5.2.1h9.1c5.2.2 9.5 1 13 2.4 6.7 2.7 10.1 7.6 10.1 14.7s-5 15.4-15.1 18.8c-5.3 1.8-12 2.7-20 2.7s-12.2-.6-17-1.9c-7.8-2.1-11.8-5.8-11.8-10.9s.8-4.1 2.5-6.2Zm14.5 12.1c3.1 1.6 7.5 2.5 13.4 2.5s9.5-.4 12.9-1.2c6.3-1.6 9.5-4.4 9.5-8.6s-.9-4.2-2.7-5.5c-1.8-1.2-5.1-1.8-9.8-1.8h-23c-1.5 1.2-2.5 2.2-3.1 3-1.1 1.5-1.7 3.1-1.7 4.8 0 2.9 1.5 5.2 4.6 6.8Zm4.9-53.7c1.4 4.1 4 6.2 7.9 6.2s5.9-1.5 7.3-4.6c1.3-3.1 2-7.6 2-13.5s-.7-10.9-2.1-13.8c-1.4-2.9-3.8-4.3-7.2-4.3s-6.2 1.5-7.4 4.6-1.8 7.6-1.8 13.4.5 9.4 1.4 12ZM706.1 229.4V277c0 2.8.3 4.9 1 6.2 1.2 2.3 3.5 3.5 7 3.5s4.4-.7 6.6-2.1c1.2-.8 2.8-2.1 4.7-3.9v-39.8c0-2.9-.6-5-1.7-6.2s-3.5-1.8-7-2v-3.4h27.9v50.5c0 2.9.5 4.9 1.6 6s3.2 1.8 6.4 2.1v3.2c-8.7.8-14.1 1.4-16.4 1.8-2.3.4-5.9 1.4-10.8 2.9v-9.2c-3.3 2.9-6.1 4.9-8.3 6.1-3.8 2.1-7.8 3.1-12 3.1s-8.7-1.4-12.6-4.3c-3.9-2.9-5.8-8-5.8-15.3v-35.4c0-3-.5-5-1.4-5.9-1-.9-2.8-1.7-5.5-2.3v-3.4h26.4ZM767 236.7c5.7-6 12.6-8.9 20.7-8.9s9 1.2 13 3.6c4.1 2.4 7.2 5.8 9.4 10.1 1.6 3.2 2.8 7.4 3.4 12.6.3 2.4.5 4.3.5 5.5h-35.8c.3 5.6 1.2 10.5 2.7 14.6 2.7 7.7 7.6 11.6 14.5 11.6s6.4-1 9.3-3.1c1.8-1.2 4-3.3 6.7-6.2l3.2 2c-4.3 7.1-9.4 12.1-15.1 14.8-3.7 1.8-7.9 2.7-12.7 2.7-6.9 0-13.4-2.7-19.4-8.1-6-5.4-9-14.1-9-26s2.9-19.1 8.6-25.1Zm29.8 17.7c0-8.3-.7-14-1.9-17.3-1.2-3.3-3.6-4.9-7.1-4.9s-6.2 1.9-7.5 5.7-2.1 9.3-2.3 16.6h18.9ZM819.8 290.6c2.5-.6 4.2-1.4 5.2-2.4s1.5-3 1.5-6.1v-71.4c0-3-.5-5-1.4-5.9s-2.7-1.7-5.3-2.3v-3.4h26.5V282c0 3.1.5 5.1 1.5 6.1s2.8 1.8 5.3 2.4v3.4h-33.4v-3.4Z" class="st1"/></g></g></g></svg>