<svg xmlns="http://www.w3.org/2000/svg" id="Capa_2" data-name="Capa 2" viewBox="0 0 62.14 62.14">
  <defs>
    <style>.cls-1{fill:#fff}</style>
  </defs>
  <path
    d="M31.58 15.01c-8.16 0-14.8 6.64-14.8 14.8 0 2.97.87 5.73 2.38 8.04l-1.59 5.96 5.96-1.59c.19.13.39.25.6.37a14.69 14.69 0 0 0 7.44 2.01c8.16 0 14.8-6.64 14.8-14.8S39.73 15 31.57 15Zm8.77 21.31c-.26.39-.53.75-.96 1.18-.95.95-2.26 1.43-3.6 1.29-2.39-.25-5.79-1.57-8.72-4.48-2.92-2.92-4.24-6.32-4.48-8.71-.14-1.34.34-2.65 1.29-3.6.43-.43.79-.7 1.18-.97.72-.48 1.69-.16 1.96.65l.98 2.94c.27.81.15 1.32-.2 1.66l-.78.79c-.39.39-.45.99-.15 1.45.43.68 1.25 1.76 2.74 3.26 1.5 1.5 2.58 2.31 3.26 2.74.46.3 1.06.23 1.45-.15l.79-.78c.34-.35.85-.47 1.66-.2l2.94.98c.81.27 1.14 1.25.65 1.96Z"
    class="cls-1"/>
  <path
    d="M31.07 0C13.91 0 0 13.91 0 31.07s13.91 31.07 31.07 31.07 31.07-13.91 31.07-31.07S48.23 0 31.07 0Zm1.4 48.45c-3.43.16-6.67-.6-9.49-2.08l-9.34 2.08c-.42.09-.8-.29-.71-.71l2.08-9.34a18.546 18.546 0 0 1-2.07-9.57c.48-9.6 8.41-17.37 18.01-17.68 10.84-.35 19.69 8.54 19.27 19.39-.37 9.58-8.17 17.45-17.75 17.9Z"
    class="cls-1"/>
</svg>