<?xml version="1.0" encoding="UTF-8"?>
<svg id="Capa_2" data-name="Capa 2" xmlns="http://www.w3.org/2000/svg" viewBox="0 0 78.2 78.32">
  <defs>
    <style>
      .cls-1 {
        fill: #fff;
      }
    </style>
  </defs>
  <g id="Capa_1-2" data-name="Capa 1">
    <g id="_3GEL1A" data-name="3GEL1A">
      <g>
        <path class="cls-1" d="M41.54.09c10.11.93,18.48,10.17,18.94,20.24.33,7.33-6.86,20.22-10.51,26.75-1.66,2.97-4.12,7.82-6.14,10.36-2.49,3.15-6.99,3.19-9.47,0-2.03-2.62-4.45-7.34-6.13-10.36-3.65-6.53-10.84-19.42-10.51-26.75C18.16,10.26,26.55,1.02,36.65.09c1.25-.12,3.63-.12,4.89,0ZM38.3,11.43c-11.89,1.12-8.97,19.9,3.2,16.64,9.58-2.56,7.07-17.61-3.2-16.64Z"/>
        <path class="cls-1" d="M0,64.84v-2.75c.87-3,3.62-5.78,6.41-7.1,1.3-.61,3.03-.54,3.55,1.04.86,2.62-1.94,3.24-3.47,4.54-2.5,2.14-2.39,3.78.07,5.88,1.62,1.39,4.18,2.54,6.18,3.28,14.2,5.31,40.49,5.42,54.44-.69,1.92-.84,6.3-3.14,6.37-5.52.1-3.5-6.5-3.93-5.33-7.49.54-1.65,2.33-1.63,3.65-.98,8.88,4.34,8.03,12.4-.15,17-14.03,7.88-42.01,7.62-57.18,3.22-5.53-1.6-12.73-4.39-14.54-10.42Z"/>
        <path class="cls-1" d="M28.4,56.44c-2.54.28-5.34.87-7.71,1.83-.47.19-2.76,1.22-2.66,1.74.11.62,3.57,1.93,4.27,2.15,8.91,2.83,25.33,2.86,34.17-.19.63-.22,3.57-1.4,3.69-1.97.18-.87-4.51-2.39-5.3-2.61-1.63-.45-3.38-.83-5.07-.96-.19-.17,2.26-4.01,2.54-4.41,3.96.69,13.03,2.85,12.73,8.15-.31,5.43-10.56,7.38-14.77,8-7.27,1.06-15.14,1.06-22.4,0-4.39-.64-16.37-2.93-14.56-9.47,1.17-4.23,8.77-5.97,12.53-6.67.29.39,2.74,4.25,2.54,4.41Z"/>
      </g>
    </g>
  </g>
</svg>