<?xml version="1.0" encoding="UTF-8"?>
<svg id="Capa_2" data-name="Capa 2" xmlns="http://www.w3.org/2000/svg" viewBox="0 0 62.14 62.14">
  <defs>
    <style>
      .cls-1 {
        fill: #fff;
      }
    </style>
  </defs>
  <g id="Capa_1-2" data-name="Capa 1">
    <g>
      <path class="cls-1" d="M30.83,31.83c.96.01,1.92-.26,2.66-.8l12.64-9.39h-.1s-29,0-29,0l11.31,9.37c.65.54,1.57.82,2.5.83Z"/>
      <path class="cls-1" d="M31.07,0C13.91,0,0,13.91,0,31.07s13.91,31.07,31.07,31.07,31.07-13.91,31.07-31.07S48.23,0,31.07,0ZM51,38.55c0,1.19-.43,2.29-1.13,3.15-.03.06-.07.13-.12.19-.13.18-.3.33-.49.43-.87.75-2.01,1.21-3.25,1.21h-29.9c-1.37,0-2.62-.56-3.52-1.46-.9-.9-1.46-2.15-1.46-3.52v-14.95c0-1.37.55-2.62,1.46-3.52.9-.9,2.15-1.46,3.52-1.46h29.9c1.37,0,2.62.56,3.52,1.46.9.9,1.46,2.15,1.46,3.52v14.95Z"/>
      <path class="cls-1" d="M30.81,34.83c-1.61-.02-3.2-.53-4.4-1.51l-12.21-10.11c-.03.12-.04.26-.04.39v14.95c0,.09,0,.17.01.26l8.85-6.41c.68-.49,1.62-.34,2.11.34.49.67.34,1.62-.33,2.11l-7.83,5.67h28.33l-7.96-5.76c-.67-.49-.82-1.43-.33-2.11.49-.67,1.43-.82,2.1-.34l8.87,6.42c0-.06,0-.12,0-.18v-14.55l-12.7,9.44c-1.27.95-2.89,1.41-4.47,1.39Z"/>
    </g>
  </g>
</svg>