<svg xmlns="http://www.w3.org/2000/svg" width="600" height="430" data-name="Capa 2"><g data-name="Capa 1"><path d="M111.49 888.48v-9.76c0-54.2-44.09-98.28-98.29-98.28H3.44V111.49h9.76c54.19 0 98.29-44.09 98.29-98.28V3.44h1019.95v9.76c0 54.2 44.09 98.28 98.29 98.28h9.76v668.94h-9.76c-54.19 0-98.29 44.09-98.29 98.28v9.76H111.49Z" style="fill:none;stroke:#fff;stroke-miterlimit:10;stroke-width:6.89px;opacity:.86" transform="matrix(.48273 0 0 .48211 .002 .002)"/><path d="M1121.68 878.72H121.25c0-59.67-48.37-108.05-108.05-108.05V121.26c59.67 0 108.05-48.37 108.05-108.05h1000.42c0 59.67 48.37 108.05 108.05 108.05v649.41c-59.67 0-108.05 48.37-108.05 108.05z" style="opacity:.86;fill:#fff" transform="matrix(.48273 0 0 .48211 .002 .002)"/></g></svg>