<svg xmlns="http://www.w3.org/2000/svg" width="36" height="36" data-name="Capa 2"><defs><radialGradient id="a" cx="31.94" cy="33.38" r="16.67" data-name="Degradado sin nombre 15" fx="25.55" fy="33.38" gradientUnits="userSpaceOnUse"><stop offset="0" stop-color="#fff"/><stop offset="1" stop-color="#fff" stop-opacity="0"/></radialGradient></defs><g data-name="Capa 1" transform="scale(.35577 .35556)"><path d="M46.98 95.04c-.95-.75-4-4-1.7-5.02 2.31-1.02 6.85 1.49 7.12 1.63.27.14 8.27 2.98 9.29 2.98 1.02 0 8-1.22 8.48-1.42.47-.2.14-.68.14-.68s-2.51-.27-3.53-.27-7.05-2.44-8.61-4c-1.56-1.56-15.73-7.19-17.02-9.83-1.29-2.64.2-4.41 2.03-5.15 1.83-.75 6.78 1.42 9.56 3.25 2.78 1.83 9.63 4.95 10.31 5.15.68.2 8.81 2.37 10.24 2.1 1.43-.27 1.97-1.63 1.97-1.63s-.88-.41-1.7-.61c-.81-.2-5.97-2.17-6.78-2.51-.81-.34-4.27-2.98-4.81-3.53-.54-.54-13.36-6.17-14.1-6.44-.75-.27-5.7-1.97-3.32-6.1 2.37-4.14 6.78-.81 9.76.27 2.98 1.08 15.73 5.49 16.07 5.56.34.07 7.63 4.29 9.36 4.2 1.73-.09 2.76-2.25 1.81-4.34-.95-2.09-6.62-5.76-7.5-6.58-.88-.81-7.46-4-8.54-4.81-1.08-.81-9.63-5.49-7.93-8.88 1.7-3.39 7.39-1.15 8.48-.81 1.08.34 13.7 6.98 14.37 7.12.68.14 4.14 2.71 5.22 3.73s6.93 7.04 8.54 7.12c1.61.08 2.03-1.9 2.17-2.92.14-1.02-.27-5.22-.75-6.58-.47-1.36-2.37-2.92-4.2-6.58s-2.1-9.22.34-9.7c2.44-.47 3.05 2.98 5.09 5.22.87.96 2.63 2.01 4.35 2.9C99.76 21.21 77.67 0 50.62 0S0 22.66 0 50.62c0 13.34 5.16 25.47 13.6 34.51.59-.03 1.1.06 1.38.35.93 1 1.27 2.26 1.29 2.31.03-.01 1.77-.67 3.18.61 1.42 1.29 4.29 4.15 5.47 5.83a49.77 49.77 0 0 0 5.64 2.87c-.37-1.14-.92-2.8-1.13-3.14-.34-.54.41-3.46 3.53-1.08 2.31 1.76 4.21 4.63 5.62 6.92 3.86.94 7.9 1.45 12.06 1.45 2.09 0 4.15-.13 6.17-.37-5.57-2.02-9.08-5.24-9.81-5.82Z" style="fill:#b1b1b1"/><circle cx="31.94" cy="33.38" r="16.67" style="fill:url(#a)"/></g></svg>