<svg xmlns="http://www.w3.org/2000/svg" id="Capa_2" data-name="Capa 2" viewBox="0 0 301.11 113.86"><defs><radialGradient id="Degradado_sin_nombre_18" cx="52.6" cy="60.03" r="52.62" data-name="Degradado sin nombre 18" fx="32.43" fy="60.03" gradientUnits="userSpaceOnUse"><stop offset="0" stop-color="#cbe3cd"/><stop offset="1" stop-color="#fff5a6"/></radialGradient><radialGradient id="Degradado_sin_nombre_34" cx="33.21" cy="42.11" r="17.33" data-name="Degradado sin nombre 34" fx="26.57" fy="42.11" gradientUnits="userSpaceOnUse"><stop offset="0" stop-color="#f7fbff"/><stop offset="1" stop-color="#f8f4c5" stop-opacity="0"/></radialGradient><style>.cls-1{fill:#e20613}.cls-2{fill:#fff}.cls-6{fill:#ffec00}</style></defs><g id="Capa_1-2" data-name="Capa 1"><path d="M173.57 15.7c-1.41 0-2.72-.9-3.17-2.31a3.33 3.33 0 0 1 2.14-4.2c.24-.08 6.06-1.95 12.83-2.73a3.346 3.346 0 0 1 3.7 2.94 3.34 3.34 0 0 1-2.94 3.7c-6.08.7-11.48 2.43-11.53 2.45-.34.11-.69.16-1.03.16Z" class="cls-1"/><path d="M195.73 12.71a3.338 3.338 0 0 1-2.79-5.17l.13-.19c1.63-2.49 4.66-7.11 10.3-7.34h.31c5.63 0 9.59 5.99 10.03 6.69.99 1.56.52 3.62-1.03 4.61-1.55.99-3.62.52-4.61-1.03-.97-1.51-3.03-3.58-4.39-3.58h-.05c-2.03.08-3.52 2.09-4.98 4.32l-.13.2c-.64.98-1.71 1.51-2.79 1.51Z" class="cls-6"/><path d="M220.89 14.28c-1.65 0-3.09-1.23-3.31-2.91a3.335 3.335 0 0 1 2.88-3.74l9.09-1.18c1.82-.25 3.5 1.05 3.74 2.88.24 1.83-1.05 3.5-2.88 3.74l-9.09 1.18c-.15.02-.29.03-.43.03Z" class="cls-1"/><path d="M297.77 30.55c-.49 0-.98-.11-1.45-.33-18.62-8.97-54.31-15.28-54.67-15.34a3.332 3.332 0 0 1-2.71-3.86c.32-1.82 2.05-3.04 3.86-2.71 1.5.26 36.96 6.53 56.42 15.9a3.341 3.341 0 0 1-1.45 6.35Z" class="cls-6"/><path d="M160.34 107.69c-3.04 0-5.98-.14-8.36-.52-15.8-2.49-20.2-13-21.42-19.05-1.86-9.19 1.33-20.24 6.81-23.64 1.56-.97 3.62-.49 4.6 1.08.97 1.57.49 3.62-1.08 4.6-2.18 1.35-5.35 8.88-3.78 16.64 1.07 5.31 4.7 12.01 15.92 13.77 8.1 1.27 24.59-.64 24.76-.66 1.84-.21 3.49 1.1 3.7 2.93a3.324 3.324 0 0 1-2.92 3.7c-.53.06-9.78 1.13-18.22 1.13Z" style="fill:#eb6608"/><path d="M48.85 106.23c-.99-.78-4.16-4.16-1.76-5.22 2.4-1.06 7.12 1.55 7.4 1.69.28.14 8.6 3.1 9.66 3.1s8.32-1.27 8.81-1.48c.49-.21.14-.71.14-.71s-2.61-.28-3.67-.28-7.33-2.54-8.96-4.16c-1.62-1.62-16.36-7.47-17.7-10.22-1.34-2.75.21-4.58 2.12-5.36 1.9-.78 7.05 1.48 9.94 3.38 2.89 1.9 10.01 5.15 10.72 5.36.71.21 9.17 2.47 10.65 2.19 1.48-.28 2.04-1.69 2.04-1.69s-.92-.42-1.76-.63c-.85-.21-6.21-2.26-7.05-2.61-.85-.35-4.44-3.1-5.01-3.67-.56-.56-13.89-6.42-14.67-6.7-.78-.28-5.92-2.04-3.46-6.35 2.47-4.3 7.05-.85 10.15.28 3.1 1.13 16.36 5.71 16.71 5.78.35.07 7.93 4.47 9.73 4.37 1.8-.09 2.87-2.35 1.88-4.51s-6.88-5.99-7.8-6.84c-.92-.85-7.76-4.16-8.88-5.01-1.13-.85-10.01-5.71-8.25-9.24 1.76-3.53 7.69-1.2 8.81-.85 1.13.35 14.24 7.26 14.95 7.4.71.14 4.3 2.82 5.43 3.88s7.2 7.32 8.88 7.4 2.12-1.97 2.26-3.03c.14-1.06-.28-5.43-.78-6.84-.49-1.41-2.47-3.03-4.37-6.84s-2.19-9.59.35-10.08c2.54-.49 3.17 3.1 5.29 5.43.9 1 2.73 2.09 4.53 3.02-1.47-27.76-24.44-49.82-52.57-49.82S0 30.96 0 60.03C0 73.9 5.37 86.52 14.14 95.92c.61-.03 1.15.06 1.43.36.97 1.04 1.33 2.35 1.34 2.4.03-.01 1.84-.7 3.31.63 1.48 1.34 4.46 4.31 5.68 6.07 1.88 1.11 3.84 2.11 5.86 2.98-.38-1.19-.95-2.91-1.18-3.27-.35-.56.42-3.6 3.67-1.13 2.4 1.83 4.38 4.82 5.85 7.19a52.895 52.895 0 0 0 18.96 1.12c-5.8-2.1-9.44-5.45-10.2-6.05Z" style="fill:url(#Degradado_sin_nombre_18)"/><circle cx="33.21" cy="42.11" r="17.33" style="fill:url(#Degradado_sin_nombre_34)"/><path d="M189.45 55.56c-5.01 5.38-12.31 6.41-17.19 3.14-6.01-4.03-9.61-13.47-9.21-22.12.35-7.44 1.82-14.26 1.55-19.55-.3-5.86-2.58-9.83-6.97-10.06-8.35-.45-16.91 13-16.91 13s-1.55-7.94-7.29-7.25c-10.3 1.24-13 14.01-13 14.01l-1.87-11.12c-6.93 5.66-14.38 7.82-14.38 7.82l.69 2.04c3.91-.77 4.85-.98 6.68 1.55 1.83 2.53 5.74 18.9 6.72 25.38.98 6.48-4.28 6.97-4.28 6.97l.65 3.06c8.55-3.79 18.5-5.26 18.5-5.26l-.33-2.65c-2.69.77-5.36.27-6.44-2.77-1.09-3.04-3.42-13.69-3.71-16.99-.51-5.77 2.41-13.08 7.04-13.79 4.09-.63 6.59 6.95 6.59 6.95-.37.5-2.03 7.59-2.03 13.05 0 14.68 5.24 16.38 6.83 16.38 2.07 0 6.14-1.32 6.14-9.18 0-10.47-5.09-22.73-5.09-22.73s3.58-8.19 9.53-9.21c5.95-1.02 4.22 14.86 4.03 18.54-1.02 19.51 8.84 29.9 20.21 30.68 11.37.77 17.15-6.72 17.15-6.72l-3.63-3.14Zm-48.22-3.42c-3.47-.98-2.06-16.77-2.06-16.77s1.12 2.33 1.82 6.18c.84 4.61 1.23 10.87.24 10.58Z" class="cls-2"/><path d="M196.4 40.6c-.12-4.79.09-11.7-1.1-16.22-1.07-4.03-6.87-5.92-10.04-5.87-10.32.17-15.22 4.87-15.05 8.59.17 3.73 2.66 5 4.07 4.97s4.28-.35 4.49-3.52c.21-3.18-2.62-4.21-2.62-4.21s1.4-2.58 6.35-2.8c6.21-.28 5.66 10.28 5.66 10.28-17.36 2.73-17.84 9.97-17.84 11.32s.66 8.32 7.18 8.32c8.87 0 11.7-6.76 11.7-6.76.1 4.45.86 5.63 4.42 5.59 3.55-.03 7.01-1.86 7.01-1.86v-2.42c-3.83 1.86-4.09-.59-4.21-5.42Zm-13.67 5.7c-3 0-3.69-3.42-3.69-4.94s.24-5.07 9.35-6.8c0 0 .14 5.76.14 6.63s-1.66 5.11-5.8 5.11ZM201.82 20.55l13.49-2.52-.38 7.11s4.9-6.83 11.32-6.42c6.42.41 9.17 4.14 8.56 9.15-1.1 9.01-4.02 13.55-4.04 21.29-.01 4.44 1.31 7.89 4.59 7.89 1.31 0 2.71-.83 3.93-2.96l2.93.38s-1 5.56-7.97 5.56-10.6-5.28-10.53-13.56 6.18-22.11-1.71-22.47c-2.1-.09-4.02 1.44-5.19 2.73-2.14 2.35-2.26 5.9-2.66 13.87-.38 7.57 4.24 6.18 4.24 6.18l-.1 2.38-15.81-.31.1-2.24s3.38.69 3.83-2.97c.45-3.66.66-17.43.55-18.81s-1-2.97-5.11-2.07l-.07-2.21Z" class="cls-2"/><path d="M252.82 22.48c-5.83.7-14.94 3.48-14.94 14.97s8.32 16.01 14.46 16.01 15.63-3.76 15.77-16.32c.14-12.56-12.04-15.05-15.29-14.66Zm-2.48 28.39c-4.33 0-4.21-8.63-4.14-10.15.07-1.52 2.15-15.08 8.9-15.39 1.1-.05 4.28.41 4.28 7.63 0 7.73-3.49 17.91-9.04 17.91ZM291.17 34.55s-4.35-4.87-11.18-4.87-8.56 5.28-8.56 8.01c0 7.83 12.08 10.94 12.08 16.95 0 5.52-13.18 5-11.56-8.35l-2.21-.21-2.59 12.15 2.17.35 1.17-3s3.45 5.63 10.7 5.63 9.97-4.18 9.97-8.7c0-7.45-12.8-12.63-12.8-17.39 0-3.83 11.94-4.28 11.56 8.11l2 .31 3.31-11.18-2.42-.86-1.66 3.07ZM214.49 69.97c1.75-.54 4.08-.35 4.34 2.01.19 1.68-1.12 13.69-.96 16.72.17 3.03.72 7.39 7.48 7.8s10.89-5.73 10.89-5.73l-.35 5.73 11.6-1.85v-2.1c-2.1.76-4.2-.38-3.98-3.15s1.66-22.49 1.66-22.49l-12.2.73-.19 2.23s1.11.06 2.13.03c1.02-.03 2.07.61 2.04 2.17s-.29 6.15-.73 11.88c-.45 5.73-4.01 7.55-6.53 7.55s-3.98-1.37-3.98-4.94 1.27-20.01 1.27-20.01l-12.49.99v2.42ZM253.85 61.54l-1.78 16.37h2.26s.35-7.5 7.18-7.93c4.12-.26 7.69.24 7.69.24L250.09 92.5l-.52 4.24s20.1.83 26.56 4.88l2.46-15.58-2.26-.16s-.56 9.55-10.11 9.2c-5.35-.2-7.81-.55-7.81-.55l20.18-23.63v-3.53s-13.28-.55-17.05-1.03-5.87-1.63-5.55-4.6l-2.14-.2ZM161.96 87.41c0-2.6-.52-24.52-.52-24.52l-9.08 1.86.07 1.93s.92-.12 2-.12 2.4.74 2.4 2.33.12 5.59.12 5.59c-6.33-5.05-14.08-.07-14.08 7.27s3.76 11.33 8.76 11.33 5.94-2.52 5.94-2.52l-.12 3.17 8.17-1.48v-2.1c-1.61.45-3.66-.12-3.66-2.72Zm-9.37 3.55c-2.23 0-4.97-2.42-4.97-9.14s3.77-7.23 4.56-7.23c1.43 0 5.19 1.18 5.19 8.35s-2.55 8.03-4.78 8.03ZM176.56 90.43c-4.7 0-5.07-5.94-5.07-7.92l12.94-.49s.32-10.32-8.56-10.32-9.28 8.98-9.28 11.16 1.78 9.87 9.9 9.87c7.37 0 8.96-7.47 8.96-7.47l-2.42-.25s-1.76 5.42-6.46 5.42Zm-.59-16.51c4.38 0 3.93 6.26 3.93 6.26l-8.41.35s.1-6.61 4.48-6.61Z" class="cls-2"/><path d="M248.8 101.25s-2.26 4.49-13.06 4.49-28.29-7.55-28.29-7.55c3.22-8.41.73-30.87.73-32.52s-.29-8.6 4.11-8.6 4.36 5.29 4.36 5.29 3.85-.35 3.85-3.44c0-4.3-5.96-5.48-7.71-5.48-11.21 0-15.77 7.49-13.19 24.82 1.35 9.07.83 17.9.83 17.9-11.12-1.94-13.57 4.59-13.57 6.72s.35 7.07 8.51 7.07 10.58-6.94 10.58-6.94 2.7 1.2 5.86 2.84c6.22 3.22 16.12 8.03 23.96 8.03 14.94 0 13.03-12.61 13.03-12.61Zm-54.42 4.84c-4.23.63-4.47-7.61 5.16-5.72 0 0-.69 5.06-5.16 5.72Z" class="cls-2"/></g></svg>