<svg xmlns="http://www.w3.org/2000/svg" id="Capa_2" data-name="Capa 2" viewBox="0 0 543.4 205.48"><defs><radialGradient id="Degradado_sin_nombre_15" cx="59.94" cy="75.99" r="31.28" data-name="Degradado sin nombre 15" fx="47.95" fy="75.99" gradientUnits="userSpaceOnUse"><stop offset="0" stop-color="#fff"/><stop offset="1" stop-color="#fff" stop-opacity="0"/></radialGradient><style>.cls-2{fill:#575756}.cls-3{fill:#e20613}.cls-6{fill:#ffec00}</style></defs><g id="Capa_1-2" data-name="Capa 1"><path d="M88.16 191.71c-1.78-1.4-7.51-7.51-3.18-9.42 4.33-1.91 12.85 2.8 13.36 3.05.51.25 15.52 5.6 17.43 5.6s15.02-2.29 15.91-2.67c.89-.38.25-1.27.25-1.27s-4.71-.51-6.62-.51-13.23-4.58-16.16-7.51c-2.93-2.93-29.52-13.49-31.94-18.45-2.42-4.96.38-8.27 3.82-9.67 3.44-1.4 12.72 2.67 17.94 6.11 5.22 3.44 18.07 9.29 19.34 9.67 1.27.38 16.54 4.45 19.21 3.94 2.67-.51 3.69-3.05 3.69-3.05s-1.65-.76-3.18-1.15c-1.53-.38-11.2-4.07-12.72-4.71-1.53-.64-8.02-5.6-9.03-6.62-1.02-1.02-25.07-11.58-26.47-12.09-1.4-.51-10.69-3.69-6.24-11.45 4.45-7.76 12.72-1.53 18.32.51s29.52 10.31 30.16 10.43c.64.13 14.32 8.06 17.56 7.89 3.24-.17 5.17-4.23 3.39-8.14s-12.42-10.82-14.08-12.34c-1.65-1.53-14-7.51-16.03-9.03-2.04-1.53-18.07-10.31-14.89-16.67 3.18-6.36 13.87-2.16 15.91-1.53 2.04.64 25.7 13.11 26.98 13.36 1.27.25 7.76 5.09 9.8 7 2.04 1.91 13 13.22 16.03 13.36s3.82-3.56 4.07-5.47c.25-1.91-.51-9.8-1.4-12.34-.89-2.54-4.45-5.47-7.89-12.34-3.44-6.87-3.94-17.31.64-18.2 4.58-.89 5.73 5.6 9.54 9.8 1.63 1.8 4.93 3.77 8.17 5.45-2.65-50.1-44.1-89.91-94.86-89.91S0 55.87 0 108.34c0 25.04 9.69 47.8 25.52 64.77 1.11-.05 2.07.1 2.58.66 1.75 1.87 2.39 4.23 2.42 4.33.05-.02 3.32-1.26 5.97 1.14 2.67 2.41 8.05 7.78 10.26 10.95 3.4 2.01 6.93 3.81 10.58 5.39-.69-2.15-1.72-5.25-2.13-5.9-.64-1.02.76-6.49 6.62-2.04 4.34 3.3 7.91 8.7 10.55 12.98A95.324 95.324 0 0 0 95 203.34c3.92 0 7.78-.24 11.58-.7-10.46-3.79-17.04-9.84-18.42-10.92Z" style="fill:#b1b1b1"/><circle cx="59.94" cy="75.99" r="31.28" style="fill:url(#Degradado_sin_nombre_15)"/><path d="M341.88 100.26c-9.04 9.7-22.21 11.57-31.02 5.66-10.84-7.27-17.34-24.31-16.61-39.92.63-13.43 3.29-25.74 2.79-35.29-.55-10.58-4.65-17.73-12.57-18.16C269.4 11.74 253.96 36 253.96 36s-2.79-14.34-13.16-13.09c-18.58 2.24-23.45 25.29-23.45 25.29l-3.38-20.07c-12.5 10.22-25.95 14.12-25.95 14.12l1.25 3.68c7.06-1.4 8.75-1.76 12.06 2.79 3.31 4.56 10.37 34.11 12.13 45.8 1.76 11.69-7.72 12.57-7.72 12.57l1.18 5.51c15.44-6.84 33.38-9.48 33.38-9.48l-.59-4.78c-4.85 1.4-9.66.49-11.62-5-1.96-5.49-6.17-24.7-6.69-30.65-.92-10.42 4.35-23.6 12.71-24.89C241.48 36.66 246 50.35 246 50.35c-.66.89-3.66 13.7-3.66 23.54 0 26.48 9.46 29.56 12.33 29.56 3.73 0 11.07-2.39 11.07-16.57 0-18.9-9.19-41.02-9.19-41.02s6.47-14.78 17.2-16.61c10.73-1.84 7.62 26.82 7.28 33.45-1.84 35.21 15.95 53.96 36.46 55.36 20.51 1.4 30.95-12.13 30.95-12.13l-6.54-5.66Zm-87.02-6.16c-6.27-1.77-3.72-30.26-3.72-30.26s2.02 4.2 3.29 11.16c1.52 8.32 2.22 19.61.43 19.1Z" class="cls-2"/><path d="M354.43 73.28c-.21-8.65.17-21.12-1.99-29.27-1.93-7.27-12.4-10.68-18.12-10.59-18.62.31-27.47 8.78-27.15 15.51.31 6.73 4.8 9.03 7.35 8.97s7.72-.62 8.1-6.35c.37-5.73-4.73-7.6-4.73-7.6s2.53-4.65 11.46-5.04c11.21-.5 10.21 18.56 10.21 18.56-31.33 4.92-32.2 18-32.2 20.43s1.18 15.01 12.95 15.01c16.01 0 21.11-12.21 21.11-12.21.19 8.03 1.56 10.15 7.97 10.09 6.42-.06 12.64-3.36 12.64-3.36v-4.36c-6.91 3.36-7.38-1.07-7.6-9.78Zm-24.66 10.27c-5.42 0-6.66-6.17-6.66-8.91s.44-9.16 16.88-12.27c0 0 .25 10.4.25 11.96s-2.99 9.22-10.46 9.22ZM364.21 37.09l24.35-4.55-.69 12.83s8.84-12.33 20.43-11.58c11.58.75 16.55 7.46 15.45 16.5-1.99 16.26-7.25 24.45-7.29 38.43-.02 8.01 2.37 14.25 8.28 14.25 2.37 0 4.9-1.49 7.1-5.34l5.29.69s-1.81 10.03-14.39 10.03-19.12-9.53-19-24.48c.12-14.95 11.15-39.9-3.08-40.55-3.79-.17-7.25 2.59-9.37 4.92-3.86 4.23-4.07 10.65-4.8 25.04-.69 13.65 7.66 11.15 7.66 11.15l-.19 4.3-28.52-.56.19-4.05s6.1 1.25 6.91-5.36 1.18-31.45 1-33.94c-.19-2.49-1.81-5.36-9.22-3.74l-.12-3.99Z" class="cls-2"/><path d="M456.25 40.56c-10.51 1.26-26.96 6.27-26.96 27.01s15.01 28.9 26.1 28.9 28.21-6.79 28.46-29.46-21.74-27.15-27.6-26.45Zm-4.47 51.25c-7.81 0-7.6-15.57-7.47-18.31.12-2.74 3.89-27.22 16.07-27.78 1.99-.09 7.72.75 7.72 13.76 0 13.95-6.3 32.32-16.32 32.32ZM525.46 62.35s-7.85-8.78-20.18-8.78-15.45 9.53-15.45 14.45c0 14.14 21.8 19.74 21.8 30.58 0 9.97-23.79 9.03-20.86-15.07l-3.99-.37-4.67 21.92 3.92.62 2.12-5.42s6.23 10.15 19.31 10.15 18-7.54 18-15.69c0-13.45-23.11-22.79-23.11-31.39 0-6.91 21.55-7.72 20.86 14.64l3.61.56 5.98-20.18-4.36-1.56-2.99 5.54ZM387.08 126.27c3.16-.98 7.36-.64 7.83 3.63.34 3.03-2.03 24.71-1.72 30.17s1.31 13.34 13.5 14.08 19.66-10.35 19.66-10.35l-.63 10.35 20.93-3.33v-3.79c-3.79 1.38-7.59-.69-7.19-5.69.4-5 2.99-40.59 2.99-40.59l-22.02 1.32-.34 4.02s2.01.11 3.85.06c1.84-.06 3.74 1.09 3.68 3.91-.06 2.82-.52 11.1-1.32 21.44s-7.24 13.62-11.79 13.62-7.19-2.47-7.19-8.91 2.3-36.1 2.3-36.1l-22.54 1.78v4.37ZM458.11 111.05l-3.22 29.55h4.08s.63-13.54 12.95-14.31c7.44-.47 13.88.43 13.88.43l-34.48 40.21-.93 7.65s36.27 1.5 47.93 8.8l4.44-28.12-4.08-.29s-1.01 17.24-18.24 16.6c-9.66-.36-14.09-1-14.09-1l36.41-42.64v-6.37s-23.97-1-30.76-1.86-10.59-2.93-10.02-8.3l-3.86-.36Z" class="cls-2"/><path d="M313.22 28.33c-2.54 0-4.9-1.62-5.73-4.17a6.02 6.02 0 0 1 3.87-7.59c.44-.14 10.94-3.52 23.16-4.92a6.024 6.024 0 1 1 1.37 11.97c-10.97 1.26-20.71 4.38-20.81 4.41-.62.2-1.24.29-1.86.29Z" class="cls-3"/><path d="M353.23 22.93a6.03 6.03 0 0 1-5.03-9.33l.23-.35C351.37 8.76 356.84.41 367.02.01c.19 0 .37-.01.56-.01 10.17 0 17.31 10.81 18.1 12.06a6.023 6.023 0 0 1-10.18 6.44c-1.75-2.72-5.47-6.46-7.92-6.46h-.09c-3.67.14-6.34 3.77-8.98 7.8l-.24.36a6.029 6.029 0 0 1-5.04 2.72Z" class="cls-6"/><path d="M421.02 16.86c.43 3.3-1.9 6.32-5.2 6.75l-16.4 2.12c-.26.04-.52.05-.78.05-2.98 0-5.57-2.21-5.96-5.25-.43-3.3 1.9-6.32 5.2-6.75l16.4-2.12c3.29-.45 6.32 1.9 6.75 5.2" class="cls-3"/><path d="M537.37 55.12c-.88 0-1.76-.19-2.61-.6-33.61-16.18-98.02-27.57-98.66-27.68a6.022 6.022 0 0 1-4.9-6.97c.57-3.28 3.69-5.48 6.97-4.9 2.71.47 66.69 11.79 101.81 28.69 3 1.44 4.26 5.04 2.81 8.04a6.033 6.033 0 0 1-5.43 3.41Z" class="cls-6"/><path d="M289.35 194.34c-5.49 0-10.78-.25-15.09-.93-28.51-4.49-36.46-23.46-38.66-34.37-3.35-16.59 2.4-36.53 12.29-42.66a6.022 6.022 0 0 1 8.29 1.95 6.02 6.02 0 0 1-1.95 8.29c-3.93 2.44-9.65 16.03-6.83 30.03 1.93 9.58 8.49 21.67 28.73 24.86 14.61 2.3 44.38-1.15 44.68-1.18 3.32-.38 6.3 1.98 6.68 5.28.39 3.3-1.97 6.3-5.28 6.68-.95.11-17.64 2.05-32.87 2.05Z" style="fill:#eb6608"/><path d="M292.29 157.74c0-4.69-.94-44.25-.94-44.25l-16.39 3.35.13 3.48s1.65-.22 3.62-.22 4.33 1.34 4.33 4.2.22 10.09.22 10.09c-11.43-9.11-25.41-.13-25.41 13.13s6.79 20.45 15.81 20.45 10.72-4.55 10.72-4.55l-.22 5.72 14.74-2.68v-3.8c-2.9.8-6.61-.22-6.61-4.91Zm-16.91 6.41c-4.02 0-8.97-4.37-8.97-16.5s6.81-13.05 8.22-13.05c2.59 0 9.37 2.13 9.37 15.06s-4.6 14.49-8.62 14.49ZM318.63 163.19c-8.48 0-9.15-10.72-9.15-14.29l23.35-.89s.58-18.62-15.45-18.62-16.74 16.21-16.74 20.14 3.22 17.82 17.86 17.82c13.31 0 16.16-13.49 16.16-13.49l-4.38-.45s-3.17 9.78-11.65 9.78Zm-1.07-29.79c7.9 0 7.1 11.3 7.1 11.3l-15.18.63s.18-11.92 8.08-11.92ZM448.99 182.72s-4.08 8.11-23.57 8.11-51.05-13.62-51.05-13.62c5.81-15.18 1.32-55.71 1.32-58.7s-.52-15.52 7.42-15.52 7.88 9.54 7.88 9.54 6.96-.63 6.96-6.21c0-7.76-10.75-9.89-13.91-9.89-20.24 0-28.46 13.51-23.8 44.78 2.44 16.38 1.49 32.31 1.49 32.31-20.06-3.51-24.49 8.28-24.49 12.13s.63 12.76 15.35 12.76 19.09-12.53 19.09-12.53 4.87 2.16 10.58 5.12c11.23 5.81 29.09 14.49 43.23 14.49 26.96 0 23.51-22.77 23.51-22.77Zm-98.21 8.73c-7.63 1.13-8.07-13.74 9.31-10.32 0 0-1.24 9.12-9.31 10.32Z" class="cls-2"/></g></svg>