<svg xmlns="http://www.w3.org/2000/svg" data-name="Capa 2" viewBox="0 0 71.58 72.14"><path d="M52.92 43.12c-.88-.48-5.21-2.82-6.02-3.15-.81-.33-1.4-.5-2.04.37-.63.87-2.43 2.83-2.97 3.41-.55.58-1.07.64-1.96.15-.88-.48-3.73-1.54-7.04-4.72-2.58-2.48-4.27-5.48-4.76-6.4-.49-.92 0-1.39.46-1.81.42-.39.94-1.02 1.41-1.52.47-.51.63-.87.95-1.46.32-.59.19-1.12-.02-1.57-.21-.46-1.84-4.94-2.51-6.76-.68-1.82-1.44-1.55-1.96-1.57-.52-.02-1.12-.12-1.72-.14-.6-.02-1.58.17-2.43 1.03-.86.87-3.26 2.95-3.42 7.36-.17 4.41 2.89 8.8 3.31 9.41.43.62 5.83 10.18 14.81 14.12 8.99 3.93 9.03 2.74 10.68 2.65 1.65-.09 5.39-1.97 6.22-4.04.83-2.07.89-3.86.68-4.24-.21-.38-.8-.63-1.68-1.11ZM36.44 0C17.03 0 1.3 15.73 1.3 35.14c0 6.64 1.84 12.85 5.04 18.15L0 72.14l19.45-6.23a35.034 35.034 0 0 0 16.98 4.37c19.41 0 35.14-15.73 35.14-35.14S55.85 0 36.44 0Z" data-name="Capa 1" style="fill:#fff;fill-rule:evenodd"/></svg>