<svg xmlns="http://www.w3.org/2000/svg" data-name="Capa 2" viewBox="0 0 83.57 83.32"><path d="M38.81 0h5.95c6.37 0 13.62 2.63 21.75 7.9 6.13 4.78 10.57 10.3 13.33 16.57 2.48 5.97 3.73 11 3.73 15.11v3.44c0 9.24-3.79 18.39-11.38 27.46-8.8 8.56-19.02 12.84-30.66 12.84-14.53 0-26.4-6.76-35.61-20.29C1.97 55.74 0 48.57 0 41.52c0-11.61 4.78-22.08 14.34-31.39C23.25 3.38 31.41 0 38.81 0ZM19.52 36.09v12.88c0 7.02 2.23 11.71 6.68 14.06 2 1.13 8.43 1.55 19.28 1.26 8.32 0 13.1-.9 14.34-2.71 2.81-2.24 4.21-5.95 4.21-11.14V33.87c0-6.53-2.31-10.82-6.93-12.84l-3.08-1.01-3.12-.24H32.87c-6.43 0-10.72 3.13-12.88 9.4-.32 1.92-.49 4.23-.49 6.93Zm14.1-12.35h17.3c6.26 0 9.4 3.29 9.4 9.88v17.54c-.84 6.1-3.39 9.15-7.66 9.15h-7.17c-3.35 0-6.89.08-10.61.24-6.21 0-9.84-1.97-10.9-5.91-.32-2.19-.49-5.48-.49-9.88v-5.47c0-8.24.66-12.35 1.98-12.35 1.32-2.13 4.04-3.2 8.14-3.2Zm-3.2 18.55c0 5.32 3.05 9.02 9.15 11.1h4.94c5.91-2.13 8.87-5.91 8.87-11.34v-.53c0-3.08-1.57-5.95-4.7-8.63-2.13-1.48-4.35-2.23-6.64-2.23h-.24c-5.1 0-8.66 2.63-10.65 7.9-.27.35-.51 1.59-.73 3.73Zm11.38-7.7h.24c3.56 0 5.95 1.9 7.17 5.71.16.22.24.8.24 1.74-.78 5.1-3.25 7.66-7.41 7.66-3.29 0-5.68-1.65-7.17-4.94-.22-.27-.39-1.09-.53-2.47.59-5.13 3.08-7.7 7.45-7.7Zm9.36-4.17c.73 1.65 1.65 2.47 2.75 2.47s2.01-.82 2.71-2.47c-.38-2-1.38-3-3-3-1.65.51-2.47 1.51-2.47 3Z" data-name="Capa 1" style="fill:#fff"/></svg>