<svg xmlns="http://www.w3.org/2000/svg" data-name="Capa 2" viewBox="0 0 83.57 83.57"><path d="M40.53 0h2.51C53.3 0 63.01 4.36 72.19 13.08c6.45 7.83 10 14.91 10.65 21.26.49 3 .73 4.9.73 5.71v3.44c0 5.56-1.89 12-5.67 19.31-5.51 9.01-13.35 15.28-23.52 18.79-5.16 1.32-9.19 1.98-12.11 1.98h-.97c-10.66 0-20.55-4.29-29.68-12.87C3.87 62.11 0 52.13 0 40.77v-.49c0-.38.08-.7.24-.97 0-.19-.08-.28-.24-.28 1.05-8.04 3.2-14.55 6.44-19.51C11.57 11.17 19.47 5.24 30.16 1.7 34.15.57 37.61 0 40.52 0Zm-5.67 26.68.24 7.65c0 .24-.24.5-.73.77h-4.21v8.62h4.21c.24 0 .49.26.73.77v21.26l.12 1.5h8.79v-23c.05-.35.22-.53.49-.53h7.17c.32 0 .74-2.71 1.26-8.14v-.49h-8.42c-.32 0-.49-.16-.49-.49v-5.95c0-2.54 1.48-3.94 4.45-4.21h4.94v-7.41c0-.49-1.73-.73-5.18-.73h-1.26c-5.7 0-9.41 2.13-11.13 6.4-.32.89-.65 2.21-.97 3.97Z" data-name="Capa 1" style="fill:#fff"/></svg>